<?xml version="1.0" encoding="UTF-8" standalone="no"?>
<!-- Created with Inkscape (http://www.inkscape.org/) -->

<svg
   version="1.1"
   id="svg2"
   xml:space="preserve"
   width="816"
   height="1056"
   viewBox="0 0 816 1056"
   sodipodi:docname="copyright.svg"
   inkscape:version="1.1.2 (0a00cf5339, 2022-02-04)"
   xmlns:inkscape="http://www.inkscape.org/namespaces/inkscape"
   xmlns:sodipodi="http://sodipodi.sourceforge.net/DTD/sodipodi-0.dtd"
   xmlns="http://www.w3.org/2000/svg"
   xmlns:svg="http://www.w3.org/2000/svg"><defs
     id="defs6"><clipPath
       clipPathUnits="userSpaceOnUse"
       id="clipPath24"><path
         d="m 45,747 h 28.5 v 18 H 45 Z"
         id="path22" /></clipPath><clipPath
       clipPathUnits="userSpaceOnUse"
       id="clipPath34"><path
         d="M 0,0 H 612 V 792 H 0 Z"
         id="path32" /></clipPath></defs><sodipodi:namedview
     id="namedview4"
     pagecolor="#ffffff"
     bordercolor="#666666"
     borderopacity="1.0"
     inkscape:pageshadow="2"
     inkscape:pageopacity="0.0"
     inkscape:pagecheckerboard="0"
     showgrid="false"
     inkscape:zoom="0.79924242"
     inkscape:cx="408.51185"
     inkscape:cy="528.6256"
     inkscape:window-width="1920"
     inkscape:window-height="1016"
     inkscape:window-x="0"
     inkscape:window-y="27"
     inkscape:window-maximized="1"
     inkscape:current-layer="g106" /><g
     id="g8"
     inkscape:groupmode="layer"
     inkscape:label="Copyright"
     transform="matrix(1.3333333,0,0,1.3333333,0,2.64e-5)"><g
       id="g10"><text
         transform="translate(562.43999,760.7551)"
         style="font-variant:normal;font-weight:200;font-size:15px;font-family:'DejaVu Sans Light';-inkscape-font-specification:DejaVuSans-ExtraLight;writing-mode:lr-tb;fill:#444142;fill-opacity:1;fill-rule:nonzero;stroke:none"
         id="text14"><tspan
           x="0 7.2600002 13.89"
           y="0"
           sodipodi:role="line"
           id="tspan12">375</tspan></text><path
         d="m 45,747 h 28.5 v 18 H 45 Z"
         style="fill:#ffffff;fill-opacity:1;fill-rule:nonzero;stroke:none"
         id="path16" /></g><g
       id="g18"><g
         id="g20"
         clip-path="url(#clipPath24)"><g
           id="g26"><g
             id="g28"><g
               id="g30"
               clip-path="url(#clipPath34)"><g
                 id="g36"><path
                   d="M 72.719,765 H 45.781 C 45.352,765 45,764.648 45,764.219 v -1.547 c 0,-0.43 0.352,-0.781 0.781,-0.781 h 26.938 c 0.429,0 0.781,0.351 0.781,0.781 v 1.547 c 0,0.429 -0.352,0.781 -0.781,0.781"
                   style="fill:#ee2922;fill-opacity:1;fill-rule:nonzero;stroke:none"
                   id="path38" /><path
                   d="M 72.461,761.477 H 46.039 c -0.57,0 -1.039,-0.469 -1.039,-1.039 v -8.876 c 0,-0.57 0.469,-1.039 1.039,-1.039 h 26.422 c 0.57,0 1.039,0.469 1.039,1.039 v 8.876 c 0,0.57 -0.469,1.039 -1.039,1.039"
                   style="fill:#1e59ae;fill-opacity:1;fill-rule:nonzero;stroke:none"
                   id="path40" /><path
                   d="m 72.406,759.941 c -0.199,-0.394 -3.633,-7.101 -3.918,-7.656 -0.281,-0.551 -0.492,-0.867 -1.414,-0.867 H 46.668 c 0,0 -0.609,1.613 -0.688,1.801 -0.078,0.191 0.082,0.304 0.215,0.304 h 2.34 c 0.699,0 0.711,0.747 0.563,1.18 -0.149,0.434 -2.246,5.879 -2.246,5.879 h 3.382 c 0.192,0 0.36,-0.09 0.465,-0.352 0.11,-0.257 1.723,-4.496 1.977,-5.144 0.254,-0.648 0.508,-1.563 1.695,-1.563 h 10.551 c 0.512,0 0.648,0.297 0.851,0.653 0.231,0.398 1.758,3.144 1.895,3.394 0.086,0.184 0.059,0.45 -0.281,0.45 H 65.27 c 0,0 -0.86,2.234 -0.887,2.304 -0.094,0.258 0.043,0.258 0.285,0.258 h 7.449 c 0.516,0 0.492,-0.246 0.289,-0.641"
                   style="fill:#ffffff;fill-opacity:1;fill-rule:nonzero;stroke:none"
                   id="path42" /><path
                   d="m 62.332,757.52 c 0.191,-0.5 0.129,-1.219 -0.465,-1.563 -0.594,-0.352 -2.742,-1.191 -3.183,-1.402 C 58.309,754.379 58.578,754 58.578,754 h -3.973 c 0,0 -0.136,0.309 -0.339,0.891 -0.231,0.664 0.464,0.921 0.593,0.976 0.133,0.059 3.321,1.551 3.633,1.715 0.238,0.125 0.086,0.516 -0.25,0.523 -0.332,0.004 -6.164,0 -6.164,0 0,0 -0.82,2.153 -0.859,2.262 -0.039,0.113 -0.008,0.215 0.121,0.215 H 60 c 0.719,0 1.316,-0.457 1.504,-0.914 0.191,-0.457 0.637,-1.648 0.828,-2.148"
                   style="fill:#ffffff;fill-opacity:1;fill-rule:nonzero;stroke:none"
                   id="path44" /><path
                   d="m 65.266,754.32 c -0.231,-0.363 -0.301,-0.316 -0.903,-0.316 -0.508,0 -2.113,0 -2.113,0 l -0.301,0.762 c -0.082,0.234 -0.246,0.55 0.098,0.742 0.785,0.433 1.074,1.176 0.855,1.879 -0.285,0.902 -0.687,1.906 -0.828,2.324 -0.172,0.516 -0.808,0.871 -0.808,0.871 h 2.48 l 2.055,-5.344"
                   style="fill:#ffffff;fill-opacity:1;fill-rule:nonzero;stroke:none"
                   id="path46" /><path
                   d="M 72.719,750.109 H 45.781 c -0.429,0 -0.781,-0.351 -0.781,-0.781 v -1.547 C 45,747.352 45.352,747 45.781,747 h 26.938 c 0.429,0 0.781,0.352 0.781,0.781 v 1.547 c 0,0.43 -0.352,0.781 -0.781,0.781"
                   style="fill:#ee2922;fill-opacity:1;fill-rule:nonzero;stroke:none"
                   id="path48" /><path
                   d="m 46.281,764.027 v -0.941 h -0.32 v -0.219 h 0.898 v 0.219 h -0.316 v 0.941"
                   style="fill:#ffffff;fill-opacity:1;fill-rule:nonzero;stroke:none"
                   id="path50" /><path
                   d="m 46.969,764.027 v -1.16 h 0.726 v 0.219 H 47.23 v 0.234 h 0.399 v 0.219 H 47.23 v 0.266 h 0.485 v 0.222"
                   style="fill:#ffffff;fill-opacity:1;fill-rule:nonzero;stroke:none"
                   id="path52" /><path
                   d="m 48.293,764.047 c -0.07,0 -0.141,-0.012 -0.207,-0.039 -0.063,-0.024 -0.121,-0.063 -0.172,-0.113 -0.047,-0.051 -0.086,-0.11 -0.113,-0.184 -0.031,-0.074 -0.043,-0.16 -0.043,-0.258 0,-0.098 0.012,-0.18 0.043,-0.258 0.031,-0.074 0.07,-0.136 0.117,-0.191 0.051,-0.051 0.109,-0.09 0.176,-0.117 0.066,-0.028 0.136,-0.043 0.211,-0.043 0.074,0 0.14,0.015 0.199,0.047 0.058,0.031 0.109,0.066 0.148,0.105 l -0.136,0.168 c -0.032,-0.027 -0.063,-0.051 -0.098,-0.066 -0.031,-0.02 -0.066,-0.028 -0.109,-0.028 -0.039,0 -0.075,0.008 -0.11,0.028 -0.035,0.015 -0.066,0.043 -0.094,0.074 -0.023,0.031 -0.043,0.07 -0.058,0.117 -0.016,0.047 -0.024,0.098 -0.024,0.156 0,0.117 0.028,0.211 0.079,0.278 0.05,0.066 0.117,0.097 0.203,0.097 0.047,0 0.09,-0.008 0.129,-0.031 0.035,-0.019 0.07,-0.047 0.097,-0.074 l 0.137,0.16 c -0.094,0.113 -0.219,0.172 -0.375,0.172"
                   style="fill:#ffffff;fill-opacity:1;fill-rule:nonzero;stroke:none"
                   id="path54" /><path
                   d="m 48.75,764.027 v -1.16 h 0.258 v 0.445 h 0.402 v -0.445 h 0.262 v 1.16 H 49.41 v -0.484 h -0.402 v 0.484"
                   style="fill:#ffffff;fill-opacity:1;fill-rule:nonzero;stroke:none"
                   id="path56" /><path
                   d="m 49.805,764.027 v -1.16 h 0.269 l 0.301,0.574 0.113,0.258 h 0.008 c -0.008,-0.062 -0.012,-0.129 -0.019,-0.207 -0.008,-0.074 -0.012,-0.148 -0.012,-0.215 v -0.41 h 0.246 v 1.16 h -0.266 l -0.304,-0.578 -0.114,-0.254 H 50.02 c 0.007,0.063 0.015,0.133 0.019,0.207 0.012,0.075 0.016,0.145 0.016,0.211 v 0.414"
                   style="fill:#ffffff;fill-opacity:1;fill-rule:nonzero;stroke:none"
                   id="path58" /><path
                   d="m 51.344,763.82 c 0.078,0 0.14,-0.035 0.187,-0.101 0.047,-0.067 0.071,-0.16 0.071,-0.278 0,-0.117 -0.024,-0.207 -0.071,-0.273 -0.047,-0.063 -0.109,-0.098 -0.187,-0.098 -0.082,0 -0.145,0.035 -0.192,0.098 -0.047,0.066 -0.066,0.156 -0.066,0.273 0,0.118 0.019,0.211 0.066,0.278 0.047,0.066 0.11,0.101 0.192,0.101 m 0,0.227 c -0.078,0 -0.153,-0.016 -0.215,-0.043 -0.067,-0.027 -0.121,-0.066 -0.168,-0.117 -0.047,-0.055 -0.082,-0.117 -0.106,-0.192 -0.027,-0.074 -0.039,-0.16 -0.039,-0.254 0,-0.093 0.012,-0.179 0.039,-0.253 0.024,-0.075 0.059,-0.137 0.106,-0.188 0.047,-0.051 0.101,-0.09 0.168,-0.113 0.062,-0.028 0.137,-0.043 0.215,-0.043 0.074,0 0.148,0.015 0.211,0.043 0.066,0.023 0.121,0.066 0.168,0.117 0.047,0.051 0.082,0.109 0.105,0.184 0.027,0.074 0.039,0.16 0.039,0.253 0,0.094 -0.012,0.18 -0.039,0.254 -0.023,0.075 -0.058,0.137 -0.105,0.192 -0.047,0.051 -0.102,0.09 -0.168,0.117 -0.063,0.027 -0.137,0.043 -0.211,0.043"
                   style="fill:#ffffff;fill-opacity:1;fill-rule:nonzero;stroke:none"
                   id="path60" /><path
                   d="m 51.973,764.027 v -1.16 h 0.257 v 0.938 h 0.461 v 0.222"
                   style="fill:#ffffff;fill-opacity:1;fill-rule:nonzero;stroke:none"
                   id="path62" /><path
                   d="m 53.219,763.82 c 0.078,0 0.14,-0.035 0.187,-0.101 0.047,-0.067 0.071,-0.16 0.071,-0.278 0,-0.117 -0.024,-0.207 -0.071,-0.273 -0.047,-0.063 -0.109,-0.098 -0.187,-0.098 -0.078,0 -0.141,0.035 -0.188,0.098 -0.047,0.066 -0.07,0.156 -0.07,0.273 0,0.118 0.023,0.211 0.07,0.278 0.047,0.066 0.11,0.101 0.188,0.101 m 0,0.227 c -0.078,0 -0.149,-0.016 -0.215,-0.043 -0.063,-0.027 -0.117,-0.066 -0.164,-0.117 -0.047,-0.055 -0.082,-0.117 -0.11,-0.192 -0.023,-0.074 -0.039,-0.16 -0.039,-0.254 0,-0.093 0.016,-0.179 0.039,-0.253 0.028,-0.075 0.063,-0.137 0.11,-0.188 0.047,-0.051 0.101,-0.09 0.164,-0.113 0.066,-0.028 0.137,-0.043 0.215,-0.043 0.078,0 0.148,0.015 0.215,0.043 0.062,0.023 0.117,0.066 0.164,0.117 0.047,0.051 0.082,0.109 0.109,0.184 0.023,0.074 0.039,0.16 0.039,0.253 0,0.094 -0.016,0.18 -0.039,0.254 -0.027,0.075 -0.062,0.137 -0.109,0.192 -0.047,0.051 -0.102,0.09 -0.164,0.117 -0.067,0.027 -0.137,0.043 -0.215,0.043"
                   style="fill:#ffffff;fill-opacity:1;fill-rule:nonzero;stroke:none"
                   id="path64" /><path
                   d="m 54.387,764.047 c -0.078,0 -0.157,-0.012 -0.223,-0.039 -0.07,-0.024 -0.129,-0.063 -0.18,-0.113 -0.05,-0.051 -0.089,-0.11 -0.121,-0.184 -0.031,-0.074 -0.043,-0.16 -0.043,-0.258 0,-0.098 0.016,-0.18 0.043,-0.258 0.032,-0.074 0.071,-0.136 0.121,-0.191 0.055,-0.051 0.114,-0.09 0.184,-0.117 0.066,-0.028 0.141,-0.043 0.219,-0.043 0.082,0 0.156,0.015 0.215,0.047 0.062,0.031 0.109,0.066 0.148,0.105 l -0.137,0.168 c -0.031,-0.027 -0.062,-0.051 -0.093,-0.066 -0.036,-0.02 -0.075,-0.028 -0.125,-0.028 -0.047,0 -0.086,0.008 -0.125,0.028 -0.04,0.015 -0.071,0.043 -0.098,0.074 -0.027,0.031 -0.047,0.07 -0.063,0.117 -0.015,0.047 -0.023,0.098 -0.023,0.156 0,0.117 0.027,0.211 0.082,0.278 0.055,0.066 0.137,0.097 0.246,0.097 0.024,0 0.047,-0.004 0.066,-0.008 0.024,-0.007 0.043,-0.015 0.059,-0.027 v -0.199 h -0.195 v -0.215 h 0.426 v 0.535 c -0.043,0.039 -0.094,0.074 -0.161,0.102 -0.066,0.023 -0.14,0.039 -0.222,0.039"
                   style="fill:#ffffff;fill-opacity:1;fill-rule:nonzero;stroke:none"
                   id="path66" /><path
                   d="m 55.145,764.027 v -0.414 l -0.348,-0.746 h 0.281 l 0.102,0.266 c 0.015,0.043 0.031,0.086 0.047,0.129 0.015,0.039 0.031,0.082 0.046,0.129 h 0.008 c 0.016,-0.047 0.031,-0.09 0.047,-0.129 0.016,-0.043 0.035,-0.086 0.051,-0.129 l 0.105,-0.266 h 0.274 l -0.352,0.746 v 0.414"
                   style="fill:#ffffff;fill-opacity:1;fill-rule:nonzero;stroke:none"
                   id="path68" /><path
                   d="m 56.445,764.047 c -0.074,0 -0.148,-0.016 -0.226,-0.043 -0.074,-0.027 -0.141,-0.066 -0.199,-0.125 l 0.148,-0.18 c 0.043,0.035 0.086,0.067 0.137,0.086 0.05,0.024 0.101,0.035 0.148,0.035 0.055,0 0.094,-0.008 0.121,-0.031 0.028,-0.019 0.043,-0.047 0.043,-0.078 0,-0.02 -0.004,-0.035 -0.012,-0.047 -0.007,-0.016 -0.019,-0.023 -0.035,-0.035 -0.015,-0.012 -0.031,-0.02 -0.054,-0.031 -0.02,-0.008 -0.043,-0.016 -0.067,-0.028 l -0.152,-0.062 c -0.027,-0.012 -0.059,-0.028 -0.086,-0.047 -0.027,-0.02 -0.051,-0.043 -0.074,-0.066 -0.024,-0.028 -0.039,-0.055 -0.051,-0.09 -0.016,-0.035 -0.02,-0.071 -0.02,-0.114 0,-0.046 0.008,-0.093 0.028,-0.136 0.019,-0.039 0.051,-0.078 0.086,-0.11 0.039,-0.031 0.082,-0.054 0.132,-0.074 0.047,-0.016 0.106,-0.027 0.165,-0.027 0.066,0 0.132,0.015 0.199,0.039 0.066,0.027 0.125,0.066 0.176,0.113 l -0.133,0.168 c -0.039,-0.031 -0.078,-0.055 -0.117,-0.07 -0.036,-0.016 -0.079,-0.024 -0.125,-0.024 -0.047,0 -0.082,0.008 -0.106,0.028 -0.027,0.019 -0.043,0.047 -0.043,0.078 0,0.019 0.008,0.035 0.016,0.043 0.008,0.015 0.019,0.027 0.035,0.035 0.016,0.012 0.035,0.019 0.059,0.031 0.019,0.008 0.042,0.016 0.07,0.027 l 0.148,0.059 c 0.071,0.031 0.125,0.07 0.168,0.121 0.039,0.047 0.059,0.113 0.059,0.196 0,0.05 -0.008,0.093 -0.028,0.136 -0.019,0.043 -0.05,0.082 -0.085,0.114 -0.04,0.035 -0.082,0.058 -0.137,0.082 -0.055,0.015 -0.117,0.027 -0.188,0.027"
                   style="fill:#ffffff;fill-opacity:1;fill-rule:nonzero;stroke:none"
                   id="path70" /><path
                   d="m 57.234,764.027 v -0.941 h -0.316 v -0.219 h 0.898 v 0.219 H 57.5 v 0.941"
                   style="fill:#ffffff;fill-opacity:1;fill-rule:nonzero;stroke:none"
                   id="path72" /><path
                   d="m 58.383,764.047 c -0.149,0 -0.266,-0.043 -0.344,-0.133 -0.078,-0.09 -0.117,-0.23 -0.117,-0.426 v -0.621 h 0.262 v 0.649 c 0,0.113 0.015,0.195 0.05,0.238 0.036,0.043 0.086,0.066 0.149,0.066 0.066,0 0.117,-0.023 0.152,-0.066 0.035,-0.043 0.055,-0.125 0.055,-0.238 v -0.649 h 0.25 v 0.621 c 0,0.196 -0.039,0.336 -0.117,0.426 -0.075,0.09 -0.192,0.133 -0.34,0.133"
                   style="fill:#ffffff;fill-opacity:1;fill-rule:nonzero;stroke:none"
                   id="path74" /><path
                   d="m 59.211,763.812 h 0.051 c 0.05,0 0.093,-0.003 0.133,-0.019 0.043,-0.012 0.074,-0.031 0.105,-0.063 0.027,-0.027 0.051,-0.066 0.066,-0.113 0.016,-0.047 0.024,-0.105 0.024,-0.176 0,-0.07 -0.008,-0.129 -0.024,-0.175 -0.015,-0.043 -0.039,-0.082 -0.066,-0.11 -0.031,-0.027 -0.062,-0.047 -0.105,-0.058 -0.04,-0.012 -0.083,-0.02 -0.133,-0.02 h -0.051 z m -0.262,0.215 v -1.16 h 0.328 c 0.09,0 0.168,0.012 0.239,0.031 0.074,0.024 0.132,0.059 0.183,0.106 0.051,0.047 0.09,0.105 0.117,0.18 0.028,0.07 0.043,0.156 0.043,0.257 0,0.098 -0.015,0.188 -0.043,0.258 -0.027,0.074 -0.066,0.137 -0.113,0.184 -0.051,0.047 -0.109,0.082 -0.18,0.105 -0.07,0.028 -0.148,0.039 -0.234,0.039"
                   style="fill:#ffffff;fill-opacity:1;fill-rule:nonzero;stroke:none"
                   id="path76" /><path
                   d="m 59.953,764.027 v -1.16 h 0.727 v 0.219 h -0.465 v 0.234 h 0.394 v 0.219 h -0.394 v 0.266 h 0.48 v 0.222"
                   style="fill:#ffffff;fill-opacity:1;fill-rule:nonzero;stroke:none"
                   id="path78" /><path
                   d="m 60.785,764.027 v -1.16 h 0.27 l 0.3,0.574 0.114,0.258 h 0.008 c -0.004,-0.062 -0.012,-0.129 -0.02,-0.207 -0.008,-0.074 -0.012,-0.148 -0.012,-0.215 v -0.41 h 0.25 v 1.16 h -0.269 l -0.301,-0.578 -0.113,-0.254 h -0.008 c 0.004,0.063 0.012,0.133 0.019,0.207 0.008,0.075 0.012,0.145 0.012,0.211 v 0.414"
                   style="fill:#ffffff;fill-opacity:1;fill-rule:nonzero;stroke:none"
                   id="path80" /><path
                   d="m 62.105,764.027 v -0.941 h -0.32 v -0.219 h 0.899 v 0.219 h -0.317 v 0.941"
                   style="fill:#ffffff;fill-opacity:1;fill-rule:nonzero;stroke:none"
                   id="path82" /><path
                   d="m 63.352,763.438 -0.028,0.109 h 0.246 l -0.027,-0.109 c -0.016,-0.055 -0.031,-0.118 -0.047,-0.184 -0.016,-0.066 -0.031,-0.129 -0.047,-0.188 h -0.004 c -0.015,0.063 -0.031,0.125 -0.047,0.188 -0.015,0.066 -0.027,0.129 -0.046,0.184 m -0.418,0.589 0.363,-1.16 h 0.312 l 0.364,1.16 h -0.278 l -0.07,-0.277 H 63.27 l -0.071,0.277"
                   style="fill:#ffffff;fill-opacity:1;fill-rule:nonzero;stroke:none"
                   id="path84" /><path
                   d="m 64.418,764.047 c -0.078,0 -0.152,-0.016 -0.227,-0.043 -0.078,-0.027 -0.144,-0.066 -0.203,-0.125 l 0.149,-0.18 c 0.043,0.035 0.09,0.067 0.14,0.086 0.051,0.024 0.098,0.035 0.149,0.035 0.054,0 0.094,-0.008 0.121,-0.031 0.027,-0.019 0.039,-0.047 0.039,-0.078 0,-0.02 -0.004,-0.035 -0.012,-0.047 -0.008,-0.016 -0.019,-0.023 -0.035,-0.035 -0.012,-0.012 -0.031,-0.02 -0.051,-0.031 -0.023,-0.008 -0.043,-0.016 -0.07,-0.028 l -0.148,-0.062 c -0.032,-0.012 -0.059,-0.028 -0.09,-0.047 -0.024,-0.02 -0.051,-0.043 -0.075,-0.066 -0.019,-0.028 -0.039,-0.055 -0.05,-0.09 -0.016,-0.035 -0.02,-0.071 -0.02,-0.114 0,-0.046 0.012,-0.093 0.031,-0.136 0.02,-0.039 0.047,-0.078 0.086,-0.11 0.036,-0.031 0.078,-0.054 0.129,-0.074 0.051,-0.016 0.106,-0.027 0.168,-0.027 0.067,0 0.133,0.015 0.199,0.039 0.067,0.027 0.122,0.066 0.172,0.113 l -0.132,0.168 c -0.04,-0.031 -0.079,-0.055 -0.114,-0.07 -0.039,-0.016 -0.082,-0.024 -0.125,-0.024 -0.047,0 -0.082,0.008 -0.109,0.028 -0.028,0.019 -0.039,0.047 -0.039,0.078 0,0.019 0.004,0.035 0.011,0.043 0.012,0.015 0.024,0.027 0.04,0.035 0.015,0.012 0.035,0.019 0.054,0.031 0.024,0.008 0.047,0.016 0.071,0.027 l 0.148,0.059 c 0.07,0.031 0.129,0.07 0.168,0.121 0.043,0.047 0.062,0.113 0.062,0.196 0,0.05 -0.011,0.093 -0.031,0.136 -0.019,0.043 -0.047,0.082 -0.086,0.114 -0.035,0.035 -0.082,0.058 -0.136,0.082 -0.055,0.015 -0.118,0.027 -0.184,0.027"
                   style="fill:#ffffff;fill-opacity:1;fill-rule:nonzero;stroke:none"
                   id="path86" /><path
                   d="m 65.301,764.047 c -0.074,0 -0.149,-0.016 -0.227,-0.043 -0.074,-0.027 -0.14,-0.066 -0.199,-0.125 l 0.148,-0.18 c 0.043,0.035 0.086,0.067 0.137,0.086 0.051,0.024 0.102,0.035 0.149,0.035 0.054,0 0.097,-0.008 0.121,-0.031 0.027,-0.019 0.043,-0.047 0.043,-0.078 0,-0.02 -0.004,-0.035 -0.012,-0.047 -0.008,-0.016 -0.02,-0.023 -0.035,-0.035 -0.016,-0.012 -0.031,-0.02 -0.055,-0.031 -0.019,-0.008 -0.043,-0.016 -0.066,-0.028 l -0.153,-0.062 c -0.027,-0.012 -0.058,-0.028 -0.086,-0.047 -0.027,-0.02 -0.05,-0.043 -0.074,-0.066 -0.023,-0.028 -0.039,-0.055 -0.051,-0.09 -0.015,-0.035 -0.019,-0.071 -0.019,-0.114 0,-0.046 0.008,-0.093 0.027,-0.136 0.02,-0.039 0.051,-0.078 0.086,-0.11 0.039,-0.031 0.082,-0.054 0.133,-0.074 0.047,-0.016 0.105,-0.027 0.164,-0.027 0.07,0 0.133,0.015 0.199,0.039 0.067,0.027 0.125,0.066 0.176,0.113 l -0.133,0.168 c -0.039,-0.031 -0.078,-0.055 -0.117,-0.07 -0.035,-0.016 -0.078,-0.024 -0.125,-0.024 -0.043,0 -0.082,0.008 -0.105,0.028 -0.028,0.019 -0.043,0.047 -0.043,0.078 0,0.019 0.007,0.035 0.015,0.043 0.008,0.015 0.02,0.027 0.035,0.035 0.016,0.012 0.036,0.019 0.059,0.031 0.019,0.008 0.043,0.016 0.066,0.027 l 0.153,0.059 c 0.07,0.031 0.125,0.07 0.168,0.121 0.039,0.047 0.058,0.113 0.058,0.196 0,0.05 -0.008,0.093 -0.027,0.136 -0.02,0.043 -0.047,0.082 -0.086,0.114 -0.039,0.035 -0.082,0.058 -0.137,0.082 -0.054,0.015 -0.117,0.027 -0.187,0.027"
                   style="fill:#ffffff;fill-opacity:1;fill-rule:nonzero;stroke:none"
                   id="path88" /><path
                   d="m 66.328,763.82 c 0.078,0 0.141,-0.035 0.188,-0.101 0.046,-0.067 0.07,-0.16 0.07,-0.278 0,-0.117 -0.024,-0.207 -0.07,-0.273 -0.047,-0.063 -0.11,-0.098 -0.188,-0.098 -0.078,0 -0.14,0.035 -0.187,0.098 -0.047,0.066 -0.071,0.156 -0.071,0.273 0,0.118 0.024,0.211 0.071,0.278 0.047,0.066 0.109,0.101 0.187,0.101 m 0,0.227 c -0.078,0 -0.148,-0.016 -0.215,-0.043 -0.062,-0.027 -0.121,-0.066 -0.164,-0.117 -0.047,-0.055 -0.082,-0.117 -0.109,-0.192 -0.024,-0.074 -0.039,-0.16 -0.039,-0.254 0,-0.093 0.015,-0.179 0.039,-0.253 0.027,-0.075 0.062,-0.137 0.109,-0.188 0.043,-0.051 0.102,-0.09 0.164,-0.113 0.067,-0.028 0.137,-0.043 0.215,-0.043 0.078,0 0.149,0.015 0.215,0.043 0.062,0.023 0.117,0.066 0.164,0.117 0.047,0.051 0.082,0.109 0.109,0.184 0.024,0.074 0.039,0.16 0.039,0.253 0,0.094 -0.015,0.18 -0.039,0.254 -0.027,0.075 -0.062,0.137 -0.109,0.192 -0.047,0.051 -0.102,0.09 -0.164,0.117 -0.066,0.027 -0.137,0.043 -0.215,0.043"
                   style="fill:#ffffff;fill-opacity:1;fill-rule:nonzero;stroke:none"
                   id="path90" /><path
                   d="m 67.469,764.047 c -0.074,0 -0.145,-0.012 -0.211,-0.039 -0.063,-0.024 -0.121,-0.063 -0.172,-0.113 -0.047,-0.051 -0.086,-0.11 -0.113,-0.184 -0.028,-0.074 -0.043,-0.16 -0.043,-0.258 0,-0.098 0.015,-0.18 0.043,-0.258 0.031,-0.074 0.07,-0.136 0.121,-0.191 0.051,-0.051 0.105,-0.09 0.172,-0.117 0.066,-0.028 0.136,-0.043 0.211,-0.043 0.074,0 0.14,0.015 0.199,0.047 0.058,0.031 0.109,0.066 0.148,0.105 l -0.136,0.168 c -0.032,-0.027 -0.063,-0.051 -0.094,-0.066 -0.035,-0.02 -0.071,-0.028 -0.114,-0.028 -0.039,0 -0.074,0.008 -0.109,0.028 -0.035,0.015 -0.066,0.043 -0.09,0.074 -0.027,0.031 -0.047,0.07 -0.062,0.117 -0.016,0.047 -0.02,0.098 -0.02,0.156 0,0.117 0.024,0.211 0.074,0.278 0.051,0.066 0.122,0.097 0.204,0.097 0.05,0 0.089,-0.008 0.128,-0.031 0.04,-0.019 0.071,-0.047 0.098,-0.074 l 0.141,0.16 c -0.098,0.113 -0.223,0.172 -0.375,0.172"
                   style="fill:#ffffff;fill-opacity:1;fill-rule:nonzero;stroke:none"
                   id="path92" /><path
                   d="m 67.93,762.867 h 0.262 v 1.156 H 67.93 Z"
                   style="fill:#ffffff;fill-opacity:1;fill-rule:nonzero;stroke:none"
                   id="path94" /><path
                   d="m 68.684,763.438 -0.028,0.109 h 0.246 l -0.027,-0.109 c -0.016,-0.055 -0.031,-0.118 -0.047,-0.184 -0.016,-0.066 -0.031,-0.129 -0.047,-0.188 h -0.008 c -0.015,0.063 -0.027,0.125 -0.043,0.188 -0.015,0.066 -0.031,0.129 -0.046,0.184 m -0.422,0.589 0.363,-1.16 h 0.316 l 0.364,1.16 h -0.278 l -0.07,-0.277 h -0.355 l -0.071,0.277"
                   style="fill:#ffffff;fill-opacity:1;fill-rule:nonzero;stroke:none"
                   id="path96" /><path
                   d="m 69.453,764.027 v -0.941 h -0.316 v -0.219 h 0.898 v 0.219 h -0.316 v 0.941"
                   style="fill:#ffffff;fill-opacity:1;fill-rule:nonzero;stroke:none"
                   id="path98" /><path
                   d="m 70.129,762.867 h 0.262 v 1.156 h -0.262 z"
                   style="fill:#ffffff;fill-opacity:1;fill-rule:nonzero;stroke:none"
                   id="path100" /><path
                   d="m 71.012,763.82 c 0.078,0 0.14,-0.035 0.187,-0.101 0.047,-0.067 0.071,-0.16 0.071,-0.278 0,-0.117 -0.024,-0.207 -0.071,-0.273 -0.047,-0.063 -0.109,-0.098 -0.187,-0.098 -0.082,0 -0.145,0.035 -0.188,0.098 -0.051,0.066 -0.07,0.156 -0.07,0.273 0,0.118 0.019,0.211 0.07,0.278 0.043,0.066 0.106,0.101 0.188,0.101 m 0,0.227 c -0.078,0 -0.153,-0.016 -0.215,-0.043 -0.067,-0.027 -0.121,-0.066 -0.168,-0.117 -0.047,-0.055 -0.082,-0.117 -0.106,-0.192 -0.027,-0.074 -0.039,-0.16 -0.039,-0.254 0,-0.093 0.012,-0.179 0.039,-0.253 0.024,-0.075 0.059,-0.137 0.106,-0.188 0.047,-0.051 0.101,-0.09 0.168,-0.113 0.062,-0.028 0.137,-0.043 0.215,-0.043 0.078,0 0.148,0.015 0.211,0.043 0.066,0.023 0.121,0.066 0.168,0.117 0.047,0.051 0.082,0.109 0.105,0.184 0.027,0.074 0.039,0.16 0.039,0.253 0,0.094 -0.012,0.18 -0.039,0.254 -0.023,0.075 -0.058,0.137 -0.105,0.192 -0.047,0.051 -0.102,0.09 -0.168,0.117 -0.063,0.027 -0.133,0.043 -0.211,0.043"
                   style="fill:#ffffff;fill-opacity:1;fill-rule:nonzero;stroke:none"
                   id="path102" /><path
                   d="m 71.629,764.027 v -1.16 h 0.269 l 0.305,0.574 0.113,0.258 h 0.008 c -0.008,-0.062 -0.015,-0.129 -0.023,-0.207 -0.008,-0.074 -0.012,-0.148 -0.012,-0.215 v -0.41 h 0.25 v 1.16 H 72.27 l -0.301,-0.578 -0.114,-0.254 h -0.007 c 0.004,0.063 0.011,0.133 0.019,0.207 0.008,0.075 0.012,0.145 0.012,0.211 v 0.414"
                   style="fill:#ffffff;fill-opacity:1;fill-rule:nonzero;stroke:none"
                   id="path104" /></g></g></g></g></g></g><g
       id="g106"><path
         d="M 85.5,747 H 558 v 18 H 85.5 Z"
         style="fill:#e9e9e9;fill-opacity:1;fill-rule:nonzero;stroke:none"
         id="path108" /><text
         transform="translate(101.618,758.7102)"
         style="font-variant:normal;font-weight:200;font-size:8px;font-family:'DejaVu Sans Light';-inkscape-font-specification:DejaVuSans-ExtraLight;writing-mode:lr-tb;fill:#444142;fill-opacity:1;fill-rule:nonzero;stroke:none"
         id="text112"><tspan
           x="0 3.52 8.0559998 12 16.312 20.632 25.191999 26.896 31.455999 36.015999 39.855999 41.919998 46.408001 48.608002 52.928001 57.487999 62.023998 66.335999 68.536003 70.599998 75.776001 79.440002 83.103996 87.664001 91.608002 93.311996 97.480003 99.671997 101.384 105.944 110.256 112.32 114.136 118.624 123.184 128.36 130.17599 132.24001 137.856 139.56 144.12 148.43201 150.504 155.144 159.088 163.39999 167.96001 172.528 174.23199 176.29601 181.672 186.23199 192.54401 197.09599 201.632 203.832 205.536 207.73599 209.44 213.28 217.81599 219.88 224.384 228.224 232.75999 237.07201 239.272 242.936 245 250.67999 255 256.70401 261.26401 265.79999 267.86401 269.98401 274.54401 277.07999 279.14401 281.34399 285.65601 290.19199 292.25601 296.91199 301.776 306.42401 310.776 312.84 317.008 321.32001 325.88 327.944 332.60001 337.46399 342.112 346.44 348.504 354.09601 358.25601 360.45599 362.168 366.728 371.04001 375.20001 376.90399 378.96799 383.45599 388.01599 393.19199 395.25601 400.63199 405.19199 409.504 411.62399 416.16 418.69601 423.23199 427.54401 431.48801 436.02399"
           y="0"
           sodipodi:role="line"
           id="tspan110">Technology Student Association (TSA) High School Competitive Events Guide for the 2023 and 2024 National TSA Conferences</tspan></text><text
         transform="translate(485.83399,35.690019)"
         style="font-variant:normal;font-weight:bold;font-size:11px;font-family:'DejaVu Sans';-inkscape-font-specification:DejaVuSans-Bold;writing-mode:lr-tb;fill:#15579e;fill-opacity:1;fill-rule:nonzero;stroke:none"
         id="text116"><tspan
           x="0 5.9619999 14.157 20.844999 29.809999 36.112999 38.720001 45.891998 52.348999 58.817001 64.932999 72.633003 80.211998 82.841003"
           y="0"
           sodipodi:role="line"
           id="tspan114">FORMS APPENDIX</tspan></text><text
         transform="translate(44.999999,77.220118)"
         style="font-variant:normal;font-weight:normal;font-size:18px;font-family:'DejaVu Sans';-inkscape-font-specification:DejaVuSans;writing-mode:lr-tb;fill:#15579e;fill-opacity:1;fill-rule:nonzero;stroke:none"
         id="text120"><tspan
           x="0 11.322 22.464001 35.945999 49.445999 60.588001 74.232002 85.374001 90.900002 103.968 118.62 130.032 142.2 154.026 159.21001 172.92599 186.62399 197.76601 203.29201 216.36 230.058 241.18201 254.25 265.95001 276.03 281.21399 292.53601"
           y="0"
           sodipodi:role="line"
           id="tspan118">STUDENT COPYRIGHT CHECKLIST</tspan></text><text
         transform="matrix(0.95,0,0,1,348.99899,77.220018)"
         style="font-variant:normal;font-weight:200;font-size:9px;font-family:'DejaVu Sans Light';-inkscape-font-specification:DejaVuSans-ExtraLight;writing-mode:lr-tb;fill:#231f20;fill-opacity:1;fill-rule:nonzero;stroke:none"
         id="text124"><tspan
           x="0 1.863 4.0679998 9.0179996 11.691"
           y="0"
           sodipodi:role="line"
           id="tspan122">(for </tspan></text><text
         transform="matrix(1,0,0,0.9009009,362.15699,77.220018)"
         style="font-variant:normal;font-weight:200;font-size:9.99px;font-family:'DejaVu Sans Light';-inkscape-font-specification:DejaVuSans-ExtraLight;writing-mode:lr-tb;fill:#231f20;fill-opacity:1;fill-rule:nonzero;stroke:none"
         id="text128"><tspan
           x="0 4.3756199 6.92307 12.10788 17.602381 23.06691 28.25172 30.79917 35.174789 37.55241 40.099861 45.59436"
           y="0"
           sodipodi:role="line"
           id="tspan126">students to </tspan></text><text
         transform="matrix(1,0,0,0.9090909,410.20899,77.220018)"
         style="font-variant:normal;font-weight:200;font-size:9.9px;font-family:'DejaVu Sans Light';-inkscape-font-specification:DejaVuSans-ExtraLight;writing-mode:lr-tb;fill:#231f20;fill-opacity:1;fill-rule:nonzero;stroke:none"
         id="text132"><tspan
           x="0 4.6826997 10.127699 17.740799 23.146198 25.066797 30.472197 32.996696 38.411995"
           y="0"
           sodipodi:role="line"
           id="tspan130">complete </tspan></text><text
         transform="translate(451.02499,77.220018)"
         style="font-variant:normal;font-weight:200;font-size:9px;font-family:'DejaVu Sans Light';-inkscape-font-specification:DejaVuSans-ExtraLight;writing-mode:lr-tb;fill:#231f20;fill-opacity:1;fill-rule:nonzero;stroke:none"
         id="text136"><tspan
           x="0 4.5 9.1709995 14.13 16.271999 20.771999 25.722 29.862 31.608 35.549999 40.5 43.173 47.115002 49.257 51.551998 56.501999 58.644001 62.784 67.707001 70.379997 72.116997 74.321999 78.461998"
           y="0"
           sodipodi:role="line"
           id="tspan134">and advisors to verify)</tspan></text><text
         transform="translate(44.999988,97.220016)"
         style="font-variant:normal;font-weight:normal;font-size:9px;font-family:'DejaVu Sans';-inkscape-font-specification:DejaVuSans;writing-mode:lr-tb;fill:#231f20;fill-opacity:1;fill-rule:nonzero;stroke:none"
         id="text140"><tspan
           x="0 5.0040002 9.927 16.083 22.202999 27.135 33.335999 37.808998 39.716999"
           y="0"
           sodipodi:role="line"
           id="tspan138">STUDENT: </tspan></text><text
         transform="translate(86.804988,97.220016)"
         style="font-variant:normal;font-weight:200;font-size:9px;font-family:'DejaVu Sans Light';-inkscape-font-specification:DejaVuSans-ExtraLight;writing-mode:lr-tb;fill:#231f20;fill-opacity:1;fill-rule:nonzero;stroke:none"
         id="text146"><tspan
           x="0 5.598 10.224 14.121 20.358 25.236 27.864 29.961 34.856998 39.483002 44.361 48.257999 50.507999 52.200001 57.105 61.740002 63.837002 66.375 68.481003 73.386002 78.264 79.956001 84.861 90.675003"
           y="0"
           sodipodi:role="line"
           id="tspan142">Answer question 1 below.</tspan><tspan
           x="-41.805 -39.257999 -37.439999 -28.313999 -22.311001 -17.406 -12.528 -8.6309996 -6.5339999 -2.4389999 2.4660001 7.092 9.7200003 11.817 15.714 20.628 22.32 26.945999 29.195999 30.888 35.792999 40.418999 42.525002 44.775002 49.68 51.777 54.027 58.653 63.530998 65.627998 69.839996 74.745003 81.621002 86.516998 91.394997 93.644997 95.336998 97.586998 99.278999 103.374 108.252 110.349 115.227 119.322 124.2 128.826 131.076 133.173 134.86501 139.5 141.75 146.619 151.524 154.15199 158.60699 160.85699 165.735 167.832 172.287 176.922 181.017 183.114 185.364 189.459 194.355 199.233 201.33 206.235 208.395 210.492 217.368 221.994 225.89101 227.592 231.804 233.901 238.356 242.98199 247.896 250.2 255.105 257.733 259.82999 263.72699 268.63199 273.258 277.89301 282.798 286.73999"
           y="14.599998"
           sodipodi:role="line"
           id="tspan144">1) Does your solution to the competitive event integrate any type of music and/or sound? </tspan></text><g
         id="g148"
         transform="scale(1,-1)"><path
           d="m 380.355,-103.773 h 9.801 v -9.797 h -9.801 z"
           style="fill:none;stroke:#231f20;stroke-width:0.5;stroke-linecap:butt;stroke-linejoin:miter;stroke-miterlimit:4;stroke-dasharray:none;stroke-opacity:1"
           id="path150" /></g><text
         transform="translate(392.28699,111.82002)"
         style="font-variant:normal;font-weight:200;font-size:9px;font-family:'DejaVu Sans Light';-inkscape-font-specification:DejaVuSans-ExtraLight;writing-mode:lr-tb;fill:#231f20;fill-opacity:1;fill-rule:nonzero;stroke:none"
         id="text154"><tspan
           x="0 5.3280001 10.17 15.174"
           y="0"
           sodipodi:role="line"
           id="tspan152">YES </tspan></text><g
         id="g156"
         transform="scale(1,-1)"><path
           d="m 414.25,-103.773 h 9.801 v -9.797 h -9.801 z"
           style="fill:none;stroke:#231f20;stroke-width:0.5;stroke-linecap:butt;stroke-linejoin:miter;stroke-miterlimit:4;stroke-dasharray:none;stroke-opacity:1"
           id="path158" /></g><text
         transform="translate(426.18099,111.82002)"
         style="font-variant:normal;font-weight:200;font-size:9px;font-family:'DejaVu Sans Light';-inkscape-font-specification:DejaVuSans-ExtraLight;writing-mode:lr-tb;fill:#231f20;fill-opacity:1;fill-rule:nonzero;stroke:none"
         id="text166"><tspan
           x="0 6.066"
           y="0"
           sodipodi:role="line"
           id="tspan160">NO</tspan><tspan
           x="-367.681 -365.90799 -363.74799 -361.651 -355.58499 -349.19501 -347.45801 -345.36099 -340.45599 -335.55099 -333.45401 -331.20401 -326.29901 -324.19299 -319.297 -314.67099 -309.793 -305.896 -303.646 -301.95401 -297.04901 -292.423 -290.32599 -285.31299"
           y="12.799998"
           sodipodi:role="line"
           id="tspan162">If NO, go to question 2.</tspan><tspan
           x="-367.681 -365.90799 -363.74799 -361.651 -356.323 -351.48099 -346.47699 -344.73999 -342.64301 -340.95099 -337.05399 -334.957 -332.707 -328.08099 -323.203 -321.10599 -314.23001 -309.604 -305.707 -304.00598 -299.79401 -297.69699 -293.242 -288.616 -283.702 -281.39801 -276.49298 -273.86499 -271.76801 -267.871 -262.966 -258.34 -253.71399 -248.8 -246.703 -242.491 -237.586 -232.69 -228.586 -225.967 -224.26599 -219.36099 -214.735 -212.485 -207.616 -202.702 -198.75999"
           y="25.599997"
           sodipodi:role="line"
           id="tspan164">If YES, is the music and/or sound copyrighted? </tspan></text><g
         id="g168"
         transform="scale(1,-1)"><path
           d="m 236.355,-129.375 h 9.801 v -9.797 h -9.801 z"
           style="fill:none;stroke:#231f20;stroke-width:0.5;stroke-linecap:butt;stroke-linejoin:miter;stroke-miterlimit:4;stroke-dasharray:none;stroke-opacity:1"
           id="path170" /></g><text
         transform="translate(248.28699,137.42002)"
         style="font-variant:normal;font-weight:200;font-size:9px;font-family:'DejaVu Sans Light';-inkscape-font-specification:DejaVuSans-ExtraLight;writing-mode:lr-tb;fill:#231f20;fill-opacity:1;fill-rule:nonzero;stroke:none"
         id="text174"><tspan
           x="0 5.3280001 10.17 15.174"
           y="0"
           sodipodi:role="line"
           id="tspan172">YES </tspan></text><g
         id="g176"
         transform="scale(1,-1)"><path
           d="m 270.25,-129.375 h 9.801 v -9.797 h -9.801 z"
           style="fill:none;stroke:#231f20;stroke-width:0.5;stroke-linecap:butt;stroke-linejoin:miter;stroke-miterlimit:4;stroke-dasharray:none;stroke-opacity:1"
           id="path178" /></g><text
         transform="translate(282.18099,137.42002)"
         style="font-variant:normal;font-weight:200;font-size:9px;font-family:'DejaVu Sans Light';-inkscape-font-specification:DejaVuSans-ExtraLight;writing-mode:lr-tb;fill:#231f20;fill-opacity:1;fill-rule:nonzero;stroke:none"
         id="text194"><tspan
           x="0 6.066"
           y="0"
           sodipodi:role="line"
           id="tspan180">NO</tspan><tspan
           x="-223.681 -221.90799 -219.748 -217.651 -212.323 -207.481 -202.47699 -200.73999 -198.64299 -191.767 -186.862 -182.767 -177.88899 -175.79199 -173.54199 -168.63699 -166.53999 -161.63499 -157.009 -152.131 -148.23399 -145.993 -144.29199 -139.38699 -134.761 -132.664 -130.11699 -124.519 -122.782 -120.685 -118.91199 -116.752 -114.655 -108.589 -102.199 -100.462 -98.364998 -91.488998 -86.584 -82.479996 -77.610992 -75.504997 -73.263992 -68.349998 -66.252998 -61.356995 -56.730995 -51.852997 -47.955997 -45.705997 -44.013996 -39.108997 -34.482998 -32.376995 -29.838997 -24.537996"
           y="12.799998"
           sodipodi:role="line"
           id="tspan182">If YES, move to question 1A. If NO, move to question 1B.</tspan><tspan
           x="-223.681 -221.134 -215.536 -213.718 -205.69 -199.597 -195.142 -191.047 -186.16899 -184.07199 -179.97699 -175.07199 -170.437 -168.34 -163.88499 -159.98799 -155.866 -150.98799 -146.08299 -143.98599 -141.82599 -136.92099 -134.293 -132.196 -127.741 -123.106 -120.865 -116.23 -111.325 -108.697 -106.6 -101.70399 -96.825996 -94.197998 -87.321999 -85.629997 -81.732994 -77.835999 -76.143997 -71.238998 -66.612999 -64.515999 -62.265995 -57.351997 -55.254997 -50.628998 -46.731995 -41.853996 -39.756996 -37.506996 -32.880997 -28.002996 -25.905996 -19.029997 -14.403996 -10.506996 -8.8149958 -4.6029959 -2.505996 1.958004 6.5840039 11.489004 13.793004 18.698004 21.326004 23.423004 27.320004 32.225002 36.860004 41.486004 46.391003 48.488003 50.180004 54.815002 56.912003 61.007004 65.912003 70.538002 73.166 75.263 79.160004 84.074005 85.766006 90.392006 92.642006 94.334007 99.239006 103.86501 105.971 110.426 115.052 119.957 122.054 123.746 128.381 132.593 134.285 138.91101 143.825 148.694 153.608 155.705 157.955 162.58101 167.675 169.925 172.022 176.918 181.79601 184.42401 191.3 192.992 196.88901 200.78601 202.478 207.38301 212.01801 214.11501 215.933 217.625 222.494 224.744 226.994 231.87201 234.5 236.804 238.964 243.869 246.49701 253.373 255.19101 257.28799 258.98001 263.83099"
           y="25.599997"
           sodipodi:role="line"
           id="tspan184">1A) Have you asked for author permission to use the music and/or sound in your solution and included that permission (letter/form) in </tspan><tspan
           x="-205.681 -201.586 -196.681 -192.04599 -189.427 -187.321 -182.416 -177.511 -173.299 -168.67299 -161.797 -156.91899 -152.293 -150.043 -145.588 -143.338 -141.646 -136.73199 -132.403 -128.461 -126.364 -124.591 -122.431 -120.334 -114.99699 -110.155 -105.16 -103.423 -101.326 -94.449997 -89.544998 -85.449997 -80.571999 -78.474998 -76.224998 -71.32 -69.213997 -64.317993 -59.691998 -54.813995 -50.916996 -48.666996 -46.974995 -42.069996 -37.443996 -35.346996 -30.333996 -28.596996 -26.499996 -24.726995 -22.566996 -20.460997 -14.394996 -8.0139961 -6.2679958 -4.1709962 0.284004 4.181004 8.5010042 10.598004 12.758004 17.663004 20.291004 22.388004 27.284004 32.162003 34.790005 41.666004 43.358006 47.255005 51.152004 52.844006 57.749004 62.384003 64.481003 68.936005 73.562004 78.467003 80.564003 82.265007 84.425003 86.522003 91.418007 96.296005 98.924004 105.791 107.492 111.38901 115.286 116.978 121.883 126.509 128.606 130.298 134.19501 136.30101 141.20601 143.825 148.289 152.91501 155.74106 160.61906 165.52406 167.26106 169.35806 171.05006 175.68506 179.89706 181.58907 186.21506 191.12006 195.99806 198.09506 200.34506 204.97105 209.84906 211.94606 216.85106 221.72006 224.34805 231.22406 232.91606 236.81306 240.71005 242.40205 247.31606 251.94206 254.03906 255.73106 260.35706 262.45407 266.55804 271.46304 276.08905 278.94205"
           y="36.599995"
           sodipodi:role="line"
           id="tspan186">your documentation? If YES, move to question 2. If NO, ask for permission and if permission is granted, include the permission in your </tspan><tspan
           x="-205.681 -200.776 -195.871 -191.64999 -187.024 -180.14799 -175.27899 -170.644 -168.394 -163.939 -161.689 -159.99699 -155.092 -150.466"
           y="47.599991"
           sodipodi:role="line"
           id="tspan188">documentation.</tspan><tspan
           x="-223.681 -221.134 -215.842 -214.024 -205.69899 -203.92599 -200.02899 -197.93199 -195.68199 -191.056 -186.17799 -184.08099 -177.205 -172.57899 -168.68199 -166.98999 -162.769 -160.465 -156.56799 -151.66299 -147.037 -142.411 -137.49699 -135.39999 -132.772 -127.867 -123.772 -119.31699 -117.62499 -115.37499 -111.28 -109.174 -107.01399 -104.395 -99.516998 -94.719994 -92.982994 -90.885994 -85.980995 -83.352997 -81.255997 -76.341995 -74.649994 -69.744995 -67.647995 -63.552998 -58.638996 -54.012997 -51.915997 -47.703995 -45.075996 -40.197994 -35.742996 -33.492996 -28.614996 -26.517996 -24.267996 -19.641996 -14.763996 -12.666996 -5.7909961 -1.164996 2.7320039 4.4240041 8.6360044 10.940004 14.837004 19.742004 24.377005 29.003004 33.908005 36.005005 40.100002 45.014004 49.640003 52.268005 56.165005 61.034004 62.735004 65.147003 69.098007 71.195007 72.968002 75.128006 77.225006 82.553001 87.395004 92.399002 94.136002 96.233002 100.44501 102.137 104.387 109.26501 111.36201 113.61201 118.23801 123.116 125.21301 127.841 132.746 136.841 141.29601 142.99701 145.24701 149.95305 152.05005 154.21005 156.83804 161.71605 166.58505 168.69106 175.55804 180.19305 184.09006 185.78204 189.99405 192.29805 196.19505 201.10005 205.73505 210.36105 215.26605 217.36305 224.01405 229.12605 231.22305 235.32706 240.23206 244.85805 247.48605 249.58305 254.48805 257.11606 258.80804 263.71304 265.40506 270.03104 274.49506 276.41205"
           y="60.399998"
           sodipodi:role="line"
           id="tspan190">1B) Is the music/sound royalty free, or did you create the music/sound yourself? If YES, cite the royalty free music/sound OR your original </tspan><tspan
           x="-205.681 -198.80499 -194.179 -190.282 -188.59 -184.37799 -182.065 -178.168 -173.263 -168.63699 -164.011 -159.106 -157 -152.10399 -149.476 -144.571 -139.675 -134.797 -132.16899 -130.47699 -126.382 -124.285 -122.59299 -117.95799 -115.86099 -111.766 -106.86099 -102.23499 -99.606995 -97.509995 -92.604996 -87.690994 -83.478996 -78.852997 -71.976997 -67.098999 -62.472996 -60.222996 -55.767998 -53.517998 -51.825996 -46.920998 -42.285995"
           y="71.399994"
           sodipodi:role="line"
           id="tspan192">music/sound properly in your documentation.</tspan></text><text
         transform="translate(44.999997,228.82001)"
         style="font-variant:normal;font-weight:normal;font-size:9px;font-family:'DejaVu Sans';-inkscape-font-specification:DejaVuSans;writing-mode:lr-tb;fill:#231f20;fill-opacity:1;fill-rule:nonzero;stroke:none"
         id="text198"><tspan
           x="0 5.8860002 12.105 17.874001 23.021999 27.945 32.868 38.195999 40.284 46.053001 51.993 57.762001 59.769001 64.845001 71.504997 76.842003 78.75"
           y="0"
           sodipodi:role="line"
           id="tspan196">CHAPTER ADVISOR: </tspan></text><text
         transform="translate(125.838,228.82001)"
         style="font-variant:normal;font-weight:200;font-size:9px;font-family:'DejaVu Sans Light';-inkscape-font-specification:DejaVuSans-ExtraLight;writing-mode:lr-tb;fill:#231f20;fill-opacity:1;fill-rule:nonzero;stroke:none"
         id="text212"><tspan
           x="0 4.9949999 6.6869998 11.592 16.218 18.315001 23.229 28.098 29.790001 34.703999 40.941002 43.037998 45.666 50.543999 55.439999 59.903999 62.522999 67.436996 69.128998 73.754997 78.660004 80.757004 84.851997 89.765999 94.391998 97.019997 99.116997 103.014 105.264 109.89 114.795 119.673 124.299 126.549 128.01601 131.91299 134.00999 138.465 143.10001 146.99699 153.23399 158.112 160.731 162.549 166.446 168.26401 170.36099 172.61099 177.51601 179.62199 181.86301 186.498 191.367 193.47301 198.099 201.996 206.86501 208.97099 213.87601 216.036 218.133 225.009 229.63499 233.532 235.224 239.436 241.74001 245.63699 250.55099 255.177 259.80301 264.70801 266.80499 268.50601 273.13199 275.229 279.85501 281.547 285.444 287.74799 292.383 297.25201 299.88 301.97699 306.198 311.103 317.979 322.875 327.75299 330.00299 331.69501 333.94501 335.63699 339.73199 344.60999 346.707 351.58499 355.67999 360.55801 365.83112 368.08112 370.17813 374.07513 378.98013 380.67212 385.30713 387.55713 389.24911 394.15411 398.78012 400.51712 402.61414 407.45612 411.56012 416.42914 423.17014 424.86212 427.02213 429.11914 433.21414 438.11914 442.75412 445.59811"
           y="0"
           sodipodi:role="line"
           id="tspan200">Sign below regarding your student’s answer(s) to the use of music/sound in his/her competitive event solution. Evenif your </tspan><tspan
           x="-80.837997 -76.941002 -74.691002 -70.065002 -65.160004 -60.282001 -55.655998 -53.405998 -51.308998 -46.845001 -42.219002 -38.321999 -32.084999 -27.207001 -24.579 -20.681999 -18.584999 -15.57 -9.5039997 -2.9519999 2.1689999 4.4190001 9.3240004 11.43 16.326 20.952 25.83 29.726999 31.976999 33.668999 38.574001 43.200001 45.297001 47.844002 49.581001 51.678001 56.583 58.275002 63.153 67.608002 71.504997 76.374001 78.480003 82.376999 84.069 88.973999 93.599998 95.696999 100.602 105.48 107.172 112.077 118.323 120.42 125.046 129.951 132.201 133.89301 138.519 143.424 145.521 147.771 152.397 156.86099 159.11099 161.20799 165.30299 170.20799 174.834 176.931 181.56599 186.021 190.116 194.994 197.091 201.96899 206.064 210.519 212.211 216.84599 221.30099 223.55099 228.42 233.334 235.431 237.681 242.30701 247.185 249.282 253.494 258.39899 265.27499 270.17099 275.04901 277.29901 278.991 281.241 282.93301 287.57599 292.45398 294.55096 299.42899 303.52399 308.40198 313.02798 315.27798 317.37497 321.27197 326.17697 327.86899 332.49496 334.74496 336.44598 341.35098 345.97696 348.07397 352.52896 357.15497 362.06897 364.16599 366.41599 371.04196 375.91998 378.01697 381.91397 384.16397 388.78998 393.69498 398.57297 403.19897 405.44897 407.54596 412.00098 416.63599 420.53296 426.76999 431.64798 434.26697 439.14499 444.27496"
           y="10.999998"
           sodipodi:role="line"
           id="tspan202">student answers “NO”to question 1, please sign below noting that you have evaluated the competitive event solution and the student answered </tspan><tspan
           x="-80.837997 -78.587997 -73.961998 -69.084 -66.987 -62.091 -57.465 -52.587002 -48.689999 -46.439999 -44.748001 -39.842999 -35.208 -33.389999 -29.493 -27.684 -25.577999 -21.122999 -16.910999 -12.699 -8.073 -5.4450002 -0.99000001 1.26 6.138 7.8299999 11.403"
           y="21.999996"
           sodipodi:role="line"
           id="tspan204">the question(s) accurately.</tspan><tspan
           x="-67.337997 -65.565002 -63.827999 -61.730999 -56.880001 -52.028999 -47.178001 -42.327 -37.476002 -32.625 -27.774 -22.923 -18.072001 -13.221 -8.3699999 -3.5190001 1.332 6.1830001 11.034 15.885 20.736 25.587 30.438 35.289001 40.139999 44.991001 49.841999 54.693001 59.543999 64.394997 69.246002 74.097 78.947998 83.799004 85.896004 87.713997 91.934998 96.560997 101.016 105.912 108.162 113.04 115.668 117.765 122.22 127.125 131.22 132.92101 136.81799 141.72301 144.351 146.16901 147.90601 150.00301 154.629 159.084 163.179 168.05701 170.15401 174.375 179.00101 183.879 188.091 192.213 197.082 201.996 204.093 210.96899 215.064 217.161 221.058 223.308 227.93401 232.839 237.717 242.343 244.593 246.06 249.957 252.054 255.951 260.86499 262.55701 267.18301 269.43301 271.125 276.03 280.65601 282.76199 287.21701 291.84299 296.74799 298.845 303.06601 307.97101 312.59698 316.67401 319.302 326.17801 328.27499 330.52499 335.151 339.60599 341.85599 343.953 348.40799 353.043 357.138 359.23499 363.86099 367.758 372.63599 374.733 379.638 381.798 383.89499 390.771 395.397 399.29401 400.995 405.207 407.51099 411.40799 416.31299 420.939 425.565 430.479 432.57599 434.26801 438.39001"
           y="41.999992"
           sodipodi:role="line"
           id="tspan206">I, ______________________________ (chapter advisor), have checked my student’s solution and confrm that any use of music/sound is </tspan><tspan
           x="-67.337997 -62.432999 -57.528 -52.893002 -48.023998 -45.917999 -42.021 -37.116001 -35.019001 -28.782 -27.09 -24.84 -20.214001 -18.117001 -13.212 -10.593 -5.6789999 -0.78299999 4.0949998 6.723 8.8199997 13.716 18.594 21.222 28.089001 29.790001 33.687 37.584 39.276001 44.181 48.806999 50.903999 55.359001 59.993999 64.899002 66.996002 68.688004 72.584999 74.681999 78.903 80.595001 82.845001 87.713997 92.627998 94.724998 98.936996 103.842 106.47 109.098 113.976 118.188 120.438 122.13 126.225 128.32201 130.01401 134.649 136.746 138.996 143.62199 148.5 150.597 154.494 156.744 161.37 166.27499 171.153 175.77901 178.02901 179.496 183.39301 185.49001 190.40401 195.30901 199.521 204.147 211.02299 215.901 220.52699 222.77699 227.23199 229.48199 231.174 236.07899 240.714 242.811 247.26601 251.892 256.797 259.10101 264.01501 266.634 268.73999 270.98999 275.616 280.48499 282.591 286.48801 291.39301 293.08499 297.711 300.55502 302.24701 307.15201 311.78702 313.884 318.51001 322.965 326.862 328.95901 333.86401 338.742 343.62 348.246 350.34302 352.50302 357.40802 362.043 366.66901 371.57401 373.67102 375.92102 380.82602 382.923 387.55801 392.013 396.108 400.98602 403.08301 407.70901 412.61401 414.72 421.58701 426.22202 430.11902 431.811 436.02301"
           y="52.999992"
           sodipodi:role="line"
           id="tspan208">done so with proper permission and is cited correctly in the student’s documentation and/or the solution has been found to have no music/</tspan><tspan
           x="-67.337997 -63.441002 -58.535999 -53.91 -49.275002 -44.369999 -42.272999 -40.581001 -35.955002 -31.733999 -30.042 -25.416 -20.511 -15.633 -10.728"
           y="63.999989"
           sodipodi:role="line"
           id="tspan210">sound included.</tspan></text><text
         transform="translate(44.999997,312.82)"
         style="font-variant:normal;font-weight:normal;font-size:9px;font-family:'DejaVu Sans';-inkscape-font-specification:DejaVuSans;writing-mode:lr-tb;fill:#231f20;fill-opacity:1;fill-rule:nonzero;stroke:none"
         id="text216"><tspan
           x="0 5.0040002 9.927 16.083 22.202999 27.135 33.335999 37.808998 39.716999"
           y="0"
           sodipodi:role="line"
           id="tspan214">STUDENT: </tspan></text><text
         transform="translate(86.804997,312.82)"
         style="font-variant:normal;font-weight:200;font-size:9px;font-family:'DejaVu Sans Light';-inkscape-font-specification:DejaVuSans-ExtraLight;writing-mode:lr-tb;fill:#231f20;fill-opacity:1;fill-rule:nonzero;stroke:none"
         id="text222"><tspan
           x="0 5.598 10.224 14.121 20.358 25.236 27.864 29.961 34.856998 39.483002 44.361 48.257999 50.507999 52.200001 57.105 61.740002 63.837002 68.841003 70.946999 75.851997 80.730003 82.421997 87.327003 93.140999"
           y="0"
           sodipodi:role="line"
           id="tspan218">Answer question 2 below.</tspan><tspan
           x="-41.805 -36.792 -34.973999 -28.313999 -22.311001 -17.406 -12.528 -8.6309996 -6.5339999 -2.4389999 2.4660001 7.092 9.7200003 11.817 15.714 20.628 22.32 26.945999 29.195999 30.888 35.792999 40.418999 42.525002 44.775002 49.68 51.777 54.027 58.653 63.530998 65.627998 69.839996 74.745003 81.621002 86.516998 91.394997 93.644997 95.336998 97.586998 99.278999 103.374 108.252 110.349 115.227 119.322 124.2 128.826 131.076 133.173 134.86501 139.5 141.75 146.619 151.524 154.15199 158.60699 160.85699 165.735 167.832 172.287 176.922 181.017 183.114 188.019 190.647 195.10201 199.998 204.62399 206.31599 210.537 214.43401 216.73801 220.83299 222.52499 227.42999 232.308 237.213 240.73199 244.683"
           y="14.599998"
           sodipodi:role="line"
           id="tspan220">2) Does your solution to the competitive event integrate any graphics/videos? </tspan></text><g
         id="g224"
         transform="scale(1,-1)"><path
           d="m 337.75,-319.375 h 9.801 v -9.797 h -9.801 z"
           style="fill:none;stroke:#231f20;stroke-width:0.5;stroke-linecap:butt;stroke-linejoin:miter;stroke-miterlimit:4;stroke-dasharray:none;stroke-opacity:1"
           id="path226" /></g><text
         transform="translate(349.68099,327.42001)"
         style="font-variant:normal;font-weight:200;font-size:9px;font-family:'DejaVu Sans Light';-inkscape-font-specification:DejaVuSans-ExtraLight;writing-mode:lr-tb;fill:#231f20;fill-opacity:1;fill-rule:nonzero;stroke:none"
         id="text230"><tspan
           x="0 5.3280001 10.17 15.174"
           y="0"
           sodipodi:role="line"
           id="tspan228">YES </tspan></text><g
         id="g232"
         transform="scale(1,-1)"><path
           d="m 373.75,-319.375 h 9.801 v -9.797 h -9.801 z"
           style="fill:none;stroke:#231f20;stroke-width:0.5;stroke-linecap:butt;stroke-linejoin:miter;stroke-miterlimit:4;stroke-dasharray:none;stroke-opacity:1"
           id="path234" /></g><text
         transform="translate(385.68099,327.42001)"
         style="font-variant:normal;font-weight:200;font-size:9px;font-family:'DejaVu Sans Light';-inkscape-font-specification:DejaVuSans-ExtraLight;writing-mode:lr-tb;fill:#231f20;fill-opacity:1;fill-rule:nonzero;stroke:none"
         id="text242"><tspan
           x="0 6.066"
           y="0"
           sodipodi:role="line"
           id="tspan236">NO</tspan><tspan
           x="-327.181 -325.40799 -323.24799 -321.151 -315.08499 -308.69501 -306.95801 -304.86099 -299.95599 -295.05099 -292.95401 -290.70401 -285.79901 -283.69299 -278.797 -274.17099 -269.293 -265.396 -263.146 -261.45401 -256.54901 -251.92299 -249.82599 -245.155"
           y="12.799998"
           sodipodi:role="line"
           id="tspan238">If NO, go to question 3.</tspan><tspan
           x="-327.181 -325.40799 -323.24799 -321.151 -315.823 -310.98099 -305.97699 -304.23999 -302.14301 -300.45099 -296.55399 -294.73599 -290.28101 -287.65298 -282.77499 -280.957 -278.85999 -276.60999 -271.98401 -267.10599 -265.009 -260.104 -257.47598 -253.021 -248.125 -243.49899 -241.80699 -237.586 -233.689 -231.38499 -227.28999 -225.59799 -220.69299 -215.815 -210.90999 -207.013 -204.916 -200.69499 -195.78999 -190.894 -186.799 -184.17099 -182.47899 -177.57399 -172.948 -170.698 -165.81999 -160.91499 -159.17799 -157.07199 -154.453 -149.575 -144.67 -142.978 -139.08099 -136.83099 -131.953 -129.325 -124.447 -119.54199 -117.445 -112.99 -108.364 -103.45 -101.146 -96.240997 -93.612999 -91.515999 -89.265999 -86.637993 -82.182999 -77.277992 -72.399994 -65.523994 -61.068996 -58.440994 -54.318996 -49.449997 -44.535995 -40.593994"
           y="25.599997"
           sodipodi:role="line"
           id="tspan240">If YES, is(are) the graphics/videos copyrighted, registered and/or trademarked? </tspan></text><g
         id="g244"
         transform="scale(1,-1)"><path
           d="m 351.25,-344.969 h 9.801 v -9.797 h -9.801 z"
           style="fill:none;stroke:#231f20;stroke-width:0.5;stroke-linecap:butt;stroke-linejoin:miter;stroke-miterlimit:4;stroke-dasharray:none;stroke-opacity:1"
           id="path246" /></g><text
         transform="translate(363.18099,353.02001)"
         style="font-variant:normal;font-weight:200;font-size:9px;font-family:'DejaVu Sans Light';-inkscape-font-specification:DejaVuSans-ExtraLight;writing-mode:lr-tb;fill:#231f20;fill-opacity:1;fill-rule:nonzero;stroke:none"
         id="text250"><tspan
           x="0 5.3280001 10.17 15.174"
           y="0"
           sodipodi:role="line"
           id="tspan248">YES </tspan></text><g
         id="g252"
         transform="scale(1,-1)"><path
           d="m 387.25,-344.969 h 9.801 v -9.797 h -9.801 z"
           style="fill:none;stroke:#231f20;stroke-width:0.5;stroke-linecap:butt;stroke-linejoin:miter;stroke-miterlimit:4;stroke-dasharray:none;stroke-opacity:1"
           id="path254" /></g><text
         transform="translate(399.18099,353.02001)"
         style="font-variant:normal;font-weight:200;font-size:9px;font-family:'DejaVu Sans Light';-inkscape-font-specification:DejaVuSans-ExtraLight;writing-mode:lr-tb;fill:#231f20;fill-opacity:1;fill-rule:nonzero;stroke:none"
         id="text270"><tspan
           x="0 6.066"
           y="0"
           sodipodi:role="line"
           id="tspan256">NO</tspan><tspan
           x="-340.681 -338.90799 -336.74799 -334.651 -329.323 -324.48099 -319.47699 -317.73999 -315.64301 -308.767 -303.862 -299.767 -294.88901 -292.79199 -290.54199 -285.63699 -283.54001 -278.63501 -274.009 -269.13098 -265.23401 -262.99298 -261.29199 -256.38699 -251.761 -249.664 -244.651 -239.05299 -237.31599 -235.21899 -233.446 -231.286 -229.189 -223.123 -216.733 -214.996 -212.899 -206.02299 -201.118 -197.01399 -192.14499 -190.039 -187.79799 -182.884 -180.787 -175.89099 -171.265 -166.38699 -162.48999 -160.23999 -158.54799 -153.64299 -149.017 -146.911 -141.907 -136.606"
           y="12.799998"
           sodipodi:role="line"
           id="tspan258">If YES, move to question 2A. If NO, move to question 2B.</tspan><tspan
           x="-340.681 -335.668 -330.07001 -328.25198 -322.69 -316.59698 -312.142 -308.047 -303.16901 -301.07199 -296.97699 -292.07199 -287.43698 -285.34 -280.88501 -276.98801 -272.866 -267.98801 -263.08301 -260.98599 -258.82599 -253.92099 -251.293 -249.196 -244.741 -240.106 -237.86499 -233.23 -228.325 -225.69699 -223.59999 -218.70399 -213.82599 -211.198 -204.32199 -202.62999 -198.733 -194.836 -193.144 -188.239 -183.61299 -181.51599 -179.26599 -174.35199 -172.25499 -167.629 -163.73199 -158.85399 -156.75699 -154.50699 -149.881 -145.00299 -142.90599 -138.00099 -135.373 -130.918 -126.022 -121.396 -119.70399 -115.48299 -111.586 -109.489 -105.034 -100.408 -95.502998 -93.198997 -88.284996 -85.656998 -83.559998 -79.464996 -77.772995 -72.867996 -67.989998 -63.084995 -59.187996 -57.090996 -55.398994 -50.763996 -48.666996 -44.571995 -39.666996 -35.040997 -32.412994 -30.315996 -26.418997 -21.504995 -19.812996 -15.186996 -12.936996 -11.244996 -6.3399959 -1.7139961 0.39200401 4.8470039 9.4730043 14.378004 16.475004 18.176004 22.802004 27.014004 28.706003 33.332005 38.246002 43.115005 48.029003 50.126003 54.581005 57.335003 62.231003 67.109001 69.737007 76.613007 78.305 82.202003 86.099007 87.791 92.696007 97.322006 99.428001 101.23701 102.938 107.80701 110.05701 112.30701 117.18501 119.813 122.117 124.277 129.18201 131.81 138.686 140.504 142.601 144.293 148.91901 151.01601 155.12001 160.02501 164.651 167.504"
           y="25.599997"
           sodipodi:role="line"
           id="tspan260">2A) Have you asked for author permission to use the graphics and/or videos in your solution and included a permission (letter/form) in your </tspan><tspan
           x="-322.681 -317.776 -312.871 -308.64999 -304.02399 -297.14801 -292.27899 -287.64398 -285.39398 -280.939 -278.689 -276.99701 -272.09201 -267.466 -265.36899 -263.20898 -258.29498 -255.67599 -253.56999 -248.674 -246.04599 -241.582 -236.68599 -232.06 -230.368 -226.15599 -223.85199 -219.748 -218.056 -213.151 -208.27299 -203.368 -201.271 -196.64499 -192.748 -187.87 -182.965 -179.01399 -176.91699 -175.144 -172.98399 -170.88699 -165.55899 -160.717 -155.722 -153.976 -151.879 -145.00299 -140.09799 -136.00299 -131.125 -129.028 -126.77799 -121.87299 -119.77599 -114.88 -110.254 -105.376 -101.479 -99.228996 -97.536995 -92.631996 -87.996994 -85.899994 -81.228996 -79.491997 -77.394997 -75.621994 -73.461998 -71.364998 -65.298996 -58.908997 -57.171997 -55.074997 -50.619995 -46.722996 -42.402996 -40.305996 -38.145996 -33.240997 -30.612995 -28.515997 -23.610996 -18.741997 -16.113997 -9.2379961 -7.5459962 -3.6489961 0.248004 1.9490041 6.8540039 11.480004 13.577004 18.032003 22.667004 27.572004 29.669004 31.361004 33.521004 35.618004 40.514004 45.392002 48.020004 55.481049 57.17305 61.070049 64.967049 66.65905 71.573051 76.199051 78.296051 79.988052 83.885048 85.982048 90.887047 93.515053 97.970047 102.59605 104.84605 109.72405 114.62905 116.36605 118.47205 120.16405 124.79005 129.00204 130.69405 135.32005 140.23405 145.10304 147.20905 149.45905 154.08505 159.17905"
           y="36.599995"
           sodipodi:role="line"
           id="tspan262">documentation for graphic/video used? If YES, move to question 3. If NO, ask for permission and if permission is granted, include the </tspan><tspan
           x="-322.681 -317.785 -312.90698 -310.27899 -303.40298 -301.711 -297.814 -293.91699 -292.22501 -287.32001 -282.694 -280.58798 -278.896 -274.26999 -272.173 -268.078 -263.164 -258.53799 -255.90999 -253.813 -248.90799 -244.00299 -239.791 -235.15599 -228.289 -223.411 -218.78499 -216.53499 -212.071 -209.83 -208.129 -203.224 -198.59799"
           y="47.599991"
           sodipodi:role="line"
           id="tspan264">permission in your documentation.</tspan><tspan
           x="-340.681 -335.668 -330.37601 -328.55798 -322.69901 -320.92599 -317.02899 -315.211 -310.75598 -308.12799 -303.25 -301.43201 -299.33499 -297.08499 -292.45898 -287.58099 -285.48401 -280.57901 -277.95099 -273.496 -268.60001 -263.974 -262.28198 -258.061 -254.164 -251.86 -247.765 -246.073 -241.168 -236.28999 -231.38499 -227.48799 -225.39099 -222.763 -217.858 -213.754 -209.299 -207.60699 -205.35699 -201.26199 -199.16499 -197.00499 -194.377 -189.49899 -184.702 -182.965 -180.868 -175.963 -173.33499 -171.23799 -166.33299 -164.64099 -159.72699 -157.62999 -153.53499 -148.62999 -144.004 -141.907 -137.68599 -135.058 -130.189 -125.725 -123.48399 -118.606 -116.509 -112.405 -107.49999 -102.87399 -100.24599 -98.148994 -93.243996 -87.006996 -82.380997 -80.274994 -75.378998 -72.750999 -68.286995 -63.390995 -58.764996 -57.072994 -53.058994 -49.107998 -47.010998 -45.237995 -43.077995 -40.980995 -35.652996 -30.810995 -25.815996 -24.069996 -21.972996 -17.760996 -16.068996 -13.818996 -8.9409962 -6.843996 -4.593996 0.032003999 4.9100041 7.0070038 9.635004 14.540004 18.635004 23.090004 24.791004 27.626003 31.721004 33.818005 35.978004 38.606003 43.484005 48.362003 50.459003 55.364002 57.992004 62.447002 67.343002 71.969002 73.661003 77.882004 81.779007 84.083008 88.178001 89.870003 94.775002 99.653008 104.55801 108.455 110.552 117.203 122.315 124.42101 128.51601 133.42101 138.047 140.675 142.772 147.677 153.914 158.774"
           y="60.399998"
           sodipodi:role="line"
           id="tspan266">2B) Is(are) the graphics/videos royalty free, or did you create your own graphic? If YES, cite the royalty free graphics/videos OR your own </tspan><tspan
           x="-322.681 -317.776 -315.14801 -313.45599 -308.55099 -306.85901 -302.224 -297.76898 -296.077 -293.98001 -289.07498 -286.44699 -281.992 -277.09601 -272.47 -270.76898 -266.55701 -262.66 -260.35599 -256.26099 -254.569 -249.664 -244.786 -239.881 -235.98399 -233.87799 -228.98199 -226.35399 -221.44899 -216.55299 -211.675 -209.047 -207.355 -203.25999 -201.16299 -199.47099 -194.836 -192.739 -188.644 -183.739 -179.11299 -176.485 -174.388 -169.474 -164.569 -160.35699 -155.731 -148.855 -143.97699 -139.351 -137.101 -132.646 -130.396 -128.70399 -123.799 -119.16399"
           y="71.399994"
           sodipodi:role="line"
           id="tspan268">original graphics/videos properly in your documentation.</tspan></text><text
         transform="translate(44.999994,444.42001)"
         style="font-variant:normal;font-weight:normal;font-size:9px;font-family:'DejaVu Sans';-inkscape-font-specification:DejaVuSans;writing-mode:lr-tb;fill:#231f20;fill-opacity:1;fill-rule:nonzero;stroke:none"
         id="text274"><tspan
           x="0 5.8860002 12.105 17.874001 23.021999 27.945 32.868 38.195999 40.284 46.053001 51.993 57.762001 59.769001 64.845001 71.504997 76.842003 78.75"
           y="0"
           sodipodi:role="line"
           id="tspan272">CHAPTER ADVISOR: </tspan></text><text
         transform="translate(125.83799,444.42001)"
         style="font-variant:normal;font-weight:200;font-size:9px;font-family:'DejaVu Sans Light';-inkscape-font-specification:DejaVuSans-ExtraLight;writing-mode:lr-tb;fill:#231f20;fill-opacity:1;fill-rule:nonzero;stroke:none"
         id="text288"><tspan
           x="0 4.9949999 6.6869998 11.592 16.218 18.315001 23.229 28.098 29.790001 34.703999 40.941002 43.037998 45.666 50.543999 55.439999 59.903999 62.522999 67.436996 69.128998 73.754997 78.660004 80.757004 84.851997 89.765999 94.391998 97.019997 99.116997 103.014 105.264 109.89 114.795 119.673 124.299 126.549 128.01601 131.91299 134.00999 138.465 143.10001 146.99699 153.23399 158.112 160.731 162.549 166.446 168.26401 170.36099 172.61099 177.51601 179.62199 181.86301 186.498 191.367 193.47301 198.099 201.996 206.86501 208.97099 213.87601 216.036 218.133 223.03799 225.666 230.121 235.017 239.64301 241.33501 245.556 249.453 251.757 255.85201 257.54401 262.44901 267.327 272.23199 276.129 278.22601 279.927 284.55301 286.64999 291.276 292.96799 296.86499 299.16901 303.80399 308.673 311.30099 313.39801 317.61899 322.52399 329.39999 334.29599 339.17401 341.42401 343.116 345.366 347.05801 351.15302 356.03101 358.12799 363.00601 367.75717 372.63519 377.26117 379.51117 381.60818 385.50519 390.41019 392.10217 396.73718 398.97818 400.67917 405.58417 410.21017 411.94717 414.04419 418.88617 422.99017 427.85919 432.71918"
           y="0"
           sodipodi:role="line"
           id="tspan276">Sign below regarding your student’s answer(s) to the use of graphics/videos in his/her competitive event solution. Even </tspan><tspan
           x="-80.837997 -79.146004 -76.986 -74.889 -70.793999 -65.879997 -61.254002 -58.625999 -56.528999 -52.632 -50.382 -45.756001 -40.851002 -35.973 -31.347 -29.097 -27 -22.545 -17.91 -14.013 -7.776 -2.898 -0.27900001 3.618 5.724 8.7299995 14.796 21.357 24.372 26.469 28.719 33.624001 35.73 40.625999 45.251999 50.130001 54.027 56.277 57.969002 62.874001 67.5 69.597 74.610001 76.347 78.444 83.348999 85.041 89.918999 94.374001 98.271004 103.149 105.246 109.143 110.835 115.74 120.366 122.463 127.368 132.246 133.938 138.843 145.089 147.186 151.812 156.717 158.967 160.659 165.285 170.19 172.287 174.537 179.172 183.627 185.877 187.974 192.069 196.974 201.60001 203.70599 208.332 212.787 216.882 221.75999 223.85699 228.735 232.83 237.285 238.97701 243.612 248.067 250.317 255.186 260.10001 262.19699 264.44699 269.073 273.95099 276.048 280.26001 285.16501 292.60803 297.50403 302.38202 304.63202 306.32401 308.57401 310.26602 314.36102 319.23901 321.33603 326.21402 330.30902 335.18701 339.81302 342.06302 344.16 348.05701 352.96201 354.66302 359.28903 361.53903 363.23102 368.13602 372.76202 374.85901 379.32303 383.94901 388.854 390.95102 393.20102 397.82703 402.70502 404.80203 408.69901 410.94901 415.57501 420.48901 425.35803 429.99301 432.45901"
           y="10.999998"
           sodipodi:role="line"
           id="tspan278">if your student answers “NO” to question 2, please sign below noting that you have evaluated the competitive event solution and the student </tspan><tspan
           x="-80.837997 -76.383003 -71.757004 -67.860001 -61.613998 -56.744999 -54.117001 -49.238998 -44.334 -42.237 -39.987 -35.361 -30.483 -28.386 -23.481001 -18.855 -13.977 -10.08 -7.8390002 -6.138 -1.233 3.3929999 5.211 9.1079998 10.926 13.023 17.478001 21.690001 25.902 30.537001 33.165001 37.619999 39.869999 44.738998 46.439999 50.004002"
           y="21.999996"
           sodipodi:role="line"
           id="tspan280">answered the question(s) accurately.</tspan><tspan
           x="-67.337997 -65.565002 -63.827999 -61.730999 -56.880001 -52.028999 -47.178001 -42.327 -37.476002 -32.625 -27.774 -22.923 -18.072001 -13.221 -8.3699999 -3.5190001 1.332 6.1830001 11.034 15.885 20.736 25.587 30.438 35.289001 40.139999 44.991001 49.841999 54.693001 59.543999 64.394997 69.246002 74.097 78.947998 83.799004 85.896004 87.713997 91.934998 96.560997 101.016 105.912 108.162 113.04 115.668 117.765 122.22 127.125 131.22 132.92101 136.81799 141.72301 144.351 146.16901 147.90601 150.00301 154.629 159.084 163.179 168.05701 170.15401 174.375 179.00101 183.879 188.091 192.213 197.082 201.996 204.093 210.96899 215.064 217.161 221.058 223.308 227.93401 232.839 237.717 242.343 244.593 246.06 249.957 252.054 255.951 260.86499 262.55701 267.18301 269.43301 271.125 276.03 280.65601 282.76199 287.21701 291.84299 296.74799 298.845 303.06601 307.97101 312.59698 316.67401 319.302 326.17801 328.27499 330.52499 335.151 339.60599 341.85599 343.953 346.203 350.82901 355.707 357.80399 362.42999 366.327 371.20499 373.302 378.207 380.367 382.47299 387.36899 389.99701 394.461 399.35699 403.983 405.67499 409.88699 413.784 416.08801 420.19199 421.884 426.789 431.66699 436.57199 440.694"
           y="41.999992"
           sodipodi:role="line"
           id="tspan282">I, ______________________________ (chapter advisor), have checked my student’s solution and confrm that the use of graphics/videos </tspan><tspan
           x="-67.337997 -61.101002 -59.409 -57.159 -52.533001 -50.426998 -45.530998 -42.903 -37.998001 -33.102001 -28.224001 -25.596001 -23.499001 -18.603001 -13.725 -11.097 -4.2210002 -2.529 1.368 5.2649999 6.9569998 11.862 16.488001 18.584999 23.049 27.674999 32.580002 34.676998 36.368999 40.265999 42.372002 46.584 48.276001 50.526001 55.403999 60.308998 62.405998 66.617996 71.523003 74.151001 76.778999 81.656998 85.869003 88.119003 89.810997 93.905998 96.002998 97.704002 102.33 104.427 106.677 111.303 116.181 118.278 122.175 124.425 129.05099 133.95599 138.834 143.46001 145.71001 147.177 151.07401 153.17101 158.08501 162.99001 167.202 171.828 178.70399 183.582 188.20799 190.45799 194.91299 197.16299 198.855 203.75999 208.395 210.492 214.94701 219.573 224.478 226.791 231.696 234.32401 236.42101 238.67101 243.297 248.175 250.272 254.16901 259.07401 260.76599 265.392 267.642 269.33401 274.24799 278.87399 280.97101 285.59698 290.63693 294.53391 296.63092 301.53592 306.41391 311.29193 315.91791 318.01492 320.17493 325.07993 329.7149 334.34091 339.24591 341.34293 343.59293 348.49792 350.59491 355.22992 359.68491 363.77991 368.65793 370.75491 375.38092 380.28592 382.3829 387.28793 389.91592 394.37091 399.27591 403.90192 405.59393 409.80591 413.70291 416.00693 420.11093 421.80292 426.70792 431.58591 436.49091 440.61292"
           y="52.999992"
           sodipodi:role="line"
           id="tspan284">with proper permission and is cited correctly in the student’s documentation and/or the solution has been found to have no graphics/videos </tspan><tspan
           x="-67.337997 -65.646004 -61.02 -56.799 -55.106998 -50.480999 -45.576 -40.698002 -35.792999 -33.831001"
           y="63.999989"
           sodipodi:role="line"
           id="tspan286">included. </tspan></text><text
         transform="translate(44.999994,528.41999)"
         style="font-variant:normal;font-weight:normal;font-size:9px;font-family:'DejaVu Sans';-inkscape-font-specification:DejaVuSans;writing-mode:lr-tb;fill:#231f20;fill-opacity:1;fill-rule:nonzero;stroke:none"
         id="text292"><tspan
           x="0 5.0040002 9.927 16.083 22.202999 27.135 33.335999 37.808998 39.716999"
           y="0"
           sodipodi:role="line"
           id="tspan290">STUDENT: </tspan></text><text
         transform="translate(86.804994,528.41999)"
         style="font-variant:normal;font-weight:200;font-size:9px;font-family:'DejaVu Sans Light';-inkscape-font-specification:DejaVuSans-ExtraLight;writing-mode:lr-tb;fill:#231f20;fill-opacity:1;fill-rule:nonzero;stroke:none"
         id="text298"><tspan
           x="0 5.598 10.224 14.121 20.358 25.236 27.864 29.961 34.856998 39.483002 44.361 48.257999 50.507999 52.200001 57.105 61.740002 63.837002 68.499001 70.605003 75.510002 80.388 82.080002 86.985001 92.799004"
           y="0"
           sodipodi:role="line"
           id="tspan294">Answer question 3 below.</tspan><tspan
           x="-41.805 -37.133999 -35.316002 -28.313999 -22.311001 -17.406 -12.528 -8.6309996 -6.5339999 -2.4389999 2.4660001 7.092 9.7200003 11.817 15.714 20.628 22.32 26.945999 29.195999 30.888 35.792999 40.418999 42.525002 44.765999 49.68 51.777 54.027 58.653 63.530998 65.627998 69.839996 74.745003 81.621002 86.516998 91.394997 93.644997 95.336998 97.586998 99.278999 103.374 108.252 110.349 115.227 119.322 124.2 128.826 131.076 133.173 137.808 141.705 146.57401 148.67101 153.13499 157.761 162.666 164.916 169.54201 174.42 177.048 178.515 182.412 184.509 186.759 191.38499 196.28999 200.925 205.821 210.45599 212.70599 216.603 218.7 223.605 226.233 228.33 230.95799 235.836 239.733 244.60201 249.06599 251.685 255.90601 260.23499 264.177"
           y="14.599998"
           sodipodi:role="line"
           id="tspan296">3) Does your solution to the competitive event use another’s thoughts or research? </tspan></text><g
         id="g300"
         transform="scale(1,-1)"><path
           d="m 355.75,-534.969 h 9.801 v -9.797 h -9.801 z"
           style="fill:none;stroke:#231f20;stroke-width:0.5;stroke-linecap:butt;stroke-linejoin:miter;stroke-miterlimit:4;stroke-dasharray:none;stroke-opacity:1"
           id="path302" /></g><text
         transform="translate(367.68099,543.02001)"
         style="font-variant:normal;font-weight:200;font-size:9px;font-family:'DejaVu Sans Light';-inkscape-font-specification:DejaVuSans-ExtraLight;writing-mode:lr-tb;fill:#231f20;fill-opacity:1;fill-rule:nonzero;stroke:none"
         id="text306"><tspan
           x="0 5.3280001 10.17 15.174"
           y="0"
           sodipodi:role="line"
           id="tspan304">YES </tspan></text><g
         id="g308"
         transform="scale(1,-1)"><path
           d="m 389.949,-534.969 h 9.801 v -9.797 h -9.801 z"
           style="fill:none;stroke:#231f20;stroke-width:0.5;stroke-linecap:butt;stroke-linejoin:miter;stroke-miterlimit:4;stroke-dasharray:none;stroke-opacity:1"
           id="path310" /></g><text
         transform="translate(401.88099,543.02001)"
         style="font-variant:normal;font-weight:200;font-size:9px;font-family:'DejaVu Sans Light';-inkscape-font-specification:DejaVuSans-ExtraLight;writing-mode:lr-tb;fill:#231f20;fill-opacity:1;fill-rule:nonzero;stroke:none"
         id="text318"><tspan
           x="0 6.066"
           y="0"
           sodipodi:role="line"
           id="tspan312">NO</tspan><tspan
           x="-343.38101 -341.608 -339.44803 -337.35101 -331.285 -324.89502 -323.15802 -321.061 -318.811 -314.18503 -312.49301 -308.59601 -306.49002 -304.798 -300.901 -298.80402 -296.55402 -291.92801 -287.05002 -284.953 -280.07501 -275.44901 -270.54401 -268.44702 -263.54202 -261.38202 -259.285 -257.035 -252.40001 -247.53102 -245.42502 -241.21301 -236.58702 -231.70901 -227.49701 -223.17702 -221.48502 -219.79301 -215.89601 -213.64601"
           y="12.799998"
           sodipodi:role="line"
           id="tspan314">If NO, this is the end of the checklist.</tspan><tspan
           x="-343.38101 -341.608 -339.44803 -337.35101 -332.02301 -327.181 -322.177 -320.44 -318.34302 -313.71701 -309.26202 -305.15802 -300.289 -298.19202 -294.08801 -289.18301 -284.55701 -282.46002 -277.56403 -274.936 -270.03101 -265.12601 -260.25702 -257.62903 -255.92801 -251.83301 -249.73601 -245.52402 -243.83202 -241.58202 -236.70401 -231.79901 -229.70201 -224.79701 -222.54701 -217.91202 -213.04301 -210.41501 -208.94801 -205.05101 -202.95401 -200.70401 -196.06902 -191.16402 -186.53801 -181.63301 -177.00702 -174.75702 -170.86002 -168.76302 -163.85802 -161.23001 -159.13301 -156.50502 -151.62701 -147.73001 -142.85202 -138.39702 -135.76901 -131.55701 -126.93102 -124.83401 -123.14201 -118.50701 -116.41001 -112.31502 -107.41001 -102.78401 -100.15601 -98.059013 -93.145012 -88.240013 -84.028015 -79.402016 -72.526016 -67.64801 -63.022015 -60.772015 -56.317013 -54.067013 -52.375015 -47.470013 -43.132015 -39.190014"
           y="25.599997"
           sodipodi:role="line"
           id="tspan316">If YES, have you properly cited other’s thoughts or research in your documentation? </tspan></text><g
         id="g320"
         transform="scale(1,-1)"><path
           d="m 369.25,-560.57 h 9.801 v -9.797 h -9.801 z"
           style="fill:none;stroke:#231f20;stroke-width:0.5;stroke-linecap:butt;stroke-linejoin:miter;stroke-miterlimit:4;stroke-dasharray:none;stroke-opacity:1"
           id="path322" /></g><text
         transform="translate(381.18099,568.62001)"
         style="font-variant:normal;font-weight:200;font-size:9px;font-family:'DejaVu Sans Light';-inkscape-font-specification:DejaVuSans-ExtraLight;writing-mode:lr-tb;fill:#231f20;fill-opacity:1;fill-rule:nonzero;stroke:none"
         id="text326"><tspan
           x="0 5.3280001 10.17 15.174"
           y="0"
           sodipodi:role="line"
           id="tspan324">YES </tspan></text><g
         id="g328"
         transform="scale(1,-1)"><path
           d="m 405.25,-560.57 h 9.801 v -9.797 h -9.801 z"
           style="fill:none;stroke:#231f20;stroke-width:0.5;stroke-linecap:butt;stroke-linejoin:miter;stroke-miterlimit:4;stroke-dasharray:none;stroke-opacity:1"
           id="path330" /></g><text
         transform="translate(417.18099,568.62001)"
         style="font-variant:normal;font-weight:200;font-size:9px;font-family:'DejaVu Sans Light';-inkscape-font-specification:DejaVuSans-ExtraLight;writing-mode:lr-tb;fill:#231f20;fill-opacity:1;fill-rule:nonzero;stroke:none"
         id="text334"><tspan
           x="0 6.066"
           y="0"
           sodipodi:role="line"
           id="tspan332">NO</tspan></text><text
         transform="translate(58.499994,583.22)"
         style="font-variant:normal;font-weight:normal;font-size:9px;font-family:'DejaVu Sans';-inkscape-font-specification:DejaVuSans;writing-mode:lr-tb;fill:#231f20;fill-opacity:1;fill-rule:nonzero;stroke:none"
         id="text338"><tspan
           x="0 5.8860002 12.105 17.874001 23.021999 27.945 32.868 38.195999 40.284 46.053001 51.993 57.762001 59.769001 64.845001 71.504997 76.842003 78.75"
           y="0"
           sodipodi:role="line"
           id="tspan336">CHAPTER ADVISOR: </tspan></text><text
         transform="translate(139.33799,583.22)"
         style="font-variant:normal;font-weight:200;font-size:9px;font-family:'DejaVu Sans Light';-inkscape-font-specification:DejaVuSans-ExtraLight;writing-mode:lr-tb;fill:#231f20;fill-opacity:1;fill-rule:nonzero;stroke:none"
         id="text352"><tspan
           x="0 4.9949999 6.6869998 11.592 16.218 18.315001 23.229 28.098 29.790001 34.703999 40.941002 43.037998 45.666 50.543999 55.439999 59.903999 62.522999 67.436996 69.128998 73.754997 78.660004 80.757004 84.851997 89.765999 94.391998 97.019997 99.116997 103.014 105.264 109.89 114.795 119.673 124.299 126.549 128.01601 131.91299 134.00999 138.465 143.10001 146.99699 153.23399 158.112 160.731 162.549 166.446 168.26401 170.36099 172.61099 177.51601 179.61301 184.248 188.703 192.798 194.49001 199.116 204.021 206.127 207.819 212.44501 214.69501 219.573 224.46899 227.097 231.561 233.802 238.67999 243.58501 245.69099 250.146 254.772 258.867 260.96399 263.21399 267.84 272.754 277.38 282.285 286.91101 289.16101 293.05801 295.362 297.98999 302.86801 306.76501 311.634 316.09799 318.71701 322.93799 327.564 329.66101 334.56601 336.72601 338.823 343.728 345.978 350.61301 355.48199 358.10999 362.00699 364.724 366.41602 371.04202 373.14801 377.77402 379.466 383.36301 385.66702 390.293 395.17102 398.02402"
           y="0"
           sodipodi:role="line"
           id="tspan340">Sign below regarding your student’s answer(s) to having integrated any thoughts/research of others in his/her </tspan><tspan
           x="-80.837997 -76.625999 -71.721001 -64.845001 -59.949001 -55.070999 -52.820999 -51.129002 -48.879002 -47.187 -43.083 -38.214001 -36.108002 -31.239 -27.143999 -22.266001 -17.639999 -15.39 -13.293 -9.3959999 -4.4819999 -2.79 1.836 4.086 5.7779999 10.683 15.318 17.055 19.152 23.993999 28.089001 32.966999 37.592999 39.689999 41.382 43.542 45.647999 49.743 54.647999 59.273998 61.902 63.999001 67.896004 70.146004 74.772003 79.677002 84.555 89.181 91.431 93.528 97.991997 102.618 106.515 112.752 117.63 120.258 124.155 126.252 129.267 135.33299 141.894 144.89999 147.006 149.256 154.161 156.258 161.15401 165.78 170.658 174.55499 176.80499 178.49699 183.40199 188.037 190.134 194.79601 196.54201 198.63901 203.535 205.22701 210.105 214.56 218.457 223.33501 225.43201 229.32899 231.021 235.92599 240.552 242.649 247.563 252.43201 254.133 259.03799 265.27499 267.37201 271.99799 276.90302 279.15302 280.845 286.04681 290.95184 293.04883 295.29883 299.92484 304.37982 306.62982 308.72684 312.83084 317.73584 322.36182 324.45883 329.08484 333.54883 337.64383 342.52182 344.61884 349.48782 353.59183 358.04681 359.73883 364.36484 368.81982 371.06982 375.94781 380.85284 382.94983 385.19983 389.83484 394.92883"
           y="10.999998"
           sodipodi:role="line"
           id="tspan342">competitive event solution. Even if your student answers “NO” to question 3, please sign below noting that you have evaluated the </tspan><tspan
           x="-80.837997 -76.625999 -71.721001 -64.845001 -59.949001 -55.070999 -52.820999 -51.129002 -48.879002 -47.187 -43.083 -38.214001 -36.108002 -31.239 -27.143999 -22.266001 -17.639999 -15.39 -13.293 -9.3959999 -4.4819999 -2.79 1.836 4.086 5.7779999 10.683 15.318 17.415001 21.870001 26.496 31.400999 33.498001 35.748001 40.382999 45.251999 47.348999 51.245998 53.495998 58.131001 63.035999 67.914001 72.540001 74.790001 76.887001 81.342003 85.968002 89.864998 96.101997 100.98 103.608 108.486 113.391 115.488 117.738 122.364 127.242 129.339 134.235 138.87 143.739 147.636 149.886 151.578 156.492 161.118 162.936 166.83299 168.651 170.748 175.203 179.41499 183.627 188.26199 190.881 195.345 197.595 202.464 204.15601 207.729"
           y="21.999996"
           sodipodi:role="line"
           id="tspan344">competitive event solution and the student answered the question(s) accurately.</tspan><tspan
           x="-80.837997 -79.065002 -77.328003 -75.231003 -70.379997 -65.528999 -60.678001 -55.827 -50.976002 -46.125 -41.273998 -36.423 -31.572001 -26.721001 -21.870001 -17.018999 -12.168 -7.3169999 -2.4660001 2.385 7.2360001 12.087 16.938 21.789 26.639999 31.490999 36.341999 41.193001 46.043999 50.895 55.745998 60.597 65.447998 70.299004 72.396004 74.213997 78.434998 83.060997 87.515999 92.412003 94.662003 99.540001 102.168 104.265 108.72 113.625 117.72 119.421 123.318 128.22301 130.851 132.66901 134.40601 136.50301 141.129 145.584 149.679 154.55701 156.65401 160.875 165.50101 170.379 174.591 178.713 183.582 188.496 190.593 197.46899 201.564 203.661 207.558 209.808 214.43401 219.339 224.217 228.843 231.093 232.56 236.457 238.554 242.451 247.36501 249.05701 253.683 255.933 257.625 262.53 267.15601 269.26199 273.71701 278.34299 283.24799 285.345 289.56601 294.47101 299.09698 303.17401 305.802 312.67801 314.77499 317.02499 321.651 326.10599 328.35599 330.453 332.703 337.32901 342.207 344.30399 348.92999 352.827 357.70499 359.802 364.707 366.867 368.97299 371.21399 375.849 380.71799 382.82401 385.07401 389.70001 394.60501 399.23099 404.13599 408.76199 411.01199 414.909"
           y="41.999992"
           sodipodi:role="line"
           id="tspan346">I, ______________________________ (chapter advisor), have checked my student’s solution and confrm that the use of the thoughts/</tspan><tspan
           x="-80.837997 -78.209999 -73.332001 -69.434998 -64.566002 -60.102001 -57.483002 -53.262001 -48.636002 -46.539001 -41.633999 -39.473999 -37.376999 -32.472 -30.222 -25.587 -20.718 -18.09 -14.193 -12.096 -10.395 -6.4980001 -4.401 0.50400001 5.4089999 10.035 14.913 17.01 20.907 25.812 27.909 34.154999 35.847 38.097 42.723 44.82 49.716 52.344002 57.249001 62.153999 67.023003 69.651001 71.748001 76.653 81.522003 84.150002 91.026001 92.718002 96.614998 100.512 102.204 107.118 111.744 113.841 118.296 122.922 127.836 129.933 131.625 135.522 137.619 141.83099 143.52299 145.77299 150.651 155.556 157.653 161.87399 166.77901 169.407 172.035 176.90401 181.116 183.366 185.067 189.162 191.259 192.951 197.577 199.674 201.924 206.55901 211.42799 213.52499 217.422 219.672 224.30701 229.21201 234.09 238.716 240.966 242.433 246.33 248.427 253.332 258.237 262.45801 267.08401 273.95999 278.82901 283.46399 285.71399 290.754 293.004 294.69601 299.60101 304.22702 306.33301 310.78799 315.414 320.319 322.62302 327.53702 330.15601 332.26202 334.50302 339.138 344.00702 346.11301 350.01001 354.91501 356.60699 361.233 363.483 365.17502 370.08002 374.715 376.81201 381.43802 385.89301 389.79001 391.88702 396.79202 401.67001 406.548 411.17401 413.271 415.431 420.336 424.97101 429.59702 434.72702"
           y="52.999992"
           sodipodi:role="line"
           id="tspan348">research of others is done so with proper permission and is cited correctly in the student’s documentation and/or the solution has been found </tspan><tspan
           x="-80.837997 -78.587997 -73.682999 -71.585999 -66.959999 -62.495998 -58.401001 -53.522999 -51.425999 -46.971001 -45.278999 -43.587002 -41.490002 -36.576 -33.957001 -32.256001 -27.351 -25.659 -21.033001 -16.577999 -14.886 -12.789 -10.539 -5.9039998 -0.99900001 3.6270001 8.5319996 13.158 15.408 17.504999 23.742001 25.434 27.684 32.310001 34.416 39.042 43.946999 46.043999 50.669998 54.567001 59.445 61.542 66.446999 68.607002 70.712997 75.617996 77.867996 82.494003 87.372002 89.990997 91.467003 97.470001 99.720001 104.346 109.251 113.877 118.782 123.408 125.658 129.55499 131.85899 134.487 139.36501 143.26199 148.14 152.595 155.22301 159.435 164.061"
           y="63.999989"
           sodipodi:role="line"
           id="tspan350">to have all original thought with no use of other’sthoughts/research.</tspan></text><text
         transform="translate(44.999999,683.22)"
         style="font-variant:normal;font-weight:200;font-size:9.5px;font-family:'DejaVu Sans Light';-inkscape-font-specification:DejaVuSans-ExtraLight;writing-mode:lr-tb;fill:#231f20;fill-opacity:1;fill-rule:nonzero;stroke:none"
         id="text358"><tspan
           x="0 4.6360002 7.4860001 12.3975 17.461 21.935499 26.8755 29.716 31.521 37.4585 42.008999 49.6185 54.092999 56.049999 60.448502 65.1035 69.758499 74.413498 79.068497 83.723503 88.378502 93.033501 97.688499 102.3435 106.9985 111.6535 116.3085 120.9635 125.6185 130.2735 134.9285 139.5835 144.23849 148.89349 153.54849 158.20351 162.85851 167.5135 172.1685 176.8235 181.4785 186.1335 190.7885 195.4435 200.0985 204.75349 209.40849 214.06351 218.71851 223.3735 228.0285 232.6835 237.3385 241.9935 246.6485 251.3035 255.9585 260.61349 265.26849 269.92349 274.57849 279.23349 283.88849 288.54349 293.19849 297.85349 302.50851 307.16351 311.81851 316.47351 321.12851 325.78351 330.43851 335.09351 339.7485 344.4035 349.0585 353.7135 358.3685 363.0235 367.6785 372.3335 376.98849 381.64349 386.29849 390.95349 395.60849 400.26349 404.91849 409.57349 414.22849 418.88351 423.53851 428.19351 432.84851 437.50351 442.15851 446.81351 451.46851 456.1235 460.7785 465.4335 470.0885 474.7435 479.3985 484.0535 488.7085 493.36349 498.01849 502.67349 507.32849 511.98349 516.63849 521.29352 525.94849"
           y="0"
           sodipodi:role="line"
           id="tspan354">Student Name: _____________________________________________________________________________________________________</tspan><tspan
           x="0 5.263 10.165 14.7155 19.6555 22.400999 26.885 29.782499 31.577999 36.470501 41.524502 45.5145 47.576 51.309502 56.278 59.175499 60.971001 65.806503 67.858498 72.371002 77.301498 81.747498 84.597504 89.518501 92.311501 96.795502 98.752502 102.258 106.913 111.568 116.223 120.878 125.533 130.188 134.843 139.498 144.153 148.808 153.463 158.118 162.77299 167.42799 172.08299 176.73801 181.39301 186.048 190.703 195.358 200.013 204.668 209.323 213.978 218.633 223.28799 227.94299 232.59801 237.25301 241.908 246.563 251.218 255.873 260.52802 265.18301 269.83801 274.49301 279.14801 283.80301 288.45801 293.11301 297.76801 302.423 307.078 311.733 316.388 321.043 325.698 330.353 335.008 339.66299 344.31799 348.97299 353.62799 358.28299 362.93799 367.59299 372.24799 376.90302 381.55801 386.21301 390.86801 395.52301 400.17801 404.83301 409.48801 414.14301 418.798 423.453 428.108 432.763 437.418 442.073 446.728 451.383 456.03799 460.69299 465.34799 470.00299 474.65799 479.31299 483.96799 488.62299 493.27802 497.93301 502.58801 507.24301 511.89801 516.55298 521.20801 525.86298"
           y="31.499994"
           sodipodi:role="line"
           id="tspan356">Chapter Advisor Signature: ____________________________________________________________________________________________</tspan></text><text
         transform="translate(408.47921,118.90157)"
         style="font-variant:normal;font-weight:normal;font-size:30px;font-family:'DejaVu Sans';-inkscape-font-specification:DejaVuSans;writing-mode:lr-tb;fill:#000000;fill-opacity:1;fill-rule:nonzero;stroke:none"
         id="text368"><tspan
           x="0"
           y="0"
           id="tspan360">X</tspan><tspan
           x="-77.086411"
           y="217.16727"
           id="tspan362">X</tspan><tspan
           x="-26.88888"
           y="240.3287"
           id="tspan364">X</tspan><tspan
           x="-22.77249"
           y="431.37579"
           id="tspan366">X</tspan></text><text
         style="font-variant:normal;font-weight:normal;font-size:10px;font-family:'DejaVu Sans';-inkscape-font-specification:DejaVuSans;writing-mode:lr-tb;fill:#000000;fill-opacity:1;fill-rule:nonzero;stroke:none"
         id="text372"
         x="158.36176"
         y="705.02728"><tspan
           x="158.36176"
           y="705.02728"
           sodipodi:role="line"
           id="tspan370"
           style="font-size:10px">Obscured for privacy. Signatures will be available in person</tspan></text></g></g></svg>
