<?xml version="1.0" encoding="UTF-8" standalone="no"?>
<svg
   height="48"
   width="48"
   version="1.1"
   id="svg4"
   sodipodi:docname="comingsoon.svg"
   inkscape:version="1.1.2 (0a00cf5339, 2022-02-04)"
   xmlns:inkscape="http://www.inkscape.org/namespaces/inkscape"
   xmlns:sodipodi="http://sodipodi.sourceforge.net/DTD/sodipodi-0.dtd"
   xmlns="http://www.w3.org/2000/svg"
   xmlns:svg="http://www.w3.org/2000/svg">
  <sodipodi:namedview
     id="namedview5"
     pagecolor="#ffffff"
     bordercolor="#666666"
     borderopacity="1.0"
     inkscape:pageshadow="2"
     inkscape:pageopacity="0.0"
     inkscape:pagecheckerboard="0"
     showgrid="false"
     inkscape:zoom="17.583333"
     inkscape:cx="20.274882"
     inkscape:cy="18"
     inkscape:window-width="1920"
     inkscape:window-height="1016"
     inkscape:window-x="0"
     inkscape:window-y="27"
     inkscape:window-maximized="1"
     inkscape:current-layer="svg4" />
  <defs
     id="defs8" />
  <g
     aria-label="Coming
Soon"
     id="text11718"
     style="font-weight:bold;font-size:10.6667px;line-height:1.25;font-family:'DM Sans';-inkscape-font-specification:'DM Sans Bold';fill:#3c4043">
    <path
       d="m 8.1546439,21.237324 q -1.1306702,0 -1.9413394,-0.480002 -0.8106693,-0.490668 -1.248004,-1.354671 -0.4373347,-0.874669 -0.4373347,-2.016006 0,-1.141337 0.4373347,-2.016006 0.4373347,-0.87467 1.248004,-1.365338 0.8106692,-0.490668 1.9413394,-0.490668 1.3440043,0 2.1973401,0.672002 0.864003,0.661335 1.077337,1.866673 H 9.9253162 Q 9.7866491,15.445306 9.327981,15.103971 8.8799796,14.75197 8.1333105,14.75197 q -1.0346699,0 -1.6213384,0.704002 -0.5866685,0.704003 -0.5866685,1.930673 0,1.226671 0.5866685,1.930673 0.5866685,0.693335 1.6213384,0.693335 0.7466691,0 1.1946705,-0.320001 0.4586681,-0.330667 0.5973352,-0.906669 h 1.5040048 q -0.213334,1.152003 -1.077337,1.802672 -0.8533358,0.650669 -2.1973401,0.650669 z"
       style="text-align:center;text-anchor:middle"
       id="path4233" />
    <path
       d="m 15.141327,21.237324 q -0.768002,0 -1.386671,-0.352001 -0.608002,-0.352001 -0.970669,-0.97067 -0.352001,-0.629335 -0.352001,-1.450671 0,-0.821336 0.362667,-1.440005 0.362668,-0.629335 0.97067,-0.981336 0.618669,-0.352001 1.386671,-0.352001 0.757336,0 1.365338,0.352001 0.618668,0.352001 0.97067,0.981336 0.362667,0.618669 0.362667,1.440005 0,0.821336 -0.362667,1.450671 -0.352002,0.618669 -0.97067,0.97067 -0.618669,0.352001 -1.376005,0.352001 z m 0,-1.184004 q 0.533335,0 0.928003,-0.394668 0.394668,-0.405334 0.394668,-1.19467 0,-0.789336 -0.394668,-1.184004 -0.394668,-0.405335 -0.917336,-0.405335 -0.544002,0 -0.93867,0.405335 -0.384001,0.394668 -0.384001,1.184004 0,0.789336 0.384001,1.19467 0.394668,0.394668 0.928003,0.394668 z"
       style="text-align:center;text-anchor:middle"
       id="path4235" />
    <path
       d="M 19.066663,21.109324 V 15.81864 H 20.272 l 0.117334,0.714669 q 0.256001,-0.384001 0.672002,-0.608002 0.426668,-0.234667 0.981336,-0.234667 1.226671,0 1.738673,0.949336 0.288,-0.437335 0.768002,-0.693335 0.490668,-0.256001 1.06667,-0.256001 1.03467,0 1.589338,0.618668 0.554669,0.618669 0.554669,1.813339 v 2.986677 h -1.365338 v -2.858676 q 0,-0.682669 -0.266667,-1.045337 -0.256001,-0.362668 -0.800003,-0.362668 -0.554668,0 -0.896003,0.405335 -0.330667,0.405335 -0.330667,1.13067 v 2.730676 h -1.365338 v -2.858676 q 0,-0.682669 -0.266668,-1.045337 -0.266667,-0.362668 -0.821336,-0.362668 -0.544001,0 -0.885336,0.405335 -0.330667,0.405335 -0.330667,1.13067 v 2.730676 z"
       style="text-align:center;text-anchor:middle"
       id="path4237" />
    <path
       d="m 29.797346,14.997304 q -0.373335,0 -0.618669,-0.224001 -0.234667,-0.224 -0.234667,-0.565335 0,-0.341334 0.234667,-0.554668 0.245334,-0.224001 0.618669,-0.224001 0.373334,0 0.608002,0.224001 0.245334,0.213334 0.245334,0.554668 0,0.341335 -0.245334,0.565335 -0.234668,0.224001 -0.608002,0.224001 z m -0.682669,6.11202 V 15.81864 h 1.365338 v 5.290684 z"
       style="text-align:center;text-anchor:middle"
       id="path4239" />
    <path
       d="M 31.909333,21.109324 V 15.81864 h 1.205338 l 0.106667,0.896003 q 0.245334,-0.469335 0.704002,-0.746669 0.469335,-0.277334 1.09867,-0.277334 0.981336,0 1.525338,0.618668 0.544002,0.618669 0.544002,1.813339 v 2.986677 h -1.365338 v -2.858676 q 0,-0.682669 -0.277334,-1.045337 -0.277334,-0.362668 -0.864003,-0.362668 -0.576002,0 -0.949336,0.405335 -0.362668,0.405335 -0.362668,1.13067 v 2.730676 z"
       style="text-align:center;text-anchor:middle"
       id="path4241" />
    <path
       d="m 40.634692,19.530652 q -0.384001,0 -0.714669,-0.08533 l -0.394668,0.394668 q 0.181334,0.096 0.490668,0.160001 0.309335,0.064 1.00267,0.128 1.056004,0.096 1.536005,0.501335 0.480002,0.405335 0.480002,1.120004 0,0.469334 -0.256001,0.885336 -0.256001,0.426668 -0.789336,0.682668 -0.533335,0.266668 -1.365338,0.266668 -1.13067,0 -1.824005,-0.426668 -0.693336,-0.416001 -0.693336,-1.258671 0,-0.714669 0.693336,-1.237337 -0.213334,-0.096 -0.373335,-0.202667 -0.149334,-0.106667 -0.266667,-0.224001 V 19.98932 l 0.928003,-0.981336 q -0.618669,-0.544002 -0.618669,-1.397338 0,-0.533335 0.256001,-0.97067 0.266667,-0.437335 0.746669,-0.693335 0.480001,-0.256001 1.16267,-0.256001 0.448001,0 0.832003,0.128 h 2.005339 v 0.832003 l -0.906669,0.064 q 0.213334,0.405335 0.213334,0.896003 0,0.533335 -0.256001,0.97067 -0.256001,0.437334 -0.746669,0.693335 -0.480002,0.256001 -1.141337,0.256001 z m 0,-1.045337 q 0.416001,0 0.682669,-0.224 0.277334,-0.224001 0.277334,-0.640003 0,-0.416001 -0.277334,-0.640002 -0.266668,-0.224 -0.682669,-0.224 -0.437335,0 -0.704002,0.224 -0.266668,0.224001 -0.266668,0.640002 0,0.416002 0.266668,0.640003 0.266667,0.224 0.704002,0.224 z m -1.280004,3.274677 q 0,0.394668 0.362668,0.586669 0.373334,0.202667 0.906669,0.202667 0.512002,0 0.832003,-0.213334 0.320001,-0.202667 0.320001,-0.554668 0,-0.288001 -0.213334,-0.480002 -0.202667,-0.192 -0.821336,-0.234667 -0.437335,-0.032 -0.810669,-0.096 -0.309334,0.170668 -0.448002,0.373335 -0.128,0.202667 -0.128,0.416001 z"
       style="text-align:center;text-anchor:middle"
       id="path4243" />
    <path
       d="m 14.293316,34.570699 q -0.821336,0 -1.450672,-0.277334 -0.629335,-0.288001 -0.992003,-0.810669 -0.362668,-0.533335 -0.373334,-1.290671 h 1.440004 q 0.02133,0.522668 0.373335,0.885336 0.362668,0.352001 0.992003,0.352001 0.544002,0 0.864003,-0.256 0.320001,-0.266668 0.320001,-0.704003 0,-0.458668 -0.288001,-0.714669 -0.277334,-0.256 -0.746669,-0.416001 -0.469335,-0.16 -1.00267,-0.341334 -0.864003,-0.298668 -1.322671,-0.768003 -0.448001,-0.469335 -0.448001,-1.248004 -0.01067,-0.661335 0.309334,-1.13067 0.330668,-0.480001 0.896003,-0.736002 0.565335,-0.266668 1.301337,-0.266668 0.746669,0 1.312004,0.266668 0.576002,0.266667 0.896003,0.746669 0.330668,0.480001 0.352001,1.141337 h -1.461338 q -0.01067,-0.394668 -0.309334,-0.693336 -0.288001,-0.309334 -0.810669,-0.309334 -0.448002,-0.01067 -0.757336,0.224001 -0.298668,0.224 -0.298668,0.661335 0,0.373335 0.234668,0.597335 0.234667,0.213334 0.640002,0.362668 0.405334,0.149334 0.928003,0.320001 0.554668,0.192001 1.013336,0.448002 0.458668,0.256 0.736003,0.682668 0.277334,0.416002 0.277334,1.077337 0,0.586669 -0.298668,1.088004 -0.298667,0.501334 -0.885336,0.810669 -0.586668,0.298667 -1.440004,0.298667 z"
       style="text-align:center;text-anchor:middle"
       id="path4245" />
    <path
       d="m 20.61865,34.570699 q -0.768003,0 -1.386671,-0.352001 -0.608002,-0.352001 -0.97067,-0.970669 -0.352001,-0.629336 -0.352001,-1.450672 0,-0.821336 0.362668,-1.440004 0.362668,-0.629336 0.970669,-0.981337 0.618669,-0.352001 1.386671,-0.352001 0.757336,0 1.365338,0.352001 0.618669,0.352001 0.97067,0.981337 0.362668,0.618668 0.362668,1.440004 0,0.821336 -0.362668,1.450672 -0.352001,0.618668 -0.97067,0.970669 -0.618669,0.352001 -1.376004,0.352001 z m 0,-1.184003 q 0.533335,0 0.928003,-0.394668 0.394668,-0.405335 0.394668,-1.194671 0,-0.789336 -0.394668,-1.184003 -0.394668,-0.405335 -0.917337,-0.405335 -0.544001,0 -0.938669,0.405335 -0.384001,0.394667 -0.384001,1.184003 0,0.789336 0.384001,1.194671 0.394668,0.394668 0.928003,0.394668 z"
       style="text-align:center;text-anchor:middle"
       id="path4247" />
    <path
       d="m 27.082659,34.570699 q -0.768002,0 -1.386671,-0.352001 -0.608002,-0.352001 -0.97067,-0.970669 -0.352001,-0.629336 -0.352001,-1.450672 0,-0.821336 0.362668,-1.440004 0.362668,-0.629336 0.97067,-0.981337 0.618668,-0.352001 1.386671,-0.352001 0.757335,0 1.365337,0.352001 0.618669,0.352001 0.97067,0.981337 0.362668,0.618668 0.362668,1.440004 0,0.821336 -0.362668,1.450672 -0.352001,0.618668 -0.97067,0.970669 -0.618668,0.352001 -1.376004,0.352001 z m 0,-1.184003 q 0.533335,0 0.928003,-0.394668 0.394668,-0.405335 0.394668,-1.194671 0,-0.789336 -0.394668,-1.184003 -0.394668,-0.405335 -0.917336,-0.405335 -0.544002,0 -0.93867,0.405335 -0.384001,0.394667 -0.384001,1.184003 0,0.789336 0.384001,1.194671 0.394668,0.394668 0.928003,0.394668 z"
       style="text-align:center;text-anchor:middle"
       id="path4249" />
    <path
       d="m 31.007995,34.442699 v -5.290683 h 1.205337 l 0.106667,0.896002 q 0.245334,-0.469334 0.704002,-0.746669 0.469335,-0.277334 1.09867,-0.277334 0.981337,0 1.525338,0.618669 0.544002,0.618668 0.544002,1.813339 v 2.986676 h -1.365338 v -2.858676 q 0,-0.682669 -0.277334,-1.045336 -0.277334,-0.362668 -0.864003,-0.362668 -0.576001,0 -0.949336,0.405334 -0.362668,0.405335 -0.362668,1.130671 v 2.730675 z"
       style="text-align:center;text-anchor:middle"
       id="path4251" />
  </g>
</svg>
