<?xml version="1.0" encoding="UTF-8" standalone="no"?>
<svg
   height="48"
   width="48"
   version="1.1"
   id="svg4"
   sodipodi:docname="scroll.svg"
   inkscape:version="1.1.2 (0a00cf5339, 2022-02-04)"
   xmlns:inkscape="http://www.inkscape.org/namespaces/inkscape"
   xmlns:sodipodi="http://sodipodi.sourceforge.net/DTD/sodipodi-0.dtd"
   xmlns="http://www.w3.org/2000/svg"
   xmlns:svg="http://www.w3.org/2000/svg">
  <sodipodi:namedview
     id="namedview5"
     pagecolor="#ffffff"
     bordercolor="#666666"
     borderopacity="1.0"
     inkscape:pageshadow="2"
     inkscape:pageopacity="0.0"
     inkscape:pagecheckerboard="0"
     showgrid="false"
     inkscape:zoom="17.583333"
     inkscape:cx="27.156398"
     inkscape:cy="17.601896"
     inkscape:window-width="1920"
     inkscape:window-height="1016"
     inkscape:window-x="0"
     inkscape:window-y="27"
     inkscape:window-maximized="1"
     inkscape:current-layer="svg4" />
  <defs
     id="defs8" />
  <path
     d="m 24,38.599889 -12,-12 2.15,-2.15 9.85,9.9 9.85,-9.85 2.15,2.15 z"
     id="path2"
     style="fill:#3c4043;fill-opacity:1" />
  <g
     aria-label="Scroll"
     id="text1836"
     style="font-size:16px;line-height:1.25;font-family:'DM Sans';-inkscape-font-specification:'DM Sans';fill:#3c4043">
    <path
       d="m 8.7280478,12.72513 q -1.232,0 -2.144,-0.448 -0.912,-0.448 -1.408,-1.248 -0.496,-0.8 -0.496,-1.8560003 h 1.408 q 0,0.656 0.304,1.2160003 0.304,0.544 0.88,0.88 0.592,0.32 1.456,0.32 1.136,0 1.7600002,-0.544 0.624,-0.544 0.624,-1.3600003 0,-0.672 -0.288,-1.072 -0.288,-0.416 -0.784,-0.672 -0.4800002,-0.256 -1.1200002,-0.448 -0.624,-0.192 -1.312,-0.432 -1.296,-0.448 -1.92,-1.104 -0.624,-0.672 -0.624,-1.744 -0.016,-0.896 0.416,-1.584 0.432,-0.704 1.216,-1.088 0.8,-0.4 1.888,-0.4 1.072,0 1.8560002,0.4 0.8,0.4 1.232,1.104 0.448,0.704 0.464,1.6 h -1.408 q 0,-0.464 -0.24,-0.912 -0.24,-0.464 -0.7360002,-0.752 -0.48,-0.288 -1.216,-0.288 -0.912,-0.016 -1.504,0.464 -0.576,0.48 -0.576,1.328 0,0.72 0.4,1.104 0.416,0.384 1.152,0.64 0.736,0.24 1.696,0.56 0.8000002,0.288 1.4400002,0.672 0.64,0.384 0.992,0.992 0.368,0.608 0.368,1.552 0,0.8000003 -0.416,1.5200003 -0.416,0.704 -1.264,1.152 -0.8320002,0.448 -2.0960002,0.448 z"
       id="path10978" />
    <path
       d="m 17.976034,12.72513 q -1.136,0 -2.048,-0.512 -0.896,-0.528 -1.424,-1.456 -0.512,-0.9440003 -0.512,-2.1920003 0,-1.248 0.512,-2.176 0.528,-0.944 1.424,-1.456 0.912,-0.528 2.048,-0.528 1.408,0 2.368,0.736 0.976,0.736 1.232,1.968 h -1.376 q -0.16,-0.736 -0.784,-1.136 -0.624,-0.416 -1.456,-0.416 -0.672,0 -1.264,0.336 -0.592,0.336 -0.96,1.008 -0.368,0.672 -0.368,1.664 0,0.992 0.368,1.6640003 0.368,0.672 0.96,1.024 0.592,0.336 1.264,0.336 0.832,0 1.456,-0.4 0.624,-0.416 0.784,-1.168 h 1.376 q -0.24,1.2 -1.216,1.952 -0.976,0.752 -2.384,0.752 z"
       id="path10980" />
    <path
       d="M 23.448029,12.53313 V 4.5971297 h 1.216 l 0.112,1.52 q 0.368,-0.784 1.12,-1.248 0.752,-0.464 1.856,-0.464 v 1.408 h -0.368 q -0.704,0 -1.296,0.256 -0.592,0.24 -0.944,0.832 -0.352,0.592 -0.352,1.632 V 12.53313 Z"
       id="path10982" />
    <path
       d="m 32.567996,12.72513 q -1.12,0 -2.016,-0.512 -0.896,-0.512 -1.424,-1.44 -0.512,-0.9440003 -0.512,-2.2080003 0,-1.264 0.528,-2.192 0.528,-0.944 1.424,-1.456 0.912,-0.512 2.032,-0.512 1.12,0 2.016,0.512 0.896,0.512 1.408,1.456 0.528,0.928 0.528,2.192 0,1.264 -0.528,2.2080003 -0.528,0.928 -1.44,1.44 -0.896,0.512 -2.016,0.512 z m 0,-1.152 q 0.688,0 1.28,-0.336 0.592,-0.336 0.96,-1.008 0.368,-0.6720003 0.368,-1.6640003 0,-0.992 -0.368,-1.664 -0.352,-0.672 -0.944,-1.008 -0.592,-0.336 -1.264,-0.336 -0.688,0 -1.28,0.336 -0.592,0.336 -0.96,1.008 -0.368,0.672 -0.368,1.664 0,0.992 0.368,1.6640003 0.368,0.672 0.944,1.008 0.592,0.336 1.264,0.336 z"
       id="path10984" />
    <path
       d="M 38.423981,12.53313 V 1.0131297 h 1.344 V 12.53313 Z"
       id="path10986" />
    <path
       d="M 41.975952,12.53313 V 1.0131297 h 1.344 V 12.53313 Z"
       id="path10988" />
  </g>
</svg>
