<?xml version="1.0" encoding="UTF-8" standalone="no"?>
<!-- Created with Inkscape (http://www.inkscape.org/) -->

<svg
   width="2000mm"
   height="1000mm"
   viewBox="0 0 2000 1000"
   version="1.1"
   id="svg5"
   inkscape:version="1.1.2 (0a00cf5339, 2022-02-04)"
   sodipodi:docname="meow3.svg"
   xmlns:inkscape="http://www.inkscape.org/namespaces/inkscape"
   xmlns:sodipodi="http://sodipodi.sourceforge.net/DTD/sodipodi-0.dtd"
   xmlns="http://www.w3.org/2000/svg"
   xmlns:svg="http://www.w3.org/2000/svg">
  <sodipodi:namedview
     id="namedview7"
     pagecolor="#ffffff"
     bordercolor="#666666"
     borderopacity="1.0"
     inkscape:pageshadow="2"
     inkscape:pageopacity="0.0"
     inkscape:pagecheckerboard="0"
     inkscape:document-units="mm"
     showgrid="false"
     inkscape:zoom="0.37683081"
     inkscape:cx="2539.6013"
     inkscape:cy="1926.5941"
     inkscape:window-width="1920"
     inkscape:window-height="1031"
     inkscape:window-x="0"
     inkscape:window-y="25"
     inkscape:window-maximized="1"
     inkscape:current-layer="layer1" />
  <defs
     id="defs2" />
  <g
     inkscape:label="Layer 1"
     inkscape:groupmode="layer"
     id="layer1">
    <g
       aria-label="mjau"
       id="text2934"
       style="font-weight:bold;font-size:529.167px;line-height:1.25;font-family:'DM Sans';-inkscape-font-specification:'DM Sans Bold';stroke-width:0.264583">
      <path
         d="M 402.3065,632.29175 V 369.82492 h 59.79587 l 5.82084,35.45419 q 12.7,-19.05001 33.33752,-30.16252 21.16668,-11.64167 48.68336,-11.64167 60.8542,0 86.25422,47.09586 14.28751,-21.69585 38.10002,-34.39586 24.34168,-12.7 52.9167,-12.7 51.3292,0 78.84588,30.69168 27.51669,30.69169 27.51669,89.95839 V 632.29175 H 765.84422 V 490.47499 q 0,-33.86668 -13.22917,-51.85836 -12.70001,-17.99168 -39.68753,-17.99168 -27.51668,0 -44.45002,20.10835 -16.40418,20.10834 -16.40418,56.0917 V 632.29175 H 584.33994 V 490.47499 q 0,-33.86668 -13.22917,-51.85836 -13.22918,-17.99168 -40.74586,-17.99168 -26.98752,0 -43.92086,20.10835 -16.40418,20.10834 -16.40418,56.0917 v 135.46675 z"
         id="path3365" />
      <path
         d="m 848.39342,748.70849 v -57.67921 h 20.63751 c 11.64167,0 19.93196,-2.29306 24.87085,-6.87917 4.93889,-4.58611 7.40833,-12.34723 7.40833,-23.28334 V 369.82492 h 67.73338 v 291.04185 c 0,31.75001 -8.11389,54.3278 -24.34168,67.73337 -15.87501,13.40557 -37.57086,20.10835 -65.08754,20.10835 z"
         id="path3367"
         sodipodi:nodetypes="ccsssccscsc" />
      <path
         d="m 1130.4393,638.64175 q -33.8667,0 -55.5626,-10.58334 -21.6958,-11.1125 -32.2792,-29.10418 -10.5833,-17.99168 -10.5833,-39.68753 0,-36.51252 28.575,-59.2667 28.575,-22.75418 85.7251,-22.75418 h 66.675 v -6.35 q 0,-26.98752 -15.3458,-39.68753 -15.3459,-12.70001 -38.1001,-12.70001 -20.6375,0 -35.9833,10.05418 -15.3459,9.525 -19.05,28.57501 h -66.1459 q 2.6458,-28.57501 19.05,-49.74169 16.9334,-21.16668 43.3917,-32.27919 26.4584,-11.64167 59.2667,-11.64167 56.0917,0 88.3709,28.04585 32.2792,28.04585 32.2792,79.37505 v 161.39593 h -57.6792 l -6.35,-42.33336 q -11.6417,21.16668 -32.8084,34.92502 -20.6375,13.75834 -53.4458,13.75834 z m 15.3458,-52.9167 q 29.1042,0 44.9792,-19.05001 16.4042,-19.05001 20.6375,-47.09586 h -57.6792 q -26.9875,0 -38.6292,10.05417 -11.6417,9.52501 -11.6417,23.81252 0,15.34584 11.6417,23.81251 11.6417,8.46667 30.6917,8.46667 z"
         id="path3369" />
      <path
         d="m 1443.7059,638.64175 q -49.2125,0 -76.2,-30.69168 -26.4584,-30.69169 -26.4584,-89.95839 V 369.82492 h 67.2042 v 141.81675 q 0,33.86669 13.7584,51.85837 13.7583,17.99168 43.3917,17.99168 28.0458,0 46.0375,-20.10835 18.5208,-20.10834 18.5208,-56.0917 V 369.82492 h 67.7334 v 262.46683 h -59.7959 l -5.2916,-44.45003 q -12.1709,23.28335 -35.4542,37.04169 -22.7542,13.75834 -53.4459,13.75834 z"
         id="path3371" />
    </g>
    <path
       sodipodi:type="star"
       style="fill:#000000"
       id="path3585"
       inkscape:flatsided="true"
       sodipodi:sides="3"
       sodipodi:cx="3415.8218"
       sodipodi:cy="1019.1609"
       sodipodi:r1="214.67873"
       sodipodi:r2="107.33937"
       sodipodi:arg1="1.5707963"
       sodipodi:arg2="2.6179939"
       inkscape:rounded="0.28"
       inkscape:randomized="0"
       d="m 3415.8218,1233.8397 c -104.1137,0 -237.9741,-231.8531 -185.9173,-322.01812 52.0569,-90.16507 319.7777,-90.16508 371.8345,-1e-5 52.0568,90.16503 -81.8036,322.01813 -185.9172,322.01813 z"
       transform="matrix(0.26458333,0,0,0.26458333,31.4075,2.6192439)"
       inkscape:transform-center-x="1.1386072e-05"
       inkscape:transform-center-y="5.2540349" />
  </g>
</svg>
