<?xml version="1.0" encoding="UTF-8" standalone="no"?>
<!-- Created with Inkscape (http://www.inkscape.org/) -->

<svg
   width="2000mm"
   height="1000mm"
   viewBox="0 0 2000 1000"
   version="1.1"
   id="svg5"
   inkscape:version="1.1.2 (0a00cf5339, 2022-02-04)"
   sodipodi:docname="meow1.svg"
   xmlns:inkscape="http://www.inkscape.org/namespaces/inkscape"
   xmlns:sodipodi="http://sodipodi.sourceforge.net/DTD/sodipodi-0.dtd"
   xmlns="http://www.w3.org/2000/svg"
   xmlns:svg="http://www.w3.org/2000/svg">
  <sodipodi:namedview
     id="namedview7"
     pagecolor="#ffffff"
     bordercolor="#666666"
     borderopacity="1.0"
     inkscape:pageshadow="2"
     inkscape:pageopacity="0.0"
     inkscape:pagecheckerboard="0"
     inkscape:document-units="mm"
     showgrid="false"
     inkscape:zoom="0.13322981"
     inkscape:cx="3538.9978"
     inkscape:cy="1880.2098"
     inkscape:window-width="1920"
     inkscape:window-height="1016"
     inkscape:window-x="0"
     inkscape:window-y="27"
     inkscape:window-maximized="1"
     inkscape:current-layer="layer1" />
  <defs
     id="defs2" />
  <g
     inkscape:label="Layer 1"
     inkscape:groupmode="layer"
     id="layer1">
    <g
       aria-label="miau"
       id="text1904"
       style="font-weight:bold;font-size:529.167px;line-height:1.25;font-family:'DM Sans';-inkscape-font-specification:'DM Sans Bold';stroke-width:0.264583;fill:#3c4043;fill-opacity:1">
      <path
         d="M 402.57145,687.32513 V 424.85831 h 59.79587 l 5.82084,35.45418 q 12.70001,-19.05001 33.33752,-30.16251 21.16668,-11.64168 48.68336,-11.64168 60.85421,0 86.25422,47.09586 14.28751,-21.69584 38.10003,-34.39585 24.34168,-12.70001 52.9167,-12.70001 51.32919,0 78.84588,30.69169 27.51668,30.69168 27.51668,89.95839 V 687.32513 H 766.10918 V 545.50838 q 0,-33.86669 -13.22918,-51.85836 -12.70001,-17.99168 -39.68752,-17.99168 -27.51669,0 -44.45003,20.10834 -16.40418,20.10835 -16.40418,56.0917 V 687.32513 H 584.6049 V 545.50838 q 0,-33.86669 -13.22918,-51.85836 -13.22917,-17.99168 -40.74586,-17.99168 -26.98751,0 -43.92086,20.10834 -16.40417,20.10835 -16.40417,56.0917 v 135.46675 z"
         id="path2514"
         style="fill:#3c4043;fill-opacity:1" />
      <path
         d="m 934.91259,384.11245 c -12.34723,0 -22.5778,-3.70417 -30.69169,-11.11251 -7.76111,-7.40834 -11.64167,-16.75696 -11.64167,-28.04585 0,-11.28889 3.70416,-67.86845 11.64167,-75.1004 7.93751,-7.23195 18.34446,36.47121 30.69169,36.47121 12.34723,0 22.22288,-43.70511 30.16252,-36.47121 7.93964,7.2339 12.17084,63.81151 12.17084,75.1004 0,11.28889 -4.05695,20.63751 -12.17084,28.04585 -7.76112,7.40834 -17.81529,11.11251 -30.16252,11.11251 z M 901.0459,687.32513 V 424.85831 h 67.73338 v 262.46682 z"
         id="path2516"
         sodipodi:nodetypes="scszszscsccccc"
         style="fill:#3c4043;fill-opacity:1" />
      <path
         d="m 1130.1743,693.67514 c -22.5778,0 -41.0986,-3.52778 -55.5625,-10.58334 -14.4639,-7.40834 -25.2237,-17.10974 -32.2792,-29.10419 -7.0556,-11.99445 -10.5834,-25.22362 -10.5834,-39.68752 0,-24.34168 9.525,-44.09725 28.5751,-59.2667 19.05,-15.16945 47.625,-22.75418 85.725,-22.75418 h 66.6751 v -6.35001 c 0,-17.99167 -5.1153,-31.22085 -15.3459,-39.68752 -10.2305,-8.46667 -22.9305,-12.70001 -38.1,-12.70001 -13.7583,0 -25.7528,3.35139 -35.9834,10.05417 -10.2305,6.35001 -16.5805,15.87501 -19.05,28.57502 h -66.1459 c 1.7639,-19.05001 22.6115,-27.84132 38.8899,-35.17185 14.6482,-6.5964 28.5948,-12.72515 37.8118,-28.55922 9.8059,-16.84594 23.1345,-29.93149 45.0068,-29.93149 37.3945,0 46.3774,33.53686 67.8968,52.23409 21.5195,18.69723 52.7532,20.96734 52.7532,55.18681 v 161.39593 h -57.6792 l -6.35,-42.33336 c -7.7611,14.11112 -18.6972,25.7528 -32.8083,34.92503 -13.7583,9.17223 -31.5736,13.75834 -53.4459,13.75834 z m 15.3458,-52.9167 c 19.4028,0 34.3959,-6.35 44.9792,-19.05001 10.9361,-12.70001 17.8153,-28.39863 20.6376,-47.09587 h -57.6792 c -17.9917,0 -30.8681,3.35139 -38.6292,10.05418 -7.7611,6.35 -11.6417,14.2875 -11.6417,23.81251 0,10.23057 3.8806,18.16807 11.6417,23.81252 7.7611,5.64445 17.9916,8.46667 30.6916,8.46667 z"
         id="path2518"
         sodipodi:nodetypes="scsssscssscccsssssccccssccscsss"
         style="fill:#3c4043;fill-opacity:1" />
      <path
         d="m 1443.441,693.67514 q -49.2126,0 -76.2001,-30.69169 -26.4583,-30.69168 -26.4583,-89.95839 V 424.85831 h 67.2042 v 141.81675 q 0,33.86669 13.7583,51.85837 13.7584,17.99167 43.3917,17.99167 28.0459,0 46.0375,-20.10834 18.5209,-20.10835 18.5209,-56.0917 V 424.85831 h 67.7334 v 262.46682 h -59.7959 l -5.2917,-44.45002 q -12.1708,23.28334 -35.4542,37.04169 -22.7541,13.75834 -53.4458,13.75834 z"
         id="path2520"
         style="fill:#3c4043;fill-opacity:1" />
    </g>
    <path
       style="fill:#3c4043;fill-opacity:1;stroke:#000000;stroke-width:0.264583px;stroke-linecap:butt;stroke-linejoin:miter;stroke-opacity:1"
       d="m 1079.8024,436.15767 c -32.1742,22.2587 -45.6826,-16.50064 -51.8883,-30.38868 -14.8182,-33.16285 10.6674,-53.16295 33.3842,-38.59311 13.6075,8.72751 40.3282,53.88357 18.5041,68.98179 z"
       id="path3013"
       sodipodi:nodetypes="ssss" />
    <path
       style="fill:#3c4043;fill-opacity:1;stroke:#000000;stroke-width:0.264583px;stroke-linecap:butt;stroke-linejoin:miter;stroke-opacity:1"
       d="m 1136.6968,389.54086 c -42.1354,11.6461 -42.7321,-27.41566 -43.5446,-41.54855 -1.9422,-33.78284 23.3716,-53.16295 42.6068,-38.59311 11.5218,8.72751 28.6454,72.48336 0.9378,80.14166 z"
       id="path4475"
       sodipodi:nodetypes="ssss" />
    <path
       style="fill:#3c4043;fill-opacity:1;stroke:#000000;stroke-width:0.265553px;stroke-linecap:butt;stroke-linejoin:miter;stroke-opacity:1"
       d="m 1190.542,388.61087 c 40.9599,11.6461 46.542,-27.41566 49.1627,-41.54855 6.2644,-33.78284 -16.7641,-53.16295 -37.9984,-38.59311 -12.7194,8.72751 -38.0988,72.48336 -11.1643,80.14166 z"
       id="path4656"
       sodipodi:nodetypes="ssss" />
    <path
       style="fill:#3c4043;fill-opacity:1;stroke:#000000;stroke-width:0.263359px;stroke-linecap:butt;stroke-linejoin:miter;stroke-opacity:1"
       d="m 1248.7033,437.18823 c 31.8771,22.2587 45.2607,-16.50064 51.4091,-30.38868 14.6814,-33.16285 -10.5689,-53.16295 -33.0759,-38.59311 -13.4818,8.72751 -39.9558,53.88357 -18.3332,68.98179 z"
       id="path4658"
       sodipodi:nodetypes="ssss" />
  </g>
</svg>
