<?xml version="1.0" encoding="UTF-8" standalone="no"?>
<!-- Created with Inkscape (http://www.inkscape.org/) -->

<svg
   width="2000mm"
   height="1000mm"
   viewBox="0 0 2000 1000"
   version="1.1"
   id="svg5"
   inkscape:version="1.1.2 (0a00cf5339, 2022-02-04)"
   sodipodi:docname="meow2.svg"
   xmlns:inkscape="http://www.inkscape.org/namespaces/inkscape"
   xmlns:sodipodi="http://sodipodi.sourceforge.net/DTD/sodipodi-0.dtd"
   xmlns="http://www.w3.org/2000/svg"
   xmlns:svg="http://www.w3.org/2000/svg">
  <sodipodi:namedview
     id="namedview7"
     pagecolor="#ffffff"
     bordercolor="#666666"
     borderopacity="1.0"
     inkscape:pageshadow="2"
     inkscape:pageopacity="0.0"
     inkscape:pagecheckerboard="0"
     inkscape:document-units="mm"
     showgrid="false"
     inkscape:zoom="0.20597457"
     inkscape:cx="1815.7581"
     inkscape:cy="1262.2918"
     inkscape:window-width="1920"
     inkscape:window-height="1031"
     inkscape:window-x="0"
     inkscape:window-y="25"
     inkscape:window-maximized="1"
     inkscape:current-layer="layer1" />
  <defs
     id="defs2" />
  <g
     inkscape:label="Layer 1"
     inkscape:groupmode="layer"
     id="layer1">
    <g
       aria-label="meow"
       id="text6825"
       style="font-weight:bold;font-size:529.167px;line-height:1.25;font-family:'DM Sans';-inkscape-font-specification:'DM Sans Bold';stroke-width:0.264583">
      <path
         d="M 247.52577,631.2334 V 368.76657 h 59.79587 l 5.82083,35.45419 q 12.70001,-19.05001 33.33753,-30.16252 21.16668,-11.64167 48.68336,-11.64167 60.8542,0 86.25422,47.09586 14.28751,-21.69585 38.10002,-34.39586 24.34168,-12.7 52.9167,-12.7 51.3292,0 78.84588,30.69168 27.51669,30.69169 27.51669,89.95839 V 631.2334 H 611.06349 V 489.41664 q 0,-33.86668 -13.22917,-51.85836 -12.70001,-17.99168 -39.68753,-17.99168 -27.51668,0 -44.45003,20.10835 -16.40417,20.10834 -16.40417,56.0917 V 631.2334 H 429.55921 V 489.41664 q 0,-33.86668 -13.22917,-51.85836 -13.22918,-17.99168 -40.74586,-17.99168 -26.98752,0 -43.92086,20.10835 -16.40418,20.10834 -16.40418,56.0917 V 631.2334 Z"
         id="path7270" />
      <path
         d="m 870.88363,637.5834 q -39.68753,0 -70.37921,-16.93334 -30.69169,-16.93335 -48.1542,-47.62503 -17.46251,-30.69169 -17.46251,-70.90838 0,-40.74586 16.93334,-72.49588 17.46251,-31.75002 47.62503,-49.21253 30.69169,-17.99167 71.96671,-17.99167 38.62919,0 68.26255,16.93334 29.63335,16.93334 46.03752,46.5667 16.93334,29.10418 16.93334,65.08754 0,5.82083 -0.5292,12.17084 0,6.35 -0.5291,13.22917 H 802.09192 q 2.11667,30.69169 21.16668,48.1542 19.57918,17.46251 47.09586,17.46251 20.63751,0 34.39585,-8.99584 14.28751,-9.52501 21.16668,-24.34168 h 68.79171 q -7.40834,24.87085 -24.87085,45.50836 -16.93334,20.10834 -42.33336,31.75002 -24.87084,11.64167 -56.62086,11.64167 z m 0.52916,-220.13347 q -24.87085,0 -43.92086,14.28751 -19.05001,13.75834 -24.34168,42.33336 H 933.8545 q -1.5875,-25.92918 -19.05001,-41.27502 -17.46251,-15.34585 -43.3917,-15.34585 z"
         id="path7272" />
      <path
         d="m 1185.7378,637.5834 c -25.4,0 -48.3306,-5.82084 -68.7917,-17.46251 -20.1084,-11.64167 -36.1598,-27.69307 -48.1542,-48.15419 -11.6417,-20.81391 -17.4625,-44.80281 -17.4625,-71.96672 0,-27.1639 4.1832,-53.57656 21.4016,-69.88756 15.0558,-14.26231 28.002,-12.52422 48.1542,-24.08985 20.4175,-11.71789 36.5717,-43.606 61.9717,-43.606 25.0473,0 44.0241,37.11932 64.6335,47.84904 27.1263,14.12254 46.5329,9.69136 58.3841,30.38669 11.7862,20.58182 14.2717,32.18378 14.2717,59.34768 0,27.16391 -5.9972,51.15281 -17.9917,71.96672 -11.6417,20.46112 -27.6931,36.51252 -48.1542,48.15419 -20.4611,11.64167 -43.2153,17.46251 -68.2625,17.46251 z m 0,-58.73753 c 17.6389,0 32.9847,-6.52639 46.0375,-19.57918 13.0528,-13.40557 19.5792,-33.16114 19.5792,-59.26671 0,-26.10557 -6.5264,-45.68474 -19.5792,-58.73753 -13.0528,-13.40557 -28.2223,-20.10835 -45.5084,-20.10835 -17.9917,0 -33.5139,6.70278 -46.5667,20.10835 -12.7,13.05279 -19.05,32.63196 -19.05,58.73753 0,26.10557 6.35,45.86114 19.05,59.26671 13.0528,13.05279 28.3987,19.57918 46.0376,19.57918 z"
         id="path7274"
         sodipodi:nodetypes="sccssssssscssscscscscs" />
      <path
         d="m 1422.274,631.2334 -76.7292,-262.46683 h 67.2042 l 45.5084,188.91262 52.9167,-188.91262 h 75.1417 l 52.9167,188.91262 46.0375,-188.91262 h 67.2042 l -77.2583,262.46683 h -70.3793 l -56.0917,-196.32096 -56.0917,196.32096 z"
         id="path7276" />
    </g>
    <path
       style="fill:#000000;fill-opacity:1;stroke:#000000;stroke-width:0.264583px;stroke-linecap:butt;stroke-linejoin:miter;stroke-opacity:1"
       d="m 1100.0036,390.74234 c -32.1742,22.2587 -45.6826,-16.50064 -51.8883,-30.38868 -14.8182,-33.16285 10.6674,-53.16295 33.3842,-38.59311 13.6075,8.72751 40.3282,53.88357 18.5041,68.98179 z"
       id="path3013"
       sodipodi:nodetypes="ssss" />
    <path
       style="fill:#000000;fill-opacity:1;stroke:#000000;stroke-width:0.264583px;stroke-linecap:butt;stroke-linejoin:miter;stroke-opacity:1"
       d="m 1156.898,344.12553 c -42.1354,11.6461 -42.7321,-27.41566 -43.5446,-41.54855 -1.9422,-33.78284 23.3716,-53.16295 42.6068,-38.59311 11.5218,8.72751 28.6454,72.48336 0.9378,80.14166 z"
       id="path4475"
       sodipodi:nodetypes="ssss" />
    <path
       style="fill:#000000;fill-opacity:1;stroke:#000000;stroke-width:0.265553px;stroke-linecap:butt;stroke-linejoin:miter;stroke-opacity:1"
       d="m 1210.7432,343.19554 c 40.9599,11.6461 46.542,-27.41566 49.1627,-41.54855 6.2644,-33.78284 -16.7641,-53.16295 -37.9984,-38.59311 -12.7194,8.72751 -38.0988,72.48336 -11.1643,80.14166 z"
       id="path4656"
       sodipodi:nodetypes="ssss" />
    <path
       style="fill:#000000;fill-opacity:1;stroke:#000000;stroke-width:0.263359px;stroke-linecap:butt;stroke-linejoin:miter;stroke-opacity:1"
       d="m 1268.9045,391.7729 c 31.8771,22.2587 45.2607,-16.50064 51.4091,-30.38868 14.6814,-33.16285 -10.5689,-53.16295 -33.0759,-38.59311 -13.4818,8.72751 -39.9558,53.88357 -18.3332,68.98179 z"
       id="path4658"
       sodipodi:nodetypes="ssss" />
  </g>
</svg>
