<?xml version="1.0" encoding="UTF-8" standalone="no"?>
<!-- Created with Inkscape (http://www.inkscape.org/) -->

<svg
   width="700"
   height="1080"
   viewBox="0 0 185.20834 285.75001"
   version="1.1"
   id="svg5"
   inkscape:version="1.1.2 (0a00cf5339, 2022-02-04)"
   sodipodi:docname="plume.svg"
   xmlns:inkscape="http://www.inkscape.org/namespaces/inkscape"
   xmlns:sodipodi="http://sodipodi.sourceforge.net/DTD/sodipodi-0.dtd"
   xmlns="http://www.w3.org/2000/svg"
   xmlns:svg="http://www.w3.org/2000/svg">
  <sodipodi:namedview
     id="namedview7"
     pagecolor="#ffffff"
     bordercolor="#666666"
     borderopacity="1.0"
     inkscape:pageshadow="2"
     inkscape:pageopacity="0.0"
     inkscape:pagecheckerboard="0"
     inkscape:document-units="mm"
     showgrid="false"
     height="1080mm"
     units="px"
     width="500px"
     inkscape:zoom="0.53165938"
     inkscape:cx="426.9651"
     inkscape:cy="546.40247"
     inkscape:window-width="1920"
     inkscape:window-height="1016"
     inkscape:window-x="0"
     inkscape:window-y="27"
     inkscape:window-maximized="1"
     inkscape:current-layer="layer1" />
  <defs
     id="defs2" />
  <g
     inkscape:label="Layer 1"
     inkscape:groupmode="layer"
     id="layer1">
    <path
       id="path153"
       style="fill:#86bddd;fill-rule:evenodd;stroke-width:0.264583;stroke:none;fill-opacity:1"
       inkscape:transform-center-x="6.1928652"
       inkscape:transform-center-y="0.68272529"
       d="M 135.51733,246.4988 C 124.5708,260.20697 110.06296,272.67869 93.338209,277.97239 74.702932,283.87081 52.85574,283.62757 34.721712,276.33224 22.87801,271.56752 10.348584,262.72067 6.3621189,250.59284 -0.90120869,228.49599 10.574828,203.39084 20.131999,182.185 27.830091,165.10416 42.920578,152.43822 54.067182,137.37937 62.704373,125.71069 72.315002,114.65234 79.591761,102.09017 88.439818,86.815409 90.32643,67.088696 94.87895,48.2133 c 4.386401,-18.186639 11.2821,-35.714108 27.47947,-40.9031154 19.22039,-6.1574659 46.34213,11.1733234 52.33673,30.4451264 14.16679,45.544234 2.73326,107.642059 -5.6177,133.179809 -8.93021,27.30914 -16.36249,54.02734 -33.56012,75.56368 z"
       sodipodi:nodetypes="aaaaaasssssa" />
  </g>
</svg>
