<?xml version="1.0" encoding="utf-8"?>
<!-- Generator: Adobe Illustrator 27.0.1, SVG Export Plug-In . SVG Version: 6.00 Build 0)  -->
<svg version="1.1" id="Layer_1" xmlns="http://www.w3.org/2000/svg" xmlns:xlink="http://www.w3.org/1999/xlink" x="0px" y="0px"
	 viewBox="0 0 1366 768" style="enable-background:new 0 0 1366 768;" xml:space="preserve">
<style type="text/css">
	.st0{fill:#7D9F55;}
	.st1{fill:#5F8D2B;}
	.st2{fill:none;}
	.st3{fill:#FFFFFF;}
	.st4{font-family:'CopalStd-Solid';}
	.st5{font-size:91px;}
	.st6{font-family:'CopalStd-Outline';}
	.st7{font-size:76px;}
	.st8{font-family:'Montserrat-ExtraBold';}
	.st9{font-size:72px;}
	.st10{fill:#86AC44;}
</style>
<g id="sign">
	<g>
		<path class="st0" d="M145.29,601.5c-9.26,0-16.79-7.53-16.79-16.79V183.29c0-9.26,7.53-16.79,16.79-16.79h1075.43
			c9.26,0,16.79,7.53,16.79,16.79v401.43c0,9.26-7.53,16.79-16.79,16.79H145.29z"/>
		<path class="st1" d="M1220.71,174c5.12,0,9.29,4.17,9.29,9.29v401.43c0,5.12-4.17,9.29-9.29,9.29H145.29
			c-5.12,0-9.29-4.17-9.29-9.29V183.29c0-5.12,4.17-9.29,9.29-9.29H1220.71 M1220.71,159H145.29c-13.41,0-24.29,10.87-24.29,24.29
			v401.43c0,13.41,10.87,24.29,24.29,24.29h1075.43c13.41,0,24.29-10.87,24.29-24.29V183.29C1245,169.87,1234.13,159,1220.71,159
			L1220.71,159z"/>
	</g>
	<rect x="215.14" y="217.02" class="st2" width="935.71" height="333.95"/>
	<text transform="matrix(1 0 0 1 227.0953 329.3317)"><tspan x="0" y="0" class="st3 st4 st5">white butterfly ginger</tspan><tspan x="58.43" y="91.2" class="st3 st6 st7">hedychium coronarium</tspan><tspan x="79.89" y="177.6" class="st3 st8 st9">zingiberaceae india</tspan></text>
</g>
<g id="flower">
	<g>
		<g>
			<path class="st10" d="M1154.81,595.42c1.93,0,1.93-3,0-3C1152.88,592.42,1152.88,595.42,1154.81,595.42L1154.81,595.42z"/>
		</g>
	</g>
	<g>
		<g>
			<path class="st10" d="M1154.81,593.05c1.93,0,1.93-3,0-3C1152.88,590.05,1152.88,593.05,1154.81,593.05L1154.81,593.05z"/>
		</g>
	</g>
	<g>
		<g>
			<path class="st10" d="M1155.08,580.47c-0.68-4.76-1.37-9.53-2.05-14.29c-0.12-0.8-1.13-1.24-1.85-1.05
				c-0.86,0.24-1.16,1.04-1.05,1.85c0.68,4.76,1.37,9.53,2.05,14.29c0.12,0.8,1.13,1.24,1.85,1.05
				C1154.9,582.08,1155.2,581.27,1155.08,580.47L1155.08,580.47z"/>
		</g>
	</g>
	<g>
		<g>
			<path class="st10" d="M1156.28,581.65c-2.17-7.61-3.38-15.42-3.59-23.33c-0.05-1.93-3.05-1.93-3,0
				c0.22,8.16,1.46,16.28,3.7,24.13C1153.91,584.3,1156.81,583.51,1156.28,581.65L1156.28,581.65z"/>
		</g>
	</g>
	<g>
		<g>
			<path class="st10" d="M1152.69,570.98c-2.18-11.6-2.93-23.42-2.27-35.2c0.11-1.93-2.89-1.92-3,0c-0.67,12.05,0.14,24.14,2.37,36
				C1150.16,573.67,1153.05,572.87,1152.69,570.98L1152.69,570.98z"/>
		</g>
	</g>
	<g>
		<g>
			<path class="st10" d="M1150.35,545.27c-1.24-10.45-0.48-21.02,2.3-31.18c-0.96-0.27-1.93-0.53-2.89-0.8
				c-3.13,19.79-2.64,40.01,1.48,59.61c0.4,1.89,3.29,1.09,2.89-0.8c-4.01-19.04-4.53-38.79-1.48-58.02c0.29-1.86-2.37-2.7-2.89-0.8
				c-2.85,10.39-3.68,21.27-2.41,31.98C1147.58,547.16,1150.58,547.18,1150.35,545.27L1150.35,545.27z"/>
		</g>
	</g>
	<g>
		<g>
			<path class="st10" d="M1149.9,556.33c1.42,10.08,3.89,19.99,7.36,29.56c0.65,1.8,3.55,1.02,2.89-0.8
				c-3.47-9.57-5.94-19.48-7.36-29.56C1152.52,553.63,1149.63,554.44,1149.9,556.33L1149.9,556.33z"/>
		</g>
	</g>
	<g>
		<g>
			<path class="st10" d="M1150.96,576.53c1.15,3.92,2.3,7.84,3.46,11.76c0.55,1.86,3.3,1.08,2.89-0.8
				c-3.91-18.16-5.84-36.7-5.78-55.28c0.01-1.93-2.99-1.93-3,0c-0.06,18.84,1.92,37.66,5.89,56.08c0.96-0.27,1.93-0.53,2.89-0.8
				c-1.15-3.92-2.3-7.84-3.46-11.76C1153.31,573.88,1150.42,574.67,1150.96,576.53L1150.96,576.53z"/>
		</g>
	</g>
	<g>
		<g>
			<path class="st10" d="M1150.33,540.52c-1.21-11.83-1.58-23.73-1.1-35.61c0.08-1.93-2.92-1.93-3,0
				c-0.48,11.88-0.11,23.78,1.1,35.61C1147.52,542.42,1150.52,542.44,1150.33,540.52L1150.33,540.52z"/>
		</g>
	</g>
	<g>
		<g>
			<path class="st10" d="M1149.43,519.15c-0.07-10.68-0.13-21.36-0.2-32.04c-0.01-1.93-3.01-1.93-3,0
				c0.07,10.68,0.13,21.36,0.2,32.04C1146.44,521.08,1149.44,521.09,1149.43,519.15L1149.43,519.15z"/>
		</g>
	</g>
	<g>
		<g>
			<path class="st10" d="M1146.75,498.97c0.61-7.28,0.24-14.59-1.01-21.78c-0.33-1.9-3.22-1.09-2.89,0.8
				c1.21,6.93,1.49,13.98,0.9,20.99C1143.59,500.9,1146.59,500.89,1146.75,498.97L1146.75,498.97z"/>
		</g>
	</g>
	<g>
		<g>
			<path class="st10" d="M1144.39,487.9c-0.4-2.77-0.79-5.54-1.19-8.31c-0.11-0.78-1.14-1.28-1.85-1.05
				c-0.85,0.28-1.17,1.01-1.05,1.85c0.4,2.77,0.79,5.54,1.19,8.31c0.11,0.78,1.14,1.28,1.85,1.05
				C1144.2,489.47,1144.51,488.73,1144.39,487.9L1144.39,487.9z"/>
		</g>
	</g>
	<g>
		<g>
			<path class="st10" d="M1149.04,504.96c-0.95-8.71-1.93-17.62-5.73-25.63c-3.18-6.72-8.39-12.5-15.38-15.28
				c-1.79-0.71-2.57,2.19-0.8,2.89c6.37,2.53,10.95,8.16,13.75,14.24c3.42,7.41,4.28,15.75,5.16,23.78
				C1146.24,506.86,1149.25,506.88,1149.04,504.96L1149.04,504.96z"/>
		</g>
	</g>
	<g>
		<g>
			<path class="st10" d="M1107.77,463.48c4.35,1.98,8.7,3.96,13.05,5.93c0.74,0.33,1.61,0.21,2.05-0.54
				c0.38-0.64,0.2-1.72-0.54-2.05c-4.35-1.98-8.7-3.96-13.05-5.93c-0.74-0.33-1.61-0.21-2.05,0.54
				C1106.86,462.07,1107.03,463.15,1107.77,463.48L1107.77,463.48z"/>
		</g>
	</g>
	<g>
		<g>
			<path class="st10" d="M1109.2,466.46c11.58,3.02,21.9,9.8,29.33,19.17c1.2,1.51,3.31-0.62,2.12-2.12
				c-7.73-9.75-18.62-16.81-30.66-19.95C1108.13,463.08,1107.33,465.97,1109.2,466.46L1109.2,466.46z"/>
		</g>
	</g>
	<g>
		<g>
			<path class="st10" d="M1113.79,466.86c12.41,6.08,23.02,15.58,30.42,27.26c2.11,3.34,3.95,6.84,5.52,10.46
				c0.76,1.77,3.35,0.24,2.59-1.51c-5.66-13.09-15.03-24.45-26.67-32.67c-3.28-2.32-6.74-4.36-10.35-6.13
				C1113.58,463.42,1112.06,466.01,1113.79,466.86L1113.79,466.86z"/>
		</g>
	</g>
	<g>
		<g>
			<path class="st10" d="M1097.43,461.85c-2.81,0.58-5.76,0.25-8.36-0.96c-0.12,0.91-0.24,1.83-0.36,2.74
				c6.53-1.38,13.15-2.16,19.81-2.35c1.93-0.05,1.93-3.05,0-3c-6.93,0.19-13.83,1.02-20.61,2.46c-1.21,0.26-1.52,2.2-0.36,2.74
				c3.38,1.58,7.02,2.02,10.67,1.26C1100.11,464.35,1099.31,461.46,1097.43,461.85L1097.43,461.85z"/>
		</g>
	</g>
	<g>
		<g>
			<path class="st10" d="M1093.97,467.23c9.5-3.44,20.3-2.64,29.27,2.02c9.64,5.01,15.78,14.13,19.2,24.23
				c3.65,10.76,4.61,22.25,5.06,33.54c0.45,11.33,0.27,22.69,1.18,34c1,12.52,3.45,24.98,9.41,36.14c0.91,1.7,3.5,0.19,2.59-1.51
				c-11.06-20.73-9.31-45.07-10.14-67.78c-0.79-21.31-3.56-47.99-23.82-60.12c-9.96-5.96-22.59-7.38-33.53-3.41
				C1091.38,464.99,1092.15,467.89,1093.97,467.23L1093.97,467.23z"/>
		</g>
	</g>
	<g>
		<g>
			<path class="st10" d="M1084.8,457.07c-4.76-0.48-9.43-1.62-13.91-3.29c-0.76-0.28-1.64,0.32-1.85,1.05
				c-0.23,0.84,0.29,1.56,1.05,1.85c4.74,1.77,9.67,2.89,14.71,3.4c0.81,0.08,1.5-0.75,1.5-1.5
				C1086.3,457.69,1085.61,457.15,1084.8,457.07L1084.8,457.07z"/>
		</g>
	</g>
	<g>
		<g>
			<path class="st10" d="M1090.78,456.67c-10.1-1.19-19.8-4.87-28.22-10.57c-1.6-1.08-3.11,1.51-1.51,2.59
				c8.88,6.01,19.09,9.73,29.73,10.98C1092.69,459.9,1092.67,456.9,1090.78,456.67L1090.78,456.67z"/>
		</g>
	</g>
	<g>
		<g>
			<path class="st10" d="M1067.85,452.42c-6.81-4.22-13.61-8.44-20.42-12.67c-1.65-1.02-3.15,1.57-1.51,2.59
				c6.81,4.22,13.61,8.44,20.42,12.67C1067.98,456.03,1069.49,453.44,1067.85,452.42L1067.85,452.42z"/>
		</g>
	</g>
	<g>
		<g>
			<path class="st10" d="M1051.13,438.34c-1.58-0.79-3.16-1.58-4.75-2.37c-0.7-0.35-1.66-0.21-2.05,0.54
				c-0.36,0.68-0.21,1.68,0.54,2.05c1.58,0.79,3.16,1.58,4.75,2.37c0.7,0.35,1.66,0.21,2.05-0.54
				C1052.03,439.71,1051.88,438.72,1051.13,438.34L1051.13,438.34z"/>
		</g>
	</g>
	<g>
		<g>
			<path class="st10" d="M1045.5,437.39c-3.96-3.56-7.91-7.12-11.87-10.68c-0.6-0.54-1.53-0.59-2.12,0c-0.55,0.55-0.6,1.58,0,2.12
				c3.96,3.56,7.91,7.12,11.87,10.68c0.6,0.54,1.53,0.59,2.12,0C1046.05,438.96,1046.1,437.93,1045.5,437.39L1045.5,437.39z"/>
		</g>
	</g>
	<g>
		<g>
			<path class="st10" d="M1039.69,436.39c1.93,0,1.93-3,0-3C1037.76,433.39,1037.76,436.39,1039.69,436.39L1039.69,436.39z"/>
		</g>
	</g>
	<g>
		<g>
			<path class="st10" d="M1038.1,431.17c-0.88-0.66-1.43-1.59-1.71-2.64c-0.48,0.63-0.96,1.27-1.45,1.9
				c9.87,0.98,19.74,1.96,29.61,2.94c1.92,0.19,1.91-2.81,0-3c-9.87-0.98-19.74-1.96-29.61-2.94c-0.99-0.1-1.68,1.04-1.45,1.9
				c0.5,1.86,1.55,3.29,3.08,4.44C1038.13,434.92,1039.63,432.31,1038.1,431.17L1038.1,431.17z"/>
		</g>
	</g>
	<g>
		<g>
			<path class="st10" d="M1045.63,434.05c8.98-0.46,17.99-0.13,26.9,1.08c0.81,0.11,1.6-0.2,1.85-1.05c0.2-0.7-0.25-1.74-1.05-1.85
				c-9.18-1.24-18.44-1.67-27.7-1.19C1043.71,431.15,1043.7,434.15,1045.63,434.05L1045.63,434.05z"/>
		</g>
	</g>
	<g>
		<g>
			<path class="st10" d="M1054.34,436.39c10.01-2.21,20.2-3.43,30.44-3.65c1.93-0.04,1.93-3.04,0-3
				c-10.51,0.23-20.98,1.49-31.24,3.76C1051.66,433.91,1052.46,436.81,1054.34,436.39L1054.34,436.39z"/>
		</g>
	</g>
	<g>
		<g>
			<path class="st10" d="M1064.64,440.18c13.02-1.56,26.22-0.64,38.88,2.76c1.87,0.5,2.66-2.39,0.8-2.89
				c-12.9-3.47-26.41-4.46-39.68-2.86C1062.75,437.41,1062.73,440.41,1064.64,440.18L1064.64,440.18z"/>
		</g>
	</g>
	<g>
		<g>
			<path class="st10" d="M1070.94,441.02c18.8-2.91,38.17-1.29,56.25,4.58c1.84,0.6,2.63-2.3,0.8-2.89
				c-18.62-6.04-38.51-7.57-57.85-4.58C1068.24,438.43,1069.05,441.32,1070.94,441.02L1070.94,441.02z"/>
		</g>
	</g>
	<g>
		<g>
			<path class="st10" d="M1088.31,439.35c16.96-1.19,34.01,1.1,50.06,6.73c0.27-0.96,0.53-1.93,0.8-2.89
				c-10.86-1.65-21.75-3.14-32.66-4.46c-10.14-1.23-20.41-2.58-30.65-1.83c-5.63,0.41-11.2,1.48-16.47,3.54
				c-1.78,0.7-1,3.6,0.8,2.89c9.23-3.61,19.18-4.01,28.97-3.38c10.41,0.68,20.8,2.15,31.13,3.55c6.03,0.81,12.05,1.68,18.07,2.59
				c1.88,0.29,2.66-2.24,0.8-2.89c-16.27-5.7-33.66-8.04-50.86-6.83C1086.39,436.48,1086.38,439.48,1088.31,439.35L1088.31,439.35z"
				/>
		</g>
	</g>
	<g>
		<g>
			<path class="st10" d="M1064.62,438.75c16.2,1.24,32.28,3.93,48.01,8.02c4.46,1.16,8.9,2.44,13.3,3.82
				c1.85,0.58,2.64-2.32,0.8-2.89c-15.69-4.93-31.79-8.44-48.1-10.53c-4.65-0.6-9.32-1.07-14-1.43
				C1062.69,435.61,1062.7,438.61,1064.62,438.75L1064.62,438.75z"/>
		</g>
	</g>
	<g>
		<g>
			<path class="st10" d="M1107.36,441.97c14.01-0.35,27.98,3.36,40,10.58c3.45,2.07,6.71,4.42,9.77,7.04
				c0.61-0.79,1.21-1.57,1.82-2.36c-11.53-8.71-25-14.74-39.17-17.53c-1.89-0.37-2.69,2.52-0.8,2.89
				c13.95,2.75,27.11,8.66,38.46,17.23c1.35,1.02,3.11-1.25,1.82-2.36c-11.14-9.54-24.96-15.79-39.49-17.8
				c-4.11-0.57-8.25-0.81-12.4-0.71C1105.44,439.02,1105.43,442.02,1107.36,441.97L1107.36,441.97z"/>
		</g>
	</g>
	<g>
		<g>
			<path class="st10" d="M1207.03,594.24c1.93,0,1.93-3,0-3C1205.1,591.24,1205.1,594.24,1207.03,594.24L1207.03,594.24z"/>
		</g>
	</g>
	<g>
		<g>
			<path class="st10" d="M1208.18,592.4c-0.93-4.45-0.71-9.06,0.59-13.42c0.55-1.85-2.34-2.65-2.89-0.8
				c-1.45,4.88-1.63,10.04-0.59,15.01c0.17,0.79,1.1,1.25,1.85,1.05C1207.96,594.02,1208.35,593.2,1208.18,592.4L1208.18,592.4z"/>
		</g>
	</g>
	<g>
		<g>
			<path class="st10" d="M1206.04,581.24c1.75-5.27,1.86-10.96,0.36-16.3c-0.42-1.51-2.39-1.33-2.89,0
				c-2.11,5.62-2.56,11.68-1.45,17.57c0.26,1.4,2.69,1.47,2.89,0c1.67-12.01,1-24.2-2.06-35.94c-0.35-1.34-2.66-1.51-2.89,0
				c-0.81,5.25-0.53,10.53,0.98,15.63c0.48,1.63,2.89,1.3,2.95-0.4c0.3-9.28-1.36-18.57-4.89-27.16c-0.91,0.39-1.83,0.77-2.74,1.16
				c1.39,2.86,2.79,5.71,4.18,8.57c0.73,1.5,3.4,0.42,2.74-1.16c-2.74-6.59-5.74-13.05-9.04-19.38c-0.83-1.58-3.05-0.44-2.74,1.16
				c0.69,3.52,1.98,6.87,3.8,9.96c0.85,1.43,3.27,0.5,2.74-1.16c-1.83-5.75-3.67-11.49-5.5-17.24c-0.58-1.83-3.48-1.05-2.89,0.8
				c1.83,5.75,3.67,11.49,5.5,17.24c0.91-0.39,1.83-0.77,2.74-1.16c-1.7-2.88-2.85-5.96-3.5-9.24c-0.91,0.39-1.83,0.77-2.74,1.16
				c3.18,6.09,6.11,12.31,8.74,18.66c0.91-0.39,1.83-0.77,2.74-1.16c-1.39-2.86-2.79-5.71-4.18-8.57c-0.73-1.5-3.39-0.43-2.74,1.16
				c3.43,8.37,5.07,17.32,4.78,26.36c0.98-0.13,1.96-0.27,2.95-0.4c-1.35-4.56-1.7-9.34-0.98-14.04c-0.96,0-1.93,0-2.89,0
				c2.91,11.18,3.64,22.89,2.06,34.34c0.96,0,1.93,0,2.89,0c-1.01-5.37-0.47-10.87,1.45-15.98c-0.96,0-1.93,0-2.89,0
				c1.36,4.86,1.23,9.92-0.36,14.71C1202.54,582.28,1205.44,583.07,1206.04,581.24L1206.04,581.24z"/>
		</g>
	</g>
	<g>
		<g>
			<path class="st10" d="M1200.24,541.29c-1.69-7.94-2.51-16.02-2.46-24.14c-1,0-2,0-3,0c0.17,5.48,0.98,10.92,2.42,16.21
				c0.91-0.39,1.83-0.77,2.74-1.16c-5.88-10.48-7.2-23.14-3.67-34.62c-0.98-0.13-1.96-0.27-2.95-0.4
				c0.68,5.22,0.28,10.44-1.24,15.48c0.96,0,1.93,0,2.89,0c-1.96-9.93-0.45-20.39,4.22-29.37c0.89-1.71-1.7-3.23-2.59-1.51
				c-5.05,9.73-6.64,20.93-4.52,31.68c0.3,1.52,2.49,1.33,2.89,0c1.59-5.27,2.07-10.82,1.35-16.28c-0.21-1.59-2.41-2.14-2.95-0.4
				c-3.76,12.23-2.28,25.77,3.97,36.93c0.83,1.49,3.19,0.48,2.74-1.16c-1.37-5.04-2.15-10.19-2.31-15.41c-0.06-1.93-2.99-1.94-3,0
				c-0.05,8.38,0.82,16.74,2.57,24.93C1197.75,543.97,1200.65,543.18,1200.24,541.29L1200.24,541.29z"/>
		</g>
	</g>
	<g>
		<g>
			<path class="st10" d="M1194.35,504.14c1.54-10.01,4.95-19.61,10.11-28.33c0.99-1.67-1.61-3.18-2.59-1.51
				c-5.28,8.92-8.84,18.8-10.41,29.04C1191.17,505.23,1194.06,506.05,1194.35,504.14L1194.35,504.14z"/>
		</g>
	</g>
	<g>
		<g>
			<path class="st10" d="M1197.33,488.08c5.18-4.71,10.36-9.42,15.54-14.12c1.43-1.3-0.69-3.42-2.12-2.12
				c-5.18,4.71-10.36,9.42-15.54,14.12C1193.78,487.26,1195.9,489.38,1197.33,488.08L1197.33,488.08z"/>
		</g>
	</g>
	<g>
		<g>
			<path class="st10" d="M1198.6,486.98c8.27-7.17,15.84-15.1,22.62-23.68c1.18-1.5-0.93-3.64-2.12-2.12
				c-6.78,8.59-14.35,16.52-22.62,23.68C1195.01,486.13,1197.14,488.24,1198.6,486.98L1198.6,486.98z"/>
		</g>
	</g>
	<g>
		<g>
			<path class="st10" d="M1217.58,466.8c5.27-5.5,9.05-12.3,10.93-19.68c0.47-1.87-2.42-2.67-2.89-0.8
				c-1.75,6.89-5.24,13.22-10.15,18.36C1214.12,466.07,1216.24,468.2,1217.58,466.8L1217.58,466.8z"/>
		</g>
	</g>
	<g>
		<g>
			<path class="st10" d="M1182.11,456.57c1.93,0,1.93-3,0-3C1180.18,453.57,1180.18,456.57,1182.11,456.57L1182.11,456.57z"/>
		</g>
	</g>
	<g>
		<g>
			<path class="st10" d="M1185.31,457.32c3.09-7.2,7.83-13.54,13.86-18.55c1.49-1.23-0.65-3.35-2.12-2.12
				c-6.2,5.15-11.15,11.76-14.33,19.16c-0.32,0.74-0.22,1.61,0.54,2.05C1183.89,458.22,1184.99,458.06,1185.31,457.32
				L1185.31,457.32z"/>
		</g>
	</g>
	<g>
		<g>
			<path class="st10" d="M1194.15,449.94c4.62-6.21,10.08-11.77,16.15-16.57c0.64-0.5,0.53-1.6,0-2.12c-0.63-0.63-1.48-0.5-2.12,0
				c-6.28,4.97-11.84,10.75-16.62,17.17c-0.48,0.65-0.11,1.68,0.54,2.05C1192.87,450.93,1193.67,450.59,1194.15,449.94
				L1194.15,449.94z"/>
		</g>
	</g>
	<g>
		<g>
			<path class="st10" d="M1199.79,444.26c3.51-4.02,7.6-7.41,12.22-10.09c-0.5-0.86-1.01-1.73-1.51-2.59
				c-1.34,0.94-2.68,1.88-4.03,2.82c-1.57,1.1-0.23,3.47,1.51,2.59c4.52-2.27,8.88-4.82,13.07-7.65c1.59-1.07,0.09-3.67-1.51-2.59
				c-4.19,2.83-8.55,5.38-13.07,7.65c0.5,0.86,1.01,1.73,1.51,2.59c1.34-0.94,2.68-1.88,4.03-2.82c1.56-1.09,0.18-3.58-1.51-2.59
				c-4.82,2.79-9.16,6.36-12.82,10.56C1196.4,443.59,1198.51,445.72,1199.79,444.26L1199.79,444.26z"/>
		</g>
	</g>
	<g>
		<g>
			<path class="st10" d="M1220.09,429.27c1.93,0,1.93-3,0-3C1218.16,426.27,1218.15,429.27,1220.09,429.27L1220.09,429.27z"/>
		</g>
	</g>
	<g>
		<g>
			<path class="st10" d="M1220.09,429.23c1.01,0.02,2.07-0.29,2.9-0.85c0.41-0.28,0.81-0.6,1.12-0.98c0.2-0.24,0.39-0.49,0.55-0.76
				c0.16-0.27,0.28-0.57,0.39-0.86c0.13-0.34,0.03-0.85-0.15-1.16c-0.18-0.31-0.54-0.61-0.9-0.69c-0.38-0.09-0.82-0.07-1.16,0.15
				c-0.35,0.22-0.54,0.51-0.69,0.9c-0.02,0.05-0.04,0.09-0.06,0.14c0.05-0.12,0.1-0.24,0.15-0.36c-0.12,0.26-0.26,0.51-0.43,0.74
				c0.08-0.1,0.16-0.2,0.23-0.3c-0.2,0.25-0.42,0.48-0.67,0.68c0.1-0.08,0.2-0.16,0.3-0.23c-0.27,0.21-0.56,0.38-0.87,0.51
				c0.12-0.05,0.24-0.1,0.36-0.15c-0.3,0.12-0.6,0.21-0.92,0.26c0.13-0.02,0.27-0.04,0.4-0.05c-0.18,0.02-0.37,0.03-0.55,0.03
				c-0.38-0.01-0.79,0.17-1.06,0.44c-0.26,0.26-0.46,0.69-0.44,1.06C1218.63,428.56,1219.25,429.22,1220.09,429.23L1220.09,429.23z"
				/>
		</g>
	</g>
	<g>
		<g>
			<path class="st10" d="M1183.3,449.45c1.93,0,1.93-3,0-3C1181.37,446.45,1181.36,449.45,1183.3,449.45L1183.3,449.45z"/>
		</g>
	</g>
	<g>
		<g>
			<path class="st10" d="M1190.28,444.24c5.96-5.86,10.51-13,13.37-20.85c0.66-1.82-2.24-2.6-2.89-0.8
				c-2.68,7.36-7.02,14.04-12.6,19.53C1186.78,443.48,1188.9,445.6,1190.28,444.24L1190.28,444.24z"/>
		</g>
	</g>
	<g>
		<g>
			<path class="st10" d="M1193.74,439.39c11.35-10.65,19.48-24.56,23.19-39.67c0.46-1.87-2.43-2.67-2.89-0.8
				c-3.59,14.64-11.42,28.03-22.42,38.35C1190.21,438.59,1192.33,440.71,1193.74,439.39L1193.74,439.39z"/>
		</g>
	</g>
	<g>
		<g>
			<path class="st10" d="M1214.44,400.12c3.29-7.71,5.19-15.89,5.57-24.27c0.08-1.66-2.68-2.09-2.95-0.4
				c-3.06,19.08-9.82,37.49-19.87,54c-2.83,4.65-5.91,9.15-9.24,13.46c-0.5,0.65-0.62,1.49,0,2.12c0.51,0.52,1.63,0.64,2.12,0
				c12.06-15.6,21.05-33.45,26.33-52.46c1.49-5.37,2.67-10.82,3.55-16.32c-0.98-0.13-1.96-0.27-2.95-0.4
				c-0.35,7.82-2.09,15.56-5.16,22.76C1211.1,400.36,1213.69,401.89,1214.44,400.12L1214.44,400.12z"/>
		</g>
	</g>
	<g>
		<g>
			<path class="st10" d="M1173.8,404.35c1.93,0,1.93-3,0-3C1171.87,401.35,1171.87,404.35,1173.8,404.35L1173.8,404.35z"/>
		</g>
	</g>
	<g>
		<g>
			<path class="st10" d="M1176.41,403.67c4.01-7.56,9.82-14.06,16.93-18.83c1.59-1.07,0.09-3.67-1.51-2.59
				c-7.53,5.05-13.75,11.9-18,19.91C1172.91,403.86,1175.5,405.38,1176.41,403.67L1176.41,403.67z"/>
		</g>
	</g>
	<g>
		<g>
			<path class="st10" d="M1184.5,397.62c5.23-10.83,13.95-19.67,24.72-25.04c1.73-0.86,0.21-3.45-1.51-2.59
				c-11.17,5.57-20.37,14.87-25.8,26.12C1181.07,397.84,1183.66,399.36,1184.5,397.62L1184.5,397.62z"/>
		</g>
	</g>
	<g>
		<g>
			<path class="st10" d="M1207.77,374.44c4.75-3.5,8.92-7.63,12.48-12.34c0.49-0.65,0.1-1.68-0.54-2.05
				c-0.77-0.45-1.56-0.11-2.05,0.54c-3.23,4.27-7.1,8.09-11.41,11.26c-0.65,0.48-0.98,1.3-0.54,2.05
				C1206.09,374.55,1207.11,374.93,1207.77,374.44L1207.77,374.44z"/>
		</g>
	</g>
	<g>
		<g>
			<path class="st10" d="M1217.59,364.74c2.77-3.16,5.54-6.33,8.31-9.49c0.52-0.59,0.62-1.55,0-2.12c-0.57-0.52-1.57-0.63-2.12,0
				c-2.77,3.16-5.54,6.33-8.31,9.49c-0.52,0.59-0.62,1.55,0,2.12C1216.03,365.26,1217.04,365.37,1217.59,364.74L1217.59,364.74z"/>
		</g>
	</g>
	<g>
		<g>
			<path class="st10" d="M1217.86,392.52c2.45-6.7,4.9-13.39,7.35-20.09c0.66-1.82-2.23-2.6-2.89-0.8
				c-2.45,6.7-4.9,13.39-7.35,20.09C1214.31,393.54,1217.21,394.32,1217.86,392.52L1217.86,392.52z"/>
		</g>
	</g>
	<g>
		<g>
			<path class="st10" d="M1221.69,379.57c1.55-4.36,3.1-8.73,4.65-13.09c0.27-0.76-0.31-1.64-1.05-1.85
				c-0.83-0.23-1.57,0.28-1.85,1.05c-1.55,4.36-3.1,8.73-4.65,13.09c-0.27,0.76,0.31,1.64,1.05,1.85
				C1220.68,380.84,1221.42,380.33,1221.69,379.57L1221.69,379.57z"/>
		</g>
	</g>
	<g>
		<g>
			<path class="st10" d="M1149.67,450.15c-7.03-3.4-13.8-7.33-20.25-11.74c-1.6-1.09-3.1,1.51-1.51,2.59
				c6.45,4.41,13.22,8.34,20.25,11.74C1149.88,453.58,1151.41,450.99,1149.67,450.15L1149.67,450.15z"/>
		</g>
	</g>
	<g>
		<g>
			<path class="st10" d="M1133.1,439.41c-5.48-4-10.21-9.01-13.92-14.69c-1.05-1.61-3.65-0.11-2.59,1.51
				c4,6.13,9.08,11.45,14.99,15.77c0.65,0.48,1.67,0.11,2.05-0.54C1134.09,440.71,1133.76,439.89,1133.1,439.41L1133.1,439.41z"/>
		</g>
	</g>
	<g>
		<g>
			<path class="st10" d="M1125.74,430.39c-7.73-2.35-13.54-9.29-14.72-17.25c-0.12-0.8-1.13-1.24-1.85-1.05
				c-0.86,0.24-1.17,1.04-1.05,1.85c1.33,8.98,8.17,16.71,16.82,19.34C1126.8,433.85,1127.59,430.96,1125.74,430.39L1125.74,430.39z
				"/>
		</g>
	</g>
	<g>
		<g>
			<path class="st10" d="M1118.12,422.95c-6.38-7.18-10.87-15.86-13.13-25.19c-0.45-1.88-3.35-1.08-2.89,0.8
				c2.38,9.84,7.18,18.95,13.9,26.52C1117.28,426.52,1119.4,424.39,1118.12,422.95L1118.12,422.95z"/>
		</g>
	</g>
	<g>
		<g>
			<path class="st10" d="M1110.86,410.49c-4.98-8.07-8.8-16.77-11.35-25.9c-0.52-1.86-3.41-1.07-2.89,0.8
				c2.62,9.37,6.54,18.34,11.65,26.62C1109.28,413.64,1111.88,412.14,1110.86,410.49L1110.86,410.49z"/>
		</g>
	</g>
	<g>
		<g>
			<path class="st10" d="M1103.95,391.8c-1.61-4.74-3.22-9.47-4.84-14.21c-0.62-1.82-3.52-1.04-2.89,0.8
				c1.61,4.74,3.22,9.47,4.84,14.21C1101.67,394.41,1104.57,393.63,1103.95,391.8L1103.95,391.8z"/>
		</g>
	</g>
	<g>
		<g>
			<path class="st10" d="M1101.46,384.68c-1.04-6.64-2.07-13.28-3.11-19.92c-0.84,0.49-1.67,0.97-2.51,1.46
				c3.04,3.9,6.08,7.79,9.12,11.69c0.5,0.64,1.59,0.52,2.12,0c0.64-0.62,0.5-1.49,0-2.12c-3.04-3.9-6.08-7.79-9.12-11.69
				c-0.4-0.52-1.29-0.54-1.82-0.23c-0.62,0.36-0.79,1.03-0.69,1.69c1.04,6.64,2.07,13.28,3.11,19.92c0.12,0.8,1.13,1.25,1.85,1.05
				C1101.26,386.28,1101.58,385.48,1101.46,384.68L1101.46,384.68z"/>
		</g>
	</g>
	<g>
		<g>
			<path class="st10" d="M1102.86,374.11c8.77,9.43,17.54,18.87,26.3,28.3c1.32,1.42,3.43-0.71,2.12-2.12
				c-8.77-9.43-17.54-18.87-26.3-28.3C1103.66,370.57,1101.54,372.69,1102.86,374.11L1102.86,374.11z"/>
		</g>
	</g>
	<g>
		<g>
			<path class="st10" d="M1121.79,397.51c10.89,5.05,18.85,15.27,21.05,27.07c0.35,1.9,3.25,1.09,2.89-0.8
				c-2.33-12.47-10.91-23.53-22.43-28.86C1121.56,394.11,1120.04,396.7,1121.79,397.51L1121.79,397.51z"/>
		</g>
	</g>
	<g>
		<g>
			<path class="st10" d="M1135.97,412.2c4.83,4.66,9.67,9.31,14.5,13.97c1.39,1.34,3.52-0.78,2.12-2.12
				c-4.83-4.66-9.67-9.31-14.5-13.97C1136.7,408.74,1134.57,410.86,1135.97,412.2L1135.97,412.2z"/>
		</g>
	</g>
	<g>
		<g>
			<path class="st10" d="M1143.19,420.41c5.2,5.48,10.41,10.96,15.61,16.44c1.33,1.4,3.45-0.72,2.12-2.12
				c-5.2-5.48-10.41-10.96-15.61-16.44C1143.98,416.88,1141.86,419.01,1143.19,420.41L1143.19,420.41z"/>
		</g>
	</g>
	<g>
		<g>
			<path class="st10" d="M1156.26,441.22c1.38-9.17,1.82-18.44,1.24-27.7c-0.12-1.92-3.12-1.93-3,0c0.56,8.98,0.2,18-1.13,26.9
				C1153.08,442.31,1155.97,443.13,1156.26,441.22L1156.26,441.22z"/>
		</g>
	</g>
	<g>
		<g>
			<path class="st10" d="M1158.64,436.08c-1.49-14.98-4.19-29.83-8.11-44.37c-0.5-1.86-3.4-1.07-2.89,0.8
				c3.85,14.28,6.54,28.85,8.01,43.57C1155.83,437.99,1158.83,438,1158.64,436.08L1158.64,436.08z"/>
		</g>
	</g>
	<g>
		<g>
			<path class="st10" d="M1159.14,463.36c-0.42-16.59-2.42-33.13-5.98-49.34c-1.02-4.63-2.17-9.22-3.43-13.79
				c-0.52-1.86-3.41-1.07-2.89,0.8c4.39,15.81,7.29,32.02,8.59,48.38c0.37,4.64,0.61,9.29,0.72,13.95
				C1156.19,465.29,1159.19,465.3,1159.14,463.36L1159.14,463.36z"/>
		</g>
	</g>
	<g>
		<g>
			<path class="st10" d="M1159.93,433.29c-2.7-16.33-3.92-32.88-3.69-49.43c0.03-1.93-2.97-1.93-3,0
				c-0.23,16.82,1.05,33.63,3.8,50.23C1157.35,435.98,1160.24,435.18,1159.93,433.29L1159.93,433.29z"/>
		</g>
	</g>
	<g>
		<g>
			<path class="st10" d="M1156.22,402.45c-2.38-16.61-4.76-33.23-7.14-49.84c-0.27-1.9-3.16-1.09-2.89,0.8
				c2.38,16.61,4.76,33.23,7.14,49.84C1153.6,405.15,1156.49,404.34,1156.22,402.45L1156.22,402.45z"/>
		</g>
	</g>
	<g>
		<g>
			<path class="st10" d="M1176.47,433.7c-1.28-18.8-3.27-37.54-5.96-56.18c-0.27-1.9-3.16-1.09-2.89,0.8
				c2.64,18.38,4.59,36.86,5.85,55.38C1173.6,435.62,1176.6,435.64,1176.47,433.7L1176.47,433.7z"/>
		</g>
	</g>
	<g>
		<g>
			<path class="st10" d="M1176.53,428.95c-1.07-18.02-3.09-35.99-6.02-53.8c-0.31-1.9-3.2-1.09-2.89,0.8
				c2.89,17.55,4.86,35.25,5.92,53.01C1173.64,430.87,1176.64,430.89,1176.53,428.95L1176.53,428.95z"/>
		</g>
	</g>
	<g>
		<g>
			<path class="st10" d="M1172.33,392.16c2.39,18.99,4.78,37.97,7.17,56.96c0.24,1.89,3.24,1.91,3,0
				c-2.39-18.99-4.78-37.97-7.17-56.96C1175.09,390.27,1172.09,390.25,1172.33,392.16L1172.33,392.16z"/>
		</g>
	</g>
	<g>
		<g>
			<path class="st10" d="M1172.46,410.35c1.14,6.73,2.29,13.47,3.43,20.2c0.32,1.9,3.21,1.09,2.89-0.8
				c-1.14-6.73-2.29-13.47-3.43-20.2C1175.03,407.65,1172.14,408.46,1172.46,410.35L1172.46,410.35z"/>
		</g>
	</g>
	<g>
		<g>
			<path class="st10" d="M1174.13,406c-0.78-5.14-1.56-10.29-2.34-15.43c-0.12-0.8-1.13-1.24-1.85-1.05
				c-0.86,0.24-1.17,1.04-1.05,1.85c0.78,5.14,1.56,10.29,2.34,15.43c0.12,0.8,1.13,1.24,1.85,1.05
				C1173.93,407.61,1174.25,406.8,1174.13,406L1174.13,406z"/>
		</g>
	</g>
	<g>
		<g>
			<path class="st10" d="M1169.21,404.02c0.76-7.52,1.53-15.04,2.29-22.56c0.2-1.92-2.81-1.91-3,0c-0.76,7.52-1.53,15.04-2.29,22.56
				C1166.02,405.94,1169.02,405.92,1169.21,404.02L1169.21,404.02z"/>
		</g>
	</g>
	<g>
		<g>
			<path class="st10" d="M1143.04,458.54c6.21,4.82,11.82,10.37,16.7,16.53c0.5,0.64,1.59,0.53,2.12,0c0.63-0.63,0.51-1.48,0-2.12
				c-4.88-6.16-10.49-11.71-16.7-16.53c-0.64-0.5-1.5-0.62-2.12,0C1142.52,456.94,1142.4,458.04,1143.04,458.54L1143.04,458.54z"/>
		</g>
	</g>
	<g>
		<g>
			<path class="st10" d="M1149.28,459.97c8.61,6.02,15.79,13.95,20.99,23.08c0.96,1.68,3.55,0.17,2.59-1.51
				c-5.46-9.59-13.02-17.83-22.06-24.16C1149.21,456.27,1147.71,458.87,1149.28,459.97L1149.28,459.97z"/>
		</g>
	</g>
	<g>
		<g>
			<path class="st10" d="M1150.05,462.87c6.34,8.3,12.68,16.6,19.02,24.9c1.16,1.51,3.76,0.02,2.59-1.51
				c-6.34-8.3-12.68-16.6-19.02-24.9C1151.49,459.84,1148.88,461.33,1150.05,462.87L1150.05,462.87z"/>
		</g>
	</g>
	<g>
		<g>
			<path class="st10" d="M1174.57,471.81c2.98-1.95,6.43-3.15,9.91-3.41c0.81-0.06,1.5-0.65,1.5-1.5c0-0.76-0.69-1.56-1.5-1.5
				c-4.06,0.3-8.01,1.58-11.43,3.82c-0.68,0.44-0.96,1.33-0.54,2.05C1172.91,471.94,1173.89,472.25,1174.57,471.81L1174.57,471.81z"
				/>
		</g>
	</g>
	<g>
		<g>
			<path class="st10" d="M1182.4,465.41c3.52-7,10.83-11.73,18.69-11.94c1.93-0.05,1.93-3.05,0-3c-8.86,0.23-17.29,5.49-21.28,13.42
				C1178.94,465.61,1181.53,467.13,1182.4,465.41L1182.4,465.41z"/>
		</g>
	</g>
	<g>
		<g>
			<path class="st10" d="M1173.88,473.61c5.16-10.35,13.77-18.65,24.3-23.45c1.75-0.8,0.23-3.39-1.51-2.59
				c-10.94,4.98-20.01,13.77-25.38,24.52C1170.43,473.82,1173.01,475.34,1173.88,473.61L1173.88,473.61z"/>
		</g>
	</g>
	<g>
		<g>
			<path class="st10" d="M1175.12,465.33c3.95-5.75,10.06-9.81,16.85-11.36c1.88-0.43,1.09-3.32-0.8-2.89
				c-7.57,1.73-14.25,6.36-18.64,12.74C1171.43,465.41,1174.03,466.91,1175.12,465.33L1175.12,465.33z"/>
		</g>
	</g>
	<g>
		<g>
			<path class="st10" d="M1177.36,405.53c1.93,0,1.93-3,0-3C1175.43,402.53,1175.43,405.53,1177.36,405.53L1177.36,405.53z"/>
		</g>
	</g>
	<g>
		<g>
			<path class="st10" d="M1183.74,402.09c0.27-0.75,1.18-1.18,1.93-1.01c-0.35-0.62-0.7-1.23-1.05-1.85
				c-1.37,5.81-2.74,11.61-4.12,17.42c-0.44,1.88,2.45,2.68,2.89,0.8c1.37-5.81,2.74-11.61,4.12-17.42
				c0.18-0.76-0.23-1.66-1.05-1.85c-2.44-0.55-4.77,0.78-5.62,3.11c-0.28,0.76,0.31,1.64,1.05,1.85
				C1182.73,403.37,1183.46,402.85,1183.74,402.09L1183.74,402.09z"/>
		</g>
	</g>
	<g>
		<g>
			<path class="st10" d="M1163.38,368.83c0.4-1.58,0.79-3.16,1.19-4.75c0.19-0.76-0.24-1.66-1.05-1.85
				c-0.78-0.18-1.64,0.23-1.85,1.05c-0.4,1.58-0.79,3.16-1.19,4.75c-0.19,0.76,0.24,1.66,1.05,1.85
				C1162.31,370.05,1163.18,369.64,1163.38,368.83L1163.38,368.83z"/>
		</g>
	</g>
	<g>
		<g>
			<path class="st10" d="M1164.66,368.43c0.28-5.93,1.8-11.76,4.45-17.07c0.86-1.72-1.73-3.24-2.59-1.51
				c-2.9,5.8-4.56,12.11-4.86,18.58C1161.57,370.36,1164.57,370.36,1164.66,368.43L1164.66,368.43z"/>
		</g>
	</g>
	<g>
		<g>
			<path class="st10" d="M1164.69,359.36c3.04-11.97,7.74-23.43,13.99-34.08c0.98-1.67-1.61-3.18-2.59-1.51
				c-6.37,10.86-11.2,22.59-14.29,34.79C1161.32,360.44,1164.21,361.24,1164.69,359.36L1164.69,359.36z"/>
		</g>
	</g>
	<g>
		<g>
			<path class="st10" d="M1170.71,342.77c3.43-13.32,11.21-25.22,21.99-33.77c1.51-1.2-0.62-3.31-2.12-2.12
				c-11.14,8.84-19.21,21.32-22.76,35.09C1167.34,343.84,1170.23,344.64,1170.71,342.77L1170.71,342.77z"/>
		</g>
	</g>
	<g>
		<g>
			<path class="st10" d="M1172.74,334.77c7.24-14.03,17.5-26.41,29.95-36.13c3.55-2.77,7.28-5.3,11.14-7.6
				c-0.61-0.79-1.21-1.57-1.82-2.36c-11.04,10.51-21.45,21.66-31.19,33.39c-1.23,1.47,0.89,3.61,2.12,2.12
				c9.74-11.72,20.16-22.87,31.19-33.39c1.23-1.18-0.35-3.23-1.82-2.36c-13.95,8.32-25.99,19.67-35.17,33.07
				c-2.58,3.76-4.91,7.69-7,11.74C1169.27,334.97,1171.85,336.49,1172.74,334.77L1172.74,334.77z"/>
		</g>
	</g>
	<g>
		<g>
			<path class="st10" d="M1172.57,337.25c-3.9,11.52-5.26,23.85-3.93,35.94c0.21,1.9,3.21,1.92,3,0
				c-1.3-11.86-0.01-23.84,3.82-35.14C1176.08,336.21,1173.19,335.42,1172.57,337.25L1172.57,337.25z"/>
		</g>
	</g>
	<g>
		<g>
			<path class="st10" d="M1165.24,355.37c1.38,12.88,3.34,25.69,5.91,38.39c0.38,1.89,3.27,1.09,2.89-0.8
				c-2.51-12.43-4.46-24.98-5.8-37.59C1168.04,353.47,1165.04,353.45,1165.24,355.37L1165.24,355.37z"/>
		</g>
	</g>
	<g>
		<g>
			<path class="st10" d="M1143.11,354.46c-12.55-8.91-28.7-12.14-43.78-9.32c-4.3,0.81-8.46,2.15-12.45,3.94
				c-1.32,0.59-0.7,2.98,0.76,2.8c17.08-2.14,34.31-3.06,51.52-2.71c4.86,0.1,9.71,0.3,14.56,0.6c1.93,0.12,1.92-2.88,0-3
				c-17.18-1.05-34.43-0.86-51.58,0.59c-4.84,0.41-9.67,0.92-14.49,1.53c0.25,0.93,0.5,1.86,0.76,2.8
				c13.31-5.97,28.95-5.95,42.44-0.54c3.81,1.53,7.42,3.54,10.77,5.92C1143.17,358.17,1144.67,355.57,1143.11,354.46L1143.11,354.46
				z"/>
		</g>
	</g>
	<g>
		<g>
			<path class="st10" d="M1135.36,349.88c7.84,3.02,15.21,7.18,21.88,12.28c0.12-0.91,0.24-1.83,0.36-2.74
				c-4.84,0.93-9.23-2.2-12.99-4.82c-2.14-1.49-4.25-3.04-6.54-4.28c-2.44-1.32-5.07-2.3-7.74-3.04
				c-5.71-1.58-11.73-2.19-17.62-2.56c-6.19-0.38-12.4-0.29-18.58,0.26c-6.94,0.62-13.83,1.81-20.58,3.55
				c-1.87,0.48-1.08,3.38,0.8,2.89c12.04-3.12,24.5-4.4,36.93-3.78c5.97,0.3,12.04,0.88,17.83,2.41c2.8,0.74,5.51,1.74,8.03,3.18
				c2.19,1.24,4.22,2.75,6.28,4.18c4.46,3.1,9.35,5.98,14.98,4.89c1.42-0.27,1.27-2.04,0.36-2.74c-6.9-5.26-14.51-9.46-22.6-12.58
				C1134.35,346.29,1133.57,349.19,1135.36,349.88L1135.36,349.88z"/>
		</g>
	</g>
	<g>
		<g>
			<path class="st10" d="M1153.05,350.11c-5.74-17.83-11.81-36.98-7.46-55.8c0.37-1.58-1.96-2.75-2.74-1.16
				c-8.49,17.25-4.84,37.03,1.56,54.3c1.94,5.25,4.13,10.41,6.31,15.56c0.86-0.5,1.73-1.01,2.59-1.51
				c-5.49-11.1-7.81-23.45-8.67-35.72c-0.72-10.26-1.2-21.24,2.09-31.14c1.66-5,4.53-9.6,8.91-12.65c1.57-1.09,0.08-3.7-1.51-2.59
				c-8.69,6.04-11.74,16.52-12.62,26.58c-0.5,5.68-0.34,11.41-0.03,17.1c0.35,6.48,1.05,12.96,2.34,19.33
				c1.44,7.13,3.68,14.08,6.91,20.6c0.87,1.77,3.32,0.22,2.59-1.51c-7.03-16.61-14.4-34.32-12.03-52.76
				c0.63-4.87,1.99-9.67,4.16-14.08c-0.91-0.39-1.83-0.77-2.74-1.16c-4.48,19.4,1.54,39.01,7.46,57.4
				C1150.75,352.73,1153.64,351.95,1153.05,350.11L1153.05,350.11z"/>
		</g>
	</g>
	<g>
		<g>
			<path class="st10" d="M1191.6,523.03c1.93,0,1.93-3,0-3C1189.67,520.03,1189.67,523.03,1191.6,523.03L1191.6,523.03z"/>
		</g>
	</g>
	<g>
		<g>
			<path class="st10" d="M1201.1,547.95c1.93,0,1.93-3,0-3C1199.17,544.95,1199.17,547.95,1201.1,547.95L1201.1,547.95z"/>
		</g>
	</g>
	<g>
		<g>
			<path class="st10" d="M1203.52,550.82c4.47-3.06,8.19-7.13,10.78-11.9c0.39-0.71,0.18-1.63-0.54-2.05
				c-0.68-0.4-1.66-0.18-2.05,0.54c-2.34,4.31-5.67,8.05-9.71,10.82c-0.67,0.46-0.97,1.32-0.54,2.05
				C1201.85,550.94,1202.85,551.28,1203.52,550.82L1203.52,550.82z"/>
		</g>
	</g>
	<g>
		<g>
			<path class="st10" d="M1197.65,513.98c0.79-1.19,1.58-2.37,2.37-3.56c0.21-0.31,0.25-0.8,0.15-1.16c-0.1-0.35-0.36-0.73-0.69-0.9
				c-0.35-0.18-0.77-0.28-1.16-0.15c-0.38,0.12-0.67,0.35-0.9,0.69c-0.79,1.19-1.58,2.37-2.37,3.56c-0.21,0.31-0.25,0.8-0.15,1.16
				c0.1,0.35,0.36,0.73,0.69,0.9c0.35,0.18,0.77,0.28,1.16,0.15C1197.13,514.54,1197.42,514.31,1197.65,513.98L1197.65,513.98z"/>
		</g>
	</g>
	<g>
		<g>
			<path class="st10" d="M1198.83,511.6c2.28-3.54,5.42-6.67,8.97-8.94c0.66-0.42,0.99-1.35,0.54-2.05
				c-0.43-0.66-1.35-0.99-2.05-0.54c-4.03,2.58-7.45,6-10.04,10.02c-0.43,0.66-0.16,1.69,0.54,2.05
				C1197.52,512.53,1198.38,512.31,1198.83,511.6L1198.83,511.6z"/>
		</g>
	</g>
	<g>
		<g>
			<path class="st10" d="M1205.6,501.11c3.22-3.51,6.44-7.02,9.65-10.54c0.55-0.6,0.59-1.53,0-2.12c-0.55-0.55-1.57-0.6-2.12,0
				c-3.22,3.51-6.44,7.02-9.65,10.54c-0.55,0.6-0.59,1.53,0,2.12C1204.03,501.67,1205.05,501.71,1205.6,501.11L1205.6,501.11z"/>
		</g>
	</g>
	<g>
		<g>
			<path class="st10" d="M1206.51,502.51c6.52-4.3,13.33-8.13,20.4-11.45c1.75-0.82,0.22-3.41-1.51-2.59
				c-7.06,3.33-13.88,7.15-20.4,11.45C1203.39,500.98,1204.9,503.58,1206.51,502.51L1206.51,502.51z"/>
		</g>
	</g>
	<g>
		<g>
			<path class="st10" d="M1208.76,545c6.22-3.73,10.31-10.29,11.09-17.48c0.09-0.81-0.75-1.5-1.5-1.5c-0.88,0-1.41,0.69-1.5,1.5
				c-0.66,6.11-4.36,11.74-9.6,14.89C1205.59,543.4,1207.1,546,1208.76,545L1208.76,545z"/>
		</g>
	</g>
	<g>
		<g>
			<path class="st10" d="M1218.61,534.27c5.28-4.51,9.22-10.45,11.4-17.03c0.61-1.84-2.29-2.62-2.89-0.8
				c-2.03,6.11-5.74,11.53-10.63,15.71c-0.62,0.53-0.54,1.58,0,2.12C1217.1,534.88,1218,534.79,1218.61,534.27L1218.61,534.27z"/>
		</g>
	</g>
	<g>
		<g>
			<path class="st10" d="M1222.46,526.59c1.93,0,1.93-3,0-3C1220.53,523.59,1220.53,526.59,1222.46,526.59L1222.46,526.59z"/>
		</g>
	</g>
	<g>
		<g>
			<path class="st10" d="M1141.76,550.32c1.93,0,1.93-3,0-3C1139.83,547.32,1139.82,550.32,1141.76,550.32L1141.76,550.32z"/>
		</g>
	</g>
	<g>
		<g>
			<path class="st10" d="M1139.52,544.49c-2.5-5.08-5-10.16-7.5-15.24c-0.85-1.73-3.44-0.21-2.59,1.51c2.5,5.08,5,10.16,7.5,15.24
				C1137.78,547.74,1140.37,546.22,1139.52,544.49L1139.52,544.49z"/>
		</g>
	</g>
	<g>
		<g>
			<path class="st10" d="M1132.14,531.15c-1.6-1.71-3.2-3.42-4.8-5.13c-0.71,0.71-1.41,1.41-2.12,2.12
				c5.84,6.11,11.36,12.52,16.5,19.23c0.68-0.68,1.37-1.37,2.05-2.05c-13.72-6.99-23.14-21.39-23.88-36.8c-0.09-1.92-3.09-1.93-3,0
				c0.61,12.72,6.68,24.97,16.31,33.28c2.77,2.39,5.8,4.45,9.06,6.11c1.19,0.61,3.04-0.76,2.05-2.05
				c-5.3-6.91-10.95-13.54-16.97-19.84c-1.34-1.4-3.44,0.71-2.12,2.12c1.6,1.71,3.2,3.42,4.8,5.13
				C1131.34,534.68,1133.46,532.56,1132.14,531.15L1132.14,531.15z"/>
		</g>
	</g>
	<g>
		<g>
			<path class="st10" d="M1124.17,516.39c-1.19-5.93-2.38-11.87-3.58-17.8c-0.38-1.89-3.27-1.09-2.89,0.8
				c1.19,5.93,2.38,11.87,3.58,17.8C1121.65,519.08,1124.55,518.28,1124.17,516.39L1124.17,516.39z"/>
		</g>
	</g>
	<g>
		<g>
			<path class="st10" d="M1124.25,514.41c-1.03-8.72-2.06-17.44-3.09-26.17c-0.22-1.89-3.23-1.92-3,0
				c1.03,8.72,2.06,17.44,3.09,26.17C1121.47,516.3,1124.48,516.33,1124.25,514.41L1124.25,514.41z"/>
		</g>
	</g>
	<g>
		<g>
			<path class="st10" d="M1116.9,495.06c-1.25-5.69-4.7-10.65-9.5-13.93c-1.09-0.74-2.57,0.49-2.2,1.69
				c1.45,4.74,4.25,8.99,8.12,12.11c1.24,1,3.33-0.26,2.36-1.82c-2.79-4.47-5.99-8.68-9.56-12.56c-0.61,0.79-1.21,1.57-1.82,2.36
				c7.11,5.09,14.81,9.26,22.94,12.49c1.79,0.71,2.57-2.19,0.8-2.89c-7.88-3.13-15.33-7.25-22.22-12.18
				c-1.44-1.03-2.92,1.15-1.82,2.36c3.4,3.7,6.43,7.69,9.09,11.96c0.79-0.61,1.57-1.21,2.36-1.82c-3.48-2.81-6.04-6.5-7.35-10.78
				c-0.73,0.56-1.47,1.13-2.2,1.69c4.17,2.85,7.04,7.22,8.12,12.14C1114.42,497.74,1117.32,496.94,1116.9,495.06L1116.9,495.06z"/>
		</g>
	</g>
	<g>
		<g>
			<path class="st10" d="M1118.75,493.57c8.54,1.9,15.87,7.62,19.81,15.43c0.87,1.72,3.46,0.21,2.59-1.51
				c-4.26-8.45-12.37-14.75-21.6-16.81C1117.67,490.26,1116.87,493.15,1118.75,493.57L1118.75,493.57z"/>
		</g>
	</g>
	<g>
		<g>
			<path class="st10" d="M1132.29,504.87c3.54,4.35,6.31,9.34,8.17,14.63c0.27,0.76,1.03,1.27,1.85,1.05
				c0.74-0.2,1.32-1.08,1.05-1.85c-2.04-5.81-5.06-11.18-8.94-15.96c-0.51-0.63-1.59-0.53-2.12,0
				C1131.67,503.37,1131.78,504.23,1132.29,504.87L1132.29,504.87z"/>
		</g>
	</g>
	<g>
		<g>
			<path class="st10" d="M1148.12,268.17c-1.43-1.82-3.05-4.31-2.95-6.73c0.12-3.1,3.64-2.93,5.9-2.75
				c5.96,0.48,11.64-1.18,15.88-5.56c-0.85-0.35-1.71-0.71-2.56-1.06c0.56,5.16,3.77,9.82,8.6,11.88
				c4.96,2.11,10.71,1.07,14.83-2.32c-0.84-0.49-1.67-0.97-2.51-1.46c-2.03,11.65-12.59,20.72-24.18,22.13
				c-3.3,0.4-6.62,0.15-9.82-0.77c-1.86-0.54-2.65,2.36-0.8,2.89c12.62,3.64,26.68-2.59,33.71-13.42c1.97-3.04,3.35-6.47,3.97-10.04
				c0.26-1.51-1.32-2.44-2.51-1.46c-3.14,2.59-7.77,3.31-11.53,1.71c-3.65-1.55-6.35-5.21-6.78-9.14c-0.13-1.22-1.58-2.07-2.56-1.06
				c-2.31,2.38-5.25,3.98-8.52,4.59c-3.24,0.61-6.59-0.59-9.78,0.28c-2.87,0.79-4.59,3.41-4.32,6.34c0.28,3.03,1.96,5.73,3.8,8.07
				C1147.2,271.81,1149.31,269.67,1148.12,268.17L1148.12,268.17z"/>
		</g>
	</g>
	<g>
		<g>
			<path class="st10" d="M1142.84,269.17c-1.19,1.98-2.37,3.96-3.56,5.93c-0.4,0.67-0.17,1.68,0.54,2.05
				c0.73,0.38,1.62,0.18,2.05-0.54c1.19-1.98,2.37-3.96,3.56-5.93c0.4-0.67,0.17-1.68-0.54-2.05
				C1144.16,268.24,1143.27,268.45,1142.84,269.17L1142.84,269.17z"/>
		</g>
	</g>
	<g>
		<g>
			<path class="st10" d="M1145.32,288.04c1.93,0,1.93-3,0-3C1143.39,285.04,1143.39,288.04,1145.32,288.04L1145.32,288.04z"/>
		</g>
	</g>
	<g>
		<g>
			<path class="st10" d="M1109.71,257.18c1.93,0,1.93-3,0-3C1107.78,254.18,1107.78,257.18,1109.71,257.18L1109.71,257.18z"/>
		</g>
	</g>
	<g>
		<g>
			<path class="st10" d="M1106.86,256.78c0.45-0.32,0.9-0.63,1.35-0.95c0.06,0.04,0.05,0.03-0.05-0.03c0,0.02-0.13-0.09-0.13-0.09
				c0.01-0.12,0-0.43,0.03-0.61c0.14-0.82,0.47-1.56,0.92-2.25c0.95-1.47,2.51-2.58,4.12-3.21c4.41-1.74,9.38-0.17,13.69,1.11
				c1.86,0.55,2.65-2.35,0.8-2.89c-6.33-1.87-13.59-3.53-19.14,1.14c-1.9,1.6-3.96,4.67-3.38,7.31c0.25,1.12,1.24,2.13,2.35,2.42
				c1.29,0.34,2.56-0.57,2.45-1.94C1109.71,254.87,1106.71,254.86,1106.86,256.78L1106.86,256.78z"/>
		</g>
	</g>
	<g>
		<g>
			<path class="st10" d="M1123.14,253.5c4.02-1.5,8.25-1.73,12.5-1.68c4.57,0.06,9.15,0.25,13.72,0.39
				c5.22,0.16,13.52,0.49,15.66,6.39c0.65,1.8,3.55,1.02,2.89-0.8c-2.51-6.89-10.56-8.26-17.01-8.54
				c-4.85-0.21-9.72-0.34-14.58-0.43c-4.71-0.09-9.51,0.11-13.98,1.77C1120.55,251.27,1121.33,254.17,1123.14,253.5L1123.14,253.5z"
				/>
		</g>
	</g>
	<g>
		<g>
			<path class="st10" d="M1136.79,245.47c4.02-2.16,8.58-3.06,13.13-2.68c2.25,0.19,4.48,0.74,6.57,1.58c2.13,0.85,4.26,2,6.63,1.89
				c2.22-0.11,3.69-1.42,5.41-2.63c1.66-1.17,3.32-1.22,4.93,0.09c3.63,2.94,3.16,8.09,4.14,12.2c0.56,2.35,1.67,4.31,3.14,6.2
				c1.3,1.69,2.96,3.49,3.01,5.74c0.04,1.93,3.04,1.93,3,0c-0.11-4.74-4.55-7.3-5.92-11.53c-1.51-4.67-0.84-9.74-4.23-13.71
				c-1.37-1.6-3.3-2.84-5.45-2.94c-2.33-0.11-3.95,1.28-5.73,2.54c-0.97,0.69-1.91,1.14-3.13,1.02c-1.27-0.13-2.52-0.71-3.68-1.21
				c-2.3-0.97-4.6-1.71-7.08-2.06c-5.59-0.78-11.29,0.24-16.26,2.9C1133.57,243.79,1135.09,246.38,1136.79,245.47L1136.79,245.47z"
				/>
		</g>
	</g>
	<g>
		<g>
			<path class="st10" d="M1159.34,289.46c9.38,1.69,19.3-0.35,27.2-5.72c3.89-2.64,7.52-6.05,9.58-10.34
				c1.01-2.11,1.69-4.43,1.6-6.78c-0.1-2.53-1.2-4.51-2.37-6.68c-1-1.84-1.3-3.6,0.93-4.45c1.85-0.7,3.85-0.83,5.66-1.68
				c3.98-1.87,5.65-7.25,3.21-10.96c-1.19-1.81-3.11-3.17-5.26-3.53c-2.05-0.34-4.02,0.22-5.88,1.07c-1.77,0.81-3.39,1.91-5.1,2.82
				c-1.33,0.71-3.02,1.53-4.54,0.93c-1.85-0.74-2.39-2.89-2.87-4.62c-0.56-2.03-1.09-4.13-2.48-5.77c-3.73-4.41-9.9-1.58-13.77,1.01
				c-1.6,1.07-0.1,3.67,1.51,2.59c2.77-1.85,8.11-5,10.48-0.95c1.7,2.9,1.4,6.68,3.93,9.16c2.75,2.69,6.37,1.79,9.39,0.16
				c2.76-1.49,6.35-4.54,9.69-3.21c3.91,1.55,4,7.1,0.11,8.74c-3.07,1.29-7.51,0.98-8.67,4.88c-0.66,2.23,0.5,4.33,1.57,6.22
				c1.06,1.87,1.69,3.72,1.39,5.9c-0.6,4.41-3.73,8.12-7,10.91c-7.46,6.35-17.88,9.15-27.51,7.41
				C1158.25,286.23,1157.44,289.12,1159.34,289.46L1159.34,289.46z"/>
		</g>
	</g>
	<g>
		<g>
			<path class="st10" d="M1177.36,234.63c7.67,0.71,15.11,3.09,21.81,6.88c1.68,0.95,3.2-1.64,1.51-2.59
				c-7.18-4.07-15.11-6.53-23.33-7.29C1175.44,231.45,1175.45,234.45,1177.36,234.63L1177.36,234.63z"/>
		</g>
	</g>
	<g>
		<g>
			<path class="st10" d="M1124.82,247.05c5.36-6.08,12.83-9.64,20.72-11.11c9.18-1.71,18.45,0.64,27.63-0.86
				c1.9-0.31,1.09-3.2-0.8-2.89c-5.08,0.83-10.24,0.26-15.35,0.06c-4.38-0.17-8.74,0.07-13.05,0.95
				c-8.07,1.65-15.79,5.51-21.28,11.73C1121.42,246.37,1123.54,248.5,1124.82,247.05L1124.82,247.05z"/>
		</g>
	</g>
	<g>
		<g>
			<path class="st10" d="M1142.95,288.04c1.93,0,1.93-3,0-3C1141.01,285.04,1141.01,288.04,1142.95,288.04L1142.95,288.04z"/>
		</g>
	</g>
	<g>
		<g>
			<path class="st10" d="M1196.2,289.07c-3.95-3.86-7.41-8.15-10.33-12.84c-1.02-1.64-3.62-0.13-2.59,1.51
				c3.05,4.89,6.68,9.42,10.8,13.44C1195.46,292.54,1197.58,290.42,1196.2,289.07L1196.2,289.07z"/>
		</g>
	</g>
	<g>
		<g>
			<path class="st10" d="M1191.6,286.85c1.93,0,1.93-3,0-3C1189.67,283.85,1189.67,286.85,1191.6,286.85L1191.6,286.85z"/>
		</g>
	</g>
	<g>
		<g>
			<path class="st10" d="M1193.86,287.22c0.78,1.52,2.45,1.67,3.81,0.84c1.51-0.92,2.21-2.4,3.11-3.83
				c1.72-2.74,4.96-3.97,7.98-4.64c3.49-0.77,7.28-1.02,10.85-0.86c3.24,0.15,8.53,2.04,7.39,6.31c-0.5,1.87,2.39,2.66,2.89,0.8
				c1.02-3.82-1.55-7.52-4.99-9.02c-3.8-1.65-8.37-1.21-12.39-0.81c-3.51,0.34-7.14,0.99-10.22,2.8c-1.46,0.86-2.74,1.99-3.73,3.36
				c-0.51,0.7-0.83,1.52-1.34,2.22c-0.25,0.34-0.55,0.68-0.88,0.94c-0.76,0.58-0.12-0.1,0.12,0.36
				C1195.57,283.99,1192.98,285.51,1193.86,287.22L1193.86,287.22z"/>
		</g>
	</g>
	<g>
		<g>
			<path class="st10" d="M1205.43,297.62c4.77,0.99,8.26,5.1,13.18,5.67c3.64,0.42,8.26-1.14,8.92-5.22
				c0.18-1.13-1.03-2.55-2.2-1.69c-7.15,5.22-18.8,0.94-20.74-7.75c-0.42-1.88-3.31-1.09-2.89,0.8
				c2.33,10.44,16.47,15.87,25.15,9.54c-0.73-0.56-1.47-1.13-2.2-1.69c-0.51,3.1-4.5,3.5-7,2.8c-1.92-0.54-3.64-1.72-5.34-2.72
				c-1.91-1.12-3.89-2.17-6.07-2.62C1204.34,294.33,1203.53,297.22,1205.43,297.62L1205.43,297.62z"/>
		</g>
	</g>
	<g>
		<g>
			<path class="st10" d="M1199.91,290.41c1.93,0,1.93-3,0-3C1197.98,287.41,1197.98,290.41,1199.91,290.41L1199.91,290.41z"/>
		</g>
	</g>
	<g>
		<g>
			<path class="st10" d="M1205.85,250.04c6.29-0.05,12.53,0.65,18.65,2.11c1.88,0.45,2.68-2.45,0.8-2.89
				c-6.37-1.51-12.9-2.26-19.44-2.21C1203.92,247.06,1203.91,250.06,1205.85,250.04L1205.85,250.04z"/>
		</g>
	</g>
	<g>
		<g>
			<path class="st10" d="M1200.72,265.34c8.11,1.66,16.4,1.75,24.54,0.27c1.9-0.34,1.09-3.24-0.8-2.89
				c-7.59,1.38-15.4,1.28-22.95-0.27C1199.63,262.06,1198.83,264.95,1200.72,265.34L1200.72,265.34z"/>
		</g>
	</g>
	<g>
		<g>
			<path class="st10" d="M1207.96,246.61c6.47-3.41,14.92-1.53,19.52,4.08c1.23,1.49,3.34-0.64,2.12-2.12
				c-5.47-6.67-15.57-8.54-23.16-4.55C1204.74,244.92,1206.25,247.51,1207.96,246.61L1207.96,246.61z"/>
		</g>
	</g>
	<g>
		<g>
			<path class="st10" d="M1217.78,310.21c2.67,2.44,5.34,4.89,8.01,7.33c0.35-0.85,0.71-1.71,1.06-2.56
				c-0.32,0.04-0.65,0.06-0.97,0.05c-0.12,0-0.24-0.01-0.36-0.01c-0.08,0-0.6-0.07-0.21-0.01c-0.59-0.09-1.14-0.26-1.7-0.46
				c-0.1-0.04-0.08-0.03,0.08,0.03c-0.07-0.03-0.15-0.07-0.22-0.1c-0.15-0.07-0.29-0.14-0.43-0.22c-0.25-0.14-0.48-0.3-0.72-0.46
				c-0.14-0.1-0.13-0.1,0.01,0.02c-0.06-0.05-0.13-0.1-0.19-0.15c-0.09-0.08-0.18-0.16-0.27-0.24c-0.24-0.22-0.46-0.46-0.66-0.71
				c-0.5-0.61-1.61-0.56-2.12,0c-0.59,0.65-0.54,1.47,0,2.12c1.84,2.22,4.91,3.47,7.78,3.15c0.61-0.07,1.12-0.32,1.37-0.92
				c0.22-0.53,0.13-1.23-0.31-1.64c-2.67-2.44-5.34-4.89-8.01-7.33c-0.58-0.53-1.56-0.62-2.12,0
				C1217.25,308.67,1217.17,309.65,1217.78,310.21L1217.78,310.21z"/>
		</g>
	</g>
	<g>
		<g>
			<path class="st10" d="M1210.65,306.17c4.03,5.47,9.64,9.55,16.12,11.64c1.84,0.59,2.63-2.3,0.8-2.89
				c-5.68-1.83-10.78-5.45-14.32-10.26c-0.48-0.65-1.3-0.98-2.05-0.54C1210.54,304.49,1210.16,305.51,1210.65,306.17L1210.65,306.17
				z"/>
		</g>
	</g>
	<g>
		<g>
			<path class="st10" d="M1206.24,240.52c6.39-2.06,13.63-0.32,18.35,4.47c0.61-0.79,1.21-1.57,1.82-2.36
				c-5.57-4.29-13.34-9.09-20.37-5.24c-1.69,0.93-0.18,3.52,1.51,2.59c5.89-3.22,12.8,1.75,17.34,5.24
				c1.38,1.06,2.98-1.18,1.82-2.36c-5.43-5.51-13.9-7.62-21.27-5.24C1203.62,238.21,1204.4,241.11,1206.24,240.52L1206.24,240.52z"
				/>
		</g>
	</g>
	<g>
		<g>
			<path class="st10" d="M1157.19,448.26c1.93,0,1.93-3,0-3C1155.26,445.26,1155.25,448.26,1157.19,448.26L1157.19,448.26z"/>
		</g>
	</g>
	<g>
		<g>
			<path class="st10" d="M1170.5,447.55c-3.56-11.08-7.12-22.15-10.68-33.23c-0.59-1.83-3.49-1.05-2.89,0.8
				c3.56,11.08,7.12,22.15,10.68,33.23C1168.2,450.17,1171.09,449.39,1170.5,447.55L1170.5,447.55z"/>
		</g>
	</g>
	<g>
		<g>
			<path class="st10" d="M1181.29,473.64c-2.35-11.87-4.71-23.74-7.06-35.62c-0.38-1.89-3.27-1.09-2.89,0.8
				c2.35,11.87,4.71,23.74,7.06,35.62C1178.77,476.33,1181.66,475.52,1181.29,473.64L1181.29,473.64z"/>
		</g>
	</g>
	<g>
		<g>
			<path class="st10" d="M1174.06,465.35c-1.19-5.54-2.37-11.08-3.56-16.62c-0.4-1.89-3.3-1.09-2.89,0.8
				c1.19,5.54,2.37,11.08,3.56,16.62C1171.57,468.03,1174.47,467.23,1174.06,465.35L1174.06,465.35z"/>
		</g>
	</g>
	<g>
		<g>
			<path class="st10" d="M1169.39,467.7c-4.75-20.57-9.51-41.14-14.26-61.71c-0.43-1.88-3.33-1.08-2.89,0.8
				c4.75,20.57,9.51,41.14,14.26,61.71C1166.93,470.38,1169.82,469.59,1169.39,467.7L1169.39,467.7z"/>
		</g>
	</g>
	<g>
		<g>
			<path class="st10" d="M1170.53,428.55c-6.69-18.61-13.38-37.21-20.07-55.82c-0.65-1.8-3.55-1.03-2.89,0.8
				c6.69,18.61,13.38,37.21,20.07,55.82C1168.29,431.15,1171.19,430.37,1170.53,428.55L1170.53,428.55z"/>
		</g>
	</g>
	<g>
		<g>
			<path class="st10" d="M1172.01,421.34c-4.39-15.42-8.78-30.84-13.17-46.25c-0.53-1.85-3.42-1.07-2.89,0.8
				c4.39,15.42,8.78,30.84,13.17,46.25C1169.65,424,1172.54,423.21,1172.01,421.34L1172.01,421.34z"/>
		</g>
	</g>
	<g>
		<g>
			<path class="st10" d="M1164.57,383.46c-1.58-4.35-3.16-8.7-4.75-13.05c-0.28-0.76-1.02-1.27-1.85-1.05
				c-0.73,0.2-1.33,1.08-1.05,1.85c1.58,4.35,3.16,8.7,4.75,13.05c0.28,0.76,1.02,1.27,1.85,1.05
				C1164.25,385.1,1164.85,384.22,1164.57,383.46L1164.57,383.46z"/>
		</g>
	</g>
	<g>
		<g>
			<path class="st10" d="M1182.11,581.18c1.93,0,1.93-3,0-3C1180.18,578.18,1180.18,581.18,1182.11,581.18L1182.11,581.18z"/>
		</g>
	</g>
	<g>
		<g>
			<path class="st10" d="M1191.48,582.18c-2.37-2.77-4.75-5.54-7.12-8.31c-0.51-0.6-1.6-0.57-2.12,0c-0.58,0.64-0.55,1.48,0,2.12
				c2.37,2.77,4.75,5.54,7.12,8.31c0.51,0.6,1.6,0.57,2.12,0C1192.06,583.67,1192.02,582.82,1191.48,582.18L1191.48,582.18z"/>
		</g>
	</g>
	<g>
		<g>
			<path class="st10" d="M1200.97,590.49c-7.91-7.12-15.82-14.24-23.74-21.36c-1.43-1.29-3.56,0.83-2.12,2.12
				c7.91,7.12,15.82,14.24,23.74,21.36C1200.28,593.9,1202.41,591.78,1200.97,590.49L1200.97,590.49z"/>
		</g>
	</g>
	<g>
		<g>
			<path class="st10" d="M1186.59,587.08c-7.93-7.5-15.86-14.99-23.79-22.49c-1.4-1.33-3.53,0.79-2.12,2.12
				c7.93,7.5,15.86,14.99,23.79,22.49C1185.87,590.52,1188,588.41,1186.59,587.08L1186.59,587.08z"/>
		</g>
	</g>
	<g>
		<g>
			<path class="st10" d="M1181.98,588.12c-4.56-5.17-9.88-9.65-15.73-13.29c-1.64-1.02-3.15,1.57-1.51,2.59
				c5.65,3.51,10.73,7.83,15.12,12.82C1181.14,591.69,1183.26,589.56,1181.98,588.12L1181.98,588.12z"/>
		</g>
	</g>
	<g>
		<g>
			<path class="st10" d="M1168.93,580.99c-3.16-3.96-6.33-7.91-9.49-11.87c-0.51-0.63-1.59-0.53-2.12,0c-0.63,0.63-0.51,1.49,0,2.12
				c3.16,3.96,6.33,7.91,9.49,11.87c0.51,0.63,1.59,0.53,2.12,0C1169.55,582.49,1169.44,581.63,1168.93,580.99L1168.93,580.99z"/>
		</g>
	</g>
	<g>
		<g>
			<path class="st10" d="M1191.48,569.13c-5.54-4.75-11.08-9.49-16.62-14.24c-0.61-0.53-1.52-0.6-2.12,0
				c-0.54,0.54-0.62,1.59,0,2.12c5.54,4.75,11.08,9.49,16.62,14.24c0.61,0.53,1.52,0.6,2.12,0
				C1192.02,570.71,1192.1,569.66,1191.48,569.13L1191.48,569.13z"/>
		</g>
	</g>
	<g>
		<g>
			<path class="st10" d="M1197.41,571.5c-6.33-5.54-12.66-11.08-18.99-16.62c-1.45-1.27-3.58,0.85-2.12,2.12
				c6.33,5.54,12.66,11.08,18.99,16.62C1196.74,574.89,1198.87,572.77,1197.41,571.5L1197.41,571.5z"/>
		</g>
	</g>
	<g>
		<g>
			<path class="st10" d="M1187.95,561.96c-11.08-9.89-22.15-19.78-33.23-29.67c-1.44-1.28-3.56,0.83-2.12,2.12
				c11.08,9.89,22.15,19.78,33.23,29.67C1187.27,565.37,1189.4,563.25,1187.95,561.96L1187.95,561.96z"/>
		</g>
	</g>
	<g>
		<g>
			<path class="st10" d="M1176.07,548.93c-10.68-11.47-21.36-22.95-32.04-34.42c-1.32-1.42-3.44,0.71-2.12,2.12
				c10.68,11.47,21.36,22.95,32.04,34.42C1175.27,552.47,1177.39,550.34,1176.07,548.93L1176.07,548.93z"/>
		</g>
	</g>
	<g>
		<g>
			<path class="st10" d="M1181.98,547.76c-6.73-8.7-13.45-17.41-20.18-26.11c-0.5-0.65-1.59-0.52-2.12,0
				c-0.64,0.63-0.49,1.48,0,2.12c6.73,8.7,13.45,17.41,20.18,26.11c0.5,0.65,1.59,0.52,2.12,0
				C1182.62,549.26,1182.48,548.4,1181.98,547.76L1181.98,547.76z"/>
		</g>
	</g>
	<g>
		<g>
			<path class="st10" d="M1184.61,547.51c4.35,5.14,8.7,10.29,13.06,15.43c0.52,0.62,1.58,0.54,2.12,0c0.61-0.61,0.52-1.5,0-2.12
				c-4.35-5.14-8.7-10.29-13.05-15.43c-0.52-0.62-1.58-0.54-2.12,0C1184,546,1184.08,546.89,1184.61,547.51L1184.61,547.51z"/>
		</g>
	</g>
	<g>
		<g>
			<path class="st10" d="M1175.04,534.52c8.33,9.47,16.66,18.95,25,28.42c1.28,1.45,3.39-0.68,2.12-2.12
				c-8.33-9.47-16.67-18.95-25-28.42C1175.88,530.95,1173.77,533.08,1175.04,534.52L1175.04,534.52z"/>
		</g>
	</g>
	<g>
		<g>
			<path class="st10" d="M1182.2,535.69c6.68,5.99,13.35,11.98,20.03,17.97c1.43,1.29,3.56-0.83,2.12-2.12
				c-6.68-5.99-13.35-11.98-20.03-17.97C1182.88,532.28,1180.76,534.4,1182.2,535.69L1182.2,535.69z"/>
		</g>
	</g>
	<g>
		<g>
			<path class="st10" d="M1156.08,501.29c10.34,8.6,20.26,17.69,29.73,27.23c1.36,1.37,3.48-0.75,2.12-2.12
				c-9.47-9.54-19.39-18.63-29.73-27.23C1156.72,497.94,1154.59,500.05,1156.08,501.29L1156.08,501.29z"/>
		</g>
	</g>
	<g>
		<g>
			<path class="st10" d="M1159.69,501.23c7.36,8.82,15.29,17.14,23.74,24.92c1.42,1.31,3.55-0.81,2.12-2.12
				c-8.45-7.78-16.38-16.1-23.74-24.92C1160.57,497.62,1158.46,499.75,1159.69,501.23L1159.69,501.23z"/>
		</g>
	</g>
	<g>
		<g>
			<path class="st10" d="M1166.81,504.79c9.49,7.52,18.99,15.03,28.48,22.55c1.5,1.19,3.63-0.92,2.12-2.12
				c-9.49-7.52-18.99-15.03-28.48-22.55C1167.43,501.48,1165.29,503.59,1166.81,504.79L1166.81,504.79z"/>
		</g>
	</g>
	<g>
		<g>
			<path class="st10" d="M1166.81,495.29c5.14,4.75,10.29,9.49,15.43,14.24c1.42,1.31,3.54-0.81,2.12-2.12
				c-5.14-4.75-10.29-9.49-15.43-14.24C1167.51,491.86,1165.39,493.98,1166.81,495.29L1166.81,495.29z"/>
		</g>
	</g>
	<g>
		<g>
			<path class="st10" d="M1174.99,494.24c3.93,3.59,7.87,7.17,11.8,10.76c0.6,0.55,1.53,0.59,2.12,0c0.55-0.55,0.6-1.57,0-2.12
				c-3.93-3.59-7.87-7.17-11.8-10.76c-0.6-0.55-1.53-0.59-2.12,0C1174.44,492.67,1174.39,493.69,1174.99,494.24L1174.99,494.24z"/>
		</g>
	</g>
	<g>
		<g>
			<path class="st10" d="M1074.6,344.69c0-0.24,0.01-0.48,0.03-0.72c0.01-0.06,0.07-0.46,0-0.08c0.02-0.12,0.04-0.24,0.06-0.36
				c0.08-0.43,0.2-0.86,0.35-1.27c0.04-0.11,0.09-0.23,0.13-0.34c-0.14,0.34,0.02-0.04,0.04-0.08c0.1-0.22,0.22-0.43,0.34-0.64
				c0.11-0.19,0.23-0.38,0.35-0.56c0.07-0.1,0.14-0.2,0.21-0.3c0.06-0.09,0.05-0.07-0.05,0.06c0.04-0.05,0.08-0.09,0.11-0.14
				c0.29-0.36,0.62-0.69,0.96-1c0.09-0.08,0.18-0.16,0.27-0.24c0.06-0.05,0.35-0.26,0.08-0.06c0.18-0.13,0.36-0.26,0.55-0.38
				c0.19-0.12,0.38-0.23,0.57-0.33c0.11-0.06,0.21-0.11,0.32-0.16c0.05-0.02,0.42-0.17,0.08-0.04c0.45-0.17,0.91-0.32,1.38-0.42
				c0.77-0.16,1.29-1.11,1.05-1.85c-0.26-0.81-1.02-1.22-1.85-1.05c-4.54,0.96-8,5.34-8.01,9.96c0,0.78,0.69,1.54,1.5,1.5
				C1073.91,346.15,1074.6,345.53,1074.6,344.69L1074.6,344.69z"/>
		</g>
	</g>
	<g>
		<g>
			<path class="st10" d="M1076.92,349.84c0.47-3.33,0.96-7.25,3.47-9.74c2.7-2.68,6.96-2.5,10.48-2.39c1.93,0.06,1.93-2.94,0-3
				c-4.32-0.13-9.1-0.03-12.44,3.12c-3.05,2.87-3.84,7.25-4.4,11.21c-0.11,0.8,0.2,1.61,1.05,1.85
				C1075.78,351.08,1076.81,350.64,1076.92,349.84L1076.92,349.84z"/>
		</g>
	</g>
	<g>
		<g>
			<path class="st10" d="M1083.38,360.12c0.28,3.23,2.3,5.52,4.11,8.05c1.23,1.72,2.24,4.01,1.45,6.04
				c-0.15,0.37-0.33,0.67-0.66,0.92c0.11-0.08-0.37,0.2-0.24,0.14c-0.14,0.06-0.29,0.09-0.43,0.13c-0.1,0.03-0.34,0.05-0.11,0.03
				c-0.11,0.01-0.58-0.01-0.49,0.01c0.1,0.01-0.35-0.1-0.45-0.13c-0.06-0.02-0.25-0.12-0.01,0c-0.08-0.04-0.17-0.08-0.24-0.13
				c-0.1-0.07-0.55-0.37-0.4-0.25c-1.57-1.21-2.46-2.85-3.7-4.38c-1.45-1.79-3.29-3.38-5.72-3.37c-1.93,0.01-1.93,3.01,0,3
				c0.7,0,1.36,0.27,1.91,0.72c0.73,0.6,1.48,1.5,1.97,2.13c1.28,1.65,2.46,3.55,4.29,4.66c2.15,1.3,4.95,0.81,6.44-1.24
				c1.56-2.15,1.27-5.28,0.28-7.59c-1.3-3.02-4.7-5.31-5-8.74c-0.07-0.81-0.64-1.5-1.5-1.5
				C1084.12,358.62,1083.31,359.31,1083.38,360.12L1083.38,360.12z"/>
		</g>
	</g>
	<g>
		<g>
			<path class="st10" d="M1055.21,349.79c1.29-5.44,2.59-10.87,3.88-16.31c0.34-1.42-1.43-2.57-2.51-1.46
				c-8.21,8.47-2.18,21.4-7.36,31.03c-0.91,1.7,1.67,3.22,2.59,1.51c2.63-4.89,2.69-10.5,2.85-15.91
				c0.15-5.05,0.32-10.66,4.05-14.51c-0.84-0.49-1.67-0.97-2.51-1.46c-1.29,5.44-2.59,10.87-3.88,16.31
				C1051.87,350.87,1054.76,351.67,1055.21,349.79L1055.21,349.79z"/>
		</g>
	</g>
	<g>
		<g>
			<path class="st10" d="M1186.86,453.01c1.93,0,1.93-3,0-3C1184.93,450.01,1184.92,453.01,1186.86,453.01L1186.86,453.01z"/>
		</g>
	</g>
	<g>
		<g>
			<path class="st10" d="M1053.93,353.31c1.93,0,1.93-3,0-3C1052,350.31,1052,353.31,1053.93,353.31L1053.93,353.31z"/>
		</g>
	</g>
	<g>
		<g>
			<path class="st10" d="M1040.99,352.74c-2.55-2.12-5.6-4.52-6.51-7.87c-0.61-2.24-0.02-5.5,2.41-6.42
				c-0.49-0.84-0.97-1.67-1.46-2.51c-3.42,3.89-4.69,9.55-2.82,14.45c1.76,4.62,5.97,8.13,10.85,8.97c1.87,0.32,2.71-2.47,0.8-2.89
				c-6.96-1.55-13.14-8.16-12.1-15.62c0.4-2.86,1.85-5.93,4.57-7.22c3.12-1.48,6.84,0.04,9.9,0.95c3.71,1.1,7.6,1.86,10.81-0.84
				c1.48-1.24-0.65-3.36-2.12-2.12c-2.8,2.36-7.24,0.22-10.23-0.63c-3.58-1.02-7.59-1.62-10.85,0.63
				c-6.43,4.44-6.38,13.94-2.3,19.89c2.71,3.95,6.84,6.82,11.52,7.86c0.27-0.96,0.53-1.93,0.8-2.89c-3.84-0.66-7.29-3.21-8.76-6.88
				c-1.54-3.85-0.67-8.44,2.05-11.54c0.9-1.02,0.06-3.08-1.46-2.51c-3.57,1.35-5.21,5.13-4.75,8.79c0.57,4.53,4.21,7.76,7.52,10.51
				C1040.34,356.08,1042.48,353.97,1040.99,352.74L1040.99,352.74z"/>
		</g>
	</g>
	<g>
		<g>
			<path class="st10" d="M1072.3,330.33c6.48-1.25,13.34-0.06,19.01,3.33c5.36,3.2,9.48,8.27,15.64,10.08
				c1.86,0.54,2.65-2.35,0.8-2.89c-6.35-1.86-10.61-7.59-16.37-10.58c-6.11-3.17-13.13-4.13-19.87-2.82
				C1069.61,327.8,1070.41,330.69,1072.3,330.33L1072.3,330.33z"/>
		</g>
	</g>
	<g>
		<g>
			<path class="st10" d="M1102.15,354.2c-0.03,7.06-2.31,13.96-6.39,19.71c-1.03,1.45-2.18,2.8-3.43,4.06
				c-0.78,0.79-2.52,2.97-3.8,2.76c-1.9-0.31-0.97-4.54-0.61-5.64c0.6-1.86-2.23-2.58-2.89-0.8c-1.95,5.22-3.9,10.43-5.85,15.65
				c0.62-0.35,1.23-0.7,1.85-1.05c-0.89-0.32-1.53-1-1.82-1.89c-0.61-1.82-3.51-1.04-2.89,0.8c0.65,1.94,2,3.3,3.92,3.98
				c0.81,0.29,1.58-0.34,1.85-1.05c1.95-5.22,3.9-10.43,5.85-15.65c-0.96-0.27-1.93-0.53-2.89-0.8c-0.73,2.27-1,5.24,0.22,7.4
				c1.58,2.79,4.74,2.26,6.9,0.51c5.21-4.23,9.04-10.26,11.15-16.59c1.23-3.67,1.84-7.55,1.86-11.42
				C1105.15,352.27,1102.15,352.27,1102.15,354.2L1102.15,354.2z"/>
		</g>
	</g>
	<g>
		<g>
			<path class="st10" d="M1065.8,399.6c1.93,0,1.93-3,0-3C1063.87,396.6,1063.87,399.6,1065.8,399.6L1065.8,399.6z"/>
		</g>
	</g>
	<g>
		<g>
			<path class="st10" d="M1064.19,390.6c-5.58,0.96-10.94-2.02-15.7-4.54c-2.54-1.34-5.08-2.68-7.62-4.02
				c-1.6-0.84-4.51-1.99-4.39-4.19c0.11-1.93-2.89-1.92-3,0c-0.16,2.74,2.03,4.63,4.2,5.88c2.89,1.67,5.91,3.14,8.86,4.69
				c5.72,3.02,11.76,6.22,18.44,5.06C1066.89,393.16,1066.08,390.27,1064.19,390.6L1064.19,390.6z"/>
		</g>
	</g>
	<g>
		<g>
			<path class="st10" d="M1039.72,375.51c0.87,7.58,7.7,13.81,15.41,13.66c1.93-0.04,1.93-3.04,0-3
				c-5.92,0.12-11.73-4.69-12.41-10.66c-0.09-0.8-0.62-1.5-1.5-1.5C1040.48,374.01,1039.63,374.7,1039.72,375.51L1039.72,375.51z"/>
		</g>
	</g>
	<g>
		<g>
			<path class="st10" d="M1112.76,360.06c4.48-2.34,7.89-6.49,9.41-11.31c0.24-0.77-0.29-1.64-1.05-1.85
				c-0.81-0.22-1.6,0.27-1.85,1.05c-0.35,1.12-0.64,1.81-1.21,2.84c-0.55,0.99-1.16,1.89-1.78,2.63c-0.72,0.85-1.51,1.63-2.37,2.33
				c-0.19,0.15-0.24,0.19-0.51,0.39c-0.21,0.15-0.43,0.3-0.65,0.45c-0.49,0.32-0.99,0.61-1.5,0.88c-0.72,0.38-0.93,1.38-0.54,2.05
				C1111.13,360.25,1112.04,360.44,1112.76,360.06L1112.76,360.06z"/>
		</g>
	</g>
	<g>
		<g>
			<path class="st10" d="M1067.41,353.9c2.03-4.25,4.05-8.5,6.08-12.74c-0.3,0.23-0.6,0.46-0.9,0.69c2.29-0.66,4.17,1.63,4.62,3.66
				c0.63,2.82-0.97,5.82-2.13,8.28c-1.12,2.37-2.34,5.2,0.24,7.1c1.73,1.27,4.25,1.88,6.3,2.42c4.07,1.06,9.08,1.63,12.73-0.96
				c3.65-2.59,4.28-6.93,3.73-11.08c-0.58-4.37-2.8-9.78-0.23-13.88c-0.79,0.1-1.57,0.2-2.36,0.3c5.92,5.26,2.03,14.74,2.82,21.45
				c0.42,3.57,1.85,6.7,4.81,8.84c2.57,1.86,5.94,2.43,8.76,0.8c1.67-0.97,0.16-3.56-1.51-2.59c-2.47,1.43-5.34-0.07-7.03-2.04
				c-2.31-2.69-2.3-6.57-2.08-9.92c0.41-6.3,1.7-13.92-3.64-18.67c-0.73-0.65-1.82-0.55-2.36,0.3c-2.72,4.33-1.22,9.51-0.39,14.17
				c0.39,2.17,0.72,4.51,0.06,6.66c-0.67,2.18-2.43,3.66-4.6,4.2c-2.36,0.59-4.91,0.24-7.24-0.32c-1.18-0.28-2.34-0.63-3.48-1.03
				c-1.1-0.38-3.05-0.7-2.84-2.16c0.1-0.72,0.58-1.44,0.89-2.09c0.38-0.81,0.77-1.62,1.12-2.44c0.63-1.47,1.16-2.97,1.39-4.56
				c0.42-2.91-0.38-5.87-2.62-7.87c-1.04-0.93-2.33-1.59-3.73-1.7c-0.66-0.05-1.41,0-2.04,0.23c-0.96,0.36-1.22,1.37-1.63,2.23
				c-1.78,3.74-3.56,7.47-5.34,11.21C1063.99,354.12,1066.58,355.65,1067.41,353.9L1067.41,353.9z"/>
		</g>
	</g>
	<g>
		<g>
			<path class="st10" d="M1099.34,357.45c1.46-2.71,4.23-3.99,7.04-4.91c3.1-1.01,6.29-1.69,9.28-3.03c2.89-1.29,5.51-3.4,6.61-6.46
				c1.09-3.06,0.39-6.62-1.27-9.34c-1.92-3.13-5.23-5.38-8.99-5.25c-1.2,0.04-1.79,1.23-1.3,2.26c2.86,6.01,2.51,13.29-0.31,19.25
				c-1.4,2.98-3.37,5.65-5.87,7.8c-1.29,1.11-2.74,2.01-4.26,2.77c-1.58,0.8-3.21,1.59-4.34,3c-1.22,1.51-1.49,3.42-0.62,5.19
				c0.8,1.63,2.5,2.69,4.31,2.1c1.83-0.59,1.05-3.49-0.8-2.89c-0.93,0.3-1.22-1.47-0.81-2.17c0.81-1.42,2.72-2.09,4.09-2.79
				c2.8-1.44,5.3-3.47,7.31-5.9c4.01-4.85,6.29-11.09,6.27-17.39c-0.01-3.64-0.82-7.19-2.39-10.48c-0.43,0.75-0.86,1.5-1.3,2.26
				c5.34-0.19,9.65,6.71,7.06,11.45c-1.34,2.45-4.08,3.77-6.6,4.64c-2.77,0.96-5.65,1.56-8.38,2.61c-3,1.15-5.76,2.85-7.32,5.75
				C1095.84,357.64,1098.42,359.16,1099.34,357.45L1099.34,357.45z"/>
		</g>
	</g>
	<g>
		<g>
			<path class="st10" d="M1147.69,582.37c1.93,0,1.93-3,0-3C1145.76,579.37,1145.76,582.37,1147.69,582.37L1147.69,582.37z"/>
		</g>
	</g>
	<g>
		<g>
			<path class="st10" d="M1148.88,577.52c5.08,3.32,8.5,9.04,8.99,15.1c0.75-0.43,1.5-0.86,2.26-1.3
				c-6.38-3.04-11.86-7.76-15.74-13.68c-1.05-1.61-3.65-0.11-2.59,1.51c4.15,6.33,9.98,11.49,16.82,14.76
				c0.93,0.45,2.36-0.07,2.26-1.3c-0.58-7.16-4.46-13.75-10.48-17.69C1148.78,573.87,1147.27,576.47,1148.88,577.52L1148.88,577.52z
				"/>
		</g>
	</g>
	<g>
		<g>
			<path class="st10" d="M1150.01,584.47c-4.35-3.57-8.7-7.13-13.04-10.7c-0.63-0.51-1.51-0.61-2.12,0c-0.53,0.53-0.63,1.61,0,2.12
				c4.35,3.57,8.7,7.13,13.04,10.7c0.63,0.51,1.51,0.61,2.12,0C1150.54,586.06,1150.64,584.98,1150.01,584.47L1150.01,584.47z"/>
		</g>
	</g>
	<g>
		<g>
			<path class="st10" d="M1149.68,587.8c-4.87-2.88-9.23-6.67-12.69-11.15c-0.49-0.64-1.29-0.98-2.05-0.54
				c-0.63,0.37-1.04,1.41-0.54,2.05c3.79,4.91,8.43,9.07,13.77,12.23C1149.83,591.38,1151.34,588.79,1149.68,587.8L1149.68,587.8z"
				/>
		</g>
	</g>
	<g>
		<g>
			<path class="st10" d="M1143.7,580.76c-0.2-0.14-0.39-0.28-0.58-0.42c-0.1-0.07-0.19-0.14-0.29-0.22c-0.07-0.05-0.26-0.2-0.1-0.07
				c-0.38-0.3-0.75-0.6-1.12-0.91c-0.73-0.62-1.44-1.27-2.12-1.95c-0.66-0.66-1.3-1.35-1.9-2.06c-0.31-0.37-0.61-0.74-0.91-1.11
				c-0.1-0.12,0.08,0.11-0.07-0.09c-0.07-0.1-0.14-0.19-0.22-0.29c-0.16-0.21-0.31-0.42-0.47-0.64c-0.46-0.64-1.33-1.01-2.05-0.54
				c-0.63,0.41-1.03,1.37-0.54,2.05c2.45,3.43,5.42,6.39,8.85,8.85c0.64,0.46,1.7,0.13,2.05-0.54
				C1144.65,582.04,1144.39,581.25,1143.7,580.76L1143.7,580.76z"/>
		</g>
	</g>
	<g>
		<g>
			<path class="st10" d="M1150.64,590.53c-10.92-7.29-21.06-15.7-30.27-25.06c-1.36-1.38-3.48,0.74-2.12,2.12
				c9.39,9.54,19.75,18.1,30.88,25.53C1150.74,594.19,1152.24,591.59,1150.64,590.53L1150.64,590.53z"/>
		</g>
	</g>
	<g>
		<g>
			<path class="st10" d="M1144.89,589.06c-13.51-7.87-24.84-19.17-32.75-32.66c-0.98-1.66-3.57-0.16-2.59,1.51
				c8.16,13.92,19.88,25.61,33.82,33.73C1145.05,592.62,1146.56,590.03,1144.89,589.06L1144.89,589.06z"/>
		</g>
	</g>
	<g>
		<g>
			<path class="st10" d="M1129.79,577.4c-8.74-8.6-16.62-18.02-23.5-28.17c-1.08-1.59-3.68-0.09-2.59,1.51
				c7.03,10.35,15.05,20,23.97,28.78C1129.05,580.88,1131.17,578.76,1129.79,577.4L1129.79,577.4z"/>
		</g>
	</g>
	<g>
		<g>
			<path class="st10" d="M1111.01,558.75c-5.05-7.18-10.11-14.37-15.16-21.55c-1.1-1.57-3.7-0.07-2.59,1.51
				c5.05,7.18,10.11,14.37,15.16,21.55C1109.53,561.83,1112.13,560.33,1111.01,558.75L1111.01,558.75z"/>
		</g>
	</g>
	<g>
		<g>
			<path class="st10" d="M1111.11,559.89c-5.15-9.89-10.29-19.78-15.44-29.67c-0.89-1.71-3.48-0.2-2.59,1.51
				c5.15,9.89,10.29,19.78,15.44,29.67C1109.41,563.11,1112,561.6,1111.11,559.89L1111.11,559.89z"/>
		</g>
	</g>
	<g>
		<g>
			<path class="st10" d="M1095.47,539.64c1.93,0,1.93-3,0-3C1093.54,536.64,1093.54,539.64,1095.47,539.64L1095.47,539.64z"/>
		</g>
	</g>
	<g>
		<g>
			<path class="st10" d="M1107.58,556.29c-7.43-10.73-13.15-22.56-16.9-35.06c-0.55-1.84-3.45-1.06-2.89,0.8
				c3.83,12.74,9.63,24.84,17.21,35.78C1106.08,559.38,1108.68,557.88,1107.58,556.29L1107.58,556.29z"/>
		</g>
	</g>
	<g>
		<g>
			<path class="st10" d="M1101.39,543.37c-3.1-7.15-6.19-14.3-9.29-21.45c-0.32-0.75-1.41-0.9-2.05-0.54
				c-0.77,0.44-0.86,1.31-0.54,2.05c3.1,7.15,6.19,14.3,9.29,21.45c0.32,0.75,1.41,0.9,2.05,0.54
				C1101.63,544.99,1101.71,544.11,1101.39,543.37L1101.39,543.37z"/>
		</g>
	</g>
	<g>
		<g>
			<path class="st10" d="M1099.8,530.16c6.73,1.97,13.46,3.94,20.18,5.91c1.86,0.54,2.65-2.35,0.8-2.89
				c-6.73-1.97-13.46-3.94-20.18-5.91C1098.74,526.72,1097.95,529.62,1099.8,530.16L1099.8,530.16z"/>
		</g>
	</g>
	<g>
		<g>
			<path class="st10" d="M1104.57,537.22c3.16,1.19,6.33,2.37,9.49,3.56c0.74,0.28,1.68-0.31,1.85-1.05
				c0.19-0.85-0.26-1.55-1.05-1.85c-3.16-1.19-6.33-2.37-9.49-3.56c-0.74-0.28-1.68,0.31-1.85,1.05
				C1103.33,536.22,1103.78,536.92,1104.57,537.22L1104.57,537.22z"/>
		</g>
	</g>
	<g>
		<g>
			<path class="st10" d="M1101.5,538.58c-2.77-6.33-5.54-12.66-8.31-18.99c-0.32-0.74-1.41-0.91-2.05-0.54
				c-0.77,0.45-0.86,1.31-0.54,2.05c2.77,6.33,5.54,12.66,8.31,18.99c0.33,0.74,1.41,0.91,2.05,0.54
				C1101.72,540.19,1101.82,539.33,1101.5,538.58L1101.5,538.58z"/>
		</g>
	</g>
	<g>
		<g>
			<path class="st10" d="M1101.82,533.38c-0.63-5.82-0.4-11.7,0.73-17.45c0.37-1.89-2.52-2.69-2.89-0.8
				c-1.19,6.01-1.5,12.15-0.84,18.25c0.09,0.81,0.63,1.5,1.5,1.5C1101.07,534.88,1101.91,534.19,1101.82,533.38L1101.82,533.38z"/>
		</g>
	</g>
	<g>
		<g>
			<path class="st10" d="M1102.78,526.28c-0.28-8.14-2.23-16.09-5.73-23.45c-0.83-1.74-3.42-0.22-2.59,1.51
				c3.26,6.86,5.06,14.35,5.32,21.93C1099.85,528.2,1102.85,528.21,1102.78,526.28L1102.78,526.28z"/>
		</g>
	</g>
	<g>
		<g>
			<path class="st10" d="M1102.87,535.77c-0.01-12.69-3.85-25.26-10.98-35.77c-1.1-1.63-3.36-0.23-2.59,1.51
				c5.93,13.45,16.34,24.78,29.21,31.87c1.69,0.93,3.21-1.66,1.51-2.59c-12.47-6.87-22.4-17.77-28.14-30.8
				c-0.86,0.5-1.73,1.01-2.59,1.51c6.85,10.09,10.56,22.05,10.57,34.25C1099.87,537.7,1102.87,537.7,1102.87,535.77L1102.87,535.77z
				"/>
		</g>
	</g>
	<g>
		<g>
			<path class="st10" d="M1105.33,526.49c13.91,8.3,27.58,17.01,40.98,26.13c3.85,2.62,7.67,5.27,11.47,7.95
				c1.58,1.11,3.08-1.49,1.51-2.59c-13.24-9.34-26.75-18.29-40.53-26.82c-3.95-2.45-7.93-4.87-11.92-7.25
				C1105.19,522.91,1103.68,525.5,1105.33,526.49L1105.33,526.49z"/>
		</g>
	</g>
	<g>
		<g>
			<path class="st10" d="M1124.39,541.81c11.44,8.01,22.43,16.65,32.93,25.88c1.45,1.27,3.57-0.84,2.12-2.12
				c-10.68-9.39-21.88-18.18-33.53-26.34C1124.32,538.11,1122.81,540.71,1124.39,541.81L1124.39,541.81z"/>
		</g>
	</g>
	<g>
		<g>
			<path class="st10" d="M1100.18,251.22c2.11-6.63,6.05-12.85,11.42-17.33c0.72-0.6,1.32-1.02,2.26-0.66
				c0.78,0.3,1.5,0.75,2.31,0.99c1.48,0.44,3.1,0.32,4.56-0.15c3.19-1.04,5.69-3.45,8.82-4.58c3.32-1.19,6.94-0.85,10.33-1.72
				c3.53-0.9,5.73-3.25,8.15-5.8c1.87-1.96,5.63-4.81,7.87-1.75c0.85,1.17,1.32,2.57,2.16,3.74c0.95,1.33,2.22,2.22,3.78,2.7
				c1.87,0.58,3.87,0.5,5.78,0.84c1.83,0.33,3.64,0.86,5.34,1.62c3.46,1.55,6.57,3.92,8.88,6.94c0.5,0.65,1.28,0.97,2.05,0.54
				c0.64-0.36,1.03-1.41,0.54-2.05c-4.42-5.76-10.9-9.46-18.13-10.23c-1.7-0.18-3.75-0.15-5.12-1.32c-1.16-0.99-1.64-2.62-2.42-3.88
				c-1.93-3.1-5.24-3.94-8.56-2.5c-3.47,1.51-5.15,5-8.21,7.02c-3.17,2.09-7.31,1.69-10.9,2.35c-3.66,0.68-6.43,2.89-9.66,4.54
				c-1.43,0.73-3.04,1.29-4.62,0.74c-1.79-0.62-3.2-1.69-5.16-0.92c-1.85,0.73-3.43,2.51-4.78,3.92c-1.44,1.5-2.76,3.12-3.96,4.81
				c-2.45,3.46-4.31,7.31-5.6,11.34C1096.7,252.27,1099.6,253.06,1100.18,251.22L1100.18,251.22z"/>
		</g>
	</g>
	<g>
		<g>
			<path class="st10" d="M1163.1,292.53c3.37,2.81,6.71,5.65,10.02,8.52c0.8,0.69,1.58,1.4,2.39,2.08c0.74,0.62,1.55,0.69,2.49,0.78
				c1.62,0.16,3.26,0.02,4.85-0.32c6.65-1.44,11.68-6.92,12.48-13.66c0.46-3.86-0.48-7.87-2.69-11.07
				c-1.09-1.58-3.69-0.08-2.59,1.51c4.28,6.21,2.62,15.01-4.02,18.81c-1.53,0.88-3.24,1.47-4.99,1.7c-0.83,0.11-1.67,0.12-2.5,0.07
				c-1.1-0.07-1.35-0.34-2.19-1.07c-3.67-3.2-7.38-6.35-11.12-9.48C1163.75,289.18,1161.61,291.29,1163.1,292.53L1163.1,292.53z"/>
		</g>
	</g>
	<g>
		<g>
			<path class="st10" d="M1151.6,303.18c-0.28,4.07-0.64,9.17-4.58,11.49c-1.51,0.89-3.15,1.01-4.52,0.06
				c-0.55-0.38-1.1-1.04-1.34-1.57c-0.34-0.79-0.32-1.32-0.02-2.08c0.29-0.76-0.32-1.65-1.05-1.85c-0.85-0.23-1.55,0.29-1.85,1.05
				c-1.5,3.86,2.16,7.89,5.95,8.11c4.39,0.26,7.81-3.5,9.15-7.32c0.89-2.52,1.07-5.24,1.25-7.89c0.06-0.81-0.73-1.5-1.5-1.5
				C1152.24,301.68,1151.66,302.37,1151.6,303.18L1151.6,303.18z"/>
		</g>
	</g>
	<g>
		<g>
			<path class="st10" d="M1195.73,319.28c3.73,2.05,7.72,0.58,11.59-0.15c2.17-0.41,6.01-0.39,6.88,2.18
				c0.62,1.82,3.51,1.04,2.89-0.8c-1.17-3.47-4.83-4.67-8.22-4.55c-3.71,0.13-8.09,2.67-11.63,0.72
				C1195.55,315.76,1194.04,318.35,1195.73,319.28L1195.73,319.28z"/>
		</g>
	</g>
	<g>
		<g>
			<path class="st10" d="M1156.76,371.99c-0.07,2.76-1.28,5.23-3.33,7.06c0.84,0.22,1.67,0.44,2.51,0.66
				c-1.39-6.88-2.45-13.82-3.18-20.8c-0.98,0.13-1.96,0.27-2.95,0.4c2.44,8.3,4.89,16.61,7.33,24.91c0.42,1.43,2.47,1.43,2.89,0
				c2.28-7.76,4.11-15.64,5.48-23.62c-0.96,0-1.93,0-2.89,0c1.99,5.47,1.91,11.34-0.21,16.75c0.96,0,1.93,0,2.89,0
				c-1.57-6.8-2.19-13.74-1.89-20.71c-0.98,0.13-1.96,0.27-2.95,0.4c0.92,5.64,0.52,11.39-1.06,16.87c0.35-0.35,0.7-0.7,1.05-1.05
				c-1.42,0.31-2.39-2.54-2.77-3.47c-0.91-2.22-1.82-4.45-2.73-6.67c-1.85-4.53-3.7-9.05-5.56-13.58c-0.62-1.53-2.84-1.38-2.95,0.4
				c-0.35,5.91,1.21,11.82,4.42,16.8c0.82,1.28,2.7,0.73,2.8-0.76c0.45-7.42-4.85-14.06-11.29-17.15
				c-7.89-3.79-17.06-3.51-25.59-3.15c-5.45,0.23-10.88,0.7-16.29,1.4c-1.85,0.24-1.99,3,0,3c14.65-0.02,29.18,3.52,42.17,10.3
				c1.45,0.76,3.12-1.15,1.82-2.36c-6.39-5.93-13.93-10.44-22.17-13.27c-1.58-0.54-2.72,2.06-1.16,2.74
				c6.94,3.04,14.44,3.08,21.8,4.22c6.05,0.94,12.73,2.86,16.59,7.97c0.79-0.61,1.57-1.21,2.36-1.82
				c-3.97-4.71-1.5-13.19,4.31-15.12c-0.61-0.35-1.23-0.7-1.85-1.05c1.06,4.11,0.8,8.32-0.67,12.3c-0.68,1.84,2.17,2.53,2.89,0.8
				c5.56-13.33,12.81-25.94,21.45-37.52c1.16-1.55-1.45-3.05-2.59-1.51c-8.81,11.8-16.08,24.65-21.75,38.23
				c0.96,0.27,1.93,0.53,2.89,0.8c1.65-4.46,1.85-9.3,0.67-13.89c-0.19-0.76-1.08-1.3-1.85-1.05c-8.06,2.68-11.08,13.66-5.64,20.13
				c1.08,1.29,3.39-0.45,2.36-1.82c-4.06-5.39-10.43-7.91-16.89-9.1c-7.51-1.38-15.47-1.05-22.58-4.17
				c-0.39,0.91-0.77,1.83-1.16,2.74c7.74,2.66,14.85,6.93,20.85,12.5c0.61-0.79,1.21-1.57,1.82-2.36
				c-13.46-7.03-28.5-10.73-43.68-10.71c0,1,0,2,0,3c8.63-1.12,17.41-1.79,26.11-1.53c7.32,0.22,15.11,1.64,20.25,7.32
				c2.52,2.78,4.04,6.32,3.81,10.11c0.93-0.25,1.86-0.5,2.8-0.76c-2.95-4.57-4.33-9.86-4.01-15.28c-0.98,0.13-1.96,0.27-2.95,0.4
				c2.23,5.45,4.46,10.89,6.69,16.34c1.36,3.33,3.07,10.57,8.06,9.47c0.51-0.11,0.91-0.56,1.05-1.05
				c1.74-6.02,2.07-12.28,1.06-18.46c-0.28-1.73-2.88-1.21-2.95,0.4c-0.31,7.23,0.37,14.46,1.99,21.51c0.36,1.57,2.4,1.27,2.89,0
				c2.28-5.85,2.35-12.44,0.21-18.35c-0.45-1.25-2.62-1.6-2.89,0c-1.37,7.97-3.2,15.86-5.48,23.62c0.96,0,1.93,0,2.89,0
				c-2.44-8.3-4.89-16.61-7.33-24.91c-0.46-1.55-3.13-1.34-2.95,0.4c0.75,7.25,1.85,14.46,3.28,21.6c0.24,1.17,1.73,1.36,2.51,0.66
				c2.63-2.35,4.11-5.67,4.2-9.18C1159.81,370.06,1156.81,370.06,1156.76,371.99L1156.76,371.99z"/>
		</g>
	</g>
	<g>
		<g>
			<path class="st10" d="M1178.41,323.19c7.34-9.49,16.3-17.61,26.5-23.93c-0.68-0.68-1.37-1.37-2.05-2.05
				c-0.51,0.99-1.46,1.23-2.45,0.81c-0.75-0.32-1.64,0.34-1.85,1.05c-0.25,0.86,0.3,1.53,1.05,1.85c2.16,0.91,4.78-0.14,5.84-2.19
				c0.66-1.27-0.72-2.88-2.05-2.05c-10.4,6.45-19.62,14.72-27.1,24.4c-0.5,0.65-0.62,1.49,0,2.12
				C1176.8,323.71,1177.91,323.83,1178.41,323.19L1178.41,323.19z"/>
		</g>
	</g>
	<g>
		<g>
			<path class="st10" d="M1196.43,296.65c5.74,4.08,11.49,8.16,17.23,12.25c4.68,3.32,10.5,7.79,16.57,5.54
				c1.79-0.67,1.02-3.57-0.8-2.89c-5.59,2.08-11.24-3.09-15.46-6.09c-5.34-3.8-10.69-7.59-16.03-11.39
				C1196.36,292.94,1194.86,295.54,1196.43,296.65L1196.43,296.65z"/>
		</g>
	</g>
	<g>
		<g>
			<path class="st10" d="M1197.64,312.33c-1.08,5.55,1.88,10.79,6.26,14.05c4.92,3.66,11.3,4.47,17.19,5.26
				c-0.25-0.93-0.5-1.86-0.76-2.8c-4.79,2.21-10.02-1.75-12.92-5.28c-3.44-4.18-5.96-9.02-10.43-12.28c-1.11-0.81-2.5,0.52-2.2,1.69
				c3.01,11.9,16,19.8,27.95,17.18c1.88-0.41,1.09-3.31-0.8-2.89c-10.38,2.28-21.66-4.82-24.26-15.08c-0.73,0.56-1.47,1.13-2.2,1.69
				c4.84,3.53,7.16,9.37,11.37,13.51c3.92,3.86,9.66,6.52,15.01,4.04c1.53-0.71,0.52-2.62-0.76-2.8c-5.04-0.68-10.37-1.4-14.74-4.2
				c-3.68-2.36-6.7-6.79-5.82-11.31C1200.9,311.24,1198,310.43,1197.64,312.33L1197.64,312.33z"/>
		</g>
	</g>
	<g>
		<g>
			<path class="st10" d="M1178.55,304.65c1.93,0,1.93-3,0-3C1176.62,301.65,1176.62,304.65,1178.55,304.65L1178.55,304.65z"/>
		</g>
	</g>
	<g>
		<g>
			<path class="st10" d="M1064.62,348.38c5.93,0.01,11.87,0.03,17.8,0.04c1.93,0,1.93-3,0-3c-5.93-0.01-11.87-0.03-17.8-0.04
				C1062.69,345.37,1062.68,348.37,1064.62,348.38L1064.62,348.38z"/>
		</g>
	</g>
</g>
</svg>
