<?xml version="1.0" encoding="utf-8"?>
<!-- Generator: Adobe Illustrator 27.0.1, SVG Export Plug-In . SVG Version: 6.00 Build 0)  -->
<svg version="1.1" id="Layer_1" xmlns="http://www.w3.org/2000/svg" xmlns:xlink="http://www.w3.org/1999/xlink" x="0px" y="0px"
	 viewBox="0 0 1536 2732" style="enable-background:new 0 0 1536 2732;" xml:space="preserve">
<style type="text/css">
	.st0{fill:#5F8A2B;}
	.st1{fill:#7D9C55;}
	.st2{enable-background:new    ;}
</style>
<g>
	<path class="st0" d="M1336,2732.5H200c-110.5,0-200-89.5-200-200v-2333C0,89,89.5-0.5,200-0.5h1136c110.5,0,200,89.5,200,200v2333
		C1536,2643,1446.5,2732.5,1336,2732.5z"/>
</g>
<g>
	<circle class="st1" cx="768" cy="991.5" r="552"/>
	
		<image style="overflow:visible;enable-background:new    ;" width="3592" height="3592" xlink:href="B4F29ABE.png"  transform="matrix(0.2394 0 0 0.2394 338 561.5)">
	</image>
</g>
<g>
	<path class="st1" d="M1226.5,2532h-936c-55.2,0-100-44.8-100-100v-676c0-55.2,44.8-100,100-100h936c55.2,0,100,44.8,100,100v676
		C1326.5,2487.2,1281.7,2532,1226.5,2532z"/>
	<path transform="matrix(1 0 0 1 395.0582 1800.5576)" class="st2" d="M504.6,1733.4l-22,67.2h-16.7l-14.8-45.5l-15.3,45.5h-16.6
		l-22.1-67.2h16.1l15.2,47.2l15.8-47.2h14.4l15.4,47.6l15.6-47.6H504.6z M566.4,1771v29.6h-15v-27.3c0-8.4-3.8-12.2-10.5-12.2
		c-7.2,0-12.4,4.4-12.4,13.9v25.5h-15v-71.2h15v25c4-4,9.8-6.1,16.4-6.1C557.2,1748.1,566.4,1755.2,566.4,1771z M578.1,1733.4
		c0-4.7,3.7-8.4,9.3-8.4s9.3,3.5,9.3,8.1c0,5-3.7,8.6-9.3,8.6S578.1,1738.1,578.1,1733.4z M580,1748.9h15v51.6h-15V1748.9z
		 M642.2,1798.1c-3.1,2.2-7.6,3.3-12.2,3.3c-12.2,0-19.3-6.2-19.3-18.5v-21.2h-8v-11.5h8v-12.6h15v12.6h12.9v11.5h-12.9v21
		c0,4.4,2.4,6.8,6.4,6.8c2.2,0,4.4-0.7,6-1.9L642.2,1798.1z M699.3,1779h-39.1c1.4,6.4,6.9,10.4,14.8,10.4c5.5,0,9.4-1.6,13-5l8,8.6
		c-4.8,5.5-12,8.4-21.3,8.4c-17.9,0-29.5-11.2-29.5-26.6c0-15.5,11.8-26.6,27.5-26.6c15.2,0,26.9,10.2,26.9,26.8
		C699.6,1776.1,699.4,1777.7,699.3,1779z M660,1770.2h25.4c-1.1-6.5-6-10.8-12.7-10.8C666,1759.5,661.1,1763.6,660,1770.2z
		 M798.9,1800.6l-0.1-40.3l-19.8,33.2h-7l-19.7-32.3v39.5h-14.6v-67.2h12.9l25.2,41.8l24.8-41.8h12.8l0.2,67.2H798.9z M824.6,1774.7
		c0-15.6,12-26.6,28.4-26.6s28.3,11,28.3,26.6s-11.9,26.6-28.3,26.6S824.6,1790.3,824.6,1774.7z M866.1,1774.7
		c0-8.9-5.7-14.3-13.2-14.3s-13.2,5.4-13.2,14.3c0,8.9,5.8,14.3,13.2,14.3S866.1,1783.7,866.1,1774.7z M923.3,1748.1v13.8
		c-1.2-0.1-2.2-0.2-3.4-0.2c-8.3,0-13.7,4.5-13.7,14.4v24.4h-15v-51.6h14.3v6.8C909.2,1750.7,915.4,1748.1,923.3,1748.1z
		 M988.5,1774.7c0,16.2-11.2,26.6-25.7,26.6c-6.4,0-11.7-2-15.6-6.2v24.1h-15v-70.3h14.3v6c3.7-4.5,9.3-6.7,16.2-6.7
		C977.3,1748.1,988.5,1758.5,988.5,1774.7z M973.4,1774.7c0-8.9-5.7-14.3-13.2-14.3c-7.5,0-13.2,5.4-13.2,14.3
		c0,8.9,5.7,14.3,13.2,14.3C967.7,1789,973.4,1783.7,973.4,1774.7z M1051.3,1771v29.6h-15v-27.3c0-8.4-3.8-12.2-10.5-12.2
		c-7.2,0-12.4,4.4-12.4,13.9v25.5h-15v-71.2h15v25c4-4,9.8-6.1,16.4-6.1C1042.1,1748.1,1051.3,1755.2,1051.3,1771z M1061.6,1774.7
		c0-15.6,12-26.6,28.4-26.6c16.4,0,28.3,11,28.3,26.6s-11.9,26.6-28.3,26.6C1073.6,1801.3,1061.6,1790.3,1061.6,1774.7z
		 M1103.1,1774.7c0-8.9-5.7-14.3-13.2-14.3c-7.5,0-13.2,5.4-13.2,14.3c0,8.9,5.8,14.3,13.2,14.3
		C1097.5,1789,1103.1,1783.7,1103.1,1774.7z M574.2,1821.6l-5.9,29.4h-4l4.3-21.3l-13.9,17.7h-1.9l-7.4-18.1l-4.3,21.7h-4l5.9-29.4
		h3.4l8.2,20.7l16.1-20.7H574.2z M576.6,1841.6c0-7.5,5.5-13.1,13.1-13.1c6.3,0,10.4,3.7,10.4,9.6c0,7.6-5.4,13.1-13,13.1
		C580.7,1851.2,576.6,1847.4,576.6,1841.6z M596,1838.3c0-3.9-2.4-6.3-6.6-6.3c-5,0-8.7,3.9-8.7,9.4c0,3.9,2.4,6.3,6.6,6.3
		C592.3,1847.7,596,1843.8,596,1838.3z M619.7,1828.5l-0.8,3.9c-0.4,0-0.6,0-1.1,0c-4.5,0-7.4,2.4-8.4,7.5l-2.2,11.1h-4l4.4-22.3
		h3.9l-0.6,3.3C612.9,1829.5,615.8,1828.5,619.7,1828.5z M645.6,1838.1c0,7.6-5.4,13.1-12.6,13.1c-3.8,0-6.6-1.4-8.1-4l-2.4,11.9h-4
		l6-30.4h3.9l-0.5,2.8c2-1.9,4.6-3,7.9-3C641.5,1828.5,645.6,1832.1,645.6,1838.1z M641.5,1838.3c0-3.9-2.4-6.3-6.6-6.3
		c-5,0-8.7,3.9-8.7,9.4c0,3.9,2.4,6.3,6.6,6.3C637.8,1847.7,641.5,1843.8,641.5,1838.3z M672.7,1835.9c0,0.8-0.1,1.7-0.3,2.6
		L670,1851h-4l2.5-12.5c0.1-0.7,0.2-1.3,0.2-1.8c0-2.9-1.7-4.5-5.2-4.5c-4.3,0-7.3,2.3-8.2,7.1l-2.4,11.8h-4l6.2-31.2h4l-2.3,11.5
		c2.1-1.9,4.7-2.8,7.9-2.8C669.7,1828.5,672.7,1831.1,672.7,1835.9z M677.5,1841.6c0-7.5,5.5-13.1,13.1-13.1
		c6.3,0,10.4,3.7,10.4,9.6c0,7.6-5.4,13.1-13,13.1C681.6,1851.2,677.5,1847.4,677.5,1841.6z M696.9,1838.3c0-3.9-2.4-6.3-6.6-6.3
		c-5,0-8.7,3.9-8.7,9.4c0,3.9,2.4,6.3,6.6,6.3C693.3,1847.7,696.9,1843.8,696.9,1838.3z M743.7,1830.2c0,7.5-5.3,11.9-13.8,11.9
		h-7.9l-1.8,8.9h-4.2l5.9-29.4h10.9C739.7,1821.6,743.7,1824.7,743.7,1830.2z M739.5,1830.5c0-3.5-2.5-5.3-7-5.3h-7.1l-2.6,13.2h7.2
		C736,1838.4,739.5,1835.7,739.5,1830.5z M745.3,1841.6c0-7.5,5.5-13.1,13.1-13.1c6.3,0,10.4,3.7,10.4,9.6c0,7.6-5.4,13.1-13,13.1
		C749.4,1851.2,745.3,1847.4,745.3,1841.6z M764.7,1838.3c0-3.9-2.4-6.3-6.6-6.3c-5,0-8.7,3.9-8.7,9.4c0,3.9,2.4,6.3,6.6,6.3
		C761.1,1847.7,764.7,1843.8,764.7,1838.3z M778.2,1819.8h4l-6.2,31.2h-4L778.2,1819.8z M807.9,1828.7l-15.8,24.7
		c-2.9,4.5-5.2,6-8.7,6c-2.1,0-4.4-0.7-5.6-2l2.1-3c0.9,0.9,2.2,1.5,3.8,1.5c1.8,0,3.2-0.8,4.8-3.3l1.1-1.8l-5.4-22.1h4l4.3,17.8
		l11.2-17.8H807.9z M832.6,1838.1c0,7.6-5.4,13.1-12.6,13.1c-3.8,0-6.6-1.4-8.1-4l-2.4,11.9h-4l6-30.4h3.9l-0.5,2.8
		c2-1.9,4.6-3,7.9-3C828.5,1828.5,832.6,1832.1,832.6,1838.1z M828.6,1838.3c0-3.9-2.4-6.3-6.6-6.3c-5,0-8.7,3.9-8.7,9.4
		c0,3.9,2.4,6.3,6.6,6.3C824.9,1847.7,828.6,1843.8,828.6,1838.3z M859.7,1835.9c0,0.8-0.1,1.7-0.3,2.6L857,1851h-4l2.5-12.5
		c0.1-0.7,0.2-1.3,0.2-1.8c0-2.9-1.7-4.5-5.2-4.5c-4.3,0-7.3,2.3-8.2,7.1l-2.4,11.8h-4l6.2-31.2h4l-2.3,11.5
		c2.1-1.9,4.7-2.8,7.9-2.8C856.7,1828.5,859.7,1831.1,859.7,1835.9z M868.5,1841.1v0.3c0,4.1,2.3,6.3,7.1,6.3c2.8,0,5.3-1,6.9-2.6
		l1.7,2.9c-2.2,2.1-5.5,3.2-8.9,3.2c-6.6,0-10.7-3.8-10.7-9.7c0-7.6,5.3-13.1,12.6-13.1c6,0,10,3.6,10,9.6c0,1.1-0.1,2.1-0.3,3
		H868.5z M868.9,1838.1h14.4c0.2-4.1-2.4-6.3-6.3-6.3C872.9,1831.8,869.9,1834.3,868.9,1838.1z M930,1835.8c0,0.8-0.1,1.7-0.3,2.6
		l-2.5,12.5h-4l2.5-12.5c0.1-0.7,0.2-1.3,0.2-1.9c0-2.9-1.6-4.5-4.9-4.5c-4.1,0-6.8,2.3-7.8,7l-2.4,11.9h-4l2.5-12.5
		c0.1-0.7,0.2-1.3,0.2-1.9c0-2.9-1.6-4.5-5-4.5c-4.1,0-6.8,2.3-7.8,7.1l-2.4,11.8h-4l4.4-22.3h3.9l-0.5,2.8c2-2.1,4.7-3,7.7-3
		c3.5,0,6,1.4,7.1,3.9c2.3-2.6,5.4-3.9,9.1-3.9C927,1828.5,930,1831.1,930,1835.8z M959.8,1828.7l-4.4,22.3h-3.9l0.5-2.9
		c-2.1,2.1-4.9,3.1-8,3.1c-4.9,0-8-2.7-8-7.5c0-0.8,0.1-1.6,0.3-2.6l2.5-12.5h4l-2.5,12.5c-0.1,0.7-0.2,1.3-0.2,1.9
		c0,2.9,1.7,4.5,5.1,4.5c4.2,0,7.2-2.4,8.1-7.1l2.4-11.8H959.8z M960.9,1848.6l1.8-3.2c1.7,1.4,4.7,2.3,7.7,2.3
		c3.9,0,5.8-1.2,5.8-3.3c0-4.3-12.3-1.2-12.3-8.7c0-4.4,4-7.2,10.1-7.2c2.9,0,6,0.8,7.8,2l-1.6,3.2c-1.8-1.3-4.3-1.8-6.6-1.8
		c-3.7,0-5.7,1.4-5.7,3.3c0,4.5,12.3,1.3,12.3,8.7c0,4.6-4.2,7.2-10.2,7.2C966.3,1851.2,962.7,1850.1,960.9,1848.6z M593.5,1951.8
		l-6-8.6c-0.4,0-0.8,0-1.1,0h-6.6v8.6h-5.5v-29.4h12.1c7.7,0,12.5,3.9,12.5,10.5c0,4.5-2.3,7.7-6.3,9.3l6.8,9.7H593.5z M586.1,1927
		h-6.4v11.7h6.4c4.8,0,7.3-2.2,7.3-5.9S590.9,1927,586.1,1927z M623.1,1938.6v13.1h-5v-2.7c-1.3,1.9-3.7,3-7.1,3
		c-5.1,0-8.4-2.8-8.4-6.7c0-3.7,2.5-6.7,9.3-6.7h5.8v-0.3c0-3.1-1.8-4.9-5.6-4.9c-2.5,0-5.1,0.8-6.8,2.2l-2.1-3.8
		c2.4-1.8,5.9-2.8,9.5-2.8C619.3,1929.1,623.1,1932.1,623.1,1938.6z M617.8,1944.7v-2.6h-5.4c-3.6,0-4.5,1.3-4.5,3
		c0,1.9,1.6,3.1,4.3,3.1C614.7,1948.2,616.9,1947.1,617.8,1944.7z M651.9,1938.9v12.9h-5.3v-12.2c0-4-2-5.9-5.3-5.9
		c-3.7,0-6.3,2.3-6.3,6.8v11.3h-5.3v-22.4h5v2.9c1.7-2.1,4.5-3.2,7.7-3.2C647.9,1929.1,651.9,1932.1,651.9,1938.9z M681,1929.3v19
		c0,8.1-4.2,11.8-12.1,11.8c-4.2,0-8.4-1.1-10.9-3.2l2.4-3.9c2,1.6,5.2,2.7,8.3,2.7c5,0,7.1-2.3,7.1-6.8v-1.2c-1.8,2-4.5,3-7.5,3
		c-6.4,0-11.3-4.4-11.3-10.9c0-6.5,4.9-10.8,11.3-10.8c3.2,0,5.9,1,7.8,3.2v-3H681z M675.9,1939.9c0-3.8-2.9-6.3-6.8-6.3
		c-4,0-6.8,2.6-6.8,6.3c0,3.8,2.9,6.4,6.8,6.4C673,1946.3,675.9,1943.7,675.9,1939.9z M708.9,1942.2h-17.6c0.6,3.3,3.4,5.4,7.3,5.4
		c2.5,0,4.5-0.8,6.1-2.4l2.8,3.2c-2,2.4-5.2,3.7-9,3.7c-7.5,0-12.4-4.8-12.4-11.5c0-6.7,4.9-11.5,11.6-11.5
		c6.6,0,11.3,4.6,11.3,11.6C709,1941.1,709,1941.7,708.9,1942.2z M691.3,1938.7H704c-0.4-3.2-2.9-5.5-6.3-5.5
		C694.2,1933.3,691.8,1935.5,691.3,1938.7z M712.3,1932.6c0-2.1,1.6-3.5,3.4-3.5c1.9,0,3.4,1.4,3.4,3.5c0,2-1.6,3.5-3.4,3.5
		C713.8,1936,712.3,1934.6,712.3,1932.6z M712.3,1948.6c0-2.1,1.6-3.5,3.4-3.5c1.9,0,3.4,1.4,3.4,3.5c0,2-1.6,3.5-3.4,3.5
		C713.8,1952.1,712.3,1950.6,712.3,1948.6z M762.5,1922.4v29.4H758l-16.2-19.9v19.9h-5.4v-29.4h4.5l16.2,19.9v-19.9H762.5z
		 M790.9,1942.2h-17.6c0.6,3.3,3.4,5.4,7.3,5.4c2.5,0,4.5-0.8,6.1-2.4l2.8,3.2c-2,2.4-5.2,3.7-9,3.7c-7.5,0-12.4-4.8-12.4-11.5
		c0-6.7,4.9-11.5,11.6-11.5c6.6,0,11.3,4.6,11.3,11.6C791,1941.1,790.9,1941.7,790.9,1942.2z M773.2,1938.7H786
		c-0.4-3.2-2.9-5.5-6.3-5.5C776.2,1933.3,773.8,1935.5,773.2,1938.7z M794.2,1940.5c0-6.7,5-11.5,11.9-11.5c7,0,12,4.7,12,11.5
		c0,6.7-5,11.5-12,11.5C799.2,1952.1,794.2,1947.3,794.2,1940.5z M812.8,1940.5c0-4.3-2.9-7-6.7-7c-3.8,0-6.6,2.7-6.6,7
		c0,4.3,2.9,7,6.6,7C809.9,1947.6,812.8,1944.8,812.8,1940.5z M836.6,1950.5c-1.3,1-3.2,1.5-5,1.5c-4.9,0-7.7-2.6-7.7-7.6v-10.8
		h-3.7v-4.2h3.7v-5.1h5.3v5.1h6v4.2h-6v10.7c0,2.2,1.1,3.4,3.1,3.4c1.1,0,2.1-0.3,2.9-0.9L836.6,1950.5z M853.9,1929.1v5
		c-0.5-0.1-0.8-0.1-1.2-0.1c-4,0-6.5,2.4-6.5,6.9v10.9h-5.3v-22.4h5v3.3C847.4,1930.2,850.2,1929.1,853.9,1929.1z M856.3,1940.5
		c0-6.7,5-11.5,11.9-11.5c7,0,12,4.7,12,11.5c0,6.7-5,11.5-12,11.5C861.3,1952.1,856.3,1947.3,856.3,1940.5z M874.9,1940.5
		c0-4.3-2.9-7-6.7-7c-3.8,0-6.6,2.7-6.6,7c0,4.3,2.9,7,6.6,7C872,1947.6,874.9,1944.8,874.9,1940.5z M909,1940.5
		c0,7-4.8,11.5-11.4,11.5c-2.9,0-5.4-1-7.2-3v10.9h-5.3v-30.6h5v2.9c1.8-2.1,4.4-3.2,7.4-3.2C904.2,1929.1,909,1933.6,909,1940.5z
		 M903.7,1940.5c0-4.3-2.9-7-6.6-7c-3.8,0-6.7,2.7-6.7,7c0,4.3,2.9,7,6.7,7C900.8,1947.6,903.7,1944.8,903.7,1940.5z M913.3,1922.5
		c0-1.8,1.4-3.2,3.4-3.2s3.4,1.3,3.4,3c0,1.8-1.4,3.3-3.4,3.3C914.7,1925.6,913.3,1924.2,913.3,1922.5z M914,1929.3h5.3v22.4H914
		V1929.3z M924.3,1940.5c0-6.7,5-11.5,12.1-11.5c4.4,0,7.9,1.8,9.6,5.2l-4,2.4c-1.3-2.1-3.4-3.1-5.6-3.1c-3.9,0-6.8,2.7-6.8,7
		c0,4.4,2.9,7,6.8,7c2.2,0,4.2-1,5.6-3.1l4,2.4c-1.7,3.4-5.2,5.3-9.6,5.3C929.4,1952.1,924.3,1947.3,924.3,1940.5z M291.1,2016.9
		h-8.4v-4h21.4v4h-8.4v21.2h-4.7V2016.9z M326.2,2027.1v11h-4.5v-10.4c0-3.4-1.7-5.1-4.6-5.1c-3.2,0-5.4,1.9-5.4,5.8v9.7h-4.5v-26.7
		h4.5v9.7c1.5-1.6,3.7-2.4,6.4-2.4C322.8,2018.7,326.2,2021.3,326.2,2027.1z M350.1,2030H335c0.5,2.8,2.9,4.6,6.2,4.6
		c2.2,0,3.9-0.7,5.2-2.1l2.4,2.8c-1.7,2.1-4.4,3.1-7.7,3.1c-6.4,0-10.6-4.1-10.6-9.9c0-5.7,4.2-9.8,9.9-9.8c5.6,0,9.7,3.9,9.7,9.9
		C350.2,2029,350.1,2029.6,350.1,2030z M335,2027h10.9c-0.4-2.8-2.5-4.7-5.4-4.7C337.5,2022.3,335.4,2024.2,335,2027z M352.3,2036.2
		l1.7-3.4c1.7,1.1,4.3,1.9,6.7,1.9c2.8,0,4-0.8,4-2.1c0-3.7-11.9-0.2-11.9-7.9c0-3.6,3.3-6,8.5-6c2.6,0,5.5,0.6,7.2,1.7l-1.7,3.4
		c-1.8-1.1-3.7-1.4-5.5-1.4c-2.7,0-4,0.9-4,2.2c0,3.9,11.9,0.4,11.9,8c0,3.6-3.3,5.9-8.7,5.9C357.2,2038.4,354,2037.5,352.3,2036.2z
		 M391,2030h-15.1c0.5,2.8,2.9,4.6,6.2,4.6c2.2,0,3.9-0.7,5.2-2.1l2.4,2.8c-1.7,2.1-4.4,3.1-7.7,3.1c-6.4,0-10.6-4.1-10.6-9.9
		c0-5.7,4.2-9.8,9.9-9.8c5.6,0,9.7,3.9,9.7,9.9C391.1,2029,391,2029.6,391,2030z M375.9,2027h10.9c-0.4-2.8-2.5-4.7-5.4-4.7
		C378.4,2022.3,376.3,2024.2,375.9,2027z M405.3,2011.4h4.5v26.7h-4.5V2011.4z M431.8,2026.9v11.3h-4.2v-2.3c-1.1,1.7-3.2,2.6-6,2.6
		c-4.4,0-7.2-2.4-7.2-5.8c0-3.2,2.2-5.7,8-5.7h5v-0.3c0-2.6-1.6-4.2-4.8-4.2c-2.2,0-4.4,0.7-5.8,1.9l-1.8-3.3c2.1-1.6,5-2.4,8.1-2.4
		C428.6,2018.7,431.8,2021.3,431.8,2026.9z M427.3,2032.1v-2.2h-4.6c-3.1,0-3.9,1.2-3.9,2.6c0,1.6,1.4,2.7,3.7,2.7
		C424.7,2035.1,426.6,2034.1,427.3,2032.1z M448.7,2018.7v4.3c-0.4-0.1-0.7-0.1-1-0.1c-3.4,0-5.6,2-5.6,5.9v9.3h-4.5v-19.2h4.3v2.8
		C443.2,2019.7,445.5,2018.7,448.7,2018.7z M471.4,2018.9v16.3c0,7-3.6,10.2-10.4,10.2c-3.6,0-7.2-0.9-9.4-2.7l2-3.4
		c1.7,1.4,4.4,2.3,7.1,2.3c4.2,0,6.1-1.9,6.1-5.8v-1c-1.6,1.7-3.9,2.6-6.4,2.6c-5.5,0-9.7-3.7-9.7-9.3s4.2-9.3,9.7-9.3
		c2.7,0,5.1,0.9,6.7,2.8v-2.6H471.4z M467,2028c0-3.2-2.4-5.4-5.8-5.4c-3.4,0-5.9,2.2-5.9,5.4c0,3.3,2.4,5.5,5.9,5.5
		C464.6,2033.5,467,2031.2,467,2028z M495.3,2030h-15.1c0.5,2.8,2.9,4.6,6.2,4.6c2.2,0,3.9-0.7,5.2-2.1l2.4,2.8
		c-1.7,2.1-4.4,3.1-7.7,3.1c-6.4,0-10.6-4.1-10.6-9.9c0-5.7,4.2-9.8,9.9-9.8c5.6,0,9.7,3.9,9.7,9.9
		C495.4,2029,495.4,2029.6,495.3,2030z M480.2,2027h10.9c-0.4-2.8-2.5-4.7-5.4-4.7C482.8,2022.3,480.7,2024.2,480.2,2027z
		 M539.7,2018.9l-7.1,19.2h-4.3l-5-13.2l-5,13.2h-4.3l-7.1-19.2h4.2l5.1,14.2l5.3-14.2h3.8l5.2,14.3l5.2-14.3H539.7z M561.7,2027.1
		v11h-4.5v-10.4c0-3.4-1.7-5.1-4.6-5.1c-3.2,0-5.4,1.9-5.4,5.8v9.7h-4.5v-26.7h4.5v9.7c1.5-1.6,3.7-2.4,6.4-2.4
		C558.3,2018.7,561.7,2021.3,561.7,2027.1z M566.8,2013.1c0-1.5,1.2-2.7,2.9-2.7s2.9,1.1,2.9,2.6c0,1.6-1.2,2.8-2.9,2.8
		C568,2015.8,566.8,2014.6,566.8,2013.1z M567.4,2018.9h4.5v19.2h-4.5V2018.9z M589.4,2037.1c-1.1,0.9-2.7,1.3-4.3,1.3
		c-4.2,0-6.6-2.2-6.6-6.5v-9.3h-3.2v-3.6h3.2v-4.4h4.5v4.4h5.1v3.6h-5.1v9.1c0,1.9,0.9,2.9,2.7,2.9c0.9,0,1.8-0.3,2.5-0.8
		L589.4,2037.1z M610.4,2030h-15.1c0.5,2.8,2.9,4.6,6.2,4.6c2.2,0,3.9-0.7,5.2-2.1l2.4,2.8c-1.7,2.1-4.4,3.1-7.7,3.1
		c-6.4,0-10.6-4.1-10.6-9.9c0-5.7,4.2-9.8,9.9-9.8c5.6,0,9.7,3.9,9.7,9.9C610.5,2029,610.5,2029.6,610.4,2030z M595.3,2027h10.9
		c-0.4-2.8-2.5-4.7-5.4-4.7C597.9,2022.3,595.7,2024.2,595.3,2027z M645.2,2028.5c0,6-4.1,9.9-9.8,9.9c-2.6,0-4.9-0.9-6.4-2.7v2.5
		h-4.3v-26.7h4.5v9.8c1.5-1.7,3.7-2.6,6.2-2.6C641,2018.7,645.2,2022.6,645.2,2028.5z M640.6,2028.5c0-3.7-2.4-6-5.7-6
		c-3.2,0-5.7,2.3-5.7,6c0,3.7,2.5,6,5.7,6C638.1,2034.6,640.6,2032.2,640.6,2028.5z M668.1,2018.9v19.2h-4.3v-2.4
		c-1.4,1.8-3.7,2.7-6.2,2.7c-4.9,0-8.3-2.7-8.3-8.5v-11h4.5v10.4c0,3.5,1.7,5.1,4.5,5.1c3.1,0,5.3-1.9,5.3-5.8v-9.7H668.1z
		 M685.5,2037.1c-1.1,0.9-2.7,1.3-4.3,1.3c-4.2,0-6.6-2.2-6.6-6.5v-9.3h-3.2v-3.6h3.2v-4.4h4.5v4.4h5.1v3.6h-5.1v9.1
		c0,1.9,0.9,2.9,2.7,2.9c0.9,0,1.8-0.3,2.5-0.8L685.5,2037.1z M700.3,2037.1c-1.1,0.9-2.7,1.3-4.3,1.3c-4.2,0-6.6-2.2-6.6-6.5v-9.3
		h-3.2v-3.6h3.2v-4.4h4.5v4.4h5.1v3.6h-5.1v9.1c0,1.9,0.9,2.9,2.7,2.9c0.9,0,1.8-0.3,2.5-0.8L700.3,2037.1z M721.4,2030h-15.1
		c0.5,2.8,2.9,4.6,6.2,4.6c2.2,0,3.9-0.7,5.2-2.1l2.4,2.8c-1.7,2.1-4.4,3.1-7.7,3.1c-6.4,0-10.6-4.1-10.6-9.9c0-5.7,4.2-9.8,9.9-9.8
		c5.6,0,9.7,3.9,9.7,9.9C721.5,2029,721.4,2029.6,721.4,2030z M706.3,2027h10.9c-0.4-2.8-2.5-4.7-5.4-4.7
		C708.8,2022.3,706.7,2024.2,706.3,2027z M736.9,2018.7v4.3c-0.4-0.1-0.7-0.1-1-0.1c-3.4,0-5.6,2-5.6,5.9v9.3h-4.5v-19.2h4.3v2.8
		C731.4,2019.7,733.7,2018.7,736.9,2018.7z M748.9,2011.2c1.5,0,3.1,0.3,4.1,1l-1.3,3.4c-0.7-0.5-1.5-0.8-2.5-0.8
		c-1.9,0-2.8,1-2.8,3.1v1.2h5.3v3.6h-5.1v15.5H742v-15.5h-3.2v-3.6h3.2v-1.2C742,2013.8,744.5,2011.2,748.9,2011.2z M759.2,2011.4
		v26.7h-4.5v-26.7H759.2z M764.5,2013.1c0-1.5,1.2-2.7,2.9-2.7c1.7,0,2.9,1.1,2.9,2.6c0,1.6-1.2,2.8-2.9,2.8
		C765.7,2015.8,764.5,2014.6,764.5,2013.1z M765.1,2018.9h4.5v19.2h-4.5V2018.9z M793.5,2030h-15.1c0.5,2.8,2.9,4.6,6.2,4.6
		c2.2,0,3.9-0.7,5.2-2.1l2.4,2.8c-1.7,2.1-4.4,3.1-7.7,3.1c-6.4,0-10.6-4.1-10.6-9.9c0-5.7,4.2-9.8,9.9-9.8c5.6,0,9.7,3.9,9.7,9.9
		C793.6,2029,793.6,2029.6,793.5,2030z M778.4,2027h10.9c-0.4-2.8-2.5-4.7-5.4-4.7C781,2022.3,778.8,2024.2,778.4,2027z
		 M795.7,2036.2l1.7-3.4c1.7,1.1,4.3,1.9,6.7,1.9c2.8,0,4-0.8,4-2.1c0-3.7-11.9-0.2-11.9-7.9c0-3.6,3.3-6,8.5-6
		c2.6,0,5.5,0.6,7.2,1.7l-1.7,3.4c-1.8-1.1-3.7-1.4-5.5-1.4c-2.7,0-4,0.9-4,2.2c0,3.9,11.9,0.4,11.9,8c0,3.6-3.3,5.9-8.7,5.9
		C800.7,2038.4,797.4,2037.5,795.7,2036.2z M842.5,2026.9v11.3h-4.2v-2.3c-1.1,1.7-3.2,2.6-6,2.6c-4.4,0-7.2-2.4-7.2-5.8
		c0-3.2,2.2-5.7,8-5.7h5v-0.3c0-2.6-1.6-4.2-4.8-4.2c-2.2,0-4.4,0.7-5.8,1.9l-1.8-3.3c2.1-1.6,5-2.4,8.1-2.4
		C839.3,2018.7,842.5,2021.3,842.5,2026.9z M838,2032.1v-2.2h-4.6c-3.1,0-3.9,1.2-3.9,2.6c0,1.6,1.4,2.7,3.7,2.7
		C835.3,2035.1,837.2,2034.1,838,2032.1z M859.4,2018.7v4.3c-0.4-0.1-0.7-0.1-1-0.1c-3.4,0-5.6,2-5.6,5.9v9.3h-4.5v-19.2h4.3v2.8
		C853.8,2019.7,856.2,2018.7,859.4,2018.7z M881,2030h-15.1c0.5,2.8,2.9,4.6,6.2,4.6c2.2,0,3.9-0.7,5.2-2.1l2.4,2.8
		c-1.7,2.1-4.4,3.1-7.7,3.1c-6.4,0-10.6-4.1-10.6-9.9c0-5.7,4.2-9.8,9.9-9.8c5.6,0,9.7,3.9,9.7,9.9C881.1,2029,881,2029.6,881,2030z
		 M865.9,2027h10.9c-0.4-2.8-2.5-4.7-5.4-4.7C868.4,2022.3,866.3,2024.2,865.9,2027z M893.7,2028.5c0-5.8,4.3-9.8,10.4-9.8
		c3.7,0,6.7,1.5,8.2,4.5l-3.5,2c-1.2-1.8-2.9-2.7-4.8-2.7c-3.3,0-5.8,2.3-5.8,6c0,3.7,2.5,6,5.8,6c1.9,0,3.6-0.8,4.8-2.7l3.5,2
		c-1.5,2.9-4.5,4.5-8.2,4.5C898.1,2038.4,893.7,2034.3,893.7,2028.5z M914.4,2028.5c0-5.8,4.3-9.8,10.2-9.8c6,0,10.3,4.1,10.3,9.8
		c0,5.8-4.3,9.9-10.3,9.9C918.7,2038.4,914.4,2034.3,914.4,2028.5z M930.3,2028.5c0-3.7-2.4-6-5.7-6c-3.2,0-5.7,2.3-5.7,6
		c0,3.7,2.4,6,5.7,6C927.9,2034.6,930.3,2032.2,930.3,2028.5z M971.3,2027.1v11h-4.5v-10.4c0-3.4-1.6-5.1-4.3-5.1c-3,0-5,1.9-5,5.8
		v9.8H953v-10.4c0-3.4-1.6-5.1-4.3-5.1c-3,0-5,1.9-5,5.8v9.8h-4.5v-19.2h4.3v2.4c1.4-1.7,3.7-2.7,6.3-2.7c2.8,0,5.1,1,6.5,3.2
		c1.5-2,4.1-3.2,7.2-3.2C968.1,2018.7,971.3,2021.3,971.3,2027.1z M1009.2,2027.1v11h-4.5v-10.4c0-3.4-1.6-5.1-4.3-5.1
		c-3,0-5,1.9-5,5.8v9.8h-4.5v-10.4c0-3.4-1.6-5.1-4.3-5.1c-3,0-5,1.9-5,5.8v9.8h-4.5v-19.2h4.3v2.4c1.4-1.7,3.7-2.7,6.3-2.7
		c2.8,0,5.1,1,6.5,3.2c1.5-2,4.1-3.2,7.2-3.2C1006,2018.7,1009.2,2021.3,1009.2,2027.1z M1013.6,2028.5c0-5.8,4.3-9.8,10.2-9.8
		c6,0,10.3,4.1,10.3,9.8c0,5.8-4.3,9.9-10.3,9.9C1017.9,2038.4,1013.6,2034.3,1013.6,2028.5z M1029.5,2028.5c0-3.7-2.4-6-5.7-6
		c-3.2,0-5.7,2.3-5.7,6c0,3.7,2.4,6,5.7,6C1027.1,2034.6,1029.5,2032.2,1029.5,2028.5z M1057.3,2027.1v11h-4.5v-10.4
		c0-3.4-1.7-5.1-4.6-5.1c-3.2,0-5.4,1.9-5.4,5.8v9.7h-4.5v-19.2h4.3v2.5c1.5-1.8,3.8-2.7,6.6-2.7
		C1053.9,2018.7,1057.3,2021.3,1057.3,2027.1z M1063.1,2011.4h4.5v26.7h-4.5V2011.4z M1091.5,2018.9l-9,20.8
		c-1.8,4.4-4.2,5.7-7.4,5.7c-1.9,0-3.9-0.6-5.1-1.8l1.8-3.3c0.9,0.8,2.1,1.3,3.3,1.3c1.6,0,2.5-0.8,3.4-2.7l0.3-0.8l-8.4-19.3h4.7
		l6,14.2l6.1-14.2H1091.5z M1115.3,2018.7v4.3c-0.4-0.1-0.7-0.1-1-0.1c-3.4,0-5.6,2-5.6,5.9v9.3h-4.5v-19.2h4.3v2.8
		C1109.8,2019.7,1112.1,2018.7,1115.3,2018.7z M1137,2030h-15.1c0.5,2.8,2.9,4.6,6.2,4.6c2.2,0,3.9-0.7,5.2-2.1l2.4,2.8
		c-1.7,2.1-4.4,3.1-7.7,3.1c-6.4,0-10.6-4.1-10.6-9.9c0-5.7,4.2-9.8,9.9-9.8c5.6,0,9.7,3.9,9.7,9.9C1137,2029,1137,2029.6,1137,2030
		z M1121.8,2027h10.9c-0.4-2.8-2.5-4.7-5.4-4.7C1124.4,2022.3,1122.3,2024.2,1121.8,2027z M1141.4,2011.4h4.5v26.7h-4.5V2011.4z
		 M1167.8,2026.9v11.3h-4.2v-2.3c-1.1,1.7-3.2,2.6-6,2.6c-4.4,0-7.2-2.4-7.2-5.8c0-3.2,2.2-5.7,8-5.7h5v-0.3c0-2.6-1.6-4.2-4.8-4.2
		c-2.2,0-4.4,0.7-5.8,1.9l-1.8-3.3c2.1-1.6,5-2.4,8.1-2.4C1164.6,2018.7,1167.8,2021.3,1167.8,2026.9z M1163.3,2032.1v-2.2h-4.6
		c-3.1,0-3.9,1.2-3.9,2.6c0,1.6,1.4,2.7,3.7,2.7C1160.7,2035.1,1162.6,2034.1,1163.3,2032.1z M1185.2,2037.1
		c-1.1,0.9-2.7,1.3-4.3,1.3c-4.2,0-6.6-2.2-6.6-6.5v-9.3h-3.2v-3.6h3.2v-4.4h4.5v4.4h5.1v3.6h-5.1v9.1c0,1.9,0.9,2.9,2.7,2.9
		c0.9,0,1.8-0.3,2.5-0.8L1185.2,2037.1z M1206.2,2030h-15.1c0.5,2.8,2.9,4.6,6.2,4.6c2.2,0,3.9-0.7,5.2-2.1l2.4,2.8
		c-1.7,2.1-4.4,3.1-7.7,3.1c-6.4,0-10.6-4.1-10.6-9.9c0-5.7,4.2-9.8,9.9-9.8c5.6,0,9.7,3.9,9.7,9.9
		C1206.3,2029,1206.3,2029.6,1206.2,2030z M1191.1,2027h10.9c-0.4-2.8-2.5-4.7-5.4-4.7C1193.7,2022.3,1191.5,2024.2,1191.1,2027z
		 M1229.4,2011.4v26.7h-4.3v-2.5c-1.5,1.8-3.7,2.7-6.4,2.7c-5.6,0-9.7-3.9-9.7-9.9c0-6,4.1-9.8,9.7-9.8c2.5,0,4.7,0.8,6.2,2.6v-9.9
		H1229.4z M1225,2028.5c0-3.7-2.5-6-5.7-6s-5.7,2.3-5.7,6c0,3.7,2.5,6,5.7,6S1225,2032.2,1225,2028.5z M339.5,2080.3
		c-1.1,0.9-2.7,1.3-4.3,1.3c-4.2,0-6.6-2.2-6.6-6.5v-9.3h-3.2v-3.6h3.2v-4.4h4.5v4.4h5.1v3.6h-5.1v9.1c0,1.9,0.9,2.9,2.7,2.9
		c0.9,0,1.8-0.3,2.5-0.8L339.5,2080.3z M341,2071.7c0-5.8,4.3-9.8,10.2-9.8c6,0,10.3,4.1,10.3,9.8c0,5.8-4.3,9.9-10.3,9.9
		C345.3,2081.6,341,2077.5,341,2071.7z M357,2071.7c0-3.7-2.4-6-5.7-6c-3.2,0-5.7,2.3-5.7,6c0,3.7,2.4,6,5.7,6
		C354.5,2077.8,357,2075.4,357,2071.7z M387.3,2080.3c-1.1,0.9-2.7,1.3-4.3,1.3c-4.2,0-6.6-2.2-6.6-6.5v-9.3h-3.2v-3.6h3.2v-4.4h4.5
		v4.4h5.1v3.6h-5.1v9.1c0,1.9,0.9,2.9,2.7,2.9c0.9,0,1.8-0.3,2.5-0.8L387.3,2080.3z M410,2070.3v11h-4.5v-10.4
		c0-3.4-1.7-5.1-4.6-5.1c-3.2,0-5.4,1.9-5.4,5.8v9.7H391v-26.7h4.5v9.7c1.5-1.6,3.7-2.4,6.4-2.4C406.5,2061.9,410,2064.5,410,2070.3
		z M433.9,2073.2h-15.1c0.5,2.8,2.9,4.6,6.2,4.6c2.2,0,3.9-0.7,5.2-2.1l2.4,2.8c-1.7,2.1-4.4,3.1-7.7,3.1c-6.4,0-10.6-4.1-10.6-9.9
		c0-5.7,4.2-9.8,9.9-9.8c5.6,0,9.7,3.9,9.7,9.9C433.9,2072.2,433.9,2072.8,433.9,2073.2z M418.7,2070.2h10.9
		c-0.4-2.8-2.5-4.7-5.4-4.7C421.3,2065.5,419.2,2067.4,418.7,2070.2z M446.8,2068.8c0-7.5,5.8-13,13.5-13c4.1,0,7.6,1.5,10,4.2
		l-3,2.8c-1.8-2-4.1-3-6.7-3c-5.2,0-9,3.7-9,8.9s3.8,8.9,9,8.9c2.6,0,4.9-1,6.7-3l3,2.9c-2.3,2.7-5.9,4.2-10,4.2
		C452.6,2081.7,446.8,2076.3,446.8,2068.8z M472.1,2071.7c0-5.8,4.3-9.8,10.2-9.8c6,0,10.3,4.1,10.3,9.8c0,5.8-4.3,9.9-10.3,9.9
		C476.4,2081.6,472.1,2077.5,472.1,2071.7z M488,2071.7c0-3.7-2.4-6-5.7-6c-3.2,0-5.7,2.3-5.7,6c0,3.7,2.4,6,5.7,6
		C485.6,2077.8,488,2075.4,488,2071.7z M529,2070.3v11h-4.5v-10.4c0-3.4-1.6-5.1-4.3-5.1c-3,0-5,1.9-5,5.8v9.8h-4.5v-10.4
		c0-3.4-1.6-5.1-4.3-5.1c-3,0-5,1.9-5,5.8v9.8h-4.5v-19.2h4.3v2.4c1.4-1.7,3.7-2.7,6.3-2.7c2.8,0,5.1,1,6.5,3.2
		c1.5-2,4.1-3.2,7.2-3.2C525.8,2061.9,529,2064.5,529,2070.3z M566.9,2070.3v11h-4.5v-10.4c0-3.4-1.6-5.1-4.3-5.1c-3,0-5,1.9-5,5.8
		v9.8h-4.5v-10.4c0-3.4-1.6-5.1-4.3-5.1c-3,0-5,1.9-5,5.8v9.8h-4.5v-19.2h4.3v2.4c1.4-1.7,3.7-2.7,6.3-2.7c2.8,0,5.1,1,6.5,3.2
		c1.5-2,4.1-3.2,7.2-3.2C563.7,2061.9,566.9,2064.5,566.9,2070.3z M571.3,2071.7c0-5.8,4.3-9.8,10.2-9.8c6,0,10.3,4.1,10.3,9.8
		c0,5.8-4.3,9.9-10.3,9.9C575.6,2081.6,571.3,2077.5,571.3,2071.7z M587.2,2071.7c0-3.7-2.4-6-5.7-6c-3.2,0-5.7,2.3-5.7,6
		c0,3.7,2.4,6,5.7,6C584.8,2077.8,587.2,2075.4,587.2,2071.7z M615,2070.3v11h-4.5v-10.4c0-3.4-1.7-5.1-4.6-5.1
		c-3.2,0-5.4,1.9-5.4,5.8v9.7h-4.5v-19.2h4.3v2.5c1.5-1.8,3.8-2.7,6.6-2.7C611.6,2061.9,615,2064.5,615,2070.3z M653.5,2074.5
		c0,4.3-3.4,6.8-9.9,6.8h-12.5v-25.2h11.8c6,0,9.3,2.6,9.3,6.6c0,2.6-1.3,4.5-3.2,5.5C651.7,2069.1,653.5,2071.2,653.5,2074.5z
		 M635.8,2059.8v6.9h6.6c3.2,0,5.1-1.2,5.1-3.5c0-2.3-1.8-3.5-5.1-3.5H635.8z M648.8,2074.1c0-2.5-1.9-3.6-5.4-3.6h-7.6v7.3h7.6
		C646.9,2077.7,648.8,2076.6,648.8,2074.1z M658.1,2054.6h4.5v26.7h-4.5V2054.6z M687.1,2062.1v19.2h-4.3v-2.4
		c-1.4,1.8-3.7,2.7-6.2,2.7c-4.9,0-8.3-2.7-8.3-8.5v-11h4.5v10.4c0,3.5,1.7,5.1,4.5,5.1c3.1,0,5.3-1.9,5.3-5.8v-9.7H687.1z
		 M711,2073.2h-15.1c0.5,2.8,2.9,4.6,6.2,4.6c2.2,0,3.9-0.7,5.2-2.1l2.4,2.8c-1.7,2.1-4.4,3.1-7.7,3.1c-6.4,0-10.6-4.1-10.6-9.9
		c0-5.7,4.2-9.8,9.9-9.8c5.6,0,9.7,3.9,9.7,9.9C711.1,2072.2,711,2072.8,711,2073.2z M695.9,2070.2h10.9c-0.4-2.8-2.5-4.7-5.4-4.7
		C698.4,2065.5,696.3,2067.4,695.9,2070.2z M748.9,2081.4l0-16.7l-8.3,13.8h-2.1l-8.3-13.6v16.5h-4.5v-25.2h3.9l10,16.7l9.8-16.7
		h3.9l0,25.2H748.9z M758.1,2071.7c0-5.8,4.3-9.8,10.2-9.8c6,0,10.3,4.1,10.3,9.8c0,5.8-4.3,9.9-10.3,9.9
		C762.4,2081.6,758.1,2077.5,758.1,2071.7z M774.1,2071.7c0-3.7-2.4-6-5.7-6c-3.2,0-5.7,2.3-5.7,6c0,3.7,2.4,6,5.7,6
		C771.6,2077.8,774.1,2075.4,774.1,2071.7z M794,2061.9v4.3c-0.4-0.1-0.7-0.1-1-0.1c-3.4,0-5.6,2-5.6,5.9v9.3h-4.5v-19.2h4.3v2.8
		C788.5,2062.9,790.8,2061.9,794,2061.9z M818.3,2071.7c0,6-4.1,9.9-9.8,9.9c-2.4,0-4.6-0.8-6.2-2.6v9.3h-4.5v-26.2h4.3v2.5
		c1.5-1.8,3.7-2.7,6.4-2.7C814.1,2061.9,818.3,2065.8,818.3,2071.7z M813.7,2071.7c0-3.7-2.4-6-5.7-6s-5.7,2.3-5.7,6
		c0,3.7,2.5,6,5.7,6S813.7,2075.4,813.7,2071.7z M841.5,2070.3v11H837v-10.4c0-3.4-1.7-5.1-4.6-5.1c-3.2,0-5.4,1.9-5.4,5.8v9.7h-4.5
		v-26.7h4.5v9.7c1.5-1.6,3.7-2.4,6.4-2.4C838.1,2061.9,841.5,2064.5,841.5,2070.3z M845.8,2071.7c0-5.8,4.3-9.8,10.2-9.8
		c6,0,10.3,4.1,10.3,9.8c0,5.8-4.3,9.9-10.3,9.9C850.1,2081.6,845.8,2077.5,845.8,2071.7z M861.8,2071.7c0-3.7-2.4-6-5.7-6
		c-3.2,0-5.7,2.3-5.7,6c0,3.7,2.4,6,5.7,6C859.3,2077.8,861.8,2075.4,861.8,2071.7z M874.6,2078.6c0,0.8-0.2,1.4-0.8,3.1l-1.8,5.1
		h-2.9l1.4-5.5c-1-0.4-1.7-1.4-1.7-2.7c0-1.8,1.3-3,2.9-3C873.4,2075.6,874.6,2076.9,874.6,2078.6z M905.1,2070.1v11.3h-4.2v-2.3
		c-1.1,1.7-3.2,2.6-6,2.6c-4.4,0-7.2-2.4-7.2-5.8c0-3.2,2.2-5.7,8-5.7h5v-0.3c0-2.6-1.6-4.2-4.8-4.2c-2.2,0-4.4,0.7-5.8,1.9
		l-1.8-3.3c2.1-1.6,5-2.4,8.1-2.4C901.9,2061.9,905.1,2064.5,905.1,2070.1z M900.6,2075.3v-2.2h-4.6c-3.1,0-3.9,1.2-3.9,2.6
		c0,1.6,1.4,2.7,3.7,2.7C897.9,2078.3,899.8,2077.3,900.6,2075.3z M929.8,2070.3v11h-4.5v-10.4c0-3.4-1.7-5.1-4.6-5.1
		c-3.2,0-5.4,1.9-5.4,5.8v9.7h-4.5v-19.2h4.3v2.5c1.5-1.8,3.8-2.7,6.6-2.7C926.3,2061.9,929.8,2064.5,929.8,2070.3z M954.5,2054.6
		v26.7h-4.3v-2.5c-1.5,1.8-3.7,2.7-6.4,2.7c-5.6,0-9.7-3.9-9.7-9.9c0-6,4.1-9.8,9.7-9.8c2.5,0,4.7,0.8,6.2,2.6v-9.9H954.5z
		 M950.1,2071.7c0-3.7-2.5-6-5.7-6c-3.2,0-5.7,2.3-5.7,6c0,3.7,2.5,6,5.7,6C947.6,2077.8,950.1,2075.4,950.1,2071.7z M989.3,2070.3
		v11h-4.5v-10.4c0-3.4-1.7-5.1-4.6-5.1c-3.2,0-5.4,1.9-5.4,5.8v9.7h-4.5v-26.7h4.5v9.7c1.5-1.6,3.7-2.4,6.4-2.4
		C985.8,2061.9,989.3,2064.5,989.3,2070.3z M1011.1,2070.1v11.3h-4.2v-2.3c-1.1,1.7-3.2,2.6-6,2.6c-4.4,0-7.2-2.4-7.2-5.8
		c0-3.2,2.2-5.7,8-5.7h5v-0.3c0-2.6-1.6-4.2-4.8-4.2c-2.2,0-4.4,0.7-5.8,1.9l-1.8-3.3c2.1-1.6,5-2.4,8.1-2.4
		C1007.9,2061.9,1011.1,2064.5,1011.1,2070.1z M1006.6,2075.3v-2.2h-4.6c-3.1,0-3.9,1.2-3.9,2.6c0,1.6,1.4,2.7,3.7,2.7
		C1003.9,2078.3,1005.8,2077.3,1006.6,2075.3z M1034.5,2062.1l-8.2,19.2h-4.6l-8.2-19.2h4.7l6,14.3l6.2-14.3H1034.5z M1054.7,2073.2
		h-15.1c0.5,2.8,2.9,4.6,6.2,4.6c2.2,0,3.9-0.7,5.2-2.1l2.4,2.8c-1.7,2.1-4.4,3.1-7.7,3.1c-6.4,0-10.6-4.1-10.6-9.9
		c0-5.7,4.2-9.8,9.9-9.8c5.6,0,9.7,3.9,9.7,9.9C1054.8,2072.2,1054.8,2072.8,1054.7,2073.2z M1039.6,2070.2h10.9
		c-0.4-2.8-2.5-4.7-5.4-4.7C1042.2,2065.5,1040.1,2067.4,1039.6,2070.2z M1066.9,2079.4l1.7-3.4c1.7,1.1,4.3,1.9,6.7,1.9
		c2.8,0,4-0.8,4-2.1c0-3.7-11.9-0.2-11.9-7.9c0-3.6,3.3-6,8.5-6c2.6,0,5.5,0.6,7.2,1.7l-1.7,3.4c-1.8-1.1-3.7-1.4-5.5-1.4
		c-2.7,0-4,0.9-4,2.2c0,3.9,11.9,0.4,11.9,8c0,3.6-3.3,5.9-8.7,5.9C1071.8,2081.6,1068.6,2080.7,1066.9,2079.4z M1087,2056.3
		c0-1.5,1.2-2.7,2.9-2.7c1.7,0,2.9,1.1,2.9,2.6c0,1.6-1.2,2.8-2.9,2.8C1088.2,2059,1087,2057.8,1087,2056.3z M1087.6,2062.1h4.5
		v19.2h-4.5V2062.1z M1130.2,2070.3v11h-4.5v-10.4c0-3.4-1.6-5.1-4.3-5.1c-3,0-5,1.9-5,5.8v9.8h-4.5v-10.4c0-3.4-1.6-5.1-4.3-5.1
		c-3,0-5,1.9-5,5.8v9.8h-4.5v-19.2h4.3v2.4c1.4-1.7,3.7-2.7,6.3-2.7c2.8,0,5.1,1,6.5,3.2c1.5-2,4.1-3.2,7.2-3.2
		C1126.9,2061.9,1130.2,2064.5,1130.2,2070.3z M1135.3,2056.3c0-1.5,1.2-2.7,2.9-2.7c1.7,0,2.9,1.1,2.9,2.6c0,1.6-1.2,2.8-2.9,2.8
		C1136.5,2059,1135.3,2057.8,1135.3,2056.3z M1135.9,2062.1h4.5v19.2h-4.5V2062.1z M1146.3,2054.6h4.5v26.7h-4.5V2054.6z
		 M1172.8,2070.1v11.3h-4.2v-2.3c-1.1,1.7-3.2,2.6-6,2.6c-4.4,0-7.2-2.4-7.2-5.8c0-3.2,2.2-5.7,8-5.7h5v-0.3c0-2.6-1.6-4.2-4.8-4.2
		c-2.2,0-4.4,0.7-5.8,1.9l-1.8-3.3c2.1-1.6,5-2.4,8.1-2.4C1169.6,2061.9,1172.8,2064.5,1172.8,2070.1z M1168.3,2075.3v-2.2h-4.6
		c-3.1,0-3.9,1.2-3.9,2.6c0,1.6,1.4,2.7,3.7,2.7C1165.7,2078.3,1167.6,2077.3,1168.3,2075.3z M1189.7,2061.9v4.3
		c-0.4-0.1-0.7-0.1-1-0.1c-3.4,0-5.6,2-5.6,5.9v9.3h-4.5v-19.2h4.3v2.8C1184.2,2062.9,1186.5,2061.9,1189.7,2061.9z M366.1,2116.4
		h-15.1c0.5,2.8,2.9,4.6,6.2,4.6c2.2,0,3.9-0.7,5.2-2.1l2.4,2.8c-1.7,2.1-4.4,3.1-7.7,3.1c-6.4,0-10.6-4.1-10.6-9.9
		c0-5.7,4.2-9.8,9.9-9.8c5.6,0,9.7,3.9,9.7,9.9C366.2,2115.4,366.2,2116,366.1,2116.4z M351,2113.4h10.9c-0.4-2.8-2.5-4.7-5.4-4.7
		C353.6,2108.7,351.5,2110.6,351,2113.4z M388.2,2105.3l-9,20.8c-1.8,4.4-4.2,5.7-7.4,5.7c-1.9,0-3.9-0.6-5.1-1.8l1.8-3.3
		c0.9,0.8,2.1,1.3,3.3,1.3c1.6,0,2.5-0.8,3.4-2.7l0.3-0.8l-8.4-19.3h4.7l6,14.2l6.1-14.2H388.2z M408.4,2116.4h-15.1
		c0.5,2.8,2.9,4.6,6.2,4.6c2.2,0,3.9-0.7,5.2-2.1l2.4,2.8c-1.7,2.1-4.4,3.1-7.7,3.1c-6.4,0-10.6-4.1-10.6-9.9c0-5.7,4.2-9.8,9.9-9.8
		c5.6,0,9.7,3.9,9.7,9.9C408.5,2115.4,408.5,2116,408.4,2116.4z M393.3,2113.4h10.9c-0.4-2.8-2.5-4.7-5.4-4.7
		C395.9,2108.7,393.8,2110.6,393.3,2113.4z M410.6,2122.6l1.7-3.4c1.7,1.1,4.3,1.9,6.7,1.9c2.8,0,4-0.8,4-2.1
		c0-3.7-11.9-0.2-11.9-7.9c0-3.6,3.3-6,8.5-6c2.6,0,5.5,0.6,7.2,1.7l-1.7,3.4c-1.8-1.1-3.7-1.4-5.5-1.4c-2.7,0-4,0.9-4,2.2
		c0,3.9,11.9,0.4,11.9,8c0,3.6-3.3,5.9-8.7,5.9C415.6,2124.8,412.4,2123.9,410.6,2122.6z M451.8,2114.9c0,6-4.1,9.9-9.8,9.9
		c-2.4,0-4.6-0.8-6.2-2.6v9.3h-4.5v-26.2h4.3v2.5c1.5-1.8,3.7-2.7,6.4-2.7C447.7,2105.1,451.8,2109,451.8,2114.9z M447.2,2114.9
		c0-3.7-2.4-6-5.7-6c-3.2,0-5.7,2.3-5.7,6c0,3.7,2.5,6,5.7,6C444.8,2121,447.2,2118.6,447.2,2114.9z M454.5,2114.9
		c0-5.8,4.3-9.8,10.2-9.8c6,0,10.3,4.1,10.3,9.8c0,5.8-4.3,9.9-10.3,9.9C458.8,2124.8,454.5,2120.7,454.5,2114.9z M470.4,2114.9
		c0-3.7-2.4-6-5.7-6c-3.2,0-5.7,2.3-5.7,6c0,3.7,2.4,6,5.7,6C468,2121,470.4,2118.6,470.4,2114.9z M490.9,2123.5
		c-1.1,0.9-2.7,1.3-4.3,1.3c-4.2,0-6.6-2.2-6.6-6.5v-9.3h-3.2v-3.6h3.2v-4.4h4.5v4.4h5.1v3.6h-5.1v9.1c0,1.9,0.9,2.9,2.7,2.9
		c0.9,0,1.8-0.3,2.5-0.8L490.9,2123.5z M492.4,2122.6l1.7-3.4c1.7,1.1,4.3,1.9,6.7,1.9c2.8,0,4-0.8,4-2.1c0-3.7-11.9-0.2-11.9-7.9
		c0-3.6,3.3-6,8.5-6c2.6,0,5.5,0.6,7.2,1.7l-1.7,3.4c-1.8-1.1-3.7-1.4-5.5-1.4c-2.7,0-4,0.9-4,2.2c0,3.9,11.9,0.4,11.9,8
		c0,3.6-3.3,5.9-8.7,5.9C497.3,2124.8,494.1,2123.9,492.4,2122.6z M521.5,2114.9c0-5.8,4.3-9.8,10.2-9.8c6,0,10.3,4.1,10.3,9.8
		c0,5.8-4.3,9.9-10.3,9.9C525.8,2124.8,521.5,2120.7,521.5,2114.9z M537.4,2114.9c0-3.7-2.4-6-5.7-6c-3.2,0-5.7,2.3-5.7,6
		c0,3.7,2.4,6,5.7,6C535,2121,537.4,2118.6,537.4,2114.9z M565.2,2113.5v11h-4.5v-10.4c0-3.4-1.7-5.1-4.6-5.1
		c-3.2,0-5.4,1.9-5.4,5.8v9.7h-4.5v-19.2h4.3v2.5c1.5-1.8,3.8-2.7,6.6-2.7C561.8,2105.1,565.2,2107.7,565.2,2113.5z M592.4,2123.5
		c-1.1,0.9-2.7,1.3-4.3,1.3c-4.2,0-6.6-2.2-6.6-6.5v-9.3h-3.2v-3.6h3.2v-4.4h4.5v4.4h5.1v3.6H586v9.1c0,1.9,0.9,2.9,2.7,2.9
		c0.9,0,1.8-0.3,2.5-0.8L592.4,2123.5z M615,2113.5v11h-4.5v-10.4c0-3.4-1.7-5.1-4.6-5.1c-3.2,0-5.4,1.9-5.4,5.8v9.7h-4.5v-26.7h4.5
		v9.7c1.5-1.6,3.7-2.4,6.4-2.4C611.6,2105.1,615,2107.7,615,2113.5z M639,2116.4h-15.1c0.5,2.8,2.9,4.6,6.2,4.6
		c2.2,0,3.9-0.7,5.2-2.1l2.4,2.8c-1.7,2.1-4.4,3.1-7.7,3.1c-6.4,0-10.6-4.1-10.6-9.9c0-5.7,4.2-9.8,9.9-9.8c5.6,0,9.7,3.9,9.7,9.9
		C639,2115.4,639,2116,639,2116.4z M623.8,2113.4h10.9c-0.4-2.8-2.5-4.7-5.4-4.7C626.4,2108.7,624.3,2110.6,623.8,2113.4z
		 M651.7,2114.9c0-5.8,4.3-9.8,10.2-9.8c6,0,10.3,4.1,10.3,9.8c0,5.8-4.3,9.9-10.3,9.9C656,2124.8,651.7,2120.7,651.7,2114.9z
		 M667.6,2114.9c0-3.7-2.4-6-5.7-6c-3.2,0-5.7,2.3-5.7,6c0,3.7,2.4,6,5.7,6C665.2,2121,667.6,2118.6,667.6,2114.9z M695.1,2105.3
		v19.2h-4.3v-2.4c-1.4,1.8-3.7,2.7-6.2,2.7c-4.9,0-8.3-2.7-8.3-8.5v-11h4.5v10.4c0,3.5,1.7,5.1,4.5,5.1c3.1,0,5.3-1.9,5.3-5.8v-9.7
		H695.1z M712.6,2123.5c-1.1,0.9-2.7,1.3-4.3,1.3c-4.2,0-6.6-2.2-6.6-6.5v-9.3h-3.2v-3.6h3.2v-4.4h4.5v4.4h5.1v3.6h-5.1v9.1
		c0,1.9,0.9,2.9,2.7,2.9c0.9,0,1.8-0.3,2.5-0.8L712.6,2123.5z M733.6,2116.4h-15.1c0.5,2.8,2.9,4.6,6.2,4.6c2.2,0,3.9-0.7,5.2-2.1
		l2.4,2.8c-1.7,2.1-4.4,3.1-7.7,3.1c-6.4,0-10.6-4.1-10.6-9.9c0-5.7,4.2-9.8,9.9-9.8c5.6,0,9.7,3.9,9.7,9.9
		C733.7,2115.4,733.7,2116,733.6,2116.4z M718.5,2113.4h10.9c-0.4-2.8-2.5-4.7-5.4-4.7C721.1,2108.7,718.9,2110.6,718.5,2113.4z
		 M749.1,2105.1v4.3c-0.4-0.1-0.7-0.1-1-0.1c-3.4,0-5.6,2-5.6,5.9v9.3H738v-19.2h4.3v2.8C743.6,2106.1,745.9,2105.1,749.1,2105.1z
		 M783.5,2114.9c0,6-4.1,9.9-9.8,9.9c-2.4,0-4.6-0.8-6.2-2.6v9.3h-4.5v-26.2h4.3v2.5c1.5-1.8,3.7-2.7,6.4-2.7
		C779.4,2105.1,783.5,2109,783.5,2114.9z M778.9,2114.9c0-3.7-2.4-6-5.7-6c-3.2,0-5.7,2.3-5.7,6c0,3.7,2.5,6,5.7,6
		C776.5,2121,778.9,2118.6,778.9,2114.9z M786.2,2114.9c0-5.8,4.3-9.8,10.2-9.8c6,0,10.3,4.1,10.3,9.8c0,5.8-4.3,9.9-10.3,9.9
		C790.5,2124.8,786.2,2120.7,786.2,2114.9z M802.1,2114.9c0-3.7-2.4-6-5.7-6c-3.2,0-5.7,2.3-5.7,6c0,3.7,2.4,6,5.7,6
		C799.7,2121,802.1,2118.6,802.1,2114.9z M822.1,2105.1v4.3c-0.4-0.1-0.7-0.1-1-0.1c-3.4,0-5.6,2-5.6,5.9v9.3H811v-19.2h4.3v2.8
		C816.6,2106.1,818.9,2105.1,822.1,2105.1z M838.2,2123.5c-1.1,0.9-2.7,1.3-4.3,1.3c-4.2,0-6.6-2.2-6.6-6.5v-9.3h-3.2v-3.6h3.2v-4.4
		h4.5v4.4h5.1v3.6h-5.1v9.1c0,1.9,0.9,2.9,2.7,2.9c0.9,0,1.8-0.3,2.5-0.8L838.2,2123.5z M841.3,2099.5c0-1.5,1.2-2.7,2.9-2.7
		c1.7,0,2.9,1.1,2.9,2.6c0,1.6-1.2,2.8-2.9,2.8C842.5,2102.2,841.3,2101,841.3,2099.5z M841.9,2105.3h4.5v19.2h-4.5V2105.3z
		 M850.7,2114.9c0-5.8,4.3-9.8,10.2-9.8c6,0,10.3,4.1,10.3,9.8c0,5.8-4.3,9.9-10.3,9.9C855.1,2124.8,850.7,2120.7,850.7,2114.9z
		 M866.7,2114.9c0-3.7-2.4-6-5.7-6c-3.2,0-5.7,2.3-5.7,6c0,3.7,2.4,6,5.7,6C864.2,2121,866.7,2118.6,866.7,2114.9z M894.5,2113.5v11
		H890v-10.4c0-3.4-1.7-5.1-4.6-5.1c-3.2,0-5.4,1.9-5.4,5.8v9.7h-4.5v-19.2h4.3v2.5c1.5-1.8,3.8-2.7,6.6-2.7
		C891.1,2105.1,894.5,2107.7,894.5,2113.5z M908.6,2114.9c0-5.8,4.3-9.8,10.2-9.8c6,0,10.3,4.1,10.3,9.8c0,5.8-4.3,9.9-10.3,9.9
		C912.9,2124.8,908.6,2120.7,908.6,2114.9z M924.5,2114.9c0-3.7-2.4-6-5.7-6c-3.2,0-5.7,2.3-5.7,6c0,3.7,2.4,6,5.7,6
		C922.1,2121,924.5,2118.6,924.5,2114.9z M938.3,2104.3v1.2h5.3v3.6h-5.1v15.5H934v-15.5h-3.2v-3.6h3.2v-1.2c0-4,2.4-6.7,6.9-6.7
		c1.5,0,3.1,0.3,4.1,1l-1.3,3.4c-0.7-0.5-1.5-0.8-2.5-0.8C939.3,2101.2,938.3,2102.3,938.3,2104.3z M968.1,2123.5
		c-1.1,0.9-2.7,1.3-4.3,1.3c-4.2,0-6.6-2.2-6.6-6.5v-9.3H954v-3.6h3.2v-4.4h4.5v4.4h5.1v3.6h-5.1v9.1c0,1.9,0.9,2.9,2.7,2.9
		c0.9,0,1.8-0.3,2.5-0.8L968.1,2123.5z M990.8,2113.5v11h-4.5v-10.4c0-3.4-1.7-5.1-4.6-5.1c-3.2,0-5.4,1.9-5.4,5.8v9.7h-4.5v-26.7
		h4.5v9.7c1.5-1.6,3.7-2.4,6.4-2.4C987.4,2105.1,990.8,2107.7,990.8,2113.5z M1014.7,2116.4h-15.1c0.5,2.8,2.9,4.6,6.2,4.6
		c2.2,0,3.9-0.7,5.2-2.1l2.4,2.8c-1.7,2.1-4.4,3.1-7.7,3.1c-6.4,0-10.6-4.1-10.6-9.9c0-5.7,4.2-9.8,9.9-9.8c5.6,0,9.7,3.9,9.7,9.9
		C1014.8,2115.4,1014.7,2116,1014.7,2116.4z M999.6,2113.4h10.9c-0.4-2.8-2.5-4.7-5.4-4.7C1002.1,2108.7,1000,2110.6,999.6,2113.4z
		 M1018.5,2099.5c0-1.5,1.2-2.7,2.9-2.7c1.7,0,2.9,1.1,2.9,2.6c0,1.6-1.2,2.8-2.9,2.8C1019.7,2102.2,1018.5,2101,1018.5,2099.5z
		 M1019.1,2105.3h4.5v19.2h-4.5V2105.3z M1040.6,2105.1v4.3c-0.4-0.1-0.7-0.1-1-0.1c-3.4,0-5.6,2-5.6,5.9v9.3h-4.5v-19.2h4.3v2.8
		C1035.1,2106.1,1037.4,2105.1,1040.6,2105.1z M1084.5,2105.3l-7.1,19.2h-4.3l-5-13.2l-5,13.2h-4.3l-7.1-19.2h4.2l5.1,14.2l5.3-14.2
		h3.8l5.2,14.3l5.2-14.3H1084.5z M1087,2099.5c0-1.5,1.2-2.7,2.9-2.7c1.7,0,2.9,1.1,2.9,2.6c0,1.6-1.2,2.8-2.9,2.8
		C1088.2,2102.2,1087,2101,1087,2099.5z M1087.6,2105.3h4.5v19.2h-4.5V2105.3z M1117,2113.5v11h-4.5v-10.4c0-3.4-1.7-5.1-4.6-5.1
		c-3.2,0-5.4,1.9-5.4,5.8v9.7h-4.5v-19.2h4.3v2.5c1.5-1.8,3.8-2.7,6.6-2.7C1113.5,2105.1,1117,2107.7,1117,2113.5z M1141.9,2105.3
		v16.3c0,7-3.6,10.2-10.4,10.2c-3.6,0-7.2-0.9-9.4-2.7l2-3.4c1.7,1.4,4.4,2.3,7.1,2.3c4.2,0,6.1-1.9,6.1-5.8v-1
		c-1.6,1.7-3.9,2.6-6.4,2.6c-5.5,0-9.7-3.7-9.7-9.3s4.2-9.3,9.7-9.3c2.7,0,5.1,0.9,6.7,2.8v-2.6H1141.9z M1137.5,2114.4
		c0-3.2-2.4-5.4-5.8-5.4c-3.4,0-5.9,2.2-5.9,5.4c0,3.3,2.4,5.5,5.9,5.5C1135.1,2119.9,1137.5,2117.6,1137.5,2114.4z M1145.6,2122.6
		l1.7-3.4c1.7,1.1,4.3,1.9,6.7,1.9c2.8,0,4-0.8,4-2.1c0-3.7-11.9-0.2-11.9-7.9c0-3.6,3.3-6,8.5-6c2.6,0,5.5,0.6,7.2,1.7l-1.7,3.4
		c-1.8-1.1-3.7-1.4-5.5-1.4c-2.7,0-4,0.9-4,2.2c0,3.9,11.9,0.4,11.9,8c0,3.6-3.3,5.9-8.7,5.9
		C1150.6,2124.8,1147.4,2123.9,1145.6,2122.6z M1164.9,2121.8c0-1.8,1.3-3,3-3s3,1.2,3,3c0,1.7-1.3,3-3,3
		S1164.9,2123.5,1164.9,2121.8z M331.4,2185.8l-8.4,25.2h-5l-6.2-18.6l-6.3,18.6h-5l-8.4-25.2h4.9l6.3,19.2l6.5-19.2h4.3l6.4,19.3
		l6.4-19.3H331.4z M354.3,2199.9v11h-4.5v-10.4c0-3.4-1.7-5.1-4.6-5.1c-3.2,0-5.4,1.9-5.4,5.8v9.7h-4.5v-26.7h4.5v9.7
		c1.5-1.6,3.7-2.4,6.4-2.4C350.8,2191.5,354.3,2194.1,354.3,2199.9z M359.4,2185.9c0-1.5,1.2-2.7,2.9-2.7s2.9,1.1,2.9,2.6
		c0,1.6-1.2,2.8-2.9,2.8C360.6,2188.6,359.4,2187.4,359.4,2185.9z M360,2191.7h4.5v19.2H360V2191.7z M382,2209.9
		c-1.1,0.9-2.7,1.3-4.3,1.3c-4.2,0-6.6-2.2-6.6-6.5v-9.3h-3.2v-3.6h3.2v-4.4h4.5v4.4h5.1v3.6h-5.1v9.1c0,1.9,0.9,2.9,2.7,2.9
		c0.9,0,1.8-0.3,2.5-0.8L382,2209.9z M403,2202.8h-15.1c0.5,2.8,2.9,4.6,6.2,4.6c2.2,0,3.9-0.7,5.2-2.1l2.4,2.8
		c-1.7,2.1-4.4,3.1-7.7,3.1c-6.4,0-10.6-4.1-10.6-9.9c0-5.7,4.2-9.8,9.9-9.8c5.6,0,9.7,3.9,9.7,9.9
		C403.1,2201.8,403,2202.4,403,2202.8z M387.9,2199.8h10.9c-0.4-2.8-2.5-4.7-5.4-4.7C390.4,2195.1,388.3,2197,387.9,2199.8z
		 M440.9,2211l0-16.7l-8.3,13.8h-2.1l-8.3-13.6v16.5h-4.5v-25.2h3.9l10,16.7l9.8-16.7h3.9l0,25.2H440.9z M450.1,2201.3
		c0-5.8,4.3-9.8,10.2-9.8c6,0,10.3,4.1,10.3,9.8c0,5.8-4.3,9.9-10.3,9.9C454.5,2211.2,450.1,2207.1,450.1,2201.3z M466.1,2201.3
		c0-3.7-2.4-6-5.7-6c-3.2,0-5.7,2.3-5.7,6c0,3.7,2.4,6,5.7,6C463.6,2207.4,466.1,2205,466.1,2201.3z M486.1,2191.5v4.3
		c-0.4-0.1-0.7-0.1-1-0.1c-3.4,0-5.6,2-5.6,5.9v9.3h-4.5v-19.2h4.3v2.8C480.5,2192.5,482.9,2191.5,486.1,2191.5z M510.3,2201.3
		c0,6-4.1,9.9-9.8,9.9c-2.4,0-4.6-0.8-6.2-2.6v9.3h-4.5v-26.2h4.3v2.5c1.5-1.8,3.7-2.7,6.4-2.7
		C506.2,2191.5,510.3,2195.4,510.3,2201.3z M505.7,2201.3c0-3.7-2.4-6-5.7-6c-3.2,0-5.7,2.3-5.7,6c0,3.7,2.5,6,5.7,6
		C503.3,2207.4,505.7,2205,505.7,2201.3z M533.5,2199.9v11H529v-10.4c0-3.4-1.7-5.1-4.6-5.1c-3.2,0-5.4,1.9-5.4,5.8v9.7h-4.5v-26.7
		h4.5v9.7c1.5-1.6,3.7-2.4,6.4-2.4C530.1,2191.5,533.5,2194.1,533.5,2199.9z M537.8,2201.3c0-5.8,4.3-9.8,10.2-9.8
		c6,0,10.3,4.1,10.3,9.8c0,5.8-4.3,9.9-10.3,9.9C542.2,2211.2,537.8,2207.1,537.8,2201.3z M553.8,2201.3c0-3.7-2.4-6-5.7-6
		c-3.2,0-5.7,2.3-5.7,6c0,3.7,2.4,6,5.7,6C551.3,2207.4,553.8,2205,553.8,2201.3z M571,2201.3c0-5.8,4.3-9.8,10.4-9.8
		c3.7,0,6.7,1.5,8.2,4.5l-3.5,2c-1.2-1.8-2.9-2.7-4.8-2.7c-3.3,0-5.8,2.3-5.8,6c0,3.7,2.5,6,5.8,6c1.9,0,3.6-0.8,4.8-2.7l3.5,2
		c-1.5,2.9-4.5,4.5-8.2,4.5C575.3,2211.2,571,2207.1,571,2201.3z M609.6,2199.7v11.3h-4.2v-2.3c-1.1,1.7-3.2,2.6-6,2.6
		c-4.4,0-7.2-2.4-7.2-5.8c0-3.2,2.2-5.7,8-5.7h5v-0.3c0-2.6-1.6-4.2-4.8-4.2c-2.2,0-4.4,0.7-5.8,1.9l-1.8-3.3c2.1-1.6,5-2.4,8.1-2.4
		C606.4,2191.5,609.6,2194.1,609.6,2199.7z M605.1,2204.9v-2.2h-4.6c-3.1,0-3.9,1.2-3.9,2.6c0,1.6,1.4,2.7,3.7,2.7
		C602.4,2207.9,604.3,2206.9,605.1,2204.9z M626.9,2209.9c-1.1,0.9-2.7,1.3-4.3,1.3c-4.2,0-6.6-2.2-6.6-6.5v-9.3h-3.2v-3.6h3.2v-4.4
		h4.5v4.4h5.1v3.6h-5.1v9.1c0,1.9,0.9,2.9,2.7,2.9c0.9,0,1.8-0.3,2.5-0.8L626.9,2209.9z M648,2202.8h-15.1c0.5,2.8,2.9,4.6,6.2,4.6
		c2.2,0,3.9-0.7,5.2-2.1l2.4,2.8c-1.7,2.1-4.4,3.1-7.7,3.1c-6.4,0-10.6-4.1-10.6-9.9c0-5.7,4.2-9.8,9.9-9.8c5.6,0,9.7,3.9,9.7,9.9
		C648,2201.8,648,2202.4,648,2202.8z M632.8,2199.8h10.9c-0.4-2.8-2.5-4.7-5.4-4.7C635.4,2195.1,633.3,2197,632.8,2199.8z
		 M672.8,2201.3c0,6-4.1,9.9-9.8,9.9c-2.4,0-4.6-0.8-6.2-2.6v9.3h-4.5v-26.2h4.3v2.5c1.5-1.8,3.7-2.7,6.4-2.7
		C668.6,2191.5,672.8,2195.4,672.8,2201.3z M668.2,2201.3c0-3.7-2.4-6-5.7-6c-3.2,0-5.7,2.3-5.7,6c0,3.7,2.5,6,5.7,6
		C665.7,2207.4,668.2,2205,668.2,2201.3z M676.4,2185.9c0-1.5,1.2-2.7,2.9-2.7s2.9,1.1,2.9,2.6c0,1.6-1.2,2.8-2.9,2.8
		C677.7,2188.6,676.4,2187.4,676.4,2185.9z M677,2191.7h4.5v19.2H677V2191.7z M687.4,2184.2h4.5v26.7h-4.5V2184.2z M697.8,2184.2
		h4.5v26.7h-4.5V2184.2z M724.3,2199.7v11.3h-4.2v-2.3c-1.1,1.7-3.2,2.6-6,2.6c-4.4,0-7.2-2.4-7.2-5.8c0-3.2,2.2-5.7,8-5.7h5v-0.3
		c0-2.6-1.6-4.2-4.8-4.2c-2.2,0-4.4,0.7-5.8,1.9l-1.8-3.3c2.1-1.6,5-2.4,8.1-2.4C721.1,2191.5,724.3,2194.1,724.3,2199.7z
		 M719.8,2204.9v-2.2h-4.6c-3.1,0-3.9,1.2-3.9,2.6c0,1.6,1.4,2.7,3.7,2.7C717.2,2207.9,719.1,2206.9,719.8,2204.9z M741.2,2191.5
		v4.3c-0.4-0.1-0.7-0.1-1-0.1c-3.4,0-5.6,2-5.6,5.9v9.3h-4.5v-19.2h4.3v2.8C735.7,2192.5,738,2191.5,741.2,2191.5z M742.9,2209
		l1.7-3.4c1.7,1.1,4.3,1.9,6.7,1.9c2.8,0,4-0.8,4-2.1c0-3.7-11.9-0.2-11.9-7.9c0-3.6,3.3-6,8.5-6c2.6,0,5.5,0.6,7.2,1.7l-1.7,3.4
		c-1.8-1.1-3.7-1.4-5.5-1.4c-2.7,0-4,0.9-4,2.2c0,3.9,11.9,0.4,11.9,8c0,3.6-3.3,5.9-8.7,5.9C747.9,2211.2,744.6,2210.3,742.9,2209z
		 M778.6,2190.7v1.2h5.3v3.6h-5.1v15.5h-4.5v-15.5H771v-3.6h3.2v-1.2c0-4,2.4-6.7,6.9-6.7c1.5,0,3.1,0.3,4.1,1l-1.3,3.4
		c-0.7-0.5-1.5-0.8-2.5-0.8C779.5,2187.6,778.6,2188.7,778.6,2190.7z M804.6,2202.8h-15.1c0.5,2.8,2.9,4.6,6.2,4.6
		c2.2,0,3.9-0.7,5.2-2.1l2.4,2.8c-1.7,2.1-4.4,3.1-7.7,3.1c-6.4,0-10.6-4.1-10.6-9.9c0-5.7,4.2-9.8,9.9-9.8c5.6,0,9.7,3.9,9.7,9.9
		C804.7,2201.8,804.6,2202.4,804.6,2202.8z M789.5,2199.8h10.9c-0.4-2.8-2.5-4.7-5.4-4.7C792,2195.1,789.9,2197,789.5,2199.8z
		 M827,2202.8h-15.1c0.5,2.8,2.9,4.6,6.2,4.6c2.2,0,3.9-0.7,5.2-2.1l2.4,2.8c-1.7,2.1-4.4,3.1-7.7,3.1c-6.4,0-10.6-4.1-10.6-9.9
		c0-5.7,4.2-9.8,9.9-9.8c5.6,0,9.7,3.9,9.7,9.9C827,2201.8,827,2202.4,827,2202.8z M811.9,2199.8h10.9c-0.4-2.8-2.5-4.7-5.4-4.7
		C814.4,2195.1,812.3,2197,811.9,2199.8z M850.2,2184.2v26.7h-4.3v-2.5c-1.5,1.8-3.7,2.7-6.4,2.7c-5.6,0-9.7-3.9-9.7-9.9
		c0-6,4.1-9.8,9.7-9.8c2.5,0,4.7,0.8,6.2,2.6v-9.9H850.2z M845.8,2201.3c0-3.7-2.5-6-5.7-6c-3.2,0-5.7,2.3-5.7,6c0,3.7,2.5,6,5.7,6
		C843.3,2207.4,845.8,2205,845.8,2201.3z M864.5,2201.3c0-5.8,4.3-9.8,10.2-9.8c6,0,10.3,4.1,10.3,9.8c0,5.8-4.3,9.9-10.3,9.9
		C868.8,2211.2,864.5,2207.1,864.5,2201.3z M880.4,2201.3c0-3.7-2.4-6-5.7-6c-3.2,0-5.7,2.3-5.7,6c0,3.7,2.4,6,5.7,6
		C878,2207.4,880.4,2205,880.4,2201.3z M908.2,2199.9v11h-4.5v-10.4c0-3.4-1.7-5.1-4.6-5.1c-3.2,0-5.4,1.9-5.4,5.8v9.7h-4.5v-19.2
		h4.3v2.5c1.5-1.8,3.8-2.7,6.6-2.7C904.8,2191.5,908.2,2194.1,908.2,2199.9z M935.4,2209.9c-1.1,0.9-2.7,1.3-4.3,1.3
		c-4.2,0-6.6-2.2-6.6-6.5v-9.3h-3.2v-3.6h3.2v-4.4h4.5v4.4h5.1v3.6H929v9.1c0,1.9,0.9,2.9,2.7,2.9c0.9,0,1.8-0.3,2.5-0.8
		L935.4,2209.9z M958.1,2199.9v11h-4.5v-10.4c0-3.4-1.7-5.1-4.6-5.1c-3.2,0-5.4,1.9-5.4,5.8v9.7h-4.5v-26.7h4.5v9.7
		c1.5-1.6,3.7-2.4,6.4-2.4C954.6,2191.5,958.1,2194.1,958.1,2199.9z M982,2202.8h-15.1c0.5,2.8,2.9,4.6,6.2,4.6
		c2.2,0,3.9-0.7,5.2-2.1l2.4,2.8c-1.7,2.1-4.4,3.1-7.7,3.1c-6.4,0-10.6-4.1-10.6-9.9c0-5.7,4.2-9.8,9.9-9.8c5.6,0,9.7,3.9,9.7,9.9
		C982,2201.8,982,2202.4,982,2202.8z M966.8,2199.8h10.9c-0.4-2.8-2.5-4.7-5.4-4.7C969.4,2195.1,967.3,2197,966.8,2199.8z
		 M1017.8,2194.7c0,5.5-4.1,9-10.7,9h-5.7v7.3h-4.7v-25.2h10.4C1013.7,2185.8,1017.8,2189.1,1017.8,2194.7z M1013.1,2194.7
		c0-3.2-2.1-5-6.2-5h-5.5v10h5.5C1011,2199.7,1013.1,2197.9,1013.1,2194.7z M1020.4,2201.3c0-5.8,4.3-9.8,10.2-9.8
		c6,0,10.3,4.1,10.3,9.8c0,5.8-4.3,9.9-10.3,9.9C1024.7,2211.2,1020.4,2207.1,1020.4,2201.3z M1036.4,2201.3c0-3.7-2.4-6-5.7-6
		c-3.2,0-5.7,2.3-5.7,6c0,3.7,2.4,6,5.7,6C1033.9,2207.4,1036.4,2205,1036.4,2201.3z M1074.7,2191.7l-7.1,19.2h-4.3l-5-13.2l-5,13.2
		h-4.3l-7.1-19.2h4.2l5.1,14.2l5.3-14.2h3.8l5.2,14.3l5.2-14.3H1074.7z M1096,2184.2v26.7h-4.3v-2.5c-1.5,1.8-3.7,2.7-6.4,2.7
		c-5.6,0-9.7-3.9-9.7-9.9c0-6,4.1-9.8,9.7-9.8c2.5,0,4.7,0.8,6.2,2.6v-9.9H1096z M1091.6,2201.3c0-3.7-2.5-6-5.7-6
		c-3.2,0-5.7,2.3-5.7,6c0,3.7,2.5,6,5.7,6C1089.1,2207.4,1091.6,2205,1091.6,2201.3z M1119.9,2202.8h-15.1c0.5,2.8,2.9,4.6,6.2,4.6
		c2.2,0,3.9-0.7,5.2-2.1l2.4,2.8c-1.7,2.1-4.4,3.1-7.7,3.1c-6.4,0-10.6-4.1-10.6-9.9c0-5.7,4.2-9.8,9.9-9.8c5.6,0,9.7,3.9,9.7,9.9
		C1120,2201.8,1120,2202.4,1119.9,2202.8z M1104.8,2199.8h10.9c-0.4-2.8-2.5-4.7-5.4-4.7C1107.4,2195.1,1105.3,2197,1104.8,2199.8z
		 M1135.5,2191.5v4.3c-0.4-0.1-0.7-0.1-1-0.1c-3.4,0-5.6,2-5.6,5.9v9.3h-4.5v-19.2h4.3v2.8
		C1129.9,2192.5,1132.3,2191.5,1135.5,2191.5z M1170.9,2194.7c0,5.5-4.1,9-10.7,9h-5.7v7.3h-4.7v-25.2h10.4
		C1166.8,2185.8,1170.9,2189.1,1170.9,2194.7z M1166.2,2194.7c0-3.2-2.1-5-6.2-5h-5.5v10h5.5
		C1164.1,2199.7,1166.2,2197.9,1166.2,2194.7z M1194.1,2191.7v19.2h-4.3v-2.4c-1.4,1.8-3.7,2.7-6.2,2.7c-4.9,0-8.3-2.7-8.3-8.5v-11
		h4.5v10.4c0,3.5,1.7,5.1,4.5,5.1c3.1,0,5.3-1.9,5.3-5.8v-9.7H1194.1z M1205,2190.7v1.2h5.3v3.6h-5.1v15.5h-4.5v-15.5h-3.2v-3.6h3.2
		v-1.2c0-4,2.4-6.7,6.9-6.7c1.5,0,3.1,0.3,4.1,1l-1.3,3.4c-0.7-0.5-1.5-0.8-2.5-0.8C1206,2187.6,1205,2188.7,1205,2190.7z
		 M1218.3,2190.7v1.2h5.3v3.6h-5.1v15.5h-4.5v-15.5h-3.2v-3.6h3.2v-1.2c0-4,2.4-6.7,6.9-6.7c1.5,0,3.1,0.3,4.1,1l-1.3,3.4
		c-0.7-0.5-1.5-0.8-2.5-0.8C1219.3,2187.6,1218.3,2188.7,1218.3,2190.7z M420.7,2244.5c0,6-4.1,9.9-9.8,9.9c-2.4,0-4.6-0.8-6.2-2.6
		v9.3h-4.5v-26.2h4.3v2.5c1.5-1.8,3.7-2.7,6.4-2.7C416.6,2234.7,420.7,2238.6,420.7,2244.5z M416.2,2244.5c0-3.7-2.4-6-5.7-6
		s-5.7,2.3-5.7,6c0,3.7,2.5,6,5.7,6S416.2,2248.2,416.2,2244.5z M425,2227.4h4.5v26.7H425V2227.4z M451.5,2242.9v11.3h-4.2v-2.3
		c-1.1,1.7-3.2,2.6-6,2.6c-4.4,0-7.2-2.4-7.2-5.8c0-3.2,2.2-5.7,8-5.7h5v-0.3c0-2.6-1.6-4.2-4.8-4.2c-2.2,0-4.4,0.7-5.8,1.9
		l-1.8-3.3c2.1-1.6,5-2.4,8.1-2.4C448.3,2234.7,451.5,2237.3,451.5,2242.9z M447,2248.1v-2.2h-4.6c-3.1,0-3.9,1.2-3.9,2.6
		c0,1.6,1.4,2.7,3.7,2.7C444.4,2251.1,446.3,2250.1,447,2248.1z M476.2,2243.1v11h-4.5v-10.4c0-3.4-1.7-5.1-4.6-5.1
		c-3.2,0-5.4,1.9-5.4,5.8v9.7h-4.5v-19.2h4.3v2.5c1.5-1.8,3.8-2.7,6.6-2.7C472.8,2234.7,476.2,2237.3,476.2,2243.1z M493.5,2253.1
		c-1.1,0.9-2.7,1.3-4.3,1.3c-4.2,0-6.6-2.2-6.6-6.5v-9.3h-3.2v-3.6h3.2v-4.4h4.5v4.4h5.1v3.6h-5.1v9.1c0,1.9,0.9,2.9,2.7,2.9
		c0.9,0,1.8-0.3,2.5-0.8L493.5,2253.1z M495,2252.2l1.7-3.4c1.7,1.1,4.3,1.9,6.7,1.9c2.8,0,4-0.8,4-2.1c0-3.7-11.9-0.2-11.9-7.9
		c0-3.6,3.3-6,8.5-6c2.6,0,5.5,0.6,7.2,1.7l-1.7,3.4c-1.8-1.1-3.7-1.4-5.5-1.4c-2.7,0-4,0.9-4,2.2c0,3.9,11.9,0.4,11.9,8
		c0,3.6-3.3,5.9-8.7,5.9C499.9,2254.4,496.7,2253.5,495,2252.2z M520.1,2251.4c0,0.8-0.2,1.4-0.8,3.1l-1.8,5.1h-2.9l1.4-5.5
		c-1-0.4-1.7-1.4-1.7-2.7c0-1.8,1.3-3,2.9-3C518.9,2248.4,520.1,2249.7,520.1,2251.4z M564.4,2234.9l-7.1,19.2H553l-5-13.2l-5,13.2
		h-4.3l-7.1-19.2h4.2l5.1,14.2l5.3-14.2h3.8l5.2,14.3l5.2-14.3H564.4z M586.5,2243.1v11H582v-10.4c0-3.4-1.7-5.1-4.6-5.1
		c-3.2,0-5.4,1.9-5.4,5.8v9.7h-4.5v-26.7h4.5v9.7c1.5-1.6,3.7-2.4,6.4-2.4C583.1,2234.7,586.5,2237.3,586.5,2243.1z M591.6,2229.1
		c0-1.5,1.2-2.7,2.9-2.7c1.7,0,2.9,1.1,2.9,2.6c0,1.6-1.2,2.8-2.9,2.8C592.8,2231.8,591.6,2230.6,591.6,2229.1z M592.2,2234.9h4.5
		v19.2h-4.5V2234.9z M601,2244.5c0-5.8,4.3-9.8,10.4-9.8c3.7,0,6.7,1.5,8.2,4.5l-3.5,2c-1.2-1.8-2.9-2.7-4.8-2.7
		c-3.3,0-5.8,2.3-5.8,6c0,3.7,2.5,6,5.8,6c1.9,0,3.6-0.8,4.8-2.7l3.5,2c-1.5,2.9-4.5,4.5-8.2,4.5
		C605.3,2254.4,601,2250.3,601,2244.5z M642.3,2243.1v11h-4.5v-10.4c0-3.4-1.7-5.1-4.6-5.1c-3.2,0-5.4,1.9-5.4,5.8v9.7h-4.5v-26.7
		h4.5v9.7c1.5-1.6,3.7-2.4,6.4-2.4C638.9,2234.7,642.3,2237.3,642.3,2243.1z M656.4,2244.5c0-5.8,4.3-9.8,10.4-9.8
		c3.7,0,6.7,1.5,8.2,4.5l-3.5,2c-1.2-1.8-2.9-2.7-4.8-2.7c-3.3,0-5.8,2.3-5.8,6c0,3.7,2.5,6,5.8,6c1.9,0,3.6-0.8,4.8-2.7l3.5,2
		c-1.5,2.9-4.5,4.5-8.2,4.5C660.7,2254.4,656.4,2250.3,656.4,2244.5z M694.9,2242.9v11.3h-4.2v-2.3c-1.1,1.7-3.2,2.6-6,2.6
		c-4.4,0-7.2-2.4-7.2-5.8c0-3.2,2.2-5.7,8-5.7h5v-0.3c0-2.6-1.6-4.2-4.8-4.2c-2.2,0-4.4,0.7-5.8,1.9l-1.8-3.3c2.1-1.6,5-2.4,8.1-2.4
		C691.7,2234.7,694.9,2237.3,694.9,2242.9z M690.4,2248.1v-2.2h-4.6c-3.1,0-3.9,1.2-3.9,2.6c0,1.6,1.4,2.7,3.7,2.7
		C687.8,2251.1,689.7,2250.1,690.4,2248.1z M719.6,2243.1v11h-4.5v-10.4c0-3.4-1.7-5.1-4.6-5.1c-3.2,0-5.4,1.9-5.4,5.8v9.7h-4.5
		v-19.2h4.3v2.5c1.5-1.8,3.8-2.7,6.6-2.7C716.2,2234.7,719.6,2237.3,719.6,2243.1z M755.7,2244.5c0,6-4.1,9.9-9.8,9.9
		c-2.6,0-4.9-0.9-6.4-2.7v2.5h-4.3v-26.7h4.5v9.8c1.5-1.7,3.7-2.6,6.2-2.6C751.6,2234.7,755.7,2238.6,755.7,2244.5z M751.1,2244.5
		c0-3.7-2.4-6-5.7-6s-5.7,2.3-5.7,6c0,3.7,2.5,6,5.7,6S751.1,2248.2,751.1,2244.5z M778,2246h-15.1c0.5,2.8,2.9,4.6,6.2,4.6
		c2.2,0,3.9-0.7,5.2-2.1l2.4,2.8c-1.7,2.1-4.4,3.1-7.7,3.1c-6.4,0-10.6-4.1-10.6-9.9c0-5.7,4.2-9.8,9.9-9.8c5.6,0,9.7,3.9,9.7,9.9
		C778.1,2245,778,2245.6,778,2246z M762.9,2243h10.9c-0.4-2.8-2.5-4.7-5.4-4.7C765.4,2238.3,763.3,2240.2,762.9,2243z M797.3,2233.9
		v1.2h5.3v3.6h-5.1v15.5h-4.5v-15.5h-3.2v-3.6h3.2v-1.2c0-4,2.4-6.7,6.9-6.7c1.5,0,3.1,0.3,4.1,1l-1.3,3.4c-0.7-0.5-1.5-0.8-2.5-0.8
		C798.3,2230.8,797.3,2231.9,797.3,2233.9z M803.7,2244.5c0-5.8,4.3-9.8,10.2-9.8c6,0,10.3,4.1,10.3,9.8c0,5.8-4.3,9.9-10.3,9.9
		C808.1,2254.4,803.7,2250.3,803.7,2244.5z M819.7,2244.5c0-3.7-2.4-6-5.7-6c-3.2,0-5.7,2.3-5.7,6c0,3.7,2.4,6,5.7,6
		C817.2,2250.6,819.7,2248.2,819.7,2244.5z M847.2,2234.9v19.2h-4.3v-2.4c-1.4,1.8-3.7,2.7-6.2,2.7c-4.9,0-8.3-2.7-8.3-8.5v-11h4.5
		v10.4c0,3.5,1.7,5.1,4.5,5.1c3.1,0,5.3-1.9,5.3-5.8v-9.7H847.2z M872,2243.1v11h-4.5v-10.4c0-3.4-1.7-5.1-4.6-5.1
		c-3.2,0-5.4,1.9-5.4,5.8v9.7h-4.5v-19.2h4.3v2.5c1.5-1.8,3.8-2.7,6.6-2.7C868.6,2234.7,872,2237.3,872,2243.1z M896.7,2227.4v26.7
		h-4.3v-2.5c-1.5,1.8-3.7,2.7-6.4,2.7c-5.6,0-9.7-3.9-9.7-9.9c0-6,4.1-9.8,9.7-9.8c2.5,0,4.7,0.8,6.2,2.6v-9.9H896.7z M892.3,2244.5
		c0-3.7-2.5-6-5.7-6c-3.2,0-5.7,2.3-5.7,6c0,3.7,2.5,6,5.7,6C889.8,2250.6,892.3,2248.2,892.3,2244.5z M931.5,2243.1v11H927v-10.4
		c0-3.4-1.7-5.1-4.6-5.1c-3.2,0-5.4,1.9-5.4,5.8v9.7h-4.5v-26.7h4.5v9.7c1.5-1.6,3.7-2.4,6.4-2.4
		C928.1,2234.7,931.5,2237.3,931.5,2243.1z M955.4,2246h-15.1c0.5,2.8,2.9,4.6,6.2,4.6c2.2,0,3.9-0.7,5.2-2.1l2.4,2.8
		c-1.7,2.1-4.4,3.1-7.7,3.1c-6.4,0-10.6-4.1-10.6-9.9c0-5.7,4.2-9.8,9.9-9.8c5.6,0,9.7,3.9,9.7,9.9
		C955.5,2245,955.4,2245.6,955.4,2246z M940.3,2243h10.9c-0.4-2.8-2.5-4.7-5.4-4.7C942.8,2238.3,940.7,2240.2,940.3,2243z
		 M970.9,2234.7v4.3c-0.4-0.1-0.7-0.1-1-0.1c-3.4,0-5.6,2-5.6,5.9v9.3h-4.5v-19.2h4.3v2.8C965.4,2235.7,967.7,2234.7,970.9,2234.7z
		 M992.6,2246h-15.1c0.5,2.8,2.9,4.6,6.2,4.6c2.2,0,3.9-0.7,5.2-2.1l2.4,2.8c-1.7,2.1-4.4,3.1-7.7,3.1c-6.4,0-10.6-4.1-10.6-9.9
		c0-5.7,4.2-9.8,9.9-9.8c5.6,0,9.7,3.9,9.7,9.9C992.6,2245,992.6,2245.6,992.6,2246z M977.4,2243h10.9c-0.4-2.8-2.5-4.7-5.4-4.7
		C980,2238.3,977.9,2240.2,977.4,2243z M1001.3,2251.4c0,0.8-0.2,1.4-0.8,3.1l-1.8,5.1h-2.9l1.4-5.5c-1-0.4-1.7-1.4-1.7-2.7
		c0-1.8,1.3-3,2.9-3C1000.1,2248.4,1001.3,2249.7,1001.3,2251.4z M1015.1,2229.1c0-1.5,1.2-2.7,2.9-2.7c1.7,0,2.9,1.1,2.9,2.6
		c0,1.6-1.2,2.8-2.9,2.8C1016.3,2231.8,1015.1,2230.6,1015.1,2229.1z M1015.7,2234.9h4.5v19.2h-4.5V2234.9z M1045,2243.1v11h-4.5
		v-10.4c0-3.4-1.7-5.1-4.6-5.1c-3.2,0-5.4,1.9-5.4,5.8v9.7h-4.5v-19.2h4.3v2.5c1.5-1.8,3.8-2.7,6.6-2.7
		C1041.6,2234.7,1045,2237.3,1045,2243.1z M1072.2,2253.1c-1.1,0.9-2.7,1.3-4.3,1.3c-4.2,0-6.6-2.2-6.6-6.5v-9.3h-3.2v-3.6h3.2v-4.4
		h4.5v4.4h5.1v3.6h-5.1v9.1c0,1.9,0.9,2.9,2.7,2.9c0.9,0,1.8-0.3,2.5-0.8L1072.2,2253.1z M1094.9,2243.1v11h-4.5v-10.4
		c0-3.4-1.7-5.1-4.6-5.1c-3.2,0-5.4,1.9-5.4,5.8v9.7h-4.5v-26.7h4.5v9.7c1.5-1.6,3.7-2.4,6.4-2.4
		C1091.4,2234.7,1094.9,2237.3,1094.9,2243.1z M1118.8,2246h-15.1c0.5,2.8,2.9,4.6,6.2,4.6c2.2,0,3.9-0.7,5.2-2.1l2.4,2.8
		c-1.7,2.1-4.4,3.1-7.7,3.1c-6.4,0-10.6-4.1-10.6-9.9c0-5.7,4.2-9.8,9.9-9.8c5.6,0,9.7,3.9,9.7,9.9
		C1118.8,2245,1118.8,2245.6,1118.8,2246z M1103.7,2243h10.9c-0.4-2.8-2.5-4.7-5.4-4.7C1106.2,2238.3,1104.1,2240.2,1103.7,2243z
		 M334.3,2281.2c1.8,0.1,5.4,0.1,7.8-0.1c1.4-0.1,2.4,0.8,2.4,1.9c0,1.2,0.3,1.8,0.3,3c0,1.4,0.4,3.3,0.6,4.5
		c0.2,1.2,0.3,1.7,0.9,1.8c0.9,0.2,1,0,1.2-2.1c0.1-1.2,1.1-5.2,1.5-6.5c0.4-1.3,2.3-2.5,3.6-2.4c1.3,0.1,5.5-0.1,6.9-0.2
		s3.1,1,3.6,2.3c1.2,2.8,1.4,6.1,1.5,6.8c0.3,2.1,0.5,2.4,1.2,2.1c0.6-0.2,0.8-0.6,0.9-1.5c0.3-1.8,0.6-3.6,0.6-5.4
		c0-0.9,0.3-1.5,0.3-2.4s0.6-1.7,2.1-1.8c1.2-0.1,6.1,0.1,8.1-0.2c2-0.2,7.5,0.3,8.7,0.2c1.5-0.2,2.7,1.1,2.7,2.1
		c0,1.2-0.6,3.3-0.6,5.1c0,2.4-0.6,10.7-1.2,15c-0.7,4.8-1.5,13.2-1.8,15.3c-0.3,2.1-0.6,3-0.9,4.8c-0.2,1.2-1.5,2.9-3,2.9
		c-1.8,0-6.3-0.5-8.7-0.2c-2.3,0.3-8.4,0.1-9.9,0.2c-1.2,0.1-2.2-1-2.4-1.9c-0.3-1.2-0.8-2.2-1.2-3.1c-1-2.6-1.5-4.4-1.7-5.5
		c-0.1-0.8-0.4-1.3-1-1.3c-0.9,0-0.9,0.3-1.2,1.5c-0.3,1.2-0.8,3.5-1.4,4.9c-0.7,1.9-1,2.3-1.3,3.5c-0.3,1.2-1.2,1.8-2.4,1.9
		c-1.5,0.1-7.2-0.1-9-0.1c-2.1,0-9.9,0-11.4,0.1s-2.4-1.6-2.4-2.5c0-1.2-0.5-1.5-0.6-3.6c-0.3-4.5-1-8.1-1.5-12
		c-1.2-10.2-1.5-16.5-1.8-19.8c-0.2-2.4-0.6-3.6-0.6-5.1s1.2-2,3-2.1C328,2281.1,333.1,2281.1,334.3,2281.2z M402.5,2281
		c1.9-0.1,8.5-0.2,11.2,0.1c2.7,0.3,2.6,1.5,2.8,3.7c0.2,2.4,0.4,10.5,0.7,14.4c0.3,3.9,0.4,22.4,0.3,24.4c-0.1,2-1.3,2.5-3.4,2.6
		c-2,0.1-9.3-0.1-10.7,0.1c-1.4,0.2-5.8-0.2-8.7,0c-2.9,0.2-3.3-2.6-3.4-5.9c-0.1-3.1-0.2-14.7-0.1-18.5c0.1-4,0.1-12.6,0.1-16.6
		c-0.1-3.4,1.4-4,4.4-4.2C398,2281,400.6,2281.2,402.5,2281z M440.3,2281.2c3.8,0.1,4.5-0.1,9,8.9c0.6,1.3,1,1.7,1.7,1.3
		c0.8-0.4,0.7-0.8,0.7-1.6c0-0.6-0.7-3.3-0.7-6.3c0-1.2,1.8-2.6,3.6-2.6c2.3,0,10.2,0.3,14,0.2c3.4-0.1,3.9,3,3.7,5.7
		c-0.2,2.7-0.1,17.1,0.1,19.8c0.2,2.7,0.2,12.7-0.1,15.6c-0.3,2.9-2.1,3.8-3.6,3.9c-7.2,0.3-12.1-0.1-14.1-0.1
		c-1.8,0.1-3.2-0.2-3.9-1.1c-2.8-3.8-3.3-4-4.9-7.1c-0.6-1.2-1.4-1.4-1.9-1.2c-1,0.5-0.8,0.9-0.6,3c0.4,3.1,0.2,3.1,0.2,4.1
		c0,0.9-1.2,2.3-2.4,2.4c-2.4,0.1-13.2,0-16.2,0.2c-2.7,0.2-3.5-3.2-3.6-5.1c-0.1-2-0.4-5.6-0.2-8.3c0.2-2.8,0.2-12.6,0.1-16
		c-0.1-3.2,0.1-8.8,0.2-11.6c0.1-2.7,2.1-4.4,3.9-4.3C427.1,2281.2,432.8,2281,440.3,2281.2z M501.5,2280.9c3-0.2,13.8,0.3,17.1,0.2
		c4.8-0.1,7.4,3,7.4,10.5c0,1.8,0.4,2.7,0.5,3.9s-0.9,1.8-2.2,2.1c-2.7,0.6-7.9,2.3-9.6,2.7c-2.4,0.6-6.5,2.4-8.3,2.4
		c-1,0-1.3-0.3-1.6-1.2c-0.2-0.6-0.6-0.6-1.5-0.6c-0.7,0-2,0.2-3.3,0.2c-0.9,0-1.4,0.4-1.4,4c0,2.1,0.5,2.7,2.6,2.7
		c3.9,0,4.1-0.7,4-1.8c-0.1-1,0.5-1.8,1.7-1.8c2.7,0,4.8-0.4,8.4-0.3c3.3,0.1,6.3,0.4,9,0c1.8-0.2,2.7,0.9,2.7,2.7
		c0,1.3-0.5,2.1-0.5,3.3c0,2.1,0.4,6.2,0.1,11.5c-0.2,3.4-2.7,4.6-4.5,4.7c-2.2,0.2-11.3-0.1-13.4,0.1c-1.2,0.1-2.4-0.7-2.7-1.6
		c-0.3-0.9-2.1-0.9-7.2,0.6c-3.8,1.1-5.5,1-6.6,0.9c-3-0.1-5.7,0.2-9.9,0c-4.1-0.2-5.6-3.3-5.6-6c0-6-0.4-15.3-0.4-18
		s0.4-12.3,0.4-15c0-2.4,2.6-5.9,5.6-6C486.8,2281,497.3,2281.2,501.5,2280.9z M559.1,2280.9c1.8,0,5.4,0.3,8,0.2
		c2.8-0.1,5.8,1.9,5.8,3.7s0.2,3.3,0.3,5.4c0.1,2.4-0.1,6,0,7.5c0.1,1.5-1.5,2.8-2.4,2.8c-0.9,0-7.2-1.6-9-2.5
		c-1-0.5-1.8-0.5-2.2,0.1c-0.4,0.7-0.3,1.2,0.7,1.7c2.1,1.2,8.7,6.3,10.4,7.3c1.4,0.9,2.6,3.5,2.5,5c-0.1,1.4-0.2,8.1-0.2,9.3
		c-0.1,2.7-2.5,4.9-6.1,4.9c-2.4,0-7.5-0.2-10.4,0c-0.4,0.1-2.5,0.1-4.7,0.1c-2.3-0.1-5-0.1-6.8-0.2c-3.9-0.2-9.6,0-11.1,0.1
		c-1.8,0.1-4.2-1-4.2-2.8c0-1.4-0.4-4.1-0.3-6.3c0.1-2.2,0.4-5.4,0.2-7.7c-0.1-1.1,1.4-2.2,2.4-2.2s6.5,1.6,7.3,2
		c1.4,0.6,2,0.6,2.3,0c0.3-0.5,0.4-1.1-1-2.2c-3.4-2.6-5.6-5.5-7.7-7.1c-3.3-2.6-3.6-4.4-3.6-9.2c0-1.5,0.4-3.3,0.4-5.4
		c0-2.1,3-4.3,5.4-4.2C537.1,2281.3,544.1,2281.1,559.1,2280.9z M612.2,2280.9c10.8,0,16.5,0.3,20.4,0.3c3,0,5.4,3,5.4,6.6
		c0,6.9,0.6,14.4,0.6,16.2c0,4.5-0.3,5.7-0.3,15.9c0,3-0.9,6.1-4.2,6.3c-5.2,0.4-18.6-0.1-21.6,0.1c-4.8,0.4-16.7-0.1-18.2-0.1
		c-3.4,0-5.7-2.4-5.7-5.4c0-17.6-0.1-19.4-0.1-21.6c0-3,0.4-7.5,0.4-10.2c0-4.8,2.3-7.8,4.7-7.8
		C603.5,2281.2,608.3,2280.9,612.2,2280.9z M612.2,2307.8c0.9,0,1.5-0.2,4-0.2c1,0,1.1-0.5,1.1-1.3c0-1.4,0.1-2.5,0.1-3.4
		c0-1-0.4-1.6-2-1.6s-2.9,0.1-3.5,0.2c-0.7,0.1-1.1,0.6-1.1,2.1c0,1,0.1,1.8,0.1,2.7C611,2307.2,611.5,2307.8,612.2,2307.8z
		 M664.4,2280.9c1.5,0,6.6,0.2,9.3,0.2c2.5,0,6,2.1,6,4.5c0,0.9,0.6,5.4,0.3,8.7c-0.1,0.9,0.2,1.8,0.2,2.4c0,1.2-1.1,2.6-3.2,2.6
		c-1.2,0-4.2-0.2-6-0.2c-1.5,0-2.4,0.1-3.3,0.1s-1.6,0.1-1.6,1.5c0,1.3,1,1.3,1.9,1.3c1.2,0,3-0.2,5.7-0.1c1.3,0.1,3-0.1,4-0.1
		c1.4,0,2.9,1.5,2.9,3c0,1.2-0.3,2.7-0.3,12.3c0,1.2-1.2,3-4.3,3c-2.9,0-5.3-0.3-7.1-0.3c-2.1,0-1.5,1.2-1.5,3.6
		c0,1.4-1.5,2.9-3.9,2.7c-3-0.2-12.3,0.3-16.5,0c-2.7-0.2-4.5-1.8-4.5-6c0-9-0.4-17.1-0.4-20.7c0-3.6,0.4-8.7,0.5-12.7
		c0.2-3.9,2.5-5.6,5.2-5.6C651.2,2281.2,660.5,2280.9,664.4,2280.9z M700.6,2308.2c0.1-0.9,0.7-2.5,0.7-3s-0.5-1.1-1.1-1.1
		c-1.5,0-3.6,1.4-5.1,1.7c-1.3,0.2-2.9,1.4-5.2,1.4c-1.1,0-2-1-2-2.4c0-6.9,0.8-14.1,0.8-16.2c0-0.9,0.6-4.8,0.7-5.7
		c0.1-0.8,1.1-2,2.7-2c1.8,0,8,0.2,9.8,0.2c0.9,0,3.5-0.1,6-0.1c2.5,0,4.9-0.1,5.5-0.1h4c0.8,0,1.7,0.1,2.5,0.1
		c0.7,0.1,1.4,0.1,1.8,0.1c1.7,0,8.9-0.2,10.7-0.2c1.7,0,2.9,1.4,2.9,2.6c0,2.1,0.9,6.6,0.9,10.8c0,1.2,0.5,6.2,0.5,10.6
		c0,0.9-1.3,2.3-2.4,2.3c-2.1,0-3.6-0.9-5.1-1.2c-1.9-0.4-3.9-2-5.1-2c-0.6,0-1.1,0.5-1.1,1.1c0,0.9,0.7,2.1,0.8,3.1
		c0.1,1.1,1.7,8.1,1.9,10.1c0.2,2.3,1.2,4.3,1.2,5.6c0,0.9-1.1,2.1-2.2,2.2c-4.4,0.3-11-0.2-12.5-0.1c-1.2,0.1-7.8,0.4-12.2,0.1
		c-1-0.1-2-1.1-2-2.2c0-1.1,0.8-3.1,1-5.3C698.9,2316.6,700.5,2309.1,700.6,2308.2z M751.3,2281.2c2,0,5.6-0.2,7.7,0
		c2,0.2,2.9,1.8,2.9,3.9c0,0.9-0.3,2.3-0.3,5.1c0,1.8,0.3,2.3,2.7,2.3c2.7,0,3-0.5,3-2.8c0-0.8-0.2-4.9-0.2-6.1
		c0-1.5,1.3-2.5,3.6-2.6c2.6-0.1,11.8,0.2,15.2,0.2c3.4-0.1,3.7,1.5,4.1,4.5c0.3,2,0.1,17.1,0.4,18.6c0.4,2.7-0.1,15.2,0.1,16.8
		c0.3,4.1-1.2,5.1-4.2,5.2c-2.5,0.1-6.3,0-7.3-0.1c-1-0.1-8.1,0.1-9.5,0.1c-1.5,0-2.5-1.6-2.5-2.8c0-1.2,0.1-4.8,0.1-6
		c0-2.1-1.5-2.3-3.9-2.3c-1.2,0-1.9,0.5-1.9,2.7c0,0.9,0.1,3.7,0.1,5.9c0,1.8-1.8,2.6-4.2,2.6c-0.6,0-2.2-0.1-3.8-0.1
		c-1.6-0.1-3.2-0.1-3.9-0.1c-1.3,0-5.9,0.1-7.1,0.1c-3-0.1-3.5-1.9-3.5-5.8c0-1.9-0.5-15.9-0.3-18.4c0.2-2.3,0.3-13.6,0.2-16.7
		c-0.1-3.5,2-4.2,5-4.3C745,2281,749.3,2281.2,751.3,2281.2z M829.7,2281.2c3,0,6.4,1.8,6.4,8.7c0,0.9,0.4,2.1,0.4,3
		c0,1.2-1,2.3-1.9,2.3c-6.6,0-7.2,0.2-8.1,0.2c-0.9,0-5.6,0.1-6.3,0.1s-1.2,0.5-1.2,1.4c0,0.8,0.8,1.2,1.8,1.2c1,0,5.3,0.1,6,0.1
		c0.7,0,4.7-0.2,5.5-0.2c1.4,0,3.5,0.2,3.5,2.3c0,0.7,0.2,1.6,0.2,2.3s-0.1,2.6-0.1,3.7c0,2.6-1.3,3.4-5.8,3.4
		c-6.6,0-7.8,0.4-10.2,0.4c-0.9,0-1.1,0.8-1.1,1.5c0,0.6,0.8,1.1,1.4,1.1c0.9,0,4.3-0.2,6.4-0.2c1.5,0.1,5.4,0.2,7.8,0
		c1.4-0.1,2.3,1.3,2.3,2.3c0,0.9-0.3,1.8-0.3,3c0,4.8-0.1,8.4-5.1,8.4c-2.7,0-12.3,0.2-14.5,0.2s-13.4-0.2-16.7-0.2
		c-3.4,0-5.8-2.6-5.8-5.4c0-2.8-0.3-14.2-0.3-17.5s0.5-10.1,0.5-14.6c0-4.5,2.3-7.5,4.7-7.5c2.4,0,10.5-0.2,13.2-0.2
		C815.9,2280.9,821,2281.2,829.7,2281.2z M859.3,2308.2c0.1-0.9,0.7-2.5,0.7-3s-0.5-1.1-1.1-1.1c-1.5,0-3.6,1.4-5.1,1.7
		c-1.3,0.2-2.9,1.4-5.2,1.4c-1.1,0-2-1-2-2.4c0-6.9,0.8-14.1,0.8-16.2c0-0.9,0.6-4.8,0.7-5.7c0.1-0.8,1.1-2,2.7-2
		c1.8,0,8,0.2,9.8,0.2c0.9,0,3.5-0.1,6-0.1c2.5,0,4.9-0.1,5.5-0.1h4c0.8,0,1.7,0.1,2.5,0.1c0.7,0.1,1.4,0.1,1.8,0.1
		c1.7,0,8.9-0.2,10.7-0.2c1.7,0,2.9,1.4,2.9,2.6c0,2.1,0.9,6.6,0.9,10.8c0,1.2,0.5,6.2,0.5,10.6c0,0.9-1.3,2.3-2.4,2.3
		c-2.1,0-3.6-0.9-5.1-1.2c-1.9-0.4-3.9-2-5.1-2c-0.6,0-1.1,0.5-1.1,1.1c0,0.9,0.7,2.1,0.8,3.1c0.1,1.1,1.7,8.1,1.9,10.1
		c0.2,2.3,1.2,4.3,1.2,5.6c0,0.9-1.1,2.1-2.2,2.2c-4.4,0.3-11-0.2-12.5-0.1c-1.2,0.1-7.8,0.4-12.2,0.1c-1-0.1-2-1.1-2-2.2
		c0-1.1,0.8-3.1,1-5.3C857.6,2316.6,859.2,2309.1,859.3,2308.2z M920.3,2281c8.4,0.2,17.8-0.1,21,0.1c3.2,0.2,5.6,2.5,5.5,7.4
		c-0.1,2,0.2,10.3,0.4,11.9c0.2,2.4-0.2,4.5-1.9,5.7c-1.9,1.4-3,2-3,3.3c0,1.2,1.1,0.8,2,3c2.5,6.2,5.1,7.8,5.1,11.4
		c0,1.2-0.9,2.5-2.6,2.5c-0.7,0-2.1-0.1-3.7-0.1c-1.6,0-3.4-0.1-4.7-0.1c-1.1,0-2.9,0.1-4.6,0.1c-1.8,0.1-3.5,0.1-4.7,0.1
		c-2.2,0-3.1-0.6-3.2-1.6c-0.2-1.7-0.8-2.2-2.6-5.1c-0.7-1-1-1.4-2-1c-0.5,0.2-0.9,0.4-0.9,1.3c0,2.2,0.4,2.4,0.4,3.9
		s-0.7,2.5-2,2.5c-0.7,0-2.9-0.1-5.2-0.1c-2.3,0-4.6-0.1-5.3-0.1c-1.4,0-5.9,0.1-7.4,0.1c-1.4,0-3.8-1.1-3.8-2.8
		c0-1.1,0.2-3.1,0.2-4.2s-0.1-15.5-0.1-17.6c0-2.1,0.4-11.9,0.4-15.3c0-3.4,2.9-5.2,5-5.2C905.2,2281.2,917,2280.9,920.3,2281z
		 M919.5,2301.5c-0.1,0.8-0.1,1.6,0.1,2.5c0.1,0.9,0.5,1.3,1.3,1.3c1.8-0.1,2.8-1,3.7-1.3c1-0.4,1.3-0.6,1.3-2.3
		c0-0.6-0.4-1.1-1.1-1.1c-1.1,0-2-0.1-3.6-0.1C920.4,2300.5,919.6,2300.7,919.5,2301.5z M974.9,2280.9c10.8,0,16.5,0.3,20.4,0.3
		c3,0,5.4,3,5.4,6.6c0,6.9,0.6,14.4,0.6,16.2c0,4.5-0.3,5.7-0.3,15.9c0,3-0.9,6.1-4.2,6.3c-5.2,0.4-18.6-0.1-21.6,0.1
		c-4.8,0.4-16.7-0.1-18.2-0.1c-3.4,0-5.7-2.4-5.7-5.4c0-17.6-0.1-19.4-0.1-21.6c0-3,0.4-7.5,0.4-10.2c0-4.8,2.3-7.8,4.7-7.8
		C966.2,2281.2,971,2280.9,974.9,2280.9z M974.9,2307.8c0.9,0,1.5-0.2,4-0.2c1,0,1.1-0.5,1.1-1.3c0-1.4,0.1-2.5,0.1-3.4
		c0-1-0.4-1.6-2-1.6c-1.6,0-2.9,0.1-3.5,0.2c-0.7,0.1-1.1,0.6-1.1,2.1c0,1,0.1,1.8,0.1,2.7C973.7,2307.2,974.2,2307.8,974.9,2307.8z
		 M1028.6,2281.1c3.7-0.4,16.9,0.1,19.6,0.1c2.7-0.1,5.8,3.3,6.2,5.7c0.3,2.2,0.1,10.5,0.4,12.9c0.4,2.2-0.2,7.8-0.3,9.6
		c-0.1,1.5-1.8,3.9-3,4.5c-3,1.5-8.7,3.3-11.7,3.6c-2.7,0.2-7.1,1.6-8.4,1.8c-1.5,0.3-1.8,0.9-1.8,1.8c0,0.6,0.6,1.5,0.6,2.7
		c0,1.2-1.2,2.3-3,2.4c-2.4,0.2-9.3,0-12,0.2c-2.1,0.1-4.8-0.2-6.9-0.2c-2.1,0.1-3-1.4-3-3.3s-0.6-18.1-0.4-20.7
		c0.2-2.7,0.4-9.2,0.2-13.8c-0.2-4.5,2-7.1,5.3-7.2S1024.9,2281.5,1028.6,2281.1z M1028.9,2304.4c1.2,0,2.1-0.6,3-0.8
		c1.8-0.4,1.9-1.4,1.9-2.6c0-1.2-0.7-2-1.9-2c-0.8,0-2.1,0.4-3,0.4c-0.9,0-1.5,0.6-1.5,1.3
		C1027.4,2303.4,1027.7,2304.4,1028.9,2304.4z M1068.8,2281c1.9-0.1,8.5-0.2,11.2,0.1c2.7,0.3,2.6,1.5,2.8,3.7
		c0.2,2.4,0.4,10.5,0.7,14.4c0.3,3.9,0.4,22.4,0.3,24.4s-1.3,2.5-3.4,2.6c-2,0.1-9.3-0.1-10.7,0.1c-1.4,0.2-5.8-0.2-8.7,0
		c-2.9,0.2-3.3-2.6-3.4-5.9c-0.1-3.1-0.2-14.7-0.1-18.5c0.1-4,0.1-12.6,0.1-16.6c-0.1-3.4,1.4-4,4.4-4.2
		C1064.3,2281,1066.9,2281.2,1068.8,2281z M1111.1,2280.9c3.3-0.1,15.6,0.4,19.5,0.3c4.2-0.1,6.6,3.3,6.6,11.4
		c0,1.5,0.3,2.1,0.3,3.3c0,0.9-0.5,1.6-1.2,1.8c-2.1,0.5-9.9,3.1-11.7,3.6c-2.1,0.6-5.1,2.1-6.9,2.1c-0.9,0-1.4-0.3-1.4-1
		c0-0.5-0.7-1.1-1.3-1.1c-1.5,0-3.2,0.2-3.9,0.2c-0.9,0-1.4,1.1-1.4,3.4c0,2.7,0.8,3,2,3c0.9,0,2.1,0.1,3,0.1c0.9,0,1.6-0.7,1.6-1.3
		c0-0.8,0.5-1.2,1.4-1.2c2.4,0,8.4,1.5,10.5,1.8c1.6,0.2,6,1.1,7.5,1.2c1.5,0.1,2.1,0.9,2.1,2.4c0,0.9-0.3,1.8-0.3,4.2
		c0,7.5-0.6,11.2-4.8,11.1c-3-0.1-16.8,0.2-21,0.2c-3.3,0.1-14.7-0.2-18.6-0.2c-3.4,0-5.5-3-5.5-5.4c0-2.7-0.3-14.1-0.3-17.1
		s0.5-11.7,0.5-15.3c0-3.9,2-7.2,5-7.2S1108.4,2281,1111.1,2280.9z M1170.5,2280.9c1.8,0,5.4,0.3,8,0.2c2.8-0.1,5.8,1.9,5.8,3.7
		s0.2,3.3,0.3,5.4c0.1,2.4-0.1,6,0,7.5c0.1,1.5-1.5,2.8-2.4,2.8s-7.2-1.6-9-2.5c-1-0.5-1.8-0.5-2.2,0.1c-0.4,0.7-0.3,1.2,0.7,1.7
		c2.1,1.2,8.7,6.3,10.4,7.3c1.4,0.9,2.6,3.5,2.5,5c-0.1,1.4-0.2,8.1-0.2,9.3c-0.1,2.7-2.5,4.9-6.1,4.9c-2.4,0-7.5-0.2-10.4,0
		c-0.4,0.1-2.5,0.1-4.7,0.1c-2.3-0.1-5-0.1-6.8-0.2c-3.9-0.2-9.6,0-11.1,0.1c-1.8,0.1-4.2-1-4.2-2.8c0-1.4-0.4-4.1-0.3-6.3
		c0.1-2.2,0.4-5.4,0.2-7.7c-0.1-1.1,1.4-2.2,2.4-2.2s6.5,1.6,7.3,2c1.4,0.6,2,0.6,2.3,0c0.3-0.5,0.4-1.1-1-2.2
		c-3.4-2.6-5.6-5.5-7.7-7.1c-3.3-2.6-3.6-4.4-3.6-9.2c0-1.5,0.4-3.3,0.4-5.4c0-2.1,3-4.3,5.4-4.2
		C1148.5,2281.3,1155.5,2281.1,1170.5,2280.9z M395.3,2400c0-7.5,5.8-13,13.5-13c4.1,0,7.6,1.5,10,4.2l-3,2.8c-1.8-2-4.1-3-6.7-3
		c-5.2,0-9,3.7-9,8.9s3.8,8.9,9,8.9c2.6,0,4.9-1,6.7-3l3,2.9c-2.3,2.7-5.9,4.2-10,4.2C401.1,2412.9,395.3,2407.5,395.3,2400z
		 M441.8,2401.5v11h-4.5v-10.4c0-3.4-1.7-5.1-4.6-5.1c-3.2,0-5.4,1.9-5.4,5.8v9.7h-4.5v-26.7h4.5v9.7c1.5-1.6,3.7-2.4,6.4-2.4
		C438.4,2393.1,441.8,2395.7,441.8,2401.5z M465.7,2404.4h-15.1c0.5,2.8,2.9,4.6,6.2,4.6c2.2,0,3.9-0.7,5.2-2.1l2.4,2.8
		c-1.7,2.1-4.4,3.1-7.7,3.1c-6.4,0-10.6-4.1-10.6-9.9c0-5.7,4.2-9.8,9.9-9.8c5.6,0,9.7,3.9,9.7,9.9
		C465.8,2403.4,465.7,2404,465.7,2404.4z M450.6,2401.4h10.9c-0.4-2.8-2.5-4.7-5.4-4.7C453.1,2396.7,451,2398.6,450.6,2401.4z
		 M468.5,2402.9c0-5.8,4.3-9.8,10.4-9.8c3.7,0,6.7,1.5,8.2,4.5l-3.5,2c-1.2-1.8-2.9-2.7-4.8-2.7c-3.3,0-5.8,2.3-5.8,6
		c0,3.7,2.5,6,5.8,6c1.9,0,3.6-0.8,4.8-2.7l3.5,2c-1.5,2.9-4.5,4.5-8.2,4.5C472.8,2412.8,468.5,2408.7,468.5,2402.9z M498.7,2404.3
		l-3.3,3.2v5.1h-4.5v-26.7h4.5v16.1l9.3-8.6h5.4l-8,8.1l8.8,11.2h-5.5L498.7,2404.3z M544.1,2402.9c0,6-4.1,9.9-9.8,9.9
		c-2.6,0-4.9-0.9-6.4-2.7v2.5h-4.3v-26.7h4.5v9.8c1.5-1.7,3.7-2.6,6.2-2.6C539.9,2393.1,544.1,2397,544.1,2402.9z M539.5,2402.9
		c0-3.7-2.4-6-5.7-6c-3.2,0-5.7,2.3-5.7,6c0,3.7,2.5,6,5.7,6C537.1,2409,539.5,2406.6,539.5,2402.9z M564.2,2401.3v11.3H560v-2.3
		c-1.1,1.7-3.2,2.6-6,2.6c-4.4,0-7.2-2.4-7.2-5.8c0-3.2,2.2-5.7,8-5.7h5v-0.3c0-2.6-1.6-4.2-4.8-4.2c-2.2,0-4.4,0.7-5.8,1.9
		l-1.8-3.3c2.1-1.6,5-2.4,8.1-2.4C561,2393.1,564.2,2395.7,564.2,2401.3z M559.7,2406.5v-2.2h-4.6c-3.1,0-3.9,1.2-3.9,2.6
		c0,1.6,1.4,2.7,3.7,2.7C557,2409.5,558.9,2408.5,559.7,2406.5z M568.6,2402.9c0-5.8,4.3-9.8,10.4-9.8c3.7,0,6.7,1.5,8.2,4.5l-3.5,2
		c-1.2-1.8-2.9-2.7-4.8-2.7c-3.3,0-5.8,2.3-5.8,6c0,3.7,2.5,6,5.8,6c1.9,0,3.6-0.8,4.8-2.7l3.5,2c-1.5,2.9-4.5,4.5-8.2,4.5
		C572.9,2412.8,568.6,2408.7,568.6,2402.9z M598.7,2404.3l-3.3,3.2v5.1h-4.5v-26.7h4.5v16.1l9.3-8.6h5.4l-8,8.1l8.8,11.2h-5.5
		L598.7,2404.3z M622.1,2402.9c0-5.8,4.3-9.8,10.2-9.8c6,0,10.3,4.1,10.3,9.8c0,5.8-4.3,9.9-10.3,9.9
		C626.4,2412.8,622.1,2408.7,622.1,2402.9z M638.1,2402.9c0-3.7-2.4-6-5.7-6c-3.2,0-5.7,2.3-5.7,6c0,3.7,2.4,6,5.7,6
		C635.6,2409,638.1,2406.6,638.1,2402.9z M665.9,2401.5v11h-4.5v-10.4c0-3.4-1.7-5.1-4.6-5.1c-3.2,0-5.4,1.9-5.4,5.8v9.7h-4.5v-19.2
		h4.3v2.5c1.5-1.8,3.8-2.7,6.6-2.7C662.4,2393.1,665.9,2395.7,665.9,2401.5z M699.5,2393.3l-9,20.8c-1.8,4.4-4.2,5.7-7.4,5.7
		c-1.9,0-3.9-0.6-5.1-1.8l1.8-3.3c0.9,0.8,2.1,1.3,3.3,1.3c1.6,0,2.5-0.8,3.4-2.7l0.3-0.8l-8.4-19.3h4.7l6,14.2l6.1-14.2H699.5z
		 M700.2,2402.9c0-5.8,4.3-9.8,10.2-9.8c6,0,10.3,4.1,10.3,9.8c0,5.8-4.3,9.9-10.3,9.9C704.5,2412.8,700.2,2408.7,700.2,2402.9z
		 M716.2,2402.9c0-3.7-2.4-6-5.7-6c-3.2,0-5.7,2.3-5.7,6c0,3.7,2.4,6,5.7,6C713.7,2409,716.2,2406.6,716.2,2402.9z M743.6,2393.3
		v19.2h-4.3v-2.4c-1.4,1.8-3.7,2.7-6.2,2.7c-4.9,0-8.3-2.7-8.3-8.5v-11h4.5v10.4c0,3.5,1.7,5.1,4.5,5.1c3.1,0,5.3-1.9,5.3-5.8v-9.7
		H743.6z M760.7,2393.1v4.3c-0.4-0.1-0.7-0.1-1-0.1c-3.4,0-5.6,2-5.6,5.9v9.3h-4.5v-19.2h4.3v2.8
		C755.1,2394.1,757.4,2393.1,760.7,2393.1z M793.5,2401.5v11H789v-10.4c0-3.4-1.7-5.1-4.6-5.1c-3.2,0-5.4,1.9-5.4,5.8v9.7h-4.5
		v-19.2h4.3v2.5c1.5-1.8,3.8-2.7,6.6-2.7C790.1,2393.1,793.5,2395.7,793.5,2401.5z M817.4,2404.4h-15.1c0.5,2.8,2.9,4.6,6.2,4.6
		c2.2,0,3.9-0.7,5.2-2.1l2.4,2.8c-1.7,2.1-4.4,3.1-7.7,3.1c-6.4,0-10.6-4.1-10.6-9.9c0-5.7,4.2-9.8,9.9-9.8c5.6,0,9.7,3.9,9.7,9.9
		C817.5,2403.4,817.5,2404,817.4,2404.4z M802.3,2401.4h10.9c-0.4-2.8-2.5-4.7-5.4-4.7C804.9,2396.7,802.7,2398.6,802.3,2401.4z
		 M833.5,2412.6l-4.9-6.7l-5,6.7h-5l7.5-9.8l-7.2-9.5h5l4.7,6.3l4.7-6.3h4.9l-7.2,9.4l7.5,9.8H833.5z M853.5,2411.5
		c-1.1,0.9-2.7,1.3-4.3,1.3c-4.2,0-6.6-2.2-6.6-6.5v-9.3h-3.2v-3.6h3.2v-4.4h4.5v4.4h5.1v3.6H847v9.1c0,1.9,0.9,2.9,2.7,2.9
		c0.9,0,1.8-0.3,2.5-0.8L853.5,2411.5z M885.1,2393.3l-8.2,19.2h-4.6l-8.2-19.2h4.7l6,14.3l6.2-14.3H885.1z M887.3,2387.5
		c0-1.5,1.2-2.7,2.9-2.7c1.7,0,2.9,1.1,2.9,2.6c0,1.6-1.2,2.8-2.9,2.8C888.5,2390.2,887.3,2389,887.3,2387.5z M887.9,2393.3h4.5
		v19.2h-4.5V2393.3z M896.1,2410.6l1.7-3.4c1.7,1.1,4.3,1.9,6.7,1.9c2.8,0,4-0.8,4-2.1c0-3.7-11.9-0.2-11.9-7.9c0-3.6,3.3-6,8.5-6
		c2.6,0,5.5,0.6,7.2,1.7l-1.7,3.4c-1.8-1.1-3.7-1.4-5.5-1.4c-2.7,0-4,0.9-4,2.2c0,3.9,11.9,0.4,11.9,8c0,3.6-3.3,5.9-8.7,5.9
		C901.1,2412.8,897.8,2411.9,896.1,2410.6z M916.2,2387.5c0-1.5,1.2-2.7,2.9-2.7c1.7,0,2.9,1.1,2.9,2.6c0,1.6-1.2,2.8-2.9,2.8
		C917.5,2390.2,916.2,2389,916.2,2387.5z M916.9,2393.3h4.5v19.2h-4.5V2393.3z M938.8,2411.5c-1.1,0.9-2.7,1.3-4.3,1.3
		c-4.2,0-6.6-2.2-6.6-6.5v-9.3h-3.2v-3.6h3.2v-4.4h4.5v4.4h5.1v3.6h-5.1v9.1c0,1.9,0.9,2.9,2.7,2.9c0.9,0,1.8-0.3,2.5-0.8
		L938.8,2411.5z M957.4,2392.3v1.2h5.3v3.6h-5.1v15.5h-4.5v-15.5h-3.2v-3.6h3.2v-1.2c0-4,2.4-6.7,6.9-6.7c1.5,0,3.1,0.3,4.1,1
		l-1.3,3.4c-0.7-0.5-1.5-0.8-2.5-0.8C958.4,2389.2,957.4,2390.3,957.4,2392.3z M963.9,2402.9c0-5.8,4.3-9.8,10.2-9.8
		c6,0,10.3,4.1,10.3,9.8c0,5.8-4.3,9.9-10.3,9.9C968.2,2412.8,963.9,2408.7,963.9,2402.9z M979.8,2402.9c0-3.7-2.4-6-5.7-6
		c-3.2,0-5.7,2.3-5.7,6c0,3.7,2.4,6,5.7,6C977.4,2409,979.8,2406.6,979.8,2402.9z M999.8,2393.1v4.3c-0.4-0.1-0.7-0.1-1-0.1
		c-3.4,0-5.6,2-5.6,5.9v9.3h-4.5v-19.2h4.3v2.8C994.3,2394.1,996.6,2393.1,999.8,2393.1z M1029.8,2401.3v11.3h-4.2v-2.3
		c-1.1,1.7-3.2,2.6-6,2.6c-4.4,0-7.2-2.4-7.2-5.8c0-3.2,2.2-5.7,8-5.7h5v-0.3c0-2.6-1.6-4.2-4.8-4.2c-2.2,0-4.4,0.7-5.8,1.9
		l-1.8-3.3c2.1-1.6,5-2.4,8.1-2.4C1026.6,2393.1,1029.8,2395.7,1029.8,2401.3z M1025.3,2406.5v-2.2h-4.6c-3.1,0-3.9,1.2-3.9,2.6
		c0,1.6,1.4,2.7,3.7,2.7C1022.7,2409.5,1024.6,2408.5,1025.3,2406.5z M1064.5,2401.5v11h-4.5v-10.4c0-3.4-1.7-5.1-4.6-5.1
		c-3.2,0-5.4,1.9-5.4,5.8v9.7h-4.5v-19.2h4.3v2.5c1.5-1.8,3.8-2.7,6.6-2.7C1061,2393.1,1064.5,2395.7,1064.5,2401.5z M1088.4,2404.4
		h-15.1c0.5,2.8,2.9,4.6,6.2,4.6c2.2,0,3.9-0.7,5.2-2.1l2.4,2.8c-1.7,2.1-4.4,3.1-7.7,3.1c-6.4,0-10.6-4.1-10.6-9.9
		c0-5.7,4.2-9.8,9.9-9.8c5.6,0,9.7,3.9,9.7,9.9C1088.4,2403.4,1088.4,2404,1088.4,2404.4z M1073.2,2401.4h10.9
		c-0.4-2.8-2.5-4.7-5.4-4.7C1075.8,2396.7,1073.7,2398.6,1073.2,2401.4z M1122.4,2393.3l-7.1,19.2h-4.3l-5-13.2l-5,13.2h-4.3
		l-7.1-19.2h4.2l5.1,14.2l5.3-14.2h3.8l5.2,14.3l5.2-14.3H1122.4z M596.9,2435.5v1.2h5.3v3.6H597v15.5h-4.5v-15.5h-3.2v-3.6h3.2
		v-1.2c0-4,2.4-6.7,6.9-6.7c1.5,0,3.1,0.3,4.1,1l-1.3,3.4c-0.7-0.5-1.5-0.8-2.5-0.8C597.8,2432.4,596.9,2433.5,596.9,2435.5z
		 M622.9,2447.6h-15.1c0.5,2.8,2.9,4.6,6.2,4.6c2.2,0,3.9-0.7,5.2-2.1l2.4,2.8c-1.7,2.1-4.4,3.1-7.7,3.1c-6.4,0-10.6-4.1-10.6-9.9
		c0-5.7,4.2-9.8,9.9-9.8c5.6,0,9.7,3.9,9.7,9.9C623,2446.6,622.9,2447.2,622.9,2447.6z M607.8,2444.6h10.9c-0.4-2.8-2.5-4.7-5.4-4.7
		C610.3,2439.9,608.2,2441.8,607.8,2444.6z M642.8,2444.5v11.3h-4.2v-2.3c-1.1,1.7-3.2,2.6-6,2.6c-4.4,0-7.2-2.4-7.2-5.8
		c0-3.2,2.2-5.7,8-5.7h5v-0.3c0-2.6-1.6-4.2-4.8-4.2c-2.2,0-4.4,0.7-5.8,1.9l-1.8-3.3c2.1-1.6,5-2.4,8.1-2.4
		C639.6,2436.3,642.8,2438.9,642.8,2444.5z M638.3,2449.7v-2.2h-4.6c-3.1,0-3.9,1.2-3.9,2.6c0,1.6,1.4,2.7,3.7,2.7
		C635.7,2452.7,637.6,2451.7,638.3,2449.7z M660.1,2454.7c-1.1,0.9-2.7,1.3-4.3,1.3c-4.2,0-6.6-2.2-6.6-6.5v-9.3H646v-3.6h3.2v-4.4
		h4.5v4.4h5.1v3.6h-5.1v9.1c0,1.9,0.9,2.9,2.7,2.9c0.9,0,1.8-0.3,2.5-0.8L660.1,2454.7z M682.5,2436.5v19.2h-4.3v-2.4
		c-1.4,1.8-3.7,2.7-6.2,2.7c-4.9,0-8.3-2.7-8.3-8.5v-11h4.5v10.4c0,3.5,1.7,5.1,4.5,5.1c3.1,0,5.3-1.9,5.3-5.8v-9.7H682.5z
		 M699.5,2436.3v4.3c-0.4-0.1-0.7-0.1-1-0.1c-3.4,0-5.6,2-5.6,5.9v9.3h-4.5v-19.2h4.3v2.8C693.9,2437.3,696.3,2436.3,699.5,2436.3z
		 M721.1,2447.6H706c0.5,2.8,2.9,4.6,6.2,4.6c2.2,0,3.9-0.7,5.2-2.1l2.4,2.8c-1.7,2.1-4.4,3.1-7.7,3.1c-6.4,0-10.6-4.1-10.6-9.9
		c0-5.7,4.2-9.8,9.9-9.8c5.6,0,9.7,3.9,9.7,9.9C721.2,2446.6,721.2,2447.2,721.1,2447.6z M706,2444.6h10.9c-0.4-2.8-2.5-4.7-5.4-4.7
		C708.6,2439.9,706.4,2441.8,706,2444.6z M744.3,2429v26.7H740v-2.5c-1.5,1.8-3.7,2.7-6.4,2.7c-5.6,0-9.7-3.9-9.7-9.9
		c0-6,4.1-9.8,9.7-9.8c2.5,0,4.7,0.8,6.2,2.6v-9.9H744.3z M739.9,2446.1c0-3.7-2.5-6-5.7-6c-3.2,0-5.7,2.3-5.7,6c0,3.7,2.5,6,5.7,6
		C737.4,2452.2,739.9,2449.8,739.9,2446.1z M780.6,2446.1c0,6-4.1,9.9-9.8,9.9c-2.6,0-4.9-0.9-6.4-2.7v2.5h-4.3V2429h4.5v9.8
		c1.5-1.7,3.7-2.6,6.2-2.6C776.5,2436.3,780.6,2440.2,780.6,2446.1z M776,2446.1c0-3.7-2.4-6-5.7-6s-5.7,2.3-5.7,6
		c0,3.7,2.5,6,5.7,6S776,2449.8,776,2446.1z M803.5,2436.5v19.2h-4.3v-2.4c-1.4,1.8-3.7,2.7-6.2,2.7c-4.9,0-8.3-2.7-8.3-8.5v-11h4.5
		v10.4c0,3.5,1.7,5.1,4.5,5.1c3.1,0,5.3-1.9,5.3-5.8v-9.7H803.5z M821,2454.7c-1.1,0.9-2.7,1.3-4.3,1.3c-4.2,0-6.6-2.2-6.6-6.5v-9.3
		h-3.2v-3.6h3.2v-4.4h4.5v4.4h5.1v3.6h-5.1v9.1c0,1.9,0.9,2.9,2.7,2.9c0.9,0,1.8-0.3,2.5-0.8L821,2454.7z M835.8,2454.7
		c-1.1,0.9-2.7,1.3-4.3,1.3c-4.2,0-6.6-2.2-6.6-6.5v-9.3h-3.2v-3.6h3.2v-4.4h4.5v4.4h5.1v3.6h-5.1v9.1c0,1.9,0.9,2.9,2.7,2.9
		c0.9,0,1.8-0.3,2.5-0.8L835.8,2454.7z M856.8,2447.6h-15.1c0.5,2.8,2.9,4.6,6.2,4.6c2.2,0,3.9-0.7,5.2-2.1l2.4,2.8
		c-1.7,2.1-4.4,3.1-7.7,3.1c-6.4,0-10.6-4.1-10.6-9.9c0-5.7,4.2-9.8,9.9-9.8c5.6,0,9.7,3.9,9.7,9.9
		C856.9,2446.6,856.8,2447.2,856.8,2447.6z M841.7,2444.6h10.9c-0.4-2.8-2.5-4.7-5.4-4.7C844.2,2439.9,842.1,2441.8,841.7,2444.6z
		 M872.3,2436.3v4.3c-0.4-0.1-0.7-0.1-1-0.1c-3.4,0-5.6,2-5.6,5.9v9.3h-4.5v-19.2h4.3v2.8C866.8,2437.3,869.1,2436.3,872.3,2436.3z
		 M884.4,2428.8c1.5,0,3.1,0.3,4.1,1l-1.3,3.4c-0.7-0.5-1.5-0.8-2.5-0.8c-1.9,0-2.8,1-2.8,3.1v1.2h5.3v3.6H882v15.5h-4.5v-15.5h-3.2
		v-3.6h3.2v-1.2C877.5,2431.4,879.9,2428.8,884.4,2428.8z M894.6,2429v26.7h-4.5V2429H894.6z M918.5,2436.5l-9,20.8
		c-1.8,4.4-4.2,5.7-7.4,5.7c-1.9,0-3.9-0.6-5.1-1.8l1.8-3.3c0.9,0.8,2.1,1.3,3.3,1.3c1.6,0,2.5-0.8,3.4-2.7l0.3-0.8l-8.4-19.3h4.7
		l6,14.2l6.1-14.2H918.5z M918.7,2453c0-1.8,1.3-3,3-3s3,1.2,3,3c0,1.7-1.3,3-3,3S918.7,2454.8,918.7,2453z"/>
</g>
<path class="st2" d="M212.1,233.6v22.2H251v15.6h-38.9V302h-19.4v-84h63.5v15.6H212.1z M329.2,275h-48.8c1.8,8,8.6,13,18.5,13
	c6.8,0,11.8-2,16.2-6.2l10,10.8c-6,6.8-15,10.4-26.6,10.4c-22.3,0-36.8-14-36.8-33.2c0-19.3,14.8-33.2,34.4-33.2
	c19,0,33.6,12.7,33.6,33.5C329.6,271.4,329.3,273.4,329.2,275z M280.1,264.1h31.8c-1.3-8.2-7.4-13.4-15.8-13.4
	C287.6,250.6,281.5,255.8,280.1,264.1z M397.4,265.2V302h-17.5v-8c-3.5,5.9-10.2,9-19.7,9c-15.1,0-24.1-8.4-24.1-19.6
	c0-11.4,8-19.3,27.7-19.3h14.9c0-8-4.8-12.7-14.9-12.7c-6.8,0-13.9,2.3-18.6,6l-6.7-13.1c7.1-5,17.5-7.8,27.8-7.8
	C386,236.5,397.4,245.6,397.4,265.2z M378.7,281.6V275h-12.8c-8.8,0-11.5,3.2-11.5,7.6c0,4.7,4,7.8,10.6,7.8
	C371.1,290.4,376.5,287.5,378.7,281.6z M455.9,298.9c-3.8,2.8-9.5,4.1-15.2,4.1c-15.2,0-24.1-7.8-24.1-23.2v-26.5h-10v-14.4h10
	v-15.7h18.7v15.7h16.1v14.4h-16.1v26.3c0,5.5,3,8.5,8,8.5c2.8,0,5.5-0.8,7.6-2.4L455.9,298.9z M531.5,237.4V302h-17.8v-7.7
	c-4.9,5.6-12.1,8.6-20,8.6c-16.2,0-27.6-9.1-27.6-29v-36.5h18.7v33.7c0,10.8,4.8,15.6,13.1,15.6c8.6,0,14.9-5.5,14.9-17.4v-31.9
	H531.5z M589,236.5v17.3c-1.6-0.1-2.8-0.2-4.2-0.2c-10.3,0-17.2,5.6-17.2,18V302h-18.7v-64.6h17.9v8.5
	C571.4,239.7,579.1,236.5,589,236.5z M662.5,275h-48.8c1.8,8,8.6,13,18.5,13c6.8,0,11.8-2,16.2-6.2l10,10.8
	c-6,6.8-15,10.4-26.6,10.4c-22.3,0-36.8-14-36.8-33.2c0-19.3,14.8-33.2,34.4-33.2c19,0,33.6,12.7,33.6,33.5
	C662.8,271.4,662.6,273.4,662.5,275z M613.4,264.1h31.8c-1.3-8.2-7.4-13.4-15.8-13.4C620.8,250.6,614.7,255.8,613.4,264.1z
	 M741.1,213v89h-17.9v-7.4c-4.7,5.6-11.5,8.4-20.2,8.4c-18.2,0-32.3-13-32.3-33.2c0-20.3,14-33.2,32.3-33.2c7.9,0,14.6,2.5,19.3,7.8
	V213H741.1z M722.7,269.7c0-11.2-7.2-17.9-16.4-17.9c-9.4,0-16.6,6.7-16.6,17.9c0,11.2,7.2,17.9,16.6,17.9
	C715.5,287.6,722.7,280.9,722.7,269.7z M870.7,279.1c0,14.5-11.5,22.9-33.6,22.9h-43.4v-84h41c21,0,31.8,8.8,31.8,21.8
	c0,8.4-4.3,14.9-11.2,18.5C864.7,261.3,870.7,268.5,870.7,279.1z M812.9,232.6v19.8h19.3c9.5,0,14.6-3.4,14.6-10s-5.2-9.8-14.6-9.8
	H812.9z M851.1,277c0-7.1-5.4-10.4-15.5-10.4h-22.7v20.8h22.7C845.7,287.4,851.1,284.2,851.1,277z M949.1,237.4V302h-17.8v-7.7
	c-4.9,5.6-12.1,8.6-20,8.6c-16.2,0-27.6-9.1-27.6-29v-36.5h18.7v33.7c0,10.8,4.8,15.6,13.1,15.6c8.6,0,14.9-5.5,14.9-17.4v-31.9
	H949.1z M1008.2,298.9c-3.8,2.8-9.5,4.1-15.2,4.1c-15.2,0-24.1-7.8-24.1-23.2v-26.5h-10v-14.4h10v-15.7h18.7v15.7h16.1v14.4h-16.1
	v26.3c0,5.5,3,8.5,8,8.5c2.8,0,5.5-0.8,7.6-2.4L1008.2,298.9z M1058.9,298.9c-3.8,2.8-9.5,4.1-15.2,4.1c-15.2,0-24.1-7.8-24.1-23.2
	v-26.5h-10v-14.4h10v-15.7h18.7v15.7h16.1v14.4h-16.1v26.3c0,5.5,3,8.5,8,8.5c2.8,0,5.5-0.8,7.6-2.4L1058.9,298.9z M1130.3,275
	h-48.8c1.8,8,8.6,13,18.5,13c6.8,0,11.8-2,16.2-6.2l10,10.8c-6,6.8-15,10.4-26.6,10.4c-22.3,0-36.8-14-36.8-33.2
	c0-19.3,14.8-33.2,34.4-33.2c19,0,33.6,12.7,33.6,33.5C1130.7,271.4,1130.5,273.4,1130.3,275z M1081.3,264.1h31.8
	c-1.3-8.2-7.4-13.4-15.8-13.4C1088.7,250.6,1082.6,255.8,1081.3,264.1z M1183.3,236.5v17.3c-1.6-0.1-2.8-0.2-4.2-0.2
	c-10.3,0-17.2,5.6-17.2,18V302h-18.7v-64.6h17.9v8.5C1165.6,239.7,1173.3,236.5,1183.3,236.5z M1217.2,236.1v2.8h16.6v14.4h-16.1
	V302H1199v-48.7h-10v-14.4h10V236c0-14.5,8.9-24,25-24c5.3,0,10.8,1.1,14.3,3.5l-4.9,13.6c-2-1.4-4.7-2.3-7.6-2.3
	C1220.2,226.8,1217.2,229.8,1217.2,236.1z M1261.9,213v89h-18.7v-89H1261.9z M1343.3,237.4l-29.2,68.5
	c-6.2,15.6-15.1,20.3-26.8,20.3c-6.6,0-13.8-2.2-18-5.9l6.8-13.3c2.9,2.5,6.8,4.1,10.6,4.1c5.2,0,8-2.3,10.6-8l0.2-0.6l-28-65h19.3
	l18.1,43.8l18.2-43.8H1343.3z"/>
</svg>
