<?xml version="1.0" encoding="utf-8"?>
<!-- Generator: Adobe Illustrator 27.0.1, SVG Export Plug-In . SVG Version: 6.00 Build 0)  -->
<svg version="1.1" id="Layer_1" xmlns="http://www.w3.org/2000/svg" xmlns:xlink="http://www.w3.org/1999/xlink" x="0px" y="0px"
	 viewBox="0 0 3200 1931" style="enable-background:new 0 0 3200 1931;" xml:space="preserve">
<style type="text/css">
	.st0{fill:#5F8A2B;}
	.st1{fill:#7D9C55;}
	.st2{fill:none;}
	.st3{enable-background:new    ;}
</style>
<g>
	<path class="st0" d="M3000,1931H200c-110.5,0-200-89.5-200-200V596c0-110.5,89.5-200,200-200h2800c110.5,0,200,89.5,200,200v1135
		C3200,1841.5,3110.5,1931,3000,1931z"/>
	<circle class="st1" cx="1600" cy="1163.5" r="552"/>
	
		<image style="overflow:visible;enable-background:new    ;" width="3592" height="3592" xlink:href="6F00EF07.png"  transform="matrix(0.2394 0 0 0.2394 1170 733.5)">
	</image>
	<path class="st1" d="M2900,496H1818c281,91.7,484,355.9,484,667.5s-203,575.8-484,667.5h1082c110.5,0,200-89.5,200-200V696
		C3100,585.5,3010.5,496,2900,496z"/>
	<path class="st1" d="M300,493.5h1082c-281,91.7-484,355.9-484,667.5s203,575.8,484,667.5H300c-110.5,0-200-89.5-200-200v-935
		C100,583,189.5,493.5,300,493.5z"/>
	<path class="st2" d="M798,1163.5c0-221.9,90.2-422.8,235.8-568H400c-110.5,0-200,89.5-200,200v733c0,110.5,89.5,200,200,200h630.8
		C886.9,1583.5,798,1383.9,798,1163.5z"/>
	<path transform="matrix(1 0 0 1 353.9043 648.9229)" class="st3" d="M436.1,598.5l-16.5,50.4H407L396,614.8l-11.4,34.1H372
		l-16.6-50.4h12.1l11.4,35.4l11.9-35.4h10.8l11.5,35.7l11.7-35.7H436.1z M482.4,626.7v22.2h-11.2v-20.5c0-6.3-2.9-9.1-7.8-9.1
		c-5.4,0-9.3,3.3-9.3,10.4v19.2h-11.2v-53.4h11.2v18.7c3-3,7.3-4.6,12.3-4.6C475.5,609.6,482.4,614.9,482.4,626.7z M491.2,598.5
		c0-3.5,2.8-6.3,7-6.3c4.2,0,7,2.6,7,6c0,3.7-2.8,6.5-7,6.5C494,604.8,491.2,602,491.2,598.5z M492.6,610.2h11.2v38.7h-11.2V610.2z
		 M539.2,647.1c-2.3,1.7-5.7,2.4-9.1,2.4c-9.1,0-14.5-4.7-14.5-13.9v-15.9h-6V611h6v-9.4h11.2v9.4h9.6v8.6h-9.6v15.8
		c0,3.3,1.8,5.1,4.8,5.1c1.7,0,3.3-0.5,4.5-1.4L539.2,647.1z M582.1,632.7h-29.3c1.1,4.8,5.2,7.8,11.1,7.8c4.1,0,7.1-1.2,9.7-3.7
		l6,6.5c-3.6,4.1-9,6.3-16,6.3c-13.4,0-22.1-8.4-22.1-19.9c0-11.6,8.9-19.9,20.7-19.9c11.4,0,20.2,7.6,20.2,20.1
		C582.3,630.6,582.1,631.8,582.1,632.7z M552.6,626.2h19.1c-0.8-4.9-4.5-8.1-9.5-8.1C557.1,618.1,553.4,621.2,552.6,626.2z
		 M656.8,648.9l-0.1-30.2l-14.8,24.9h-5.3l-14.8-24.3v29.6h-10.9v-50.4h9.6l18.9,31.3l18.6-31.3h9.6l0.1,50.4H656.8z M676,629.6
		c0-11.7,9-19.9,21.3-19.9s21.2,8.3,21.2,19.9s-8.9,19.9-21.2,19.9S676,641.2,676,629.6z M707.2,629.6c0-6.7-4.2-10.7-9.9-10.7
		c-5.6,0-9.9,4-9.9,10.7c0,6.7,4.3,10.7,9.9,10.7C703,640.3,707.2,636.2,707.2,629.6z M750.1,609.6V620c-0.9-0.1-1.7-0.1-2.5-0.1
		c-6.2,0-10.3,3.4-10.3,10.8v18.3h-11.2v-38.7h10.7v5.1C739.5,611.6,744.1,609.6,750.1,609.6z M799,629.6c0,12.2-8.4,19.9-19.3,19.9
		c-4.8,0-8.8-1.5-11.7-4.7v18.1h-11.2v-52.7h10.7v4.5c2.8-3.4,7-5,12.2-5C790.6,609.6,799,617.4,799,629.6z M787.6,629.6
		c0-6.7-4.2-10.7-9.9-10.7c-5.6,0-9.9,4-9.9,10.7c0,6.7,4.2,10.7,9.9,10.7C783.4,640.3,787.6,636.2,787.6,629.6z M846.1,626.7v22.2
		h-11.2v-20.5c0-6.3-2.9-9.1-7.8-9.1c-5.4,0-9.3,3.3-9.3,10.4v19.2h-11.2v-53.4h11.2v18.7c3-3,7.3-4.6,12.3-4.6
		C839.2,609.6,846.1,614.9,846.1,626.7z M853.8,629.6c0-11.7,9-19.9,21.3-19.9s21.2,8.3,21.2,19.9s-8.9,19.9-21.2,19.9
		S853.8,641.2,853.8,629.6z M885,629.6c0-6.7-4.2-10.7-9.9-10.7c-5.6,0-9.9,4-9.9,10.7c0,6.7,4.3,10.7,9.9,10.7
		C880.7,640.3,885,636.2,885,629.6z M253.4,720.3l-5.9,29.4h-4l4.3-21.3l-13.9,17.7H232l-7.4-18.1l-4.3,21.7h-4l5.9-29.4h3.4
		l8.2,20.7l16.1-20.7H253.4z M255.8,740.4c0-7.5,5.5-13.1,13.1-13.1c6.3,0,10.4,3.7,10.4,9.6c0,7.6-5.4,13.1-13,13.1
		C259.9,750,255.8,746.2,255.8,740.4z M275.2,737c0-3.9-2.4-6.3-6.6-6.3c-5,0-8.7,3.9-8.7,9.4c0,3.9,2.4,6.3,6.6,6.3
		C271.5,746.4,275.2,742.5,275.2,737z M298.9,727.2l-0.8,3.9c-0.4,0-0.6,0-1.1,0c-4.5,0-7.4,2.4-8.4,7.5l-2.2,11.1h-4l4.4-22.3h3.9
		l-0.6,3.3C292.1,728.3,295,727.2,298.9,727.2z M324.8,736.8c0,7.6-5.4,13.1-12.6,13.1c-3.8,0-6.6-1.4-8.1-4l-2.4,11.9h-4l6-30.4
		h3.9l-0.5,2.8c2-1.9,4.6-3,7.9-3C320.7,727.2,324.8,730.8,324.8,736.8z M320.7,737c0-3.9-2.4-6.3-6.6-6.3c-5,0-8.7,3.9-8.7,9.4
		c0,3.9,2.4,6.3,6.6,6.3C317.1,746.4,320.7,742.5,320.7,737z M351.9,734.6c0,0.8-0.1,1.7-0.3,2.6l-2.5,12.5h-4l2.5-12.5
		c0.1-0.7,0.2-1.3,0.2-1.8c0-2.9-1.7-4.5-5.2-4.5c-4.3,0-7.3,2.3-8.2,7.1l-2.4,11.8h-4l6.2-31.2h4l-2.3,11.5
		c2.1-1.9,4.7-2.8,7.9-2.8C348.9,727.2,351.9,729.9,351.9,734.6z M356.7,740.4c0-7.5,5.5-13.1,13.1-13.1c6.3,0,10.4,3.7,10.4,9.6
		c0,7.6-5.4,13.1-13,13.1C360.9,750,356.7,746.2,356.7,740.4z M376.1,737c0-3.9-2.4-6.3-6.6-6.3c-5,0-8.7,3.9-8.7,9.4
		c0,3.9,2.4,6.3,6.6,6.3C372.5,746.4,376.1,742.5,376.1,737z M422.9,728.9c0,7.5-5.3,11.9-13.8,11.9h-7.9l-1.8,8.9h-4.2l5.9-29.4
		h10.9C418.9,720.3,422.9,723.5,422.9,728.9z M418.7,729.3c0-3.5-2.5-5.3-7-5.3h-7.1l-2.6,13.2h7.2
		C415.2,737.2,418.7,734.5,418.7,729.3z M424.5,740.4c0-7.5,5.5-13.1,13.1-13.1c6.3,0,10.4,3.7,10.4,9.6c0,7.6-5.4,13.1-13,13.1
		C428.6,750,424.5,746.2,424.5,740.4z M443.9,737c0-3.9-2.4-6.3-6.6-6.3c-5,0-8.7,3.9-8.7,9.4c0,3.9,2.4,6.3,6.6,6.3
		C440.3,746.4,443.9,742.5,443.9,737z M457.5,718.6h4l-6.2,31.2h-4L457.5,718.6z M487.1,727.5l-15.8,24.7c-2.9,4.5-5.2,6-8.7,6
		c-2.1,0-4.4-0.7-5.6-2l2.1-3c0.9,0.9,2.2,1.5,3.8,1.5c1.8,0,3.2-0.8,4.8-3.3l1.1-1.8l-5.4-22.1h4l4.3,17.8l11.2-17.8H487.1z
		 M511.8,736.8c0,7.6-5.4,13.1-12.6,13.1c-3.8,0-6.6-1.4-8.1-4l-2.4,11.9h-4l6-30.4h3.9l-0.5,2.8c2-1.9,4.6-3,7.9-3
		C507.7,727.2,511.8,730.8,511.8,736.8z M507.8,737c0-3.9-2.4-6.3-6.6-6.3c-5,0-8.7,3.9-8.7,9.4c0,3.9,2.4,6.3,6.6,6.3
		C504.1,746.4,507.8,742.5,507.8,737z M538.9,734.6c0,0.8-0.1,1.7-0.3,2.6l-2.5,12.5h-4l2.5-12.5c0.1-0.7,0.2-1.3,0.2-1.8
		c0-2.9-1.7-4.5-5.2-4.5c-4.3,0-7.3,2.3-8.2,7.1l-2.4,11.8h-4l6.2-31.2h4l-2.3,11.5c2.1-1.9,4.7-2.8,7.9-2.8
		C535.9,727.2,538.9,729.9,538.9,734.6z M547.7,739.9v0.3c0,4.1,2.3,6.3,7.1,6.3c2.8,0,5.3-1,6.9-2.6l1.7,2.9
		c-2.2,2.1-5.5,3.2-8.9,3.2c-6.6,0-10.7-3.8-10.7-9.7c0-7.6,5.3-13.1,12.6-13.1c6,0,10,3.6,10,9.6c0,1.1-0.1,2.1-0.3,3H547.7z
		 M548.1,736.9h14.4c0.2-4.1-2.4-6.3-6.3-6.3C552.1,730.6,549.1,733,548.1,736.9z M609.2,734.6c0,0.8-0.1,1.7-0.3,2.6l-2.5,12.5h-4
		l2.5-12.5c0.1-0.7,0.2-1.3,0.2-1.9c0-2.9-1.6-4.5-4.9-4.5c-4.1,0-6.8,2.3-7.8,7l-2.4,11.9h-4l2.5-12.5c0.1-0.7,0.2-1.3,0.2-1.9
		c0-2.9-1.6-4.5-5-4.5c-4.1,0-6.8,2.3-7.8,7.1l-2.4,11.8h-4l4.4-22.3h3.9l-0.5,2.8c2-2.1,4.7-3,7.7-3c3.5,0,6,1.4,7.1,3.9
		c2.3-2.6,5.4-3.9,9.1-3.9C606.2,727.2,609.2,729.9,609.2,734.6z M639,727.5l-4.4,22.3h-3.9l0.5-2.9c-2.1,2.1-4.9,3.1-8,3.1
		c-4.9,0-8-2.7-8-7.5c0-0.8,0.1-1.6,0.3-2.6l2.5-12.5h4l-2.5,12.5c-0.1,0.7-0.2,1.3-0.2,1.9c0,2.9,1.7,4.5,5.1,4.5
		c4.2,0,7.2-2.4,8.1-7.1l2.4-11.8H639z M640.1,747.4l1.8-3.2c1.7,1.4,4.7,2.3,7.7,2.3c3.9,0,5.8-1.2,5.8-3.3
		c0-4.3-12.4-1.2-12.4-8.7c0-4.4,4-7.2,10.1-7.2c2.9,0,6,0.8,7.8,2l-1.6,3.2c-1.8-1.3-4.3-1.8-6.6-1.8c-3.7,0-5.7,1.4-5.7,3.3
		c0,4.5,12.3,1.3,12.3,8.7c0,4.6-4.2,7.2-10.2,7.2C645.5,750,642,748.9,640.1,747.4z M224.5,800.1l-6-8.6c-0.4,0-0.8,0-1.1,0h-6.6
		v8.6h-5.5v-29.4h12.1c7.7,0,12.5,3.9,12.5,10.5c0,4.5-2.3,7.7-6.3,9.3l6.8,9.7H224.5z M217.1,775.3h-6.4v11.7h6.4
		c4.8,0,7.3-2.2,7.3-5.9S221.9,775.3,217.1,775.3z M254.1,787v13.1h-5v-2.7c-1.3,1.9-3.7,3-7.1,3c-5.1,0-8.4-2.8-8.4-6.7
		c0-3.7,2.5-6.7,9.3-6.7h5.8v-0.3c0-3.1-1.8-4.9-5.6-4.9c-2.5,0-5.1,0.8-6.8,2.2l-2.1-3.8c2.4-1.8,5.9-2.8,9.5-2.8
		C250.3,777.4,254.1,780.5,254.1,787z M248.8,793.1v-2.6h-5.4c-3.6,0-4.5,1.3-4.5,3c0,1.9,1.6,3.1,4.3,3.1
		C245.7,796.6,247.9,795.4,248.8,793.1z M282.9,787.3v12.9h-5.3v-12.2c0-4-2-5.9-5.3-5.9c-3.7,0-6.3,2.3-6.3,6.8v11.3h-5.3v-22.4h5
		v2.9c1.7-2.1,4.5-3.2,7.7-3.2C278.9,777.4,282.9,780.5,282.9,787.3z M312,777.7v19c0,8.1-4.2,11.8-12.1,11.8
		c-4.2,0-8.4-1.1-10.9-3.2l2.4-3.9c2,1.6,5.2,2.7,8.3,2.7c5,0,7.1-2.3,7.1-6.8v-1.2c-1.8,2-4.5,3-7.5,3c-6.4,0-11.3-4.4-11.3-10.9
		c0-6.5,4.9-10.8,11.3-10.8c3.2,0,5.9,1,7.8,3.2v-3H312z M306.9,788.2c0-3.8-2.9-6.3-6.8-6.3c-4,0-6.8,2.6-6.8,6.3
		c0,3.8,2.9,6.4,6.8,6.4C304,794.7,306.9,792.1,306.9,788.2z M339.9,790.6h-17.6c0.6,3.3,3.4,5.4,7.3,5.4c2.5,0,4.5-0.8,6.1-2.4
		l2.8,3.2c-2,2.4-5.2,3.7-9,3.7c-7.5,0-12.4-4.8-12.4-11.5c0-6.7,4.9-11.5,11.6-11.5c6.6,0,11.3,4.6,11.3,11.6
		C340,789.5,340,790.1,339.9,790.6z M322.3,787.1H335c-0.4-3.2-2.9-5.5-6.3-5.5C325.3,781.6,322.8,783.8,322.3,787.1z M343.3,780.9
		c0-2.1,1.6-3.5,3.4-3.5c1.9,0,3.4,1.4,3.4,3.5c0,2-1.6,3.5-3.4,3.5C344.8,784.4,343.3,782.9,343.3,780.9z M343.3,796.9
		c0-2.1,1.6-3.5,3.4-3.5c1.9,0,3.4,1.4,3.4,3.5c0,2-1.6,3.5-3.4,3.5C344.8,800.4,343.3,798.9,343.3,796.9z M393.5,770.7v29.4H389
		l-16.2-19.9v19.9h-5.4v-29.4h4.5l16.2,19.9v-19.9H393.5z M421.9,790.6h-17.6c0.6,3.3,3.4,5.4,7.3,5.4c2.5,0,4.5-0.8,6.1-2.4
		l2.8,3.2c-2,2.4-5.2,3.7-9,3.7c-7.5,0-12.4-4.8-12.4-11.5c0-6.7,4.9-11.5,11.6-11.5c6.6,0,11.3,4.6,11.3,11.6
		C422,789.5,421.9,790.1,421.9,790.6z M404.3,787.1H417c-0.4-3.2-2.9-5.5-6.3-5.5C407.2,781.6,404.8,783.8,404.3,787.1z
		 M425.2,788.9c0-6.7,5-11.5,11.9-11.5c7,0,12,4.7,12,11.5c0,6.7-5,11.5-12,11.5C430.2,800.4,425.2,795.6,425.2,788.9z M443.8,788.9
		c0-4.3-2.9-7-6.7-7c-3.8,0-6.6,2.7-6.6,7c0,4.3,2.9,7,6.6,7C440.9,795.9,443.8,793.2,443.8,788.9z M467.6,798.9
		c-1.3,1-3.2,1.5-5,1.5c-4.9,0-7.7-2.6-7.7-7.6v-10.8h-3.7v-4.2h3.7v-5.1h5.3v5.1h6v4.2h-6v10.7c0,2.2,1.1,3.4,3.1,3.4
		c1.1,0,2.1-0.3,2.9-0.9L467.6,798.9z M484.9,777.4v5c-0.5-0.1-0.8-0.1-1.2-0.1c-4,0-6.5,2.4-6.5,6.9v10.9h-5.3v-22.4h5v3.3
		C478.4,778.6,481.2,777.4,484.9,777.4z M487.3,788.9c0-6.7,5-11.5,11.9-11.5c7,0,12,4.7,12,11.5c0,6.7-5,11.5-12,11.5
		C492.3,800.4,487.3,795.6,487.3,788.9z M505.9,788.9c0-4.3-2.9-7-6.7-7c-3.8,0-6.6,2.7-6.6,7c0,4.3,2.9,7,6.6,7
		C503,795.9,505.9,793.2,505.9,788.9z M540,788.9c0,7-4.8,11.5-11.4,11.5c-2.9,0-5.4-1-7.2-3v10.9h-5.3v-30.6h5v2.9
		c1.8-2.1,4.4-3.2,7.4-3.2C535.2,777.4,540,782,540,788.9z M534.7,788.9c0-4.3-2.9-7-6.6-7c-3.8,0-6.7,2.7-6.7,7c0,4.3,2.9,7,6.7,7
		C531.9,795.9,534.7,793.2,534.7,788.9z M544.3,770.8c0-1.8,1.4-3.2,3.4-3.2c1.9,0,3.4,1.3,3.4,3c0,1.8-1.4,3.3-3.4,3.3
		C545.8,774,544.3,772.6,544.3,770.8z M545,777.7h5.3v22.4H545V777.7z M555.3,788.9c0-6.7,5-11.5,12.1-11.5c4.4,0,7.9,1.8,9.6,5.2
		l-4,2.4c-1.3-2.1-3.4-3.1-5.6-3.1c-3.9,0-6.8,2.7-6.8,7c0,4.4,2.9,7,6.8,7c2.2,0,4.2-1,5.6-3.1l4,2.4c-1.7,3.4-5.2,5.3-9.6,5.3
		C560.4,800.4,555.3,795.6,555.3,788.9z M210.6,881.6h-10.4v-5h26.7v5h-10.4v26.5h-5.8V881.6z M254.5,894.4v13.8h-5.6v-13
		c0-4.3-2.1-6.3-5.7-6.3c-4,0-6.7,2.4-6.7,7.2v12.1h-5.6v-33.4h5.6v12.1c1.8-2,4.7-3.1,8-3.1C250.2,883.8,254.5,887.1,254.5,894.4z
		 M284.3,897.9h-18.9c0.7,3.5,3.6,5.8,7.8,5.8c2.7,0,4.8-0.9,6.5-2.6l3,3.5c-2.2,2.6-5.5,3.9-9.7,3.9c-8.1,0-13.3-5.2-13.3-12.3
		c0-7.2,5.3-12.3,12.4-12.3c7,0,12.1,4.9,12.1,12.4C284.4,896.7,284.4,897.4,284.3,897.9z M265.4,894.2h13.6
		c-0.5-3.5-3.1-5.8-6.8-5.8C268.6,888.3,266,890.7,265.4,894.2z M287.1,905.7l2.2-4.3c2.1,1.4,5.4,2.4,8.4,2.4c3.6,0,5-1,5-2.7
		c0-4.6-14.8-0.3-14.8-9.9c0-4.5,4.1-7.5,10.6-7.5c3.2,0,6.8,0.8,9,2.1l-2.2,4.3c-2.3-1.4-4.6-1.8-6.9-1.8c-3.4,0-5,1.1-5,2.7
		c0,4.9,14.8,0.5,14.8,9.9c0,4.5-4.1,7.4-10.9,7.4C293.2,908.4,289.2,907.3,287.1,905.7z M335.5,897.9h-18.9
		c0.7,3.5,3.6,5.8,7.8,5.8c2.7,0,4.8-0.9,6.5-2.6l3,3.5c-2.2,2.6-5.5,3.9-9.7,3.9c-8.1,0-13.3-5.2-13.3-12.3
		c0-7.2,5.3-12.3,12.4-12.3c7,0,12.1,4.9,12.1,12.4C335.6,896.7,335.5,897.4,335.5,897.9z M316.6,894.2h13.6
		c-0.5-3.5-3.1-5.8-6.8-5.8C319.8,888.3,317.1,890.7,316.6,894.2z M353.4,874.7h5.6v33.4h-5.6V874.7z M386.5,894v14.1h-5.3v-2.9
		c-1.3,2.1-4,3.2-7.6,3.2c-5.5,0-9-3-9-7.2c0-4,2.7-7.2,10-7.2h6.2v-0.4c0-3.3-2-5.2-6-5.2c-2.7,0-5.5,0.9-7.3,2.4l-2.2-4.1
		c2.6-2,6.3-3,10.2-3C382.5,883.8,386.5,887.1,386.5,894z M380.9,900.6v-2.8h-5.8c-3.8,0-4.9,1.4-4.9,3.2c0,2,1.7,3.3,4.6,3.3
		C377.6,904.3,380,903.1,380.9,900.6z M407.6,883.8v5.4c-0.5-0.1-0.9-0.1-1.3-0.1c-4.3,0-7,2.5-7,7.4v11.7h-5.6v-24h5.4v3.5
		C400.7,885.1,403.6,883.8,407.6,883.8z M436,884.1v20.4c0,8.7-4.5,12.7-13,12.7c-4.5,0-9-1.2-11.7-3.4l2.5-4.2
		c2.1,1.8,5.5,2.9,8.9,2.9c5.3,0,7.6-2.4,7.6-7.3v-1.3c-2,2.2-4.8,3.2-8.1,3.2c-6.9,0-12.1-4.7-12.1-11.7s5.3-11.6,12.1-11.6
		c3.4,0,6.3,1.1,8.3,3.5v-3.2H436z M430.5,895.4c0-4-3.1-6.8-7.3-6.8c-4.3,0-7.3,2.7-7.3,6.8c0,4.1,3.1,6.9,7.3,6.9
		C427.4,902.3,430.5,899.5,430.5,895.4z M465.9,897.9h-18.9c0.7,3.5,3.6,5.8,7.8,5.8c2.7,0,4.8-0.9,6.5-2.6l3,3.5
		c-2.2,2.6-5.5,3.9-9.7,3.9c-8.1,0-13.3-5.2-13.3-12.3c0-7.2,5.3-12.3,12.4-12.3c7,0,12.1,4.9,12.1,12.4
		C466,896.7,465.9,897.4,465.9,897.9z M447,894.2h13.6c-0.5-3.5-3.1-5.8-6.8-5.8C450.2,888.3,447.5,890.7,447,894.2z M521.3,884.1
		l-8.9,24H507l-6.2-16.6l-6.3,16.6h-5.4l-8.8-24h5.3l6.3,17.7l6.6-17.7h4.7l6.5,17.8l6.5-17.8H521.3z M548.8,894.4v13.8h-5.6v-13
		c0-4.3-2.1-6.3-5.7-6.3c-4,0-6.7,2.4-6.7,7.2v12.1h-5.6v-33.4h5.6v12.1c1.8-2,4.7-3.1,8-3.1C544.6,883.8,548.8,887.1,548.8,894.4z
		 M555.2,876.8c0-1.9,1.5-3.4,3.6-3.4c2.1,0,3.6,1.4,3.6,3.2c0,2-1.5,3.5-3.6,3.5C556.8,880.1,555.2,878.6,555.2,876.8z M556,884.1
		h5.6v24H556V884.1z M583.4,906.8c-1.4,1.1-3.4,1.6-5.4,1.6c-5.3,0-8.3-2.8-8.3-8.1v-11.6h-4v-4.5h4v-5.5h5.6v5.5h6.4v4.5h-6.4v11.4
		c0,2.3,1.2,3.6,3.3,3.6c1.2,0,2.3-0.3,3.1-1L583.4,906.8z M609.8,897.9h-18.9c0.7,3.5,3.6,5.8,7.8,5.8c2.7,0,4.8-0.9,6.5-2.6l3,3.5
		c-2.2,2.6-5.5,3.9-9.7,3.9c-8.1,0-13.3-5.2-13.3-12.3c0-7.2,5.3-12.3,12.4-12.3c7,0,12.1,4.9,12.1,12.4
		C609.9,896.7,609.8,897.4,609.8,897.9z M590.9,894.2h13.6c-0.5-3.5-3.1-5.8-6.8-5.8C594.1,888.3,591.4,890.7,590.9,894.2z
		 M229.2,950.1c0,7.5-5.2,12.3-12.2,12.3c-3.3,0-6.1-1.1-8-3.4v3.1h-5.4v-33.4h5.6V941c1.9-2.2,4.6-3.2,7.7-3.2
		C224,937.8,229.2,942.6,229.2,950.1z M223.5,950.1c0-4.6-3.1-7.5-7.1-7.5s-7.2,2.9-7.2,7.5s3.1,7.5,7.2,7.5
		S223.5,954.7,223.5,950.1z M257.8,938.1v24h-5.4v-3.1c-1.8,2.2-4.6,3.4-7.7,3.4c-6.2,0-10.3-3.4-10.3-10.6v-13.7h5.6v13
		c0,4.4,2.1,6.4,5.6,6.4c3.9,0,6.6-2.4,6.6-7.2v-12.1H257.8z M279.7,960.8c-1.4,1.1-3.4,1.6-5.4,1.6c-5.3,0-8.3-2.8-8.3-8.1v-11.6
		h-4v-4.5h4v-5.5h5.6v5.5h6.4v4.5h-6.4v11.4c0,2.3,1.2,3.6,3.3,3.6c1.2,0,2.3-0.3,3.1-1L279.7,960.8z M298.1,960.8
		c-1.4,1.1-3.4,1.6-5.4,1.6c-5.3,0-8.3-2.8-8.3-8.1v-11.6h-4v-4.5h4v-5.5h5.6v5.5h6.4v4.5h-6.4v11.4c0,2.3,1.2,3.6,3.3,3.6
		c1.2,0,2.3-0.3,3.1-1L298.1,960.8z M324.5,951.9h-18.9c0.7,3.5,3.6,5.8,7.8,5.8c2.7,0,4.8-0.9,6.5-2.6l3,3.5
		c-2.2,2.6-5.5,3.9-9.7,3.9c-8.1,0-13.3-5.2-13.3-12.3c0-7.2,5.3-12.3,12.4-12.3c7,0,12.1,4.9,12.1,12.4
		C324.6,950.7,324.5,951.4,324.5,951.9z M305.6,948.2h13.6c-0.5-3.5-3.1-5.8-6.8-5.8C308.8,942.3,306.1,944.7,305.6,948.2z
		 M343.9,937.8v5.4c-0.5-0.1-0.9-0.1-1.3-0.1c-4.3,0-7,2.5-7,7.4v11.7H330v-24h5.4v3.5C336.9,939.1,339.9,937.8,343.9,937.8z
		 M358.9,928.4c1.9,0,3.8,0.4,5.1,1.3l-1.6,4.2c-0.9-0.6-1.9-1-3.1-1c-2.3,0-3.6,1.3-3.6,3.9v1.4h6.6v4.5h-6.4v19.3h-5.6v-19.3h-4
		v-4.5h4v-1.5C350.3,931.7,353.3,928.4,358.9,928.4z M371.8,928.7v33.4h-5.6v-33.4H371.8z M378.4,930.8c0-1.9,1.5-3.4,3.6-3.4
		c2.1,0,3.6,1.4,3.6,3.2c0,2-1.5,3.5-3.6,3.5C379.9,934.1,378.4,932.6,378.4,930.8z M379.1,938.1h5.6v24h-5.6V938.1z M414.7,951.9
		h-18.9c0.7,3.5,3.6,5.8,7.8,5.8c2.7,0,4.8-0.9,6.5-2.6l3,3.5c-2.2,2.6-5.5,3.9-9.7,3.9c-8.1,0-13.3-5.2-13.3-12.3
		c0-7.2,5.3-12.3,12.4-12.3c7,0,12.1,4.9,12.1,12.4C414.7,950.7,414.7,951.4,414.7,951.9z M395.8,948.2h13.6
		c-0.5-3.5-3.1-5.8-6.8-5.8C398.9,942.3,396.3,944.7,395.8,948.2z M417.4,959.7l2.2-4.3c2.1,1.4,5.4,2.4,8.4,2.4c3.6,0,5-1,5-2.7
		c0-4.6-14.8-0.3-14.8-9.9c0-4.5,4.1-7.5,10.6-7.5c3.2,0,6.8,0.8,9,2.1l-2.2,4.3c-2.3-1.4-4.6-1.8-6.9-1.8c-3.4,0-5,1.1-5,2.7
		c0,4.9,14.8,0.5,14.8,9.9c0,4.5-4.1,7.4-10.9,7.4C423.6,962.4,419.6,961.3,417.4,959.7z M475.9,948v14.1h-5.3v-2.9
		c-1.3,2.1-4,3.2-7.6,3.2c-5.5,0-9-3-9-7.2c0-4,2.7-7.2,10-7.2h6.2v-0.4c0-3.3-2-5.2-6-5.2c-2.7,0-5.5,0.9-7.3,2.4l-2.2-4.1
		c2.6-2,6.3-3,10.2-3C471.8,937.8,475.9,941.1,475.9,948z M470.2,954.6v-2.8h-5.8c-3.8,0-4.9,1.4-4.9,3.2c0,2,1.7,3.3,4.6,3.3
		C466.9,958.3,469.3,957.1,470.2,954.6z M497,937.8v5.4c-0.5-0.1-0.9-0.1-1.3-0.1c-4.3,0-7,2.5-7,7.4v11.7h-5.6v-24h5.4v3.5
		C490,939.1,493,937.8,497,937.8z M524,951.9h-18.9c0.7,3.5,3.6,5.8,7.8,5.8c2.7,0,4.8-0.9,6.5-2.6l3,3.5c-2.2,2.6-5.5,3.9-9.7,3.9
		c-8.1,0-13.3-5.2-13.3-12.3c0-7.2,5.3-12.3,12.4-12.3c7,0,12.1,4.9,12.1,12.4C524.1,950.7,524,951.4,524,951.9z M505.1,948.2h13.6
		c-0.5-3.5-3.1-5.8-6.8-5.8C508.3,942.3,505.6,944.7,505.1,948.2z M201.7,1004.1c0-7.2,5.4-12.3,13-12.3c4.7,0,8.4,1.9,10.3,5.6
		l-4.3,2.5c-1.4-2.3-3.6-3.3-6-3.3c-4.1,0-7.3,2.9-7.3,7.5c0,4.7,3.1,7.5,7.3,7.5c2.4,0,4.5-1,6-3.3l4.3,2.5
		c-1.8,3.6-5.6,5.6-10.3,5.6C207.1,1016.4,201.7,1011.3,201.7,1004.1z M227.5,1004.1c0-7.2,5.4-12.3,12.8-12.3
		c7.5,0,12.8,5.1,12.8,12.3c0,7.2-5.4,12.3-12.8,12.3C232.9,1016.4,227.5,1011.3,227.5,1004.1z M247.4,1004.1c0-4.6-3.1-7.5-7.2-7.5
		c-4,0-7.1,2.9-7.1,7.5s3.1,7.5,7.1,7.5C244.4,1011.6,247.4,1008.7,247.4,1004.1z M298.7,1002.4v13.8h-5.6v-13c0-4.3-2-6.3-5.4-6.3
		c-3.7,0-6.3,2.4-6.3,7.2v12.2h-5.6v-13c0-4.3-2-6.3-5.4-6.3c-3.7,0-6.3,2.4-6.3,7.2v12.2h-5.6v-24h5.4v3.1c1.8-2.2,4.6-3.3,7.9-3.3
		c3.5,0,6.4,1.3,8.1,4c1.9-2.5,5.2-4,9-4C294.6,991.8,298.7,995.1,298.7,1002.4z M346.1,1002.4v13.8h-5.6v-13c0-4.3-2-6.3-5.4-6.3
		c-3.7,0-6.3,2.4-6.3,7.2v12.2h-5.6v-13c0-4.3-2-6.3-5.4-6.3c-3.7,0-6.3,2.4-6.3,7.2v12.2h-5.6v-24h5.4v3.1c1.8-2.2,4.6-3.3,7.9-3.3
		c3.5,0,6.4,1.3,8.1,4c1.9-2.5,5.2-4,9-4C342,991.8,346.1,995.1,346.1,1002.4z M351.5,1004.1c0-7.2,5.4-12.3,12.8-12.3
		c7.5,0,12.8,5.1,12.8,12.3c0,7.2-5.4,12.3-12.8,12.3C356.9,1016.4,351.5,1011.3,351.5,1004.1z M371.5,1004.1c0-4.6-3.1-7.5-7.2-7.5
		c-4,0-7.1,2.9-7.1,7.5s3.1,7.5,7.1,7.5C368.4,1011.6,371.5,1008.7,371.5,1004.1z M406.2,1002.4v13.8h-5.6v-13
		c0-4.3-2.1-6.3-5.7-6.3c-4,0-6.7,2.4-6.7,7.2v12.1h-5.6v-24h5.4v3.1c1.8-2.2,4.8-3.4,8.3-3.4C401.9,991.8,406.2,995.1,406.2,1002.4
		z M413.3,982.7h5.6v33.4h-5.6V982.7z M448.9,992.1l-11.2,26c-2.2,5.4-5.3,7.1-9.3,7.1c-2.4,0-4.9-0.8-6.4-2.2l2.2-4.1
		c1.1,1,2.6,1.7,4.1,1.7c2,0,3.1-0.9,4.2-3.3l0.4-0.9l-10.5-24.1h5.9l7.6,17.8l7.6-17.8H448.9z M478.7,991.8v5.4
		c-0.5-0.1-0.9-0.1-1.3-0.1c-4.3,0-7,2.5-7,7.4v11.7h-5.6v-24h5.4v3.5C471.8,993.1,474.7,991.8,478.7,991.8z M505.7,1005.9h-18.9
		c0.7,3.5,3.6,5.8,7.8,5.8c2.7,0,4.8-0.9,6.5-2.6l3,3.5c-2.2,2.6-5.5,3.9-9.7,3.9c-8.1,0-13.3-5.2-13.3-12.3
		c0-7.2,5.3-12.3,12.4-12.3c7,0,12.1,4.9,12.1,12.4C505.8,1004.7,505.8,1005.4,505.7,1005.9z M486.8,1002.2h13.6
		c-0.5-3.5-3.1-5.8-6.8-5.8C490,996.3,487.4,998.7,486.8,1002.2z M511.2,982.7h5.6v33.4h-5.6V982.7z M544.3,1002v14.1H539v-2.9
		c-1.3,2.1-4,3.2-7.6,3.2c-5.5,0-9-3-9-7.2c0-4,2.7-7.2,10-7.2h6.2v-0.4c0-3.3-2-5.2-6-5.2c-2.7,0-5.5,0.9-7.3,2.4l-2.2-4.1
		c2.6-2,6.3-3,10.2-3C540.3,991.8,544.3,995.1,544.3,1002z M538.7,1008.6v-2.8h-5.8c-3.8,0-4.9,1.4-4.9,3.2c0,2,1.7,3.3,4.6,3.3
		C535.4,1012.3,537.8,1011.1,538.7,1008.6z M566,1014.8c-1.4,1.1-3.4,1.6-5.4,1.6c-5.3,0-8.3-2.8-8.3-8.1v-11.6h-4v-4.5h4v-5.5h5.6
		v5.5h6.4v4.5h-6.4v11.4c0,2.3,1.2,3.6,3.3,3.6c1.2,0,2.3-0.3,3.1-1L566,1014.8z M592.3,1005.9h-18.9c0.7,3.5,3.6,5.8,7.8,5.8
		c2.7,0,4.8-0.9,6.5-2.6l3,3.5c-2.2,2.6-5.5,3.9-9.7,3.9c-8.1,0-13.3-5.2-13.3-12.3c0-7.2,5.3-12.3,12.4-12.3
		c7,0,12.1,4.9,12.1,12.4C592.4,1004.7,592.4,1005.4,592.3,1005.9z M573.4,1002.2H587c-0.5-3.5-3.1-5.8-6.8-5.8
		C576.6,996.3,573.9,998.7,573.4,1002.2z M621.3,982.7v33.4h-5.4v-3.1c-1.9,2.3-4.7,3.4-8,3.4c-7,0-12.1-4.9-12.1-12.3
		s5.2-12.3,12.1-12.3c3.1,0,5.8,1,7.7,3.2v-12.3H621.3z M615.8,1004.1c0-4.6-3.1-7.5-7.2-7.5c-4,0-7.2,2.9-7.2,7.5s3.1,7.5,7.2,7.5
		C612.7,1011.6,615.8,1008.7,615.8,1004.1z M655.6,1014.8c-1.4,1.1-3.4,1.6-5.4,1.6c-5.3,0-8.3-2.8-8.3-8.1v-11.6h-4v-4.5h4v-5.5
		h5.6v5.5h6.4v4.5h-6.4v11.4c0,2.3,1.2,3.6,3.3,3.6c1.2,0,2.3-0.3,3.1-1L655.6,1014.8z M657.4,1004.1c0-7.2,5.4-12.3,12.8-12.3
		c7.5,0,12.8,5.1,12.8,12.3c0,7.2-5.4,12.3-12.8,12.3C662.8,1016.4,657.4,1011.3,657.4,1004.1z M677.4,1004.1c0-4.6-3.1-7.5-7.2-7.5
		c-4,0-7.1,2.9-7.1,7.5s3.1,7.5,7.1,7.5C674.3,1011.6,677.4,1008.7,677.4,1004.1z M715.3,1014.8c-1.4,1.1-3.4,1.6-5.4,1.6
		c-5.3,0-8.3-2.8-8.3-8.1v-11.6h-4v-4.5h4v-5.5h5.6v5.5h6.4v4.5h-6.4v11.4c0,2.3,1.2,3.6,3.3,3.6c1.2,0,2.3-0.3,3.1-1L715.3,1014.8z
		 M743.6,1002.4v13.8H738v-13c0-4.3-2.1-6.3-5.7-6.3c-4,0-6.7,2.4-6.7,7.2v12.1h-5.6v-33.4h5.6v12.1c1.8-2,4.7-3.1,8-3.1
		C739.3,991.8,743.6,995.1,743.6,1002.4z M773.5,1005.9h-18.9c0.7,3.5,3.6,5.8,7.8,5.8c2.7,0,4.8-0.9,6.5-2.6l3,3.5
		c-2.2,2.6-5.5,3.9-9.7,3.9c-8.1,0-13.3-5.2-13.3-12.3c0-7.2,5.3-12.3,12.4-12.3c7,0,12.1,4.9,12.1,12.4
		C773.6,1004.7,773.5,1005.4,773.5,1005.9z M754.6,1002.2h13.6c-0.5-3.5-3.1-5.8-6.8-5.8C757.8,996.3,755.1,998.7,754.6,1002.2z
		 M202,1054.4c0-9.4,7.2-16.2,16.9-16.2c5.1,0,9.5,1.8,12.5,5.3l-3.8,3.6c-2.3-2.5-5.1-3.7-8.4-3.7c-6.5,0-11.2,4.6-11.2,11.1
		c0,6.5,4.7,11.1,11.2,11.1c3.3,0,6.1-1.2,8.4-3.7l3.8,3.6c-2.9,3.4-7.3,5.3-12.5,5.3C209.2,1070.6,202,1063.8,202,1054.4z
		 M233.5,1058.1c0-7.2,5.4-12.3,12.8-12.3c7.5,0,12.8,5.1,12.8,12.3c0,7.2-5.4,12.3-12.8,12.3
		C238.9,1070.4,233.5,1065.3,233.5,1058.1z M253.5,1058.1c0-4.6-3.1-7.5-7.2-7.5c-4,0-7.1,2.9-7.1,7.5s3.1,7.5,7.1,7.5
		C250.4,1065.6,253.5,1062.7,253.5,1058.1z M304.7,1056.4v13.8h-5.6v-13c0-4.3-2-6.3-5.4-6.3c-3.7,0-6.3,2.4-6.3,7.2v12.2h-5.6v-13
		c0-4.3-2-6.3-5.4-6.3c-3.7,0-6.3,2.4-6.3,7.2v12.2h-5.6v-24h5.4v3.1c1.8-2.2,4.6-3.3,7.9-3.3c3.5,0,6.4,1.3,8.1,4
		c1.9-2.5,5.2-4,9-4C300.7,1045.8,304.7,1049.1,304.7,1056.4z M352.1,1056.4v13.8h-5.6v-13c0-4.3-2-6.3-5.4-6.3
		c-3.7,0-6.3,2.4-6.3,7.2v12.2h-5.6v-13c0-4.3-2-6.3-5.4-6.3c-3.7,0-6.3,2.4-6.3,7.2v12.2h-5.6v-24h5.4v3.1c1.8-2.2,4.6-3.3,7.9-3.3
		c3.5,0,6.4,1.3,8.1,4c1.9-2.5,5.2-4,9-4C348.1,1045.8,352.1,1049.1,352.1,1056.4z M357.5,1058.1c0-7.2,5.4-12.3,12.8-12.3
		c7.5,0,12.8,5.1,12.8,12.3c0,7.2-5.4,12.3-12.8,12.3C362.9,1070.4,357.5,1065.3,357.5,1058.1z M377.5,1058.1c0-4.6-3.1-7.5-7.2-7.5
		c-4,0-7.1,2.9-7.1,7.5s3.1,7.5,7.1,7.5C374.4,1065.6,377.5,1062.7,377.5,1058.1z M412.2,1056.4v13.8h-5.6v-13
		c0-4.3-2.1-6.3-5.7-6.3c-4,0-6.7,2.4-6.7,7.2v12.1h-5.6v-24h5.4v3.1c1.8-2.2,4.8-3.4,8.3-3.4
		C407.9,1045.8,412.2,1049.1,412.2,1056.4z M460.3,1061.6c0,5.4-4.2,8.5-12.3,8.5h-15.7v-31.5h14.8c7.6,0,11.6,3.2,11.6,8.2
		c0,3.2-1.6,5.6-4,6.9C458,1054.8,460.3,1057.5,460.3,1061.6z M438.2,1043.2v8.7h8.3c4,0,6.3-1.4,6.3-4.3c0-2.9-2.3-4.4-6.3-4.4
		H438.2z M454.4,1061c0-3.1-2.4-4.5-6.8-4.5h-9.4v9.1h9.4C452,1065.5,454.4,1064.1,454.4,1061z M466,1036.7h5.6v33.4H466V1036.7z
		 M502.3,1046.1v24H497v-3.1c-1.8,2.2-4.6,3.4-7.7,3.4c-6.2,0-10.3-3.4-10.3-10.6v-13.7h5.6v13c0,4.4,2.1,6.4,5.6,6.4
		c3.9,0,6.6-2.4,6.6-7.2v-12.1H502.3z M532.2,1059.9h-18.9c0.7,3.5,3.6,5.8,7.8,5.8c2.7,0,4.8-0.9,6.5-2.6l3,3.5
		c-2.2,2.6-5.5,3.9-9.7,3.9c-8.1,0-13.3-5.2-13.3-12.3c0-7.2,5.3-12.3,12.4-12.3c7,0,12.1,4.9,12.1,12.4
		C532.3,1058.7,532.2,1059.4,532.2,1059.9z M513.3,1056.2h13.6c-0.5-3.5-3.1-5.8-6.8-5.8C516.5,1050.3,513.8,1052.7,513.3,1056.2z
		 M579.6,1070.1l0-20.9l-10.3,17.3h-2.6l-10.3-17v20.6h-5.6v-31.5h4.8l12.5,20.9l12.3-20.9h4.8l0,31.5H579.6z M591.1,1058.1
		c0-7.2,5.4-12.3,12.8-12.3c7.5,0,12.8,5.1,12.8,12.3c0,7.2-5.4,12.3-12.8,12.3C596.5,1070.4,591.1,1065.3,591.1,1058.1z
		 M611,1058.1c0-4.6-3.1-7.5-7.2-7.5c-4,0-7.1,2.9-7.1,7.5s3.1,7.5,7.1,7.5C608,1065.6,611,1062.7,611,1058.1z M636,1045.8v5.4
		c-0.5-0.1-0.9-0.1-1.3-0.1c-4.3,0-7,2.5-7,7.4v11.7h-5.6v-24h5.4v3.5C629.1,1047.1,632,1045.8,636,1045.8z M666.3,1058.1
		c0,7.5-5.2,12.3-12.2,12.3c-3.1,0-5.8-1-7.7-3.2v11.7h-5.6v-32.8h5.4v3.2c1.9-2.3,4.7-3.4,8-3.4
		C661.1,1045.8,666.3,1050.7,666.3,1058.1z M660.6,1058.1c0-4.6-3.1-7.5-7.1-7.5s-7.2,2.9-7.2,7.5s3.1,7.5,7.2,7.5
		S660.6,1062.7,660.6,1058.1z M695.3,1056.4v13.8h-5.6v-13c0-4.3-2.1-6.3-5.7-6.3c-4,0-6.7,2.4-6.7,7.2v12.1h-5.6v-33.4h5.6v12.1
		c1.8-2,4.7-3.1,8-3.1C691,1045.8,695.3,1049.1,695.3,1056.4z M700.7,1058.1c0-7.2,5.4-12.3,12.8-12.3c7.5,0,12.8,5.1,12.8,12.3
		c0,7.2-5.4,12.3-12.8,12.3C706.1,1070.4,700.7,1065.3,700.7,1058.1z M720.6,1058.1c0-4.6-3.1-7.5-7.2-7.5c-4,0-7.1,2.9-7.1,7.5
		s3.1,7.5,7.1,7.5C717.6,1065.6,720.6,1062.7,720.6,1058.1z M736.8,1066.7c0,1-0.2,1.8-1,3.9l-2.3,6.3h-3.6l1.8-6.9
		c-1.3-0.5-2.1-1.7-2.1-3.3c0-2.2,1.6-3.7,3.6-3.7C735.2,1063,736.8,1064.5,736.8,1066.7z M223.8,1110v14.1h-5.3v-2.9
		c-1.3,2.1-4,3.2-7.6,3.2c-5.5,0-9-3-9-7.2c0-4,2.7-7.2,10-7.2h6.2v-0.4c0-3.3-2-5.2-6-5.2c-2.7,0-5.5,0.9-7.3,2.4l-2.2-4.1
		c2.6-2,6.3-3,10.2-3C219.8,1099.8,223.8,1103.1,223.8,1110z M218.2,1116.6v-2.8h-5.8c-3.8,0-4.9,1.4-4.9,3.2c0,2,1.7,3.3,4.6,3.3
		C214.9,1120.3,217.2,1119.1,218.2,1116.6z M254.7,1110.4v13.8h-5.6v-13c0-4.3-2.1-6.3-5.7-6.3c-4,0-6.7,2.4-6.7,7.2v12.1H231v-24
		h5.4v3.1c1.8-2.2,4.8-3.4,8.3-3.4C250.4,1099.8,254.7,1103.1,254.7,1110.4z M285.6,1090.7v33.4h-5.4v-3.1c-1.9,2.3-4.7,3.4-8,3.4
		c-7,0-12.1-4.9-12.1-12.3s5.2-12.3,12.1-12.3c3.1,0,5.8,1,7.7,3.2v-12.3H285.6z M280.1,1112.1c0-4.6-3.1-7.5-7.2-7.5
		c-4,0-7.2,2.9-7.2,7.5s3.1,7.5,7.2,7.5C277,1119.6,280.1,1116.7,280.1,1112.1z M329.1,1110.4v13.8h-5.6v-13c0-4.3-2.1-6.3-5.7-6.3
		c-4,0-6.7,2.4-6.7,7.2v12.1h-5.6v-33.4h5.6v12.1c1.8-2,4.7-3.1,8-3.1C324.8,1099.8,329.1,1103.1,329.1,1110.4z M356.3,1110v14.1
		H351v-2.9c-1.3,2.1-4,3.2-7.6,3.2c-5.5,0-9-3-9-7.2c0-4,2.7-7.2,10-7.2h6.2v-0.4c0-3.3-2-5.2-6-5.2c-2.7,0-5.5,0.9-7.3,2.4
		l-2.2-4.1c2.6-2,6.3-3,10.2-3C352.3,1099.8,356.3,1103.1,356.3,1110z M350.7,1116.6v-2.8h-5.8c-3.8,0-4.9,1.4-4.9,3.2
		c0,2,1.7,3.3,4.6,3.3C347.4,1120.3,349.8,1119.1,350.7,1116.6z M385.6,1100.1l-10.3,24h-5.8l-10.3-24h5.9l7.5,17.8l7.7-17.8H385.6z
		 M410.9,1113.9h-18.9c0.7,3.5,3.6,5.8,7.8,5.8c2.7,0,4.8-0.9,6.5-2.6l3,3.5c-2.2,2.6-5.5,3.9-9.7,3.9c-8.1,0-13.3-5.2-13.3-12.3
		c0-7.2,5.3-12.3,12.4-12.3c7,0,12.1,4.9,12.1,12.4C411,1112.7,411,1113.4,410.9,1113.9z M392,1110.2h13.6c-0.5-3.5-3.1-5.8-6.8-5.8
		C395.2,1104.3,392.6,1106.7,392,1110.2z M200.9,1175.7l2.2-4.3c2.1,1.4,5.4,2.4,8.4,2.4c3.6,0,5-1,5-2.7c0-4.6-14.8-0.3-14.8-9.9
		c0-4.5,4.1-7.5,10.6-7.5c3.2,0,6.8,0.8,9,2.1l-2.2,4.3c-2.3-1.4-4.6-1.8-6.9-1.8c-3.4,0-5,1.1-5,2.7c0,4.9,14.8,0.5,14.8,9.9
		c0,4.5-4.1,7.4-10.9,7.4C207.1,1178.4,203.1,1177.3,200.9,1175.7z M226.1,1146.8c0-1.9,1.5-3.4,3.6-3.4c2.1,0,3.6,1.4,3.6,3.2
		c0,2-1.5,3.5-3.6,3.5C227.6,1150.1,226.1,1148.6,226.1,1146.8z M226.9,1154.1h5.6v24h-5.6V1154.1z M280.1,1164.4v13.8h-5.6v-13
		c0-4.3-2-6.3-5.4-6.3c-3.7,0-6.3,2.4-6.3,7.2v12.2h-5.6v-13c0-4.3-2-6.3-5.4-6.3c-3.7,0-6.3,2.4-6.3,7.2v12.2h-5.6v-24h5.4v3.1
		c1.8-2.2,4.6-3.3,7.9-3.3c3.5,0,6.4,1.3,8.1,4c1.9-2.5,5.2-4,9-4C276,1153.8,280.1,1157.1,280.1,1164.4z M286.5,1146.8
		c0-1.9,1.5-3.4,3.6-3.4c2.1,0,3.6,1.4,3.6,3.2c0,2-1.5,3.5-3.6,3.5C288,1150.1,286.5,1148.6,286.5,1146.8z M287.3,1154.1h5.6v24
		h-5.6V1154.1z M300.3,1144.7h5.6v33.4h-5.6V1144.7z M333.4,1164v14.1h-5.3v-2.9c-1.3,2.1-4,3.2-7.6,3.2c-5.5,0-9-3-9-7.2
		c0-4,2.7-7.2,10-7.2h6.2v-0.4c0-3.3-2-5.2-6-5.2c-2.7,0-5.5,0.9-7.3,2.4l-2.2-4.1c2.6-2,6.3-3,10.2-3
		C329.4,1153.8,333.4,1157.1,333.4,1164z M327.8,1170.6v-2.8H322c-3.8,0-4.9,1.4-4.9,3.2c0,2,1.7,3.3,4.6,3.3
		C324.4,1174.3,326.8,1173.1,327.8,1170.6z M354.5,1153.8v5.4c-0.5-0.1-0.9-0.1-1.3-0.1c-4.3,0-7,2.5-7,7.4v11.7h-5.6v-24h5.4v3.5
		C347.6,1155.1,350.5,1153.8,354.5,1153.8z M394.4,1167.9h-18.9c0.7,3.5,3.6,5.8,7.8,5.8c2.7,0,4.8-0.9,6.5-2.6l3,3.5
		c-2.2,2.6-5.5,3.9-9.7,3.9c-8.1,0-13.3-5.2-13.3-12.3c0-7.2,5.3-12.3,12.4-12.3c7,0,12.1,4.9,12.1,12.4
		C394.5,1166.7,394.4,1167.4,394.4,1167.9z M375.5,1164.2h13.6c-0.5-3.5-3.1-5.8-6.8-5.8C378.7,1158.3,376,1160.7,375.5,1164.2z
		 M421.9,1154.1l-11.2,26c-2.2,5.4-5.3,7.1-9.3,7.1c-2.4,0-4.9-0.8-6.4-2.2l2.2-4.1c1.1,1,2.6,1.7,4.1,1.7c2,0,3.1-0.9,4.2-3.3
		l0.4-0.9l-10.5-24.1h5.9l7.6,17.8l7.6-17.8H421.9z M447.3,1167.9h-18.9c0.7,3.5,3.6,5.8,7.8,5.8c2.7,0,4.8-0.9,6.5-2.6l3,3.5
		c-2.2,2.6-5.5,3.9-9.7,3.9c-8.1,0-13.3-5.2-13.3-12.3c0-7.2,5.3-12.3,12.4-12.3c7,0,12.1,4.9,12.1,12.4
		C447.4,1166.7,447.3,1167.4,447.3,1167.9z M428.4,1164.2H442c-0.5-3.5-3.1-5.8-6.8-5.8C431.6,1158.3,428.9,1160.7,428.4,1164.2z
		 M450,1175.7l2.2-4.3c2.1,1.4,5.4,2.4,8.4,2.4c3.6,0,5-1,5-2.7c0-4.6-14.8-0.3-14.8-9.9c0-4.5,4.1-7.5,10.6-7.5
		c3.2,0,6.8,0.8,9,2.1l-2.2,4.3c-2.3-1.4-4.6-1.8-6.9-1.8c-3.4,0-5,1.1-5,2.7c0,4.9,14.8,0.5,14.8,9.9c0,4.5-4.1,7.4-10.9,7.4
		C456.2,1178.4,452.2,1177.3,450,1175.7z M501.5,1166.1c0,7.5-5.2,12.3-12.2,12.3c-3.1,0-5.8-1-7.7-3.2v11.7h-5.6v-32.8h5.4v3.2
		c1.9-2.3,4.7-3.4,8-3.4C496.3,1153.8,501.5,1158.7,501.5,1166.1z M495.7,1166.1c0-4.6-3.1-7.5-7.1-7.5s-7.2,2.9-7.2,7.5
		s3.1,7.5,7.2,7.5S495.7,1170.7,495.7,1166.1z M504.8,1166.1c0-7.2,5.4-12.3,12.8-12.3c7.5,0,12.8,5.1,12.8,12.3
		c0,7.2-5.4,12.3-12.8,12.3C510.2,1178.4,504.8,1173.3,504.8,1166.1z M524.8,1166.1c0-4.6-3.1-7.5-7.2-7.5c-4,0-7.1,2.9-7.1,7.5
		s3.1,7.5,7.1,7.5C521.7,1173.6,524.8,1170.7,524.8,1166.1z M550.3,1176.8c-1.4,1.1-3.4,1.6-5.4,1.6c-5.3,0-8.3-2.8-8.3-8.1v-11.6
		h-4v-4.5h4v-5.5h5.6v5.5h6.4v4.5h-6.4v11.4c0,2.3,1.2,3.6,3.3,3.6c1.2,0,2.3-0.3,3.1-1L550.3,1176.8z M552.2,1175.7l2.2-4.3
		c2.1,1.4,5.4,2.4,8.4,2.4c3.6,0,5-1,5-2.7c0-4.6-14.8-0.3-14.8-9.9c0-4.5,4.1-7.5,10.6-7.5c3.2,0,6.8,0.8,9,2.1l-2.2,4.3
		c-2.3-1.4-4.6-1.8-6.9-1.8c-3.4,0-5,1.1-5,2.7c0,4.9,14.8,0.5,14.8,9.9c0,4.5-4.1,7.4-10.9,7.4
		C558.3,1178.4,554.3,1177.3,552.2,1175.7z M588.5,1166.1c0-7.2,5.4-12.3,12.8-12.3c7.5,0,12.8,5.1,12.8,12.3
		c0,7.2-5.4,12.3-12.8,12.3C593.9,1178.4,588.5,1173.3,588.5,1166.1z M608.5,1166.1c0-4.6-3.1-7.5-7.2-7.5c-4,0-7.1,2.9-7.1,7.5
		s3.1,7.5,7.1,7.5C605.4,1173.6,608.5,1170.7,608.5,1166.1z M643.2,1164.4v13.8h-5.6v-13c0-4.3-2.1-6.3-5.7-6.3
		c-4,0-6.7,2.4-6.7,7.2v12.1h-5.6v-24h5.4v3.1c1.8-2.2,4.8-3.4,8.3-3.4C638.9,1153.8,643.2,1157.1,643.2,1164.4z M677.2,1176.8
		c-1.4,1.1-3.4,1.6-5.4,1.6c-5.3,0-8.3-2.8-8.3-8.1v-11.6h-4v-4.5h4v-5.5h5.6v5.5h6.4v4.5h-6.4v11.4c0,2.3,1.2,3.6,3.3,3.6
		c1.2,0,2.3-0.3,3.1-1L677.2,1176.8z M705.5,1164.4v13.8h-5.6v-13c0-4.3-2.1-6.3-5.7-6.3c-4,0-6.7,2.4-6.7,7.2v12.1h-5.6v-33.4h5.6
		v12.1c1.8-2,4.7-3.1,8-3.1C701.3,1153.8,705.5,1157.1,705.5,1164.4z M735.4,1167.9h-18.9c0.7,3.5,3.6,5.8,7.8,5.8
		c2.7,0,4.8-0.9,6.5-2.6l3,3.5c-2.2,2.6-5.5,3.9-9.7,3.9c-8.1,0-13.3-5.2-13.3-12.3c0-7.2,5.3-12.3,12.4-12.3
		c7,0,12.1,4.9,12.1,12.4C735.5,1166.7,735.5,1167.4,735.4,1167.9z M716.5,1164.2h13.6c-0.5-3.5-3.1-5.8-6.8-5.8
		C719.7,1158.3,717,1160.7,716.5,1164.2z M201.7,1220.1c0-7.2,5.4-12.3,12.8-12.3c7.5,0,12.8,5.1,12.8,12.3
		c0,7.2-5.4,12.3-12.8,12.3C207.1,1232.4,201.7,1227.3,201.7,1220.1z M221.6,1220.1c0-4.6-3.1-7.5-7.2-7.5c-4,0-7.1,2.9-7.1,7.5
		s3.1,7.5,7.1,7.5C218.6,1227.6,221.6,1224.7,221.6,1220.1z M256,1208.1v24h-5.4v-3.1c-1.8,2.2-4.6,3.4-7.7,3.4
		c-6.2,0-10.3-3.4-10.3-10.6v-13.7h5.6v13c0,4.4,2.1,6.4,5.6,6.4c3.9,0,6.6-2.4,6.6-7.2v-12.1H256z M277.8,1230.8
		c-1.4,1.1-3.4,1.6-5.4,1.6c-5.3,0-8.3-2.8-8.3-8.1v-11.6h-4v-4.5h4v-5.5h5.6v5.5h6.4v4.5h-6.4v11.4c0,2.3,1.2,3.6,3.3,3.6
		c1.2,0,2.3-0.3,3.1-1L277.8,1230.8z M304.1,1221.9h-18.9c0.7,3.5,3.6,5.8,7.8,5.8c2.7,0,4.8-0.9,6.5-2.6l3,3.5
		c-2.2,2.6-5.5,3.9-9.7,3.9c-8.1,0-13.3-5.2-13.3-12.3c0-7.2,5.3-12.3,12.4-12.3c7,0,12.1,4.9,12.1,12.4
		C304.2,1220.7,304.2,1221.4,304.1,1221.9z M285.2,1218.2h13.6c-0.5-3.5-3.1-5.8-6.8-5.8C288.4,1212.3,285.8,1214.7,285.2,1218.2z
		 M323.5,1207.8v5.4c-0.5-0.1-0.9-0.1-1.3-0.1c-4.3,0-7,2.5-7,7.4v11.7h-5.6v-24h5.4v3.5C316.6,1209.1,319.5,1207.8,323.5,1207.8z
		 M366.5,1220.1c0,7.5-5.2,12.3-12.2,12.3c-3.1,0-5.8-1-7.7-3.2v11.7h-5.6v-32.8h5.4v3.2c1.9-2.3,4.7-3.4,8-3.4
		C361.3,1207.8,366.5,1212.7,366.5,1220.1z M360.7,1220.1c0-4.6-3.1-7.5-7.1-7.5s-7.2,2.9-7.2,7.5s3.1,7.5,7.2,7.5
		S360.7,1224.7,360.7,1220.1z M369.8,1220.1c0-7.2,5.4-12.3,12.8-12.3c7.5,0,12.8,5.1,12.8,12.3c0,7.2-5.4,12.3-12.8,12.3
		C375.2,1232.4,369.8,1227.3,369.8,1220.1z M389.8,1220.1c0-4.6-3.1-7.5-7.2-7.5c-4,0-7.1,2.9-7.1,7.5s3.1,7.5,7.1,7.5
		C386.7,1227.6,389.8,1224.7,389.8,1220.1z M414.7,1207.8v5.4c-0.5-0.1-0.9-0.1-1.3-0.1c-4.3,0-7,2.5-7,7.4v11.7h-5.6v-24h5.4v3.5
		C407.8,1209.1,410.7,1207.8,414.7,1207.8z M434.9,1230.8c-1.4,1.1-3.4,1.6-5.4,1.6c-5.3,0-8.3-2.8-8.3-8.1v-11.6h-4v-4.5h4v-5.5
		h5.6v5.5h6.4v4.5h-6.4v11.4c0,2.3,1.2,3.6,3.3,3.6c1.2,0,2.3-0.3,3.1-1L434.9,1230.8z M438.7,1200.8c0-1.9,1.5-3.4,3.6-3.4
		c2.1,0,3.6,1.4,3.6,3.2c0,2-1.5,3.5-3.6,3.5C440.3,1204.1,438.7,1202.6,438.7,1200.8z M439.5,1208.1h5.6v24h-5.6V1208.1z
		 M450.5,1220.1c0-7.2,5.4-12.3,12.8-12.3c7.5,0,12.8,5.1,12.8,12.3c0,7.2-5.4,12.3-12.8,12.3
		C455.9,1232.4,450.5,1227.3,450.5,1220.1z M470.5,1220.1c0-4.6-3.1-7.5-7.2-7.5c-4,0-7.1,2.9-7.1,7.5s3.1,7.5,7.1,7.5
		C467.4,1227.6,470.5,1224.7,470.5,1220.1z M505.2,1218.4v13.8h-5.6v-13c0-4.3-2.1-6.3-5.7-6.3c-4,0-6.7,2.4-6.7,7.2v12.1h-5.6v-24
		h5.4v3.1c1.8-2.2,4.8-3.4,8.3-3.4C500.9,1207.8,505.2,1211.1,505.2,1218.4z M522.8,1220.1c0-7.2,5.4-12.3,12.8-12.3
		c7.5,0,12.8,5.1,12.8,12.3c0,7.2-5.4,12.3-12.8,12.3C528.2,1232.4,522.8,1227.3,522.8,1220.1z M542.7,1220.1c0-4.6-3.1-7.5-7.2-7.5
		c-4,0-7.1,2.9-7.1,7.5s3.1,7.5,7.1,7.5C539.7,1227.6,542.7,1224.7,542.7,1220.1z M560,1206.8v1.4h6.6v4.5h-6.4v19.3h-5.6v-19.3h-4
		v-4.5h4v-1.5c0-5,3-8.3,8.6-8.3c1.9,0,3.8,0.4,5.1,1.3l-1.6,4.2c-0.9-0.6-1.9-1-3.1-1C561.2,1203,560,1204.3,560,1206.8z
		 M597.3,1230.8c-1.4,1.1-3.4,1.6-5.4,1.6c-5.3,0-8.3-2.8-8.3-8.1v-11.6h-4v-4.5h4v-5.5h5.6v5.5h6.4v4.5h-6.4v11.4
		c0,2.3,1.2,3.6,3.3,3.6c1.2,0,2.3-0.3,3.1-1L597.3,1230.8z M625.6,1218.4v13.8h-5.6v-13c0-4.3-2.1-6.3-5.7-6.3
		c-4,0-6.7,2.4-6.7,7.2v12.1h-5.6v-33.4h5.6v12.1c1.8-2,4.7-3.1,8-3.1C621.3,1207.8,625.6,1211.1,625.6,1218.4z M655.4,1221.9h-18.9
		c0.7,3.5,3.6,5.8,7.8,5.8c2.7,0,4.8-0.9,6.5-2.6l3,3.5c-2.2,2.6-5.5,3.9-9.7,3.9c-8.1,0-13.3-5.2-13.3-12.3
		c0-7.2,5.3-12.3,12.4-12.3c7,0,12.1,4.9,12.1,12.4C655.5,1220.7,655.5,1221.4,655.4,1221.9z M636.5,1218.2h13.6
		c-0.5-3.5-3.1-5.8-6.8-5.8C639.7,1212.3,637.1,1214.7,636.5,1218.2z M660.2,1200.8c0-1.9,1.5-3.4,3.6-3.4c2.1,0,3.6,1.4,3.6,3.2
		c0,2-1.5,3.5-3.6,3.5C661.7,1204.1,660.2,1202.6,660.2,1200.8z M660.9,1208.1h5.6v24h-5.6V1208.1z M687.8,1207.8v5.4
		c-0.5-0.1-0.9-0.1-1.3-0.1c-4.3,0-7,2.5-7,7.4v11.7h-5.6v-24h5.4v3.5C680.9,1209.1,683.8,1207.8,687.8,1207.8z M241.2,1262.1
		l-8.9,24h-5.4l-6.2-16.6l-6.3,16.6H209l-8.8-24h5.3l6.3,17.7l6.6-17.7h4.7l6.5,17.8l6.5-17.8H241.2z M244.3,1254.8
		c0-1.9,1.5-3.4,3.6-3.4c2.1,0,3.6,1.4,3.6,3.2c0,2-1.5,3.5-3.6,3.5C245.8,1258.1,244.3,1256.6,244.3,1254.8z M245,1262.1h5.6v24
		H245V1262.1z M281.7,1272.4v13.8h-5.6v-13c0-4.3-2.1-6.3-5.7-6.3c-4,0-6.7,2.4-6.7,7.2v12.1h-5.6v-24h5.4v3.1
		c1.8-2.2,4.8-3.4,8.3-3.4C277.4,1261.8,281.7,1265.1,281.7,1272.4z M313,1262.1v20.4c0,8.7-4.5,12.7-13,12.7c-4.5,0-9-1.2-11.7-3.4
		l2.5-4.2c2.1,1.8,5.5,2.9,8.9,2.9c5.3,0,7.6-2.4,7.6-7.3v-1.3c-2,2.2-4.8,3.2-8.1,3.2c-6.9,0-12.1-4.7-12.1-11.7
		s5.3-11.6,12.1-11.6c3.4,0,6.3,1.1,8.3,3.5v-3.2H313z M307.4,1273.4c0-4-3.1-6.8-7.3-6.8c-4.3,0-7.3,2.7-7.3,6.8
		c0,4.1,3.1,6.9,7.3,6.9C304.4,1280.3,307.4,1277.5,307.4,1273.4z M317.6,1283.7l2.2-4.3c2.1,1.4,5.4,2.4,8.4,2.4c3.6,0,5-1,5-2.7
		c0-4.6-14.8-0.3-14.8-9.9c0-4.5,4.1-7.5,10.6-7.5c3.2,0,6.8,0.8,9,2.1l-2.2,4.3c-2.3-1.4-4.6-1.8-6.9-1.8c-3.4,0-5,1.1-5,2.7
		c0,4.9,14.8,0.5,14.8,9.9c0,4.5-4.1,7.4-10.9,7.4C323.8,1286.4,319.7,1285.3,317.6,1283.7z M341.6,1282.7c0-2.2,1.7-3.7,3.7-3.7
		s3.7,1.5,3.7,3.7c0,2.2-1.7,3.7-3.7,3.7S341.6,1284.9,341.6,1282.7z M250.3,1362.6l-10.4,31.5h-6.2l-7.8-23.3l-7.9,23.3h-6.3
		l-10.4-31.5h6.1l7.8,23.9l8.1-23.9h5.4l8,24.1l8.1-24.1H250.3z M278.8,1380.4v13.8h-5.6v-13c0-4.3-2.1-6.3-5.7-6.3
		c-4,0-6.7,2.4-6.7,7.2v12.1h-5.6v-33.4h5.6v12.1c1.8-2,4.7-3.1,8-3.1C274.6,1369.8,278.8,1373.1,278.8,1380.4z M285.2,1362.8
		c0-1.9,1.5-3.4,3.6-3.4c2.1,0,3.6,1.4,3.6,3.2c0,2-1.5,3.5-3.6,3.5C286.8,1366.1,285.2,1364.6,285.2,1362.8z M286,1370.1h5.6v24
		H286V1370.1z M313.4,1392.8c-1.4,1.1-3.4,1.6-5.4,1.6c-5.3,0-8.3-2.8-8.3-8.1v-11.6h-4v-4.5h4v-5.5h5.6v5.5h6.4v4.5h-6.4v11.4
		c0,2.3,1.2,3.6,3.3,3.6c1.2,0,2.3-0.3,3.1-1L313.4,1392.8z M339.8,1383.9h-18.9c0.7,3.5,3.6,5.8,7.8,5.8c2.7,0,4.8-0.9,6.5-2.6
		l3,3.5c-2.2,2.6-5.5,3.9-9.7,3.9c-8.1,0-13.3-5.2-13.3-12.3c0-7.2,5.3-12.3,12.4-12.3c7,0,12.1,4.9,12.1,12.4
		C339.9,1382.7,339.8,1383.4,339.8,1383.9z M320.9,1380.2h13.6c-0.5-3.5-3.1-5.8-6.8-5.8C324.1,1374.3,321.4,1376.7,320.9,1380.2z
		 M387.2,1394.1l0-20.9l-10.3,17.3h-2.6l-10.3-17v20.6h-5.6v-31.5h4.8l12.5,20.9l12.3-20.9h4.8l0,31.5H387.2z M398.7,1382.1
		c0-7.2,5.4-12.3,12.8-12.3c7.5,0,12.8,5.1,12.8,12.3c0,7.2-5.4,12.3-12.8,12.3C404.1,1394.4,398.7,1389.3,398.7,1382.1z
		 M418.6,1382.1c0-4.6-3.1-7.5-7.2-7.5c-4,0-7.1,2.9-7.1,7.5s3.1,7.5,7.1,7.5C415.6,1389.6,418.6,1386.7,418.6,1382.1z
		 M443.6,1369.8v5.4c-0.5-0.1-0.9-0.1-1.3-0.1c-4.3,0-7,2.5-7,7.4v11.7h-5.6v-24h5.4v3.5C436.7,1371.1,439.6,1369.8,443.6,1369.8z
		 M473.9,1382.1c0,7.5-5.2,12.3-12.2,12.3c-3.1,0-5.8-1-7.7-3.2v11.7h-5.6v-32.8h5.4v3.2c1.9-2.3,4.7-3.4,8-3.4
		C468.7,1369.8,473.9,1374.7,473.9,1382.1z M468.2,1382.1c0-4.6-3.1-7.5-7.1-7.5s-7.2,2.9-7.2,7.5s3.1,7.5,7.2,7.5
		S468.2,1386.7,468.2,1382.1z M502.9,1380.4v13.8h-5.6v-13c0-4.3-2.1-6.3-5.7-6.3c-4,0-6.7,2.4-6.7,7.2v12.1h-5.6v-33.4h5.6v12.1
		c1.8-2,4.7-3.1,8-3.1C498.6,1369.8,502.9,1373.1,502.9,1380.4z M508.3,1382.1c0-7.2,5.4-12.3,12.8-12.3c7.5,0,12.8,5.1,12.8,12.3
		c0,7.2-5.4,12.3-12.8,12.3C513.7,1394.4,508.3,1389.3,508.3,1382.1z M528.2,1382.1c0-4.6-3.1-7.5-7.2-7.5c-4,0-7.1,2.9-7.1,7.5
		s3.1,7.5,7.1,7.5C525.2,1389.6,528.2,1386.7,528.2,1382.1z M549.7,1382.1c0-7.2,5.4-12.3,13-12.3c4.7,0,8.4,1.9,10.3,5.6l-4.3,2.5
		c-1.4-2.3-3.6-3.3-6-3.3c-4.1,0-7.3,2.9-7.3,7.5c0,4.7,3.1,7.5,7.3,7.5c2.4,0,4.5-1,6-3.3l4.3,2.5c-1.8,3.6-5.6,5.6-10.3,5.6
		C555.1,1394.4,549.7,1389.3,549.7,1382.1z M598,1380v14.1h-5.3v-2.9c-1.3,2.1-4,3.2-7.6,3.2c-5.5,0-9-3-9-7.2c0-4,2.7-7.2,10-7.2
		h6.2v-0.4c0-3.3-2-5.2-6-5.2c-2.7,0-5.5,0.9-7.3,2.4l-2.2-4.1c2.6-2,6.3-3,10.2-3C594,1369.8,598,1373.1,598,1380z M592.4,1386.6
		v-2.8h-5.8c-3.8,0-4.9,1.4-4.9,3.2c0,2,1.7,3.3,4.6,3.3C589,1390.3,591.4,1389.1,592.4,1386.6z M619.6,1392.8
		c-1.4,1.1-3.4,1.6-5.4,1.6c-5.3,0-8.3-2.8-8.3-8.1v-11.6h-4v-4.5h4v-5.5h5.6v5.5h6.4v4.5h-6.4v11.4c0,2.3,1.2,3.6,3.3,3.6
		c1.2,0,2.3-0.3,3.1-1L619.6,1392.8z M645.9,1383.9h-18.9c0.7,3.5,3.6,5.8,7.8,5.8c2.7,0,4.8-0.9,6.5-2.6l3,3.5
		c-2.2,2.6-5.5,3.9-9.7,3.9c-8.1,0-13.3-5.2-13.3-12.3c0-7.2,5.3-12.3,12.4-12.3c7,0,12.1,4.9,12.1,12.4
		C646,1382.7,646,1383.4,645.9,1383.9z M627,1380.2h13.6c-0.5-3.5-3.1-5.8-6.8-5.8C630.2,1374.3,627.6,1376.7,627,1380.2z
		 M677,1382.1c0,7.5-5.2,12.3-12.2,12.3c-3.1,0-5.8-1-7.7-3.2v11.7h-5.6v-32.8h5.4v3.2c1.9-2.3,4.7-3.4,8-3.4
		C671.8,1369.8,677,1374.7,677,1382.1z M671.2,1382.1c0-4.6-3.1-7.5-7.1-7.5s-7.2,2.9-7.2,7.5s3.1,7.5,7.2,7.5
		S671.2,1386.7,671.2,1382.1z M681.5,1362.8c0-1.9,1.5-3.4,3.6-3.4c2.1,0,3.6,1.4,3.6,3.2c0,2-1.5,3.5-3.6,3.5
		C683.1,1366.1,681.5,1364.6,681.5,1362.8z M682.3,1370.1h5.6v24h-5.6V1370.1z M695.3,1360.7h5.6v33.4h-5.6V1360.7z M708.3,1360.7
		h5.6v33.4h-5.6V1360.7z M741.4,1380v14.1h-5.3v-2.9c-1.3,2.1-4,3.2-7.6,3.2c-5.5,0-9-3-9-7.2c0-4,2.7-7.2,10-7.2h6.2v-0.4
		c0-3.3-2-5.2-6-5.2c-2.7,0-5.5,0.9-7.3,2.4l-2.2-4.1c2.6-2,6.3-3,10.2-3C737.4,1369.8,741.4,1373.1,741.4,1380z M735.8,1386.6v-2.8
		H730c-3.8,0-4.9,1.4-4.9,3.2c0,2,1.7,3.3,4.6,3.3C732.5,1390.3,734.9,1389.1,735.8,1386.6z M762.5,1369.8v5.4
		c-0.5-0.1-0.9-0.1-1.3-0.1c-4.3,0-7,2.5-7,7.4v11.7h-5.6v-24h5.4v3.5C755.6,1371.1,758.5,1369.8,762.5,1369.8z M764.7,1391.7
		l2.2-4.3c2.1,1.4,5.4,2.4,8.4,2.4c3.6,0,5-1,5-2.7c0-4.6-14.8-0.3-14.8-9.9c0-4.5,4.1-7.5,10.6-7.5c3.2,0,6.8,0.8,9,2.1l-2.2,4.3
		c-2.3-1.4-4.6-1.8-6.9-1.8c-3.4,0-5,1.1-5,2.7c0,4.9,14.8,0.5,14.8,9.9c0,4.5-4.1,7.4-10.9,7.4
		C770.8,1394.4,766.8,1393.3,764.7,1391.7z M209.9,1422.8v1.4h6.6v4.5h-6.4v19.3h-5.6v-19.3h-4v-4.5h4v-1.5c0-5,3-8.3,8.6-8.3
		c1.9,0,3.8,0.4,5.1,1.3l-1.6,4.2c-0.9-0.6-1.9-1-3.1-1C211.1,1419,209.9,1420.3,209.9,1422.8z M242.4,1437.9h-18.9
		c0.7,3.5,3.6,5.8,7.8,5.8c2.7,0,4.8-0.9,6.5-2.6l3,3.5c-2.2,2.6-5.5,3.9-9.7,3.9c-8.1,0-13.3-5.2-13.3-12.3
		c0-7.2,5.3-12.3,12.4-12.3c7,0,12.1,4.9,12.1,12.4C242.5,1436.7,242.5,1437.4,242.4,1437.9z M223.5,1434.2h13.6
		c-0.5-3.5-3.1-5.8-6.8-5.8C226.7,1428.3,224.1,1430.7,223.5,1434.2z M270.4,1437.9h-18.9c0.7,3.5,3.6,5.8,7.8,5.8
		c2.7,0,4.8-0.9,6.5-2.6l3,3.5c-2.2,2.6-5.5,3.9-9.7,3.9c-8.1,0-13.3-5.2-13.3-12.3c0-7.2,5.3-12.3,12.4-12.3
		c7,0,12.1,4.9,12.1,12.4C270.5,1436.7,270.5,1437.4,270.4,1437.9z M251.5,1434.2h13.6c-0.5-3.5-3.1-5.8-6.8-5.8
		C254.7,1428.3,252.1,1430.7,251.5,1434.2z M299.5,1414.7v33.4h-5.4v-3.1c-1.9,2.3-4.7,3.4-8,3.4c-7,0-12.1-4.9-12.1-12.3
		s5.2-12.3,12.1-12.3c3.1,0,5.8,1,7.7,3.2v-12.3H299.5z M293.9,1436.1c0-4.6-3.1-7.5-7.2-7.5c-4,0-7.2,2.9-7.2,7.5s3.1,7.5,7.2,7.5
		C290.8,1443.6,293.9,1440.7,293.9,1436.1z M317.3,1436.1c0-7.2,5.4-12.3,12.8-12.3c7.5,0,12.8,5.1,12.8,12.3
		c0,7.2-5.4,12.3-12.8,12.3C322.7,1448.4,317.3,1443.3,317.3,1436.1z M337.2,1436.1c0-4.6-3.1-7.5-7.2-7.5c-4,0-7.1,2.9-7.1,7.5
		s3.1,7.5,7.1,7.5C334.1,1443.6,337.2,1440.7,337.2,1436.1z M371.9,1434.4v13.8h-5.6v-13c0-4.3-2.1-6.3-5.7-6.3
		c-4,0-6.7,2.4-6.7,7.2v12.1h-5.6v-24h5.4v3.1c1.8-2.2,4.8-3.4,8.3-3.4C367.7,1423.8,371.9,1427.1,371.9,1434.4z M406,1446.8
		c-1.4,1.1-3.4,1.6-5.4,1.6c-5.3,0-8.3-2.8-8.3-8.1v-11.6h-4v-4.5h4v-5.5h5.6v5.5h6.4v4.5h-6.4v11.4c0,2.3,1.2,3.6,3.3,3.6
		c1.2,0,2.3-0.3,3.1-1L406,1446.8z M434.3,1434.4v13.8h-5.6v-13c0-4.3-2.1-6.3-5.7-6.3c-4,0-6.7,2.4-6.7,7.2v12.1h-5.6v-33.4h5.6
		v12.1c1.8-2,4.7-3.1,8-3.1C430,1423.8,434.3,1427.1,434.3,1434.4z M464.1,1437.9h-18.9c0.7,3.5,3.6,5.8,7.8,5.8
		c2.7,0,4.8-0.9,6.5-2.6l3,3.5c-2.2,2.6-5.5,3.9-9.7,3.9c-8.1,0-13.3-5.2-13.3-12.3c0-7.2,5.3-12.3,12.4-12.3
		c7,0,12.1,4.9,12.1,12.4C464.2,1436.7,464.2,1437.4,464.1,1437.9z M445.3,1434.2h13.6c-0.5-3.5-3.1-5.8-6.8-5.8
		C448.4,1428.3,445.8,1430.7,445.3,1434.2z M509,1427.8c0,6.9-5.1,11.2-13.4,11.2h-7.1v9.1h-5.8v-31.5h13
		C503.8,1416.6,509,1420.9,509,1427.8z M503.1,1427.8c0-4-2.7-6.3-7.8-6.3h-6.8v12.5h6.8C500.4,1434.1,503.1,1431.8,503.1,1427.8z
		 M512.2,1436.1c0-7.2,5.4-12.3,12.8-12.3c7.5,0,12.8,5.1,12.8,12.3c0,7.2-5.4,12.3-12.8,12.3
		C517.6,1448.4,512.2,1443.3,512.2,1436.1z M532.1,1436.1c0-4.6-3.1-7.5-7.2-7.5c-4,0-7.1,2.9-7.1,7.5s3.1,7.5,7.1,7.5
		C529.1,1443.6,532.1,1440.7,532.1,1436.1z M580,1424.1l-8.9,24h-5.4l-6.2-16.6l-6.3,16.6h-5.4l-8.8-24h5.3l6.3,17.7l6.6-17.7h4.7
		l6.5,17.8l6.5-17.8H580z M606.8,1414.7v33.4h-5.4v-3.1c-1.9,2.3-4.7,3.4-8,3.4c-7,0-12.1-4.9-12.1-12.3s5.2-12.3,12.1-12.3
		c3.1,0,5.8,1,7.7,3.2v-12.3H606.8z M601.2,1436.1c0-4.6-3.1-7.5-7.2-7.5c-4,0-7.2,2.9-7.2,7.5s3.1,7.5,7.2,7.5
		C598.1,1443.6,601.2,1440.7,601.2,1436.1z M636.6,1437.9h-18.9c0.7,3.5,3.6,5.8,7.8,5.8c2.7,0,4.8-0.9,6.5-2.6l3,3.5
		c-2.2,2.6-5.5,3.9-9.7,3.9c-8.1,0-13.3-5.2-13.3-12.3c0-7.2,5.3-12.3,12.4-12.3c7,0,12.1,4.9,12.1,12.4
		C636.7,1436.7,636.7,1437.4,636.6,1437.9z M617.7,1434.2h13.6c-0.5-3.5-3.1-5.8-6.8-5.8C620.9,1428.3,618.3,1430.7,617.7,1434.2z
		 M656,1423.8v5.4c-0.5-0.1-0.9-0.1-1.3-0.1c-4.3,0-7,2.5-7,7.4v11.7h-5.6v-24h5.4v3.5C649.1,1425.1,652,1423.8,656,1423.8z
		 M700.4,1427.8c0,6.9-5.1,11.2-13.4,11.2h-7.1v9.1H674v-31.5h13C695.2,1416.6,700.4,1420.9,700.4,1427.8z M694.5,1427.8
		c0-4-2.7-6.3-7.8-6.3h-6.8v12.5h6.8C691.8,1434.1,694.5,1431.8,694.5,1427.8z M729.4,1424.1v24H724v-3.1c-1.8,2.2-4.6,3.4-7.7,3.4
		c-6.2,0-10.3-3.4-10.3-10.6v-13.7h5.6v13c0,4.4,2.1,6.4,5.6,6.4c3.9,0,6.6-2.4,6.6-7.2v-12.1H729.4z M743,1422.8v1.4h6.6v4.5h-6.4
		v19.3h-5.6v-19.3h-4v-4.5h4v-1.5c0-5,3-8.3,8.6-8.3c1.9,0,3.8,0.4,5.1,1.3l-1.6,4.2c-0.9-0.6-1.9-1-3.1-1
		C744.2,1419,743,1420.3,743,1422.8z M759.6,1422.8v1.4h6.6v4.5h-6.4v19.3h-5.6v-19.3h-4v-4.5h4v-1.5c0-5,3-8.3,8.6-8.3
		c1.9,0,3.8,0.4,5.1,1.3l-1.6,4.2c-0.9-0.6-1.9-1-3.1-1C760.8,1419,759.6,1420.3,759.6,1422.8z M229.2,1490.1
		c0,7.5-5.2,12.3-12.2,12.3c-3.1,0-5.8-1-7.7-3.2v11.7h-5.6v-32.8h5.4v3.2c1.9-2.3,4.7-3.4,8-3.4
		C224,1477.8,229.2,1482.7,229.2,1490.1z M223.5,1490.1c0-4.6-3.1-7.5-7.1-7.5s-7.2,2.9-7.2,7.5s3.1,7.5,7.2,7.5
		S223.5,1494.7,223.5,1490.1z M234.6,1468.7h5.6v33.4h-5.6V1468.7z M267.7,1488v14.1h-5.3v-2.9c-1.3,2.1-4,3.2-7.6,3.2
		c-5.5,0-9-3-9-7.2c0-4,2.7-7.2,10-7.2h6.2v-0.4c0-3.3-2-5.2-6-5.2c-2.7,0-5.5,0.9-7.3,2.4l-2.2-4.1c2.6-2,6.3-3,10.2-3
		C263.7,1477.8,267.7,1481.1,267.7,1488z M262.1,1494.6v-2.8h-5.8c-3.8,0-4.9,1.4-4.9,3.2c0,2,1.7,3.3,4.6,3.3
		C258.7,1498.3,261.1,1497.1,262.1,1494.6z M298.6,1488.4v13.8h-5.6v-13c0-4.3-2.1-6.3-5.7-6.3c-4,0-6.7,2.4-6.7,7.2v12.1h-5.6v-24
		h5.4v3.1c1.8-2.2,4.8-3.4,8.3-3.4C294.3,1477.8,298.6,1481.1,298.6,1488.4z M320.2,1500.8c-1.4,1.1-3.4,1.6-5.4,1.6
		c-5.3,0-8.3-2.8-8.3-8.1v-11.6h-4v-4.5h4v-5.5h5.6v5.5h6.4v4.5h-6.4v11.4c0,2.3,1.2,3.6,3.3,3.6c1.2,0,2.3-0.3,3.1-1L320.2,1500.8z
		 M322,1499.7l2.2-4.3c2.1,1.4,5.4,2.4,8.4,2.4c3.6,0,5-1,5-2.7c0-4.6-14.8-0.3-14.8-9.9c0-4.5,4.1-7.5,10.6-7.5
		c3.2,0,6.8,0.8,9,2.1l-2.2,4.3c-2.3-1.4-4.6-1.8-6.9-1.8c-3.4,0-5,1.1-5,2.7c0,4.9,14.8,0.5,14.8,9.9c0,4.5-4.1,7.4-10.9,7.4
		C328.2,1502.4,324.2,1501.3,322,1499.7z M353.5,1498.7c0,1-0.2,1.8-1,3.9l-2.3,6.3h-3.6l1.8-6.9c-1.3-0.5-2.1-1.7-2.1-3.3
		c0-2.2,1.6-3.7,3.6-3.7C351.9,1495,353.5,1496.5,353.5,1498.7z M408.8,1478.1l-8.9,24h-5.4l-6.2-16.6l-6.3,16.6h-5.4l-8.8-24h5.3
		l6.3,17.7l6.6-17.7h4.7l6.5,17.8l6.5-17.8H408.8z M436.4,1488.4v13.8h-5.6v-13c0-4.3-2.1-6.3-5.7-6.3c-4,0-6.7,2.4-6.7,7.2v12.1
		h-5.6v-33.4h5.6v12.1c1.8-2,4.7-3.1,8-3.1C432.1,1477.8,436.4,1481.1,436.4,1488.4z M442.8,1470.8c0-1.9,1.5-3.4,3.6-3.4
		c2.1,0,3.6,1.4,3.6,3.2c0,2-1.5,3.5-3.6,3.5C444.3,1474.1,442.8,1472.6,442.8,1470.8z M443.5,1478.1h5.6v24h-5.6V1478.1z
		 M454.6,1490.1c0-7.2,5.4-12.3,13-12.3c4.7,0,8.4,1.9,10.3,5.6l-4.3,2.5c-1.4-2.3-3.6-3.3-6-3.3c-4.1,0-7.3,2.9-7.3,7.5
		c0,4.7,3.1,7.5,7.3,7.5c2.4,0,4.5-1,6-3.3l4.3,2.5c-1.8,3.6-5.6,5.6-10.3,5.6C460,1502.4,454.6,1497.3,454.6,1490.1z M506.1,1488.4
		v13.8h-5.6v-13c0-4.3-2.1-6.3-5.7-6.3c-4,0-6.7,2.4-6.7,7.2v12.1h-5.6v-33.4h5.6v12.1c1.8-2,4.7-3.1,8-3.1
		C501.9,1477.8,506.1,1481.1,506.1,1488.4z M523.7,1490.1c0-7.2,5.4-12.3,13-12.3c4.7,0,8.4,1.9,10.3,5.6l-4.3,2.5
		c-1.4-2.3-3.6-3.3-6-3.3c-4.1,0-7.3,2.9-7.3,7.5c0,4.7,3.1,7.5,7.3,7.5c2.4,0,4.5-1,6-3.3l4.3,2.5c-1.8,3.6-5.6,5.6-10.3,5.6
		C529.1,1502.4,523.7,1497.3,523.7,1490.1z M572,1488v14.1h-5.3v-2.9c-1.3,2.1-4,3.2-7.6,3.2c-5.5,0-9-3-9-7.2c0-4,2.7-7.2,10-7.2
		h6.2v-0.4c0-3.3-2-5.2-6-5.2c-2.7,0-5.5,0.9-7.3,2.4l-2.2-4.1c2.6-2,6.3-3,10.2-3C568,1477.8,572,1481.1,572,1488z M566.3,1494.6
		v-2.8h-5.8c-3.8,0-4.9,1.4-4.9,3.2c0,2,1.7,3.3,4.6,3.3C563,1498.3,565.4,1497.1,566.3,1494.6z M602.8,1488.4v13.8h-5.6v-13
		c0-4.3-2.1-6.3-5.7-6.3c-4,0-6.7,2.4-6.7,7.2v12.1h-5.6v-24h5.4v3.1c1.8-2.2,4.8-3.4,8.3-3.4
		C598.6,1477.8,602.8,1481.1,602.8,1488.4z M647.9,1490.1c0,7.5-5.2,12.3-12.2,12.3c-3.3,0-6.1-1.1-8-3.4v3.1h-5.4v-33.4h5.6v12.3
		c1.9-2.2,4.6-3.2,7.7-3.2C642.8,1477.8,647.9,1482.6,647.9,1490.1z M642.2,1490.1c0-4.6-3.1-7.5-7.1-7.5s-7.2,2.9-7.2,7.5
		s3.1,7.5,7.2,7.5S642.2,1494.7,642.2,1490.1z M675.8,1491.9h-18.9c0.7,3.5,3.6,5.8,7.8,5.8c2.7,0,4.8-0.9,6.5-2.6l3,3.5
		c-2.2,2.6-5.5,3.9-9.7,3.9c-8.1,0-13.3-5.2-13.3-12.3c0-7.2,5.3-12.3,12.4-12.3c7,0,12.1,4.9,12.1,12.4
		C675.9,1490.7,675.8,1491.4,675.8,1491.9z M656.9,1488.2h13.6c-0.5-3.5-3.1-5.8-6.8-5.8C660.1,1482.3,657.4,1484.7,656.9,1488.2z
		 M699.9,1476.8v1.4h6.6v4.5h-6.4v19.3h-5.6v-19.3h-4v-4.5h4v-1.5c0-5,3-8.3,8.6-8.3c1.9,0,3.8,0.4,5.1,1.3l-1.6,4.2
		c-0.9-0.6-1.9-1-3.1-1C701.1,1473,699.9,1474.3,699.9,1476.8z M708,1490.1c0-7.2,5.4-12.3,12.8-12.3c7.5,0,12.8,5.1,12.8,12.3
		c0,7.2-5.4,12.3-12.8,12.3C713.4,1502.4,708,1497.3,708,1490.1z M727.9,1490.1c0-4.6-3.1-7.5-7.2-7.5c-4,0-7.1,2.9-7.1,7.5
		s3.1,7.5,7.1,7.5C724.8,1497.6,727.9,1494.7,727.9,1490.1z M762.2,1478.1v24h-5.4v-3.1c-1.8,2.2-4.6,3.4-7.7,3.4
		c-6.2,0-10.3-3.4-10.3-10.6v-13.7h5.6v13c0,4.4,2.1,6.4,5.6,6.4c3.9,0,6.6-2.4,6.6-7.2v-12.1H762.2z M793.3,1488.4v13.8h-5.6v-13
		c0-4.3-2.1-6.3-5.7-6.3c-4,0-6.7,2.4-6.7,7.2v12.1h-5.6v-24h5.4v3.1c1.8-2.2,4.8-3.4,8.3-3.4C789,1477.8,793.3,1481.1,793.3,1488.4
		z M824.2,1468.7v33.4h-5.4v-3.1c-1.9,2.3-4.7,3.4-8,3.4c-7,0-12.1-4.9-12.1-12.3s5.2-12.3,12.1-12.3c3.1,0,5.8,1,7.7,3.2v-12.3
		H824.2z M818.7,1490.1c0-4.6-3.1-7.5-7.2-7.5c-4,0-7.2,2.9-7.2,7.5s3.1,7.5,7.2,7.5C815.6,1497.6,818.7,1494.7,818.7,1490.1z
		 M229.3,1542.4v13.8h-5.6v-13c0-4.3-2.1-6.3-5.7-6.3c-4,0-6.7,2.4-6.7,7.2v12.1h-5.6v-33.4h5.6v12.1c1.8-2,4.7-3.1,8-3.1
		C225,1531.8,229.3,1535.1,229.3,1542.4z M259.1,1545.9h-18.9c0.7,3.5,3.6,5.8,7.8,5.8c2.7,0,4.8-0.9,6.5-2.6l3,3.5
		c-2.2,2.6-5.5,3.9-9.7,3.9c-8.1,0-13.3-5.2-13.3-12.3c0-7.2,5.3-12.3,12.4-12.3c7,0,12.1,4.9,12.1,12.4
		C259.2,1544.7,259.2,1545.4,259.1,1545.9z M240.2,1542.2h13.6c-0.5-3.5-3.1-5.8-6.8-5.8C243.4,1536.3,240.8,1538.7,240.2,1542.2z
		 M278.5,1531.8v5.4c-0.5-0.1-0.9-0.1-1.3-0.1c-4.3,0-7,2.5-7,7.4v11.7h-5.6v-24h5.4v3.5C271.6,1533.1,274.5,1531.8,278.5,1531.8z
		 M305.6,1545.9h-18.9c0.7,3.5,3.6,5.8,7.8,5.8c2.7,0,4.8-0.9,6.5-2.6l3,3.5c-2.2,2.6-5.5,3.9-9.7,3.9c-8.1,0-13.3-5.2-13.3-12.3
		c0-7.2,5.3-12.3,12.4-12.3c7,0,12.1,4.9,12.1,12.4C305.7,1544.7,305.6,1545.4,305.6,1545.9z M286.7,1542.2h13.6
		c-0.5-3.5-3.1-5.8-6.8-5.8C289.9,1536.3,287.2,1538.7,286.7,1542.2z M316.6,1552.7c0,1-0.2,1.8-1,3.9l-2.3,6.3h-3.6l1.8-6.9
		c-1.3-0.5-2.1-1.7-2.1-3.3c0-2.2,1.6-3.7,3.6-3.7C315,1549,316.6,1550.5,316.6,1552.7z M333.7,1524.8c0-1.9,1.5-3.4,3.6-3.4
		s3.6,1.4,3.6,3.2c0,2-1.5,3.5-3.6,3.5C335.2,1528.1,333.7,1526.6,333.7,1524.8z M334.5,1532.1h5.6v24h-5.6V1532.1z M371.1,1542.4
		v13.8h-5.6v-13c0-4.3-2.1-6.3-5.7-6.3c-4,0-6.7,2.4-6.7,7.2v12.1h-5.6v-24h5.4v3.1c1.8-2.2,4.8-3.4,8.3-3.4
		C366.9,1531.8,371.1,1535.1,371.1,1542.4z M405.2,1554.8c-1.4,1.1-3.4,1.6-5.4,1.6c-5.3,0-8.3-2.8-8.3-8.1v-11.6h-4v-4.5h4v-5.5
		h5.6v5.5h6.4v4.5h-6.4v11.4c0,2.3,1.2,3.6,3.3,3.6c1.2,0,2.3-0.3,3.1-1L405.2,1554.8z M433.5,1542.4v13.8h-5.6v-13
		c0-4.3-2.1-6.3-5.7-6.3c-4,0-6.7,2.4-6.7,7.2v12.1h-5.6v-33.4h5.6v12.1c1.8-2,4.7-3.1,8-3.1
		C429.2,1531.8,433.5,1535.1,433.5,1542.4z M463.3,1545.9h-18.9c0.7,3.5,3.6,5.8,7.8,5.8c2.7,0,4.8-0.9,6.5-2.6l3,3.5
		c-2.2,2.6-5.5,3.9-9.7,3.9c-8.1,0-13.3-5.2-13.3-12.3c0-7.2,5.3-12.3,12.4-12.3c7,0,12.1,4.9,12.1,12.4
		C463.4,1544.7,463.4,1545.4,463.3,1545.9z M444.4,1542.2h13.6c-0.5-3.5-3.1-5.8-6.8-5.8C447.6,1536.3,445,1538.7,444.4,1542.2z
		 M237.8,1583.1c1.8,0.1,5.4,0.1,7.8-0.1c1.4-0.1,2.4,0.8,2.4,1.9c0,1.2,0.3,1.8,0.3,3c0,1.4,0.4,3.3,0.6,4.5
		c0.2,1.2,0.3,1.7,0.9,1.8c0.9,0.2,1,0,1.2-2.1c0.1-1.2,1.1-5.2,1.5-6.5c0.4-1.3,2.3-2.5,3.6-2.4c1.3,0.1,5.5-0.1,6.9-0.2
		s3.1,1,3.6,2.3c1.2,2.8,1.4,6.1,1.5,6.8c0.3,2.1,0.5,2.4,1.2,2.1c0.6-0.2,0.8-0.6,0.9-1.5c0.3-1.8,0.6-3.6,0.6-5.4
		c0-0.9,0.3-1.5,0.3-2.4s0.6-1.7,2.1-1.8c1.2-0.1,6.1,0.1,8.1-0.2c2-0.2,7.5,0.3,8.7,0.2c1.5-0.2,2.7,1.1,2.7,2.1
		c0,1.2-0.6,3.3-0.6,5.1c0,2.4-0.6,10.7-1.2,15c-0.7,4.8-1.5,13.2-1.8,15.3c-0.3,2.1-0.6,3-0.9,4.8c-0.2,1.2-1.5,2.9-3,2.9
		c-1.8,0-6.3-0.5-8.7-0.2c-2.3,0.3-8.4,0.1-9.9,0.2c-1.2,0.1-2.2-1-2.4-1.9c-0.3-1.2-0.8-2.2-1.2-3.1c-1-2.6-1.5-4.4-1.7-5.5
		c-0.1-0.8-0.4-1.3-1-1.3c-0.9,0-0.9,0.3-1.2,1.5c-0.3,1.2-0.8,3.5-1.4,4.9c-0.7,1.9-1,2.3-1.3,3.5c-0.3,1.2-1.2,1.8-2.4,1.9
		c-1.5,0.1-7.2-0.1-9-0.1c-2.1,0-9.9,0-11.4,0.1s-2.4-1.6-2.4-2.5c0-1.2-0.5-1.5-0.6-3.6c-0.3-4.5-1-8.1-1.5-12
		c-1.2-10.2-1.5-16.5-1.8-19.8c-0.2-2.4-0.6-3.6-0.6-5.1s1.2-2,3-2.1C231.5,1583.1,236.6,1583.1,237.8,1583.1z M306,1583
		c1.9-0.1,8.5-0.2,11.2,0.1c2.7,0.3,2.6,1.5,2.8,3.7c0.2,2.4,0.4,10.5,0.7,14.4c0.3,3.9,0.4,22.4,0.3,24.4c-0.1,2-1.3,2.5-3.4,2.6
		c-2,0.1-9.3-0.1-10.7,0.1c-1.4,0.2-5.8-0.2-8.7,0c-2.9,0.2-3.3-2.6-3.4-5.9c-0.1-3.1-0.2-14.7-0.1-18.5c0.1-4,0.1-12.6,0.1-16.6
		c-0.1-3.4,1.4-4,4.4-4.2C301.5,1582.9,304.1,1583.1,306,1583z M343.8,1583.2c3.8,0.1,4.5-0.1,9,8.9c0.6,1.3,1,1.7,1.7,1.3
		c0.8-0.4,0.7-0.8,0.7-1.6c0-0.6-0.7-3.3-0.7-6.3c0-1.2,1.8-2.6,3.6-2.6c2.3,0,10.2,0.3,14,0.2c3.4-0.1,3.9,3,3.7,5.7
		c-0.2,2.7-0.1,17.1,0.1,19.8c0.2,2.7,0.2,12.7-0.1,15.6c-0.3,2.9-2.1,3.8-3.6,3.9c-7.2,0.3-12.1-0.1-14.1-0.1
		c-1.8,0.1-3.2-0.2-3.9-1.1c-2.8-3.8-3.3-4-4.9-7.1c-0.6-1.2-1.4-1.4-1.9-1.2c-1,0.5-0.8,0.9-0.6,3c0.4,3.1,0.2,3.1,0.2,4.1
		c0,0.9-1.2,2.3-2.4,2.4c-2.4,0.1-13.2,0-16.2,0.2c-2.7,0.2-3.5-3.2-3.6-5.1c-0.1-2-0.4-5.6-0.2-8.3c0.2-2.8,0.2-12.6,0.1-16
		c-0.1-3.2,0.1-8.8,0.2-11.6c0.1-2.7,2.1-4.4,3.9-4.3C330.6,1583.2,336.3,1582.9,343.8,1583.2z M405,1582.9c3-0.2,13.8,0.3,17.1,0.2
		c4.8-0.1,7.4,3,7.4,10.5c0,1.8,0.4,2.7,0.5,3.9s-0.9,1.8-2.2,2.1c-2.7,0.6-7.9,2.3-9.6,2.7c-2.4,0.6-6.5,2.4-8.3,2.4
		c-1,0-1.3-0.3-1.6-1.2c-0.2-0.6-0.6-0.6-1.5-0.6c-0.7,0-2,0.2-3.3,0.2c-0.9,0-1.4,0.4-1.4,4c0,2.1,0.5,2.7,2.6,2.7
		c3.9,0,4.1-0.7,4-1.8c-0.1-1,0.5-1.8,1.7-1.8c2.7,0,4.8-0.4,8.4-0.3c3.3,0.1,6.3,0.4,9,0c1.8-0.2,2.7,0.9,2.7,2.7
		c0,1.3-0.5,2.1-0.5,3.3c0,2.1,0.4,6.2,0.1,11.5c-0.2,3.4-2.7,4.6-4.5,4.7c-2.2,0.2-11.3-0.1-13.4,0.1c-1.2,0.1-2.4-0.7-2.7-1.6
		c-0.3-0.9-2.1-0.9-7.2,0.6c-3.8,1.1-5.5,1-6.6,0.9c-3-0.1-5.7,0.2-9.9,0c-4.1-0.2-5.6-3.3-5.6-6c0-6-0.4-15.3-0.4-18
		s0.4-12.3,0.4-15c0-2.4,2.6-5.9,5.6-6C390.3,1583,400.8,1583.2,405,1582.9z M462.6,1582.8c1.8,0,5.4,0.3,8,0.2
		c2.8-0.1,5.8,1.9,5.8,3.7s0.2,3.3,0.3,5.4c0.1,2.4-0.1,6,0,7.5c0.1,1.5-1.5,2.8-2.4,2.8c-0.9,0-7.2-1.6-9-2.5
		c-1-0.5-1.8-0.5-2.2,0.1c-0.4,0.7-0.3,1.2,0.7,1.7c2.1,1.2,8.7,6.3,10.4,7.3c1.4,0.9,2.6,3.5,2.5,5c-0.1,1.4-0.2,8.1-0.2,9.3
		c-0.1,2.7-2.5,4.9-6.1,4.9c-2.4,0-7.5-0.2-10.4,0c-0.4,0.1-2.5,0.1-4.7,0.1c-2.3-0.1-5-0.1-6.8-0.2c-3.9-0.2-9.6,0-11.1,0.1
		c-1.8,0.1-4.2-1-4.2-2.8c0-1.4-0.4-4.1-0.3-6.3c0.1-2.2,0.4-5.4,0.2-7.7c-0.1-1.1,1.4-2.2,2.4-2.2s6.5,1.6,7.3,2
		c1.4,0.6,2,0.6,2.3,0c0.3-0.5,0.4-1.1-1-2.2c-3.4-2.6-5.6-5.5-7.7-7.1c-3.3-2.6-3.6-4.4-3.6-9.2c0-1.5,0.4-3.3,0.4-5.4
		c0-2.1,3-4.3,5.4-4.2C440.6,1583.2,447.6,1583.1,462.6,1582.8z M515.7,1582.8c10.8,0,16.5,0.3,20.4,0.3c3,0,5.4,3,5.4,6.6
		c0,6.9,0.6,14.4,0.6,16.2c0,4.5-0.3,5.7-0.3,15.9c0,3-0.9,6.1-4.2,6.3c-5.2,0.4-18.6-0.1-21.6,0.1c-4.8,0.4-16.7-0.1-18.2-0.1
		c-3.4,0-5.7-2.4-5.7-5.4c0-17.6-0.1-19.4-0.1-21.6c0-3,0.4-7.5,0.4-10.2c0-4.8,2.3-7.8,4.7-7.8
		C507,1583.1,511.8,1582.8,515.7,1582.8z M515.7,1609.8c0.9,0,1.5-0.2,4-0.2c1,0,1.1-0.5,1.1-1.3c0-1.4,0.1-2.5,0.1-3.4
		c0-1-0.4-1.6-2-1.6s-2.9,0.1-3.5,0.2c-0.7,0.1-1.1,0.6-1.1,2.1c0,1,0.1,1.8,0.1,2.7C514.5,1609.2,515,1609.8,515.7,1609.8z
		 M567.9,1582.9c1.5,0,6.6,0.2,9.3,0.2c2.5,0,6,2.1,6,4.5c0,0.9,0.6,5.4,0.3,8.7c-0.1,0.9,0.2,1.8,0.2,2.4c0,1.2-1.1,2.6-3.2,2.6
		c-1.2,0-4.2-0.2-6-0.2c-1.5,0-2.4,0.1-3.3,0.1s-1.6,0.1-1.6,1.5c0,1.3,1,1.3,1.9,1.3c1.2,0,3-0.2,5.7-0.1c1.3,0.1,3-0.1,4-0.1
		c1.4,0,2.9,1.5,2.9,3c0,1.2-0.3,2.7-0.3,12.3c0,1.2-1.2,3-4.3,3c-2.9,0-5.3-0.3-7.1-0.3c-2.1,0-1.5,1.2-1.5,3.6
		c0,1.4-1.5,2.9-3.9,2.7c-3-0.2-12.3,0.3-16.5,0c-2.7-0.2-4.5-1.8-4.5-6c0-9-0.4-17.1-0.4-20.7c0-3.6,0.4-8.7,0.5-12.7
		c0.2-3.9,2.5-5.6,5.2-5.6C554.7,1583.2,564,1582.9,567.9,1582.9z M604.1,1610.1c0.1-0.9,0.7-2.5,0.7-3s-0.5-1.1-1.1-1.1
		c-1.5,0-3.6,1.4-5.1,1.7c-1.3,0.2-2.9,1.4-5.2,1.4c-1.1,0-2-1-2-2.4c0-6.9,0.8-14.1,0.8-16.2c0-0.9,0.6-4.8,0.7-5.7
		c0.1-0.8,1.1-2,2.7-2c1.8,0,8,0.2,9.8,0.2c0.9,0,3.5-0.1,6-0.1c2.5,0,4.9-0.1,5.5-0.1h4c0.8,0,1.7,0.1,2.5,0.1
		c0.7,0.1,1.4,0.1,1.8,0.1c1.7,0,8.9-0.2,10.7-0.2c1.7,0,2.9,1.4,2.9,2.6c0,2.1,0.9,6.6,0.9,10.8c0,1.2,0.5,6.2,0.5,10.6
		c0,0.9-1.3,2.3-2.4,2.3c-2.1,0-3.6-0.9-5.1-1.2c-1.9-0.4-3.9-2-5.1-2c-0.6,0-1.1,0.5-1.1,1.1c0,0.9,0.7,2.1,0.8,3.1
		c0.1,1.1,1.7,8.1,1.9,10.1c0.2,2.3,1.2,4.3,1.2,5.6c0,0.9-1.1,2.1-2.2,2.2c-4.4,0.3-11-0.2-12.5-0.1c-1.2,0.1-7.8,0.4-12.2,0.1
		c-1-0.1-2-1.1-2-2.2c0-1.1,0.8-3.1,1-5.3C602.4,1618.6,604,1611,604.1,1610.1z M654.8,1583.1c2,0,5.6-0.2,7.7,0
		c2,0.2,2.9,1.8,2.9,3.9c0,0.9-0.3,2.3-0.3,5.1c0,1.8,0.3,2.3,2.7,2.3c2.7,0,3-0.5,3-2.8c0-0.8-0.2-4.9-0.2-6.1
		c0-1.5,1.3-2.5,3.6-2.6c2.6-0.1,11.8,0.2,15.2,0.2c3.4-0.1,3.7,1.5,4.1,4.5c0.3,2,0.1,17.1,0.4,18.6c0.4,2.7-0.1,15.2,0.1,16.8
		c0.3,4.1-1.2,5.1-4.2,5.2c-2.5,0.1-6.3,0-7.3-0.1s-8.1,0.1-9.5,0.1c-1.5,0-2.5-1.6-2.5-2.8c0-1.2,0.1-4.8,0.1-6
		c0-2.1-1.5-2.3-3.9-2.3c-1.2,0-1.9,0.5-1.9,2.7c0,0.9,0.1,3.7,0.1,5.9c0,1.8-1.8,2.6-4.2,2.6c-0.6,0-2.2-0.1-3.8-0.1
		c-1.6-0.1-3.2-0.1-3.9-0.1c-1.3,0-5.9,0.1-7.1,0.1c-3-0.1-3.5-1.9-3.5-5.8c0-1.9-0.5-15.9-0.3-18.4c0.2-2.3,0.3-13.6,0.2-16.7
		c-0.1-3.5,2-4.2,5-4.3C648.5,1582.9,652.8,1583.1,654.8,1583.1z M733.2,1583.1c3,0,6.4,1.8,6.4,8.7c0,0.9,0.4,2.1,0.4,3
		c0,1.2-1,2.3-1.9,2.3c-6.6,0-7.2,0.2-8.1,0.2s-5.6,0.1-6.3,0.1c-0.7,0-1.2,0.5-1.2,1.4c0,0.8,0.8,1.2,1.8,1.2c1,0,5.3,0.1,6,0.1
		c0.7,0,4.7-0.2,5.5-0.2c1.4,0,3.5,0.2,3.5,2.3c0,0.7,0.2,1.6,0.2,2.3s-0.1,2.6-0.1,3.7c0,2.6-1.3,3.4-5.8,3.4
		c-6.6,0-7.8,0.4-10.2,0.4c-0.9,0-1.1,0.8-1.1,1.5c0,0.6,0.8,1.1,1.4,1.1c0.9,0,4.3-0.2,6.4-0.2c1.5,0.1,5.4,0.2,7.8,0
		c1.4-0.1,2.3,1.3,2.3,2.3c0,0.9-0.3,1.8-0.3,3c0,4.8-0.1,8.4-5.1,8.4c-2.7,0-12.3,0.2-14.5,0.2s-13.4-0.2-16.7-0.2
		c-3.4,0-5.8-2.6-5.8-5.4c0-2.8-0.3-14.2-0.3-17.5s0.5-10.1,0.5-14.6c0-4.5,2.3-7.5,4.7-7.5s10.5-0.2,13.2-0.2
		C719.4,1582.9,724.5,1583.1,733.2,1583.1z M310,1682.1c0.1-0.9,0.7-2.5,0.7-3s-0.5-1.1-1.1-1.1c-1.5,0-3.6,1.4-5.1,1.7
		c-1.3,0.2-2.9,1.4-5.2,1.4c-1.1,0-2-1-2-2.4c0-6.9,0.8-14.1,0.8-16.2c0-0.9,0.6-4.8,0.7-5.7c0.1-0.8,1.1-2,2.7-2
		c1.8,0,8,0.2,9.8,0.2c0.9,0,3.5-0.1,6-0.1c2.5,0,4.9-0.1,5.5-0.1h4c0.8,0,1.7,0.1,2.5,0.1c0.7,0.1,1.4,0.1,1.8,0.1
		c1.7,0,8.9-0.2,10.7-0.2c1.7,0,2.9,1.4,2.9,2.6c0,2.1,0.9,6.6,0.9,10.8c0,1.2,0.5,6.2,0.5,10.6c0,0.9-1.3,2.3-2.4,2.3
		c-2.1,0-3.6-0.9-5.1-1.2c-1.9-0.4-3.9-2-5.1-2c-0.6,0-1.1,0.5-1.1,1.1c0,0.9,0.7,2.1,0.8,3.1c0.1,1.1,1.7,8.1,1.9,10.1
		c0.2,2.3,1.2,4.3,1.2,5.6c0,0.9-1.1,2.1-2.2,2.2c-4.4,0.3-11-0.2-12.5-0.1c-1.2,0.1-7.8,0.4-12.2,0.1c-1-0.1-2-1.1-2-2.2
		c0-1.1,0.8-3.1,1-5.3C308.3,1690.6,309.9,1683,310,1682.1z M371,1654.9c8.4,0.2,17.8-0.1,21,0.1c3.2,0.2,5.6,2.5,5.5,7.4
		c-0.1,2,0.2,10.3,0.4,11.9c0.2,2.4-0.2,4.5-1.9,5.7c-1.9,1.4-3,2-3,3.3c0,1.2,1.1,0.8,2,3c2.5,6.2,5.1,7.8,5.1,11.4
		c0,1.2-0.9,2.5-2.6,2.5c-0.7,0-2.1-0.1-3.7-0.1c-1.6,0-3.4-0.1-4.7-0.1c-1.1,0-2.9,0.1-4.6,0.1c-1.8,0.1-3.5,0.1-4.7,0.1
		c-2.2,0-3.1-0.6-3.2-1.6c-0.2-1.7-0.8-2.2-2.6-5.1c-0.7-1-1-1.4-2-1c-0.5,0.2-0.9,0.4-0.9,1.3c0,2.2,0.4,2.4,0.4,3.9
		s-0.7,2.5-2,2.5c-0.7,0-2.9-0.1-5.2-0.1c-2.3,0-4.6-0.1-5.3-0.1c-1.4,0-5.9,0.1-7.4,0.1s-3.8-1.1-3.8-2.8c0-1.1,0.2-3.1,0.2-4.2
		s-0.1-15.5-0.1-17.6c0-2.1,0.4-11.9,0.4-15.3c0-3.4,2.9-5.2,5-5.2C355.9,1655.1,367.7,1654.9,371,1654.9z M370.2,1675.5
		c-0.1,0.8-0.1,1.6,0.1,2.5c0.1,0.9,0.5,1.3,1.3,1.3c1.8-0.1,2.8-1,3.7-1.3c1-0.4,1.3-0.6,1.3-2.3c0-0.6-0.4-1.1-1.1-1.1
		c-1.1,0-2-0.1-3.6-0.1C371.1,1674.4,370.3,1674.6,370.2,1675.5z M425.6,1654.8c10.8,0,16.5,0.3,20.4,0.3c3,0,5.4,3,5.4,6.6
		c0,6.9,0.6,14.4,0.6,16.2c0,4.5-0.3,5.7-0.3,15.9c0,3-0.9,6.1-4.2,6.3c-5.2,0.4-18.6-0.1-21.6,0.1c-4.8,0.4-16.7-0.1-18.2-0.1
		c-3.4,0-5.7-2.4-5.7-5.4c0-17.6-0.1-19.4-0.1-21.6c0-3,0.4-7.5,0.4-10.2c0-4.8,2.3-7.8,4.7-7.8
		C416.9,1655.1,421.7,1654.8,425.6,1654.8z M425.6,1681.8c0.9,0,1.5-0.2,4-0.2c1,0,1.1-0.5,1.1-1.3c0-1.4,0.1-2.5,0.1-3.4
		c0-1-0.4-1.6-2-1.6s-2.9,0.1-3.5,0.2c-0.7,0.1-1.1,0.6-1.1,2.1c0,1,0.1,1.8,0.1,2.7C424.4,1681.2,424.9,1681.8,425.6,1681.8z
		 M479.3,1655.1c3.7-0.4,16.9,0.1,19.6,0.1c2.7-0.1,5.8,3.3,6.2,5.7c0.3,2.2,0.1,10.5,0.4,12.9c0.4,2.2-0.2,7.8-0.3,9.6
		c-0.1,1.5-1.8,3.9-3,4.5c-3,1.5-8.7,3.3-11.7,3.6c-2.7,0.2-7.1,1.6-8.4,1.8c-1.5,0.3-1.8,0.9-1.8,1.8c0,0.6,0.6,1.5,0.6,2.7
		c0,1.2-1.2,2.3-3,2.4c-2.4,0.2-9.3,0-12,0.2c-2.1,0.1-4.8-0.2-6.9-0.2c-2.1,0.1-3-1.4-3-3.3s-0.6-18.1-0.4-20.7
		c0.2-2.7,0.4-9.2,0.2-13.8c-0.2-4.5,2-7.1,5.3-7.2S475.6,1655.4,479.3,1655.1z M479.6,1678.3c1.2,0,2.1-0.6,3-0.8
		c1.8-0.4,1.9-1.4,1.9-2.6c0-1.2-0.7-2-1.9-2c-0.8,0-2.1,0.4-3,0.4s-1.5,0.6-1.5,1.3C478.1,1677.3,478.4,1678.3,479.6,1678.3z
		 M519.5,1655c1.9-0.1,8.5-0.2,11.2,0.1c2.7,0.3,2.6,1.5,2.8,3.7c0.2,2.4,0.4,10.5,0.7,14.4c0.3,3.9,0.4,22.4,0.3,24.4
		s-1.3,2.5-3.4,2.6c-2,0.1-9.3-0.1-10.7,0.1c-1.4,0.2-5.8-0.2-8.7,0c-2.9,0.2-3.3-2.6-3.4-5.9c-0.1-3.1-0.2-14.7-0.1-18.5
		c0.1-4,0.1-12.6,0.1-16.6c-0.1-3.4,1.4-4,4.4-4.2C515,1654.9,517.6,1655.1,519.5,1655z M561.8,1654.8c3.3-0.1,15.6,0.4,19.5,0.3
		c4.2-0.1,6.6,3.3,6.6,11.4c0,1.5,0.3,2.1,0.3,3.3c0,0.9-0.5,1.6-1.2,1.8c-2.1,0.5-9.9,3.1-11.7,3.6c-2.1,0.6-5.1,2.1-6.9,2.1
		c-0.9,0-1.4-0.3-1.4-1c0-0.5-0.7-1.1-1.3-1.1c-1.5,0-3.2,0.2-3.9,0.2c-0.9,0-1.4,1.1-1.4,3.4c0,2.7,0.8,3,2,3c0.9,0,2.1,0.1,3,0.1
		s1.6-0.7,1.6-1.3c0-0.8,0.5-1.2,1.4-1.2c2.4,0,8.4,1.5,10.5,1.8c1.6,0.2,6,1.1,7.5,1.2s2.1,0.9,2.1,2.4c0,0.9-0.3,1.8-0.3,4.2
		c0,7.5-0.6,11.2-4.8,11.1c-3-0.1-16.8,0.2-21,0.2c-3.3,0.1-14.7-0.2-18.6-0.2c-3.4,0-5.5-3-5.5-5.4c0-2.7-0.3-14.1-0.3-17.1
		s0.5-11.7,0.5-15.3c0-3.9,2-7.2,5-7.2S559.1,1654.9,561.8,1654.8z M621.2,1654.8c1.8,0,5.4,0.3,8,0.2c2.8-0.1,5.8,1.9,5.8,3.7
		s0.2,3.3,0.3,5.4c0.1,2.4-0.1,6,0,7.5c0.1,1.5-1.5,2.8-2.4,2.8s-7.2-1.6-9-2.5c-1-0.5-1.8-0.5-2.2,0.1c-0.4,0.7-0.3,1.2,0.7,1.7
		c2.1,1.2,8.7,6.3,10.4,7.3c1.4,0.9,2.6,3.5,2.5,5c-0.1,1.4-0.2,8.1-0.2,9.3c-0.1,2.7-2.5,4.9-6.1,4.9c-2.4,0-7.5-0.2-10.4,0
		c-0.4,0.1-2.5,0.1-4.7,0.1c-2.3-0.1-5-0.1-6.8-0.2c-3.9-0.2-9.6,0-11.1,0.1c-1.8,0.1-4.2-1-4.2-2.8c0-1.4-0.4-4.1-0.3-6.3
		c0.1-2.2,0.4-5.4,0.2-7.7c-0.1-1.1,1.4-2.2,2.4-2.2s6.5,1.6,7.3,2c1.4,0.6,2,0.6,2.3,0c0.3-0.5,0.4-1.1-1-2.2
		c-3.4-2.6-5.6-5.5-7.7-7.1c-3.3-2.6-3.6-4.4-3.6-9.2c0-1.5,0.4-3.3,0.4-5.4c0-2.1,3-4.3,5.4-4.2
		C599.2,1655.2,606.2,1655.1,621.2,1654.8z"/>
	<path class="st2" d="M2800,595.5h-631v2.8c144,145,233,344.7,233,565.2c0,220.4-88.9,420-232.8,565H2800c110.5,0,200-89.5,200-200
		v-733C3000,685,2910.5,595.5,2800,595.5z"/>
	<path transform="matrix(1 0 0 1 2249.9424 648.9229)" class="st3" d="M2252,644l4-8.8c4.2,3.1,10.6,5.3,16.6,5.3
		c6.9,0,9.7-2.3,9.7-5.4c0-9.4-29.3-3-29.3-21.7c0-8.6,6.9-15.7,21.2-15.7c6.3,0,12.8,1.5,17.5,4.5l-3.6,8.9c-4.7-2.7-9.5-4-14-4
		c-6.9,0-9.6,2.6-9.6,5.8c0,9.3,29.3,2.9,29.3,21.4c0,8.4-7,15.6-21.4,15.6C2264.5,649.8,2256.4,647.4,2252,644z M2343.3,629.6
		c0,12.2-8.4,19.9-19.3,19.9c-4.8,0-8.8-1.5-11.7-4.7v18.1h-11.2v-52.7h10.7v4.5c2.8-3.4,7-5,12.2-5
		C2334.8,609.6,2343.3,617.4,2343.3,629.6z M2331.9,629.6c0-6.7-4.2-10.7-9.9-10.7c-5.6,0-9.9,4-9.9,10.7c0,6.7,4.2,10.7,9.9,10.7
		C2327.6,640.3,2331.9,636.2,2331.9,629.6z M2384.4,626.8v22.1h-10.5v-4.8c-2.1,3.5-6.1,5.4-11.8,5.4c-9.1,0-14.5-5-14.5-11.7
		c0-6.8,4.8-11.6,16.6-11.6h8.9c0-4.8-2.9-7.6-8.9-7.6c-4.1,0-8.4,1.4-11.2,3.6l-4-7.8c4.2-3,10.5-4.7,16.7-4.7
		C2377.5,609.6,2384.4,615.1,2384.4,626.8z M2373.1,636.7v-4h-7.7c-5.3,0-6.9,1.9-6.9,4.5c0,2.8,2.4,4.7,6.3,4.7
		C2368.6,641.9,2371.8,640.2,2373.1,636.7z M2434.1,626.7v22.2h-11.2v-20.5c0-6.3-2.9-9.1-7.8-9.1c-5.4,0-9.3,3.3-9.3,10.4v19.2
		h-11.2v-38.7h10.7v4.5c3-3.3,7.6-5.1,12.8-5.1C2427.2,609.6,2434.1,614.9,2434.1,626.7z M2442.9,598.5c0-3.5,2.8-6.3,7-6.3
		c4.2,0,7,2.6,7,6c0,3.7-2.8,6.5-7,6.5C2445.7,604.8,2442.9,602,2442.9,598.5z M2444.3,610.2h11.2v38.7h-11.2V610.2z M2462.2,645.3
		l3.7-8.1c3.5,2.2,8.7,3.7,13.5,3.7c5.2,0,7.1-1.4,7.1-3.5c0-6.3-23.4,0.1-23.4-15.3c0-7.3,6.6-12.5,17.9-12.5
		c5.3,0,11.2,1.2,14.9,3.4l-3.7,8c-3.8-2.2-7.6-2.9-11.2-2.9c-5,0-7.2,1.6-7.2,3.6c0,6.6,23.4,0.2,23.4,15.5
		c0,7.2-6.7,12.3-18.3,12.3C2472.4,649.5,2465.8,647.7,2462.2,645.3z M2543.8,626.7v22.2h-11.2v-20.5c0-6.3-2.9-9.1-7.8-9.1
		c-5.4,0-9.3,3.3-9.3,10.4v19.2h-11.2v-53.4h11.2v18.7c3-3,7.3-4.6,12.3-4.6C2536.9,609.6,2543.8,614.9,2543.8,626.7z M2612.8,610.2
		l-16.3,38.7h-11.6l-16.3-38.7h11.6l10.7,26.4l11.1-26.4H2612.8z M2654,632.7h-29.3c1.1,4.8,5.2,7.8,11.1,7.8c4.1,0,7.1-1.2,9.7-3.7
		l6,6.5c-3.6,4.1-9,6.3-16,6.3c-13.4,0-22.1-8.4-22.1-19.9c0-11.6,8.9-19.9,20.7-19.9c11.4,0,20.2,7.6,20.2,20.1
		C2654.2,630.6,2654.1,631.8,2654,632.7z M2624.6,626.2h19.1c-0.8-4.9-4.5-8.1-9.5-8.1C2629,618.1,2625.3,621.2,2624.6,626.2z
		 M2685.8,609.6V620c-0.9-0.1-1.7-0.1-2.5-0.1c-6.2,0-10.3,3.4-10.3,10.8v18.3h-11.2v-38.7h10.7v5.1
		C2675.2,611.6,2679.8,609.6,2685.8,609.6z M2688.8,645.3l3.7-8.1c3.5,2.2,8.7,3.7,13.5,3.7c5.2,0,7.1-1.4,7.1-3.5
		c0-6.3-23.4,0.1-23.4-15.3c0-7.3,6.6-12.5,17.9-12.5c5.3,0,11.2,1.2,14.9,3.4l-3.7,8c-3.8-2.2-7.6-2.9-11.2-2.9
		c-5,0-7.2,1.6-7.2,3.6c0,6.6,23.4,0.2,23.4,15.5c0,7.2-6.7,12.3-18.3,12.3C2699.1,649.5,2692.4,647.7,2688.8,645.3z M2729.5,598.5
		c0-3.5,2.8-6.3,7-6.3c4.2,0,7,2.6,7,6c0,3.7-2.8,6.5-7,6.5C2732.3,604.8,2729.5,602,2729.5,598.5z M2730.8,610.2h11.2v38.7h-11.2
		V610.2z M2749.6,629.6c0-11.7,9-19.9,21.3-19.9c12.3,0,21.2,8.3,21.2,19.9s-8.9,19.9-21.2,19.9
		C2758.6,649.5,2749.6,641.2,2749.6,629.6z M2780.8,629.6c0-6.7-4.2-10.7-9.9-10.7c-5.6,0-9.9,4-9.9,10.7c0,6.7,4.3,10.7,9.9,10.7
		C2776.5,640.3,2780.8,636.2,2780.8,629.6z M2839.3,626.7v22.2H2828v-20.5c0-6.3-2.9-9.1-7.8-9.1c-5.4,0-9.3,3.3-9.3,10.4v19.2
		h-11.2v-38.7h10.7v4.5c3-3.3,7.6-5.1,12.8-5.1C2832.3,609.6,2839.3,614.9,2839.3,626.7z M2640.1,696.6v32.3c0,14.4-7.8,21-21.7,21
		c-7.3,0-14.5-1.8-19-5.3l4.5-8.1c3.3,2.7,8.7,4.4,13.7,4.4c7.9,0,11.4-3.6,11.4-10.6v-1.7c-3,3.2-7.2,4.8-12.2,4.8
		c-10.7,0-19.4-7.4-19.4-18.7s8.6-18.7,19.4-18.7c5.4,0,9.9,1.8,12.8,5.5v-5H2640.1z M2629,714.7c0-5.7-4.2-9.5-10.2-9.5
		s-10.2,3.8-10.2,9.5s4.3,9.5,10.2,9.5S2629,720.4,2629,714.7z M2647.7,716c0-11.7,9-19.9,21.3-19.9c12.3,0,21.2,8.3,21.2,19.9
		s-8.9,19.9-21.2,19.9C2656.7,735.9,2647.7,727.6,2647.7,716z M2678.8,716c0-6.7-4.2-10.7-9.9-10.7c-5.6,0-9.9,4-9.9,10.7
		c0,6.7,4.3,10.7,9.9,10.7C2674.6,726.7,2678.8,722.6,2678.8,716z M2735.4,719.1h-29.3c1.1,4.8,5.2,7.8,11.1,7.8
		c4.1,0,7.1-1.2,9.7-3.7l6,6.5c-3.6,4.1-9,6.3-16,6.3c-13.4,0-22.1-8.4-22.1-19.9c0-11.6,8.9-19.9,20.7-19.9
		c11.4,0,20.2,7.6,20.2,20.1C2735.6,717,2735.5,718.2,2735.4,719.1z M2706,712.6h19.1c-0.8-4.9-4.5-8.1-9.5-8.1
		C2710.4,704.5,2706.8,707.6,2706,712.6z M2739.4,731.7l3.7-8.1c3.5,2.2,8.7,3.7,13.5,3.7c5.2,0,7.1-1.4,7.1-3.5
		c0-6.3-23.4,0.1-23.4-15.3c0-7.3,6.6-12.5,17.9-12.5c5.3,0,11.2,1.2,14.9,3.4l-3.7,8c-3.8-2.2-7.6-2.9-11.2-2.9
		c-5,0-7.2,1.6-7.2,3.6c0,6.6,23.4,0.2,23.4,15.5c0,7.2-6.7,12.3-18.3,12.3C2749.6,735.9,2743,734.1,2739.4,731.7z M2841.3,713.1
		v22.2h-11.2v-20.5c0-6.3-2.9-9.1-7.8-9.1c-5.4,0-9.3,3.3-9.3,10.4v19.2h-11.2v-53.4h11.2v18.7c3-3,7.3-4.6,12.3-4.6
		C2834.4,696,2841.3,701.3,2841.3,713.1z M2889.6,719.1h-29.3c1.1,4.8,5.2,7.8,11.1,7.8c4.1,0,7.1-1.2,9.7-3.7l6,6.5
		c-3.6,4.1-9,6.3-16,6.3c-13.4,0-22.1-8.4-22.1-19.9c0-11.6,8.9-19.9,20.7-19.9c11.4,0,20.2,7.6,20.2,20.1
		C2889.9,717,2889.7,718.2,2889.6,719.1z M2860.2,712.6h19.1c-0.8-4.9-4.5-8.1-9.5-8.1C2864.7,704.5,2861,707.6,2860.2,712.6z
		 M2921.4,696v10.4c-0.9-0.1-1.7-0.1-2.5-0.1c-6.2,0-10.3,3.4-10.3,10.8v18.3h-11.2v-38.7h10.7v5.1
		C2910.8,698,2915.4,696,2921.4,696z M2965.5,719.1h-29.3c1.1,4.8,5.2,7.8,11.1,7.8c4.1,0,7.1-1.2,9.7-3.7l6,6.5
		c-3.6,4.1-9,6.3-16,6.3c-13.4,0-22.1-8.4-22.1-19.9c0-11.6,8.9-19.9,20.7-19.9c11.4,0,20.2,7.6,20.2,20.1
		C2965.7,717,2965.5,718.2,2965.5,719.1z M2936,712.6h19.1c-0.8-4.9-4.5-8.1-9.5-8.1C2940.5,704.5,2936.8,707.6,2936,712.6z"/>
</g>
<g>
	<path class="st0" d="M2565.5,401h-1931C523.8,401,434,311.2,434,200.5l0,0C434,89.8,523.8,0,634.5,0h1931
		C2676.2,0,2766,89.8,2766,200.5l0,0C2766,311.2,2676.2,401,2565.5,401z"/>
	<path class="st3" d="M932.9,157.9v26.6h46.7v18.7h-46.7V240h-23.3V139.2h76.2v18.7H932.9z M1073.5,207.6h-58.6
		c2.2,9.6,10.4,15.6,22.2,15.6c8.2,0,14.1-2.4,19.4-7.5l12,13c-7.2,8.2-18,12.5-32,12.5c-26.8,0-44.2-16.8-44.2-39.9
		c0-23.2,17.7-39.9,41.3-39.9c22.8,0,40.3,15.3,40.3,40.2C1073.9,203.2,1073.6,205.7,1073.5,207.6z M1014.6,194.5h38.2
		c-1.6-9.8-8.9-16.1-19-16.1C1023.5,178.3,1016.2,184.5,1014.6,194.5z M1155.3,195.7V240h-21v-9.6c-4.2,7.1-12.2,10.8-23.6,10.8
		c-18.1,0-28.9-10.1-28.9-23.5c0-13.7,9.6-23.2,33.3-23.2h17.9c0-9.6-5.8-15.3-17.9-15.3c-8.2,0-16.7,2.7-22.3,7.2l-8.1-15.7
		c8.5-6,21-9.4,33.4-9.4C1141.6,161.3,1155.3,172.3,1155.3,195.7z M1132.8,215.5v-7.9h-15.4c-10.5,0-13.8,3.9-13.8,9.1
		c0,5.6,4.8,9.4,12.7,9.4C1123.7,226,1130.2,222.5,1132.8,215.5z M1225.5,236.2c-4.6,3.3-11.4,4.9-18.3,4.9
		c-18.3,0-28.9-9.4-28.9-27.8v-31.8h-12v-17.3h12v-18.9h22.5v18.9h19.3v17.3h-19.3V213c0,6.6,3.6,10.2,9.6,10.2c3.3,0,6.6-1,9.1-2.9
		L1225.5,236.2z M1316.2,162.5V240h-21.3v-9.2c-5.9,6.8-14.5,10.4-24,10.4c-19.4,0-33.1-10.9-33.1-34.8v-43.8h22.5v40.5
		c0,13,5.8,18.7,15.7,18.7c10.4,0,17.9-6.6,17.9-20.9v-38.3H1316.2z M1385.2,161.3v20.7c-1.9-0.1-3.3-0.3-5-0.3
		c-12.4,0-20.6,6.8-20.6,21.6V240h-22.5v-77.5h21.5v10.2C1364.1,165.2,1373.3,161.3,1385.2,161.3z M1473.4,207.6h-58.6
		c2.2,9.6,10.4,15.6,22.2,15.6c8.2,0,14.1-2.4,19.4-7.5l12,13c-7.2,8.2-18,12.5-32,12.5c-26.8,0-44.2-16.8-44.2-39.9
		c0-23.2,17.7-39.9,41.3-39.9c22.8,0,40.3,15.3,40.3,40.2C1473.8,203.2,1473.5,205.7,1473.4,207.6z M1414.5,194.5h38.2
		c-1.6-9.8-8.9-16.1-19-16.1C1423.4,178.3,1416,184.5,1414.5,194.5z M1567.7,133.1V240h-21.5V231c-5.6,6.8-13.8,10.1-24.2,10.1
		c-21.9,0-38.7-15.6-38.7-39.9c0-24.3,16.8-39.9,38.7-39.9c9.5,0,17.6,3,23.2,9.4v-37.6H1567.7z M1545.6,201.2
		c0-13.4-8.6-21.5-19.7-21.5c-11.2,0-19.9,8.1-19.9,21.5s8.6,21.5,19.9,21.5C1537,222.7,1545.6,214.6,1545.6,201.2z M1723.2,212.5
		c0,17.4-13.8,27.5-40.3,27.5h-52.1V139.2h49.2c25.2,0,38.2,10.5,38.2,26.2c0,10.1-5.2,17.9-13.4,22.2
		C1716,191.1,1723.2,199.8,1723.2,212.5z M1653.9,156.7v23.8h23.2c11.4,0,17.6-4,17.6-12s-6.2-11.8-17.6-11.8H1653.9z M1699.7,210
		c0-8.5-6.5-12.5-18.6-12.5h-27.2v24.9h27.2C1693.2,222.4,1699.7,218.6,1699.7,210z M1817.4,162.5V240h-21.3v-9.2
		c-5.9,6.8-14.5,10.4-24,10.4c-19.4,0-33.1-10.9-33.1-34.8v-43.8h22.5v40.5c0,13,5.8,18.7,15.7,18.7c10.4,0,17.9-6.6,17.9-20.9
		v-38.3H1817.4z M1888.2,236.2c-4.6,3.3-11.4,4.9-18.3,4.9c-18.3,0-28.9-9.4-28.9-27.8v-31.8h-12v-17.3h12v-18.9h22.5v18.9h19.3
		v17.3h-19.3V213c0,6.6,3.6,10.2,9.6,10.2c3.3,0,6.6-1,9.1-2.9L1888.2,236.2z M1949.1,236.2c-4.6,3.3-11.4,4.9-18.3,4.9
		c-18.3,0-28.9-9.4-28.9-27.8v-31.8h-12v-17.3h12v-18.9h22.5v18.9h19.3v17.3h-19.3V213c0,6.6,3.6,10.2,9.6,10.2c3.3,0,6.6-1,9.1-2.9
		L1949.1,236.2z M2034.8,207.6h-58.6c2.2,9.6,10.4,15.6,22.2,15.6c8.2,0,14.1-2.4,19.4-7.5l12,13c-7.2,8.2-18,12.5-32,12.5
		c-26.8,0-44.2-16.8-44.2-39.9c0-23.2,17.7-39.9,41.3-39.9c22.8,0,40.3,15.3,40.3,40.2C2035.2,203.2,2035,205.7,2034.8,207.6z
		 M1975.9,194.5h38.2c-1.6-9.8-8.9-16.1-19-16.1C1984.8,178.3,1977.5,184.5,1975.9,194.5z M2098.3,161.3v20.7
		c-1.9-0.1-3.3-0.3-5-0.3c-12.4,0-20.6,6.8-20.6,21.6V240h-22.5v-77.5h21.5v10.2C2077.1,165.2,2086.4,161.3,2098.3,161.3z
		 M2139.1,160.9v3.3h19.9v17.3h-19.3V240h-22.5v-58.5h-12v-17.3h12v-3.5c0-17.4,10.7-28.8,30-28.8c6.3,0,13,1.3,17.1,4.2l-5.9,16.3
		c-2.4-1.7-5.6-2.7-9.1-2.7C2142.7,149.7,2139.1,153.3,2139.1,160.9z M2192.6,133.1V240h-22.5V133.1H2192.6z M2290.4,162.5l-35,82.2
		c-7.5,18.7-18.1,24.3-32.1,24.3c-7.9,0-16.6-2.6-21.6-7.1l8.2-16c3.5,3,8.2,4.9,12.7,4.9c6.2,0,9.6-2.7,12.7-9.6l0.3-0.7l-33.6-78
		h23.2l21.7,52.6l21.9-52.6H2290.4z"/>
</g>
<rect x="154.6" y="795.5" class="st2" width="45.4" height="11.2"/>
</svg>
