<?xml version="1.0" encoding="utf-8"?>
<!-- Generator: Adobe Illustrator 27.0.1, SVG Export Plug-In . SVG Version: 6.00 Build 0)  -->
<svg version="1.1" xmlns="http://www.w3.org/2000/svg" xmlns:xlink="http://www.w3.org/1999/xlink" x="0px" y="0px"
	 viewBox="0 0 2000 2000" style="enable-background:new 0 0 2000 2000;" xml:space="preserve">
<style type="text/css">
	.st0{fill:#FF745B;}
	.st1{fill:#3C4043;}
	.st2{clip-path:url(#SVGID_00000181783961829680744280000007920598126779022229_);fill:none;stroke:#1A1A1A;stroke-miterlimit:10;}
	.st3{clip-path:url(#SVGID_00000181783961829680744280000007920598126779022229_);fill:#4A3834;}
	.st4{clip-path:url(#SVGID_00000181783961829680744280000007920598126779022229_);fill:#CCCCCC;}
	.st5{clip-path:url(#SVGID_00000181783961829680744280000007920598126779022229_);fill:#B37F81;}
	.st6{clip-path:url(#SVGID_00000181783961829680744280000007920598126779022229_);fill:#955C6B;}
	.st7{clip-path:url(#SVGID_00000181783961829680744280000007920598126779022229_);fill:#835165;}
	.st8{clip-path:url(#SVGID_00000181783961829680744280000007920598126779022229_);fill:#F2F2F2;}
	.st9{clip-path:url(#SVGID_00000181783961829680744280000007920598126779022229_);fill:#EDA48B;}
	.st10{clip-path:url(#SVGID_00000181783961829680744280000007920598126779022229_);fill:#8D6F56;}
	.st11{clip-path:url(#SVGID_00000181783961829680744280000007920598126779022229_);fill:#CE959D;}
	.st12{clip-path:url(#SVGID_00000181783961829680744280000007920598126779022229_);fill:#1A1A1A;}
	.st13{clip-path:url(#SVGID_00000181783961829680744280000007920598126779022229_);fill:#B59F6B;}
	.st14{clip-path:url(#SVGID_00000181783961829680744280000007920598126779022229_);}
	.st15{clip-path:url(#SVGID_00000181783961829680744280000007920598126779022229_);fill:#B3B3B3;}
	.st16{clip-path:url(#SVGID_00000181783961829680744280000007920598126779022229_);fill:#FFFFFF;}
	.st17{clip-path:url(#SVGID_00000181783961829680744280000007920598126779022229_);fill:none;stroke:#F2F2F2;stroke-miterlimit:10;}
	.st18{clip-path:url(#SVGID_00000053508742833012491290000014247721591772183954_);fill:none;stroke:#FFFFFF;stroke-miterlimit:10;}
	
		.st19{clip-path:url(#SVGID_00000053508742833012491290000014247721591772183954_);fill:none;stroke:#000000;stroke-width:0.75;stroke-miterlimit:10;}
	.st20{clip-path:url(#SVGID_00000053508742833012491290000014247721591772183954_);fill:#4A3834;}
	.st21{clip-path:url(#SVGID_00000053508742833012491290000014247721591772183954_);fill:#CCCCCC;}
	.st22{clip-path:url(#SVGID_00000053508742833012491290000014247721591772183954_);fill:#EDA48B;}
	.st23{clip-path:url(#SVGID_00000053508742833012491290000014247721591772183954_);fill:#808080;}
	.st24{clip-path:url(#SVGID_00000053508742833012491290000014247721591772183954_);fill:#CE959D;}
	.st25{clip-path:url(#SVGID_00000053508742833012491290000014247721591772183954_);fill:#B37F81;}
	.st26{clip-path:url(#SVGID_00000053508742833012491290000014247721591772183954_);fill:#955C6B;}
	.st27{clip-path:url(#SVGID_00000053508742833012491290000014247721591772183954_);fill:#B3B3B3;}
	.st28{clip-path:url(#SVGID_00000053508742833012491290000014247721591772183954_);fill:#835165;}
	.st29{clip-path:url(#SVGID_00000053508742833012491290000014247721591772183954_);fill:#B59F6B;}
	.st30{clip-path:url(#SVGID_00000053508742833012491290000014247721591772183954_);}
	.st31{clip-path:url(#SVGID_00000053508742833012491290000014247721591772183954_);fill:#F2F2F2;}
	.st32{clip-path:url(#SVGID_00000053508742833012491290000014247721591772183954_);fill:#1A1A1A;}
	.st33{clip-path:url(#SVGID_00000053508742833012491290000014247721591772183954_);fill:#AA7A5A;}
	
		.st34{clip-path:url(#SVGID_00000053508742833012491290000014247721591772183954_);fill:none;stroke:#F2F2F2;stroke-width:2;stroke-miterlimit:10;}
	.st35{clip-path:url(#SVGID_00000053508742833012491290000014247721591772183954_);fill:none;stroke:#000000;stroke-miterlimit:10;}
</style>
<g id="Images">
</g>
<g id="Background">
	<g>
		<circle class="st0" cx="999.77" cy="1000" r="950"/>
		<g>
			<path class="st1" d="M72,1160c-2-20-1-39-1-59c-1-65,1-129,4-194c1-23-1-47-2-70c60-93,137-172,234-235c28-18,55-31,87-40
				c16-4,32-9,47-1c1,1,2,2,3,3c5,9-1,18-6,26c-2,2-3,5-5,7c-42,48-90,83-137,125c-8,7-15,14-23,21c-22,21-43,41-64,63
				c-26,29-50,57-72,89c-5,29-9,58-12,87c-3,22-7,42-7,64C99,1083,85,1121,72,1160L72,1160z M145,847c16-22,34-42,53-62c2-3,4-5,6-8
				c40-41,83-73,120-118c4-6,7-12,11-19c2-5,4-12-1-14c-6-3-12,0-18,2c-10,4-19,9-28,15c-51,34-92,72-130,117
				C154,789,150,818,145,847L145,847z M570,702c-30,2-59,7-90,2c-9-2-16-4-24-9c-19-14-13-39-4-57c3-4,4-9,7-13c8-11,15-22,24-32
				c8-8,15-16,25-23c1-1,2-3,3-4c103-83,243-100,362-52c45,19,91,46,107,94c5,13,5,29-5,41c-1,2-3,4-6,6c-6,5-12,9-19,12
				c-27,11-57,13-86,15C766,688,668,692,570,702L570,702z M623,658c62,0,122-5,185-14c26-4,50-11,73-22c9-5,18-11,20-22
				c2-12-4-23-12-32c-19-21-45-31-72-39c-68-19-139-13-201,20c-26,14-47,32-64,57c-5,8-9,16-9,25c0,8,5,14,12,18
				C576,659,600,657,623,658L623,658z M831,829c-9-23-14-49-2-72c1-1,2-3,3-5c15-20,39-29,62-34c4,5,9,10,14,15c10,11,18,23,25,36
				c-14,1-27,6-37,16c-1,1-1,3-3,5c-3,5-4,10-4,15c2,16,8,30,19,42c4,3,8,6,12,9c3,2,7,3,10,5c16,5,35,10,51,1c10-7,15-18,17-30
				c4-26,0-51,0-76c0-11,2-23,8-33c6-9,16-14,26-16c4,0,7-2,11-2c13-1,25,1,37,6c19,8,34,21,48,36c5,7,10,14,15,21c9,17,16,33,21,51
				c5,20,7,40,4,60c-3,23-11,45-28,62c-12,11-26,18-42,18c-3,0-5-1-8-1c5-24,7-48,7-72c19,1,30-19,31-36c1-18-4-35-13-51
				c-2-2-3-4-5-7c-10-15-31-24-46-11c-7,7-7,18-8,28c-2,40-3,93-45,112c-28,13-59,2-88-6c-20-7-39-16-55-30c-1-2-3-4-5-5
				c-1-1-1-2-2-3c-2-1-4-2-5-4C845,860,837,845,831,829L831,829z M824,1088c0-18,2-35,7-52c7-22,18-42,36-57c7-5,13-11,21-14
				c9-4,18-6,28-8c10-1,21,0,31,2c-8,20-16,40-23,60c-7-1-15-1-22,2c-2,1-5,2-7,3c-9,7-17,13-21,23c-1,2-2,5-3,7c-6,17-8,36-3,54
				c4,14,11,26,25,32c12,5,27,2,35-9c5-7,8-14,12-22c13-33,27-70,61-87c17-7,35-11,53-9c24,3,48,7,68,22c1,1,1,2,2,3
				c32,26,38,68,31,107c-4,18-12,32-26,44c-18,15-40,21-62,22c-9-18-14-37-18-56c15,2,31-3,41-15c11-14,10-34,1-49
				c-11-17-33-21-52-19c-14,2-23,13-31,24c-17,28-21,60-33,89c-4,9-11,17-20,23c-6,3-13,5-20,7c-9,1-16,2-25,0c-6-1-12-3-18-5
				c-16-7-29-18-40-32c-4-6-8-12-12-19c-5-11-9-22-12-34S825,1100,824,1088L824,1088z M1010,1427c-30-20-57-47-72-81c-1-3-2-6-3-9
				c-6-17-7-37,5-52c8-9,19-13,30-15c79-8,158-9,234-34c13,12,27,23,42,31c-65,29-132,42-204,57c-11,2-20,4-30,8c-8,4-13,11-13,20
				c1,9,4,17,10,24c36,43,90,68,146,61c12-2,23-6,34-12c69-39,135-74,196-121c24,0,48,0,72-5c-16,17-34,32-52,48c-20,17-38,31-59,47
				c-27,20-50,38-78,57c-26,17-54,23-84,26C1122,1481,1060,1462,1010,1427L1010,1427z M1316,1516c4-7,9-14,14-20c8-7,13-16,21-23
				c44-45,88-85,131-131c19-21,38-40,54-63c33-11,65-26,94-44c-2,40,7,87,45,107c13-14,24-29,36-45c2-2,4-4,6-6
				c74-99,122-202,155-318c2-6,6-11,9-17c19-38,34-76,47-116c3,77-1,154-3,231c0,31-2,61,2,92c-26,39-56,76-87,111
				c2-66,17-131,27-197c-7,18-14,35-21,53c-10,22-20,43-32,65c-6,10-11,20-17,31c-32,53-65,101-104,146c-18,14-38,24-58,36
				c-6,3-11,5-17,9c-3,2-6,4-9,3c-23-6-45-22-55-45c0-1-2-1-2-2c-4-9-6-18-8-27c-30,39-61,75-90,117c-10,15-21,27-27,43
				C1390,1512,1353,1515,1316,1516L1316,1516z"/>
		</g>
	</g>
</g>
<g id="Baby_Possum">
	<g id="Background_Whiskers">
	</g>
	<g id="Body_00000116223510653604198840000000234658856475254690_">
	</g>
	<g id="Mouth_00000041976288656786378220000018256562651062392717_">
	</g>
	<g id="Nose_00000151539543605153269140000009183102008420764297_">
	</g>
	<g id="Ear_00000059306230525342849220000017572503122728192919_">
	</g>
	<g id="Eye_00000150087781887547680400000015517415424513456026_">
	</g>
	<g id="Whiskers_00000136395314488642703850000008736482679631741334_">
	</g>
</g>
<g id="Adult_Possum">
	<g id="Background_whiskers">
	</g>
	<g id="Body">
	</g>
	<g id="Nose">
	</g>
	<g id="Mouth">
	</g>
	<g id="Eye">
	</g>
	<g id="Ear">
	</g>
	<g id="Whiskers">
	</g>
</g>
<g id="Clip_Mask">
	<g>
		<defs>
			<circle id="SVGID_1_" cx="999.77" cy="1000" r="950"/>
		</defs>
		<clipPath id="SVGID_00000047769863465900551500000009987136944102943365_">
			<use xlink:href="#SVGID_1_"  style="overflow:visible;"/>
		</clipPath>
		
			<path style="clip-path:url(#SVGID_00000047769863465900551500000009987136944102943365_);fill:none;stroke:#1A1A1A;stroke-miterlimit:10;" d="
			M1359.28,963.56c0,0-42.2,7.94-75.9-10.93c-35.29-19.76-67.08-58.16-67.08-58.16"/>
		
			<path style="clip-path:url(#SVGID_00000047769863465900551500000009987136944102943365_);fill:none;stroke:#1A1A1A;stroke-miterlimit:10;" d="
			M1382.72,909.77c1.26,0.27-41.69,7.87-71.34-9.9c-33.54-20.1-63.1-58.77-63.1-58.77"/>
		
			<path style="clip-path:url(#SVGID_00000047769863465900551500000009987136944102943365_);fill:none;stroke:#1A1A1A;stroke-miterlimit:10;" d="
			M1404.16,867.34c0,0-45.61-8.5-73.6-23.66c-27.99-15.16-54.8-45.73-54.8-45.73"/>
		<polygon style="clip-path:url(#SVGID_00000047769863465900551500000009987136944102943365_);fill:#4A3834;" points="
			1368.81,1070.56 1294.61,1026.03 1341.46,834.89 1334.52,714.68 1412.46,595.38 1488.01,426.28 1589.19,303.16 1632.74,197.9 
			1838.23,38.02 2126.76,230.74 1935.23,489.58 1841.98,809.26 1501.2,1154.67 1428.41,1149.73 1425.35,1066.67 		"/>
		<path style="clip-path:url(#SVGID_00000047769863465900551500000009987136944102943365_);fill:#CCCCCC;" d="M1368.81,1070.56
			l-74.2-44.53l46.85-191.14l-6.94-120.21l77.95-119.31l63.94-147.04l51.47,40.52L1468.46,666l146.22-144.48
			c0,0,93.54-21.44,124.71-17.14c45.23,6.24,167.44,72.94,167.44,72.94l-64.84,231.93l-340.78,345.41l-72.8-4.94l-3.05-83.06
			L1368.81,1070.56"/>
		<polyline style="clip-path:url(#SVGID_00000047769863465900551500000009987136944102943365_);fill:#B37F81;" points="
			1428.41,1149.73 1425.35,1066.67 1476.93,1033.81 1597.59,931.97 1672.27,928.38 1629.08,1025.05 1501.2,1154.67 1428.41,1149.73 
					"/>
		<polygon style="clip-path:url(#SVGID_00000047769863465900551500000009987136944102943365_);fill:#955C6B;" points="
			1449.6,1122.57 1459.25,1045.07 1476.93,1033.81 1597.59,931.97 1632.15,930.31 1500.95,1125.51 		"/>
		<polygon style="clip-path:url(#SVGID_00000047769863465900551500000009987136944102943365_);fill:#835165;" points="
			1478.41,1095.88 1505.5,1009.7 1544.98,976.37 1493.82,1097.06 		"/>
		<polygon style="clip-path:url(#SVGID_00000047769863465900551500000009987136944102943365_);fill:#F2F2F2;" points="
			1582.75,1036.73 1573.91,998.38 1596.2,998.84 1606.17,1014.48 		"/>
		<polygon style="clip-path:url(#SVGID_00000047769863465900551500000009987136944102943365_);fill:#F2F2F2;" points="
			1523.56,1111.1 1511.13,1089.7 1537.14,1091.45 		"/>
		<polygon style="clip-path:url(#SVGID_00000047769863465900551500000009987136944102943365_);fill:#F2F2F2;" points="
			1438.81,1102.78 1417.93,1075.76 1444.49,1077.17 		"/>
		<path style="clip-path:url(#SVGID_00000047769863465900551500000009987136944102943365_);fill:#EDA48B;" d="M1363.56,927.12
			c13.92-2.84,43.96,4,55.49,12.3c11.98,8.63,23.97,43.38,23.97,43.38l-27.71,54.31l-46.49,33.45l-74.2-44.53l14.73-60.12
			C1309.35,965.91,1347.23,930.45,1363.56,927.12z"/>
		<path style="clip-path:url(#SVGID_00000047769863465900551500000009987136944102943365_);fill:#8D6F56;" d="M1364.57,1043.78
			c0,0,13.54-11.48,14.93-16.84c1.47-5.65-5.26-22.63-5.26-22.63l11.88-7.25c0,0,7.76,26.82,3.58,34.38
			C1386.31,1037.56,1364.57,1043.78,1364.57,1043.78z"/>
		<polygon style="clip-path:url(#SVGID_00000047769863465900551500000009987136944102943365_);fill:#CE959D;" points="
			1294.61,1026.03 1309.35,965.91 1329.32,948.18 1312.32,1014.75 1348.87,1058.59 		"/>
		<path style="clip-path:url(#SVGID_00000047769863465900551500000009987136944102943365_);fill:#1A1A1A;" d="M1694.44,633.64
			c-12.26-13.3-13.93-53.6-11.24-71.49c4.92-32.65,27.6-95.53,42.16-125.17c8.96-18.24,37.89-56.83,58.22-56.75
			c18.71,0.07,44.48,36.07,53.19,52.62c8.63,16.41,29.38,50.17,28.02,68.66c-2.24,30.45-36.45,86.21-58.76,107.04
			c-11.27,10.52-36.86,30.28-52.01,33.13C1739.25,644.47,1704.63,644.69,1694.44,633.64z"/>
		<polygon style="clip-path:url(#SVGID_00000047769863465900551500000009987136944102943365_);fill:#B59F6B;" points="
			1465.6,853.62 1504.38,752.65 1634.07,682.62 1555.8,818.4 		"/>
		<path style="clip-path:url(#SVGID_00000047769863465900551500000009987136944102943365_);" d="M1495.35,826.43
			c0,0,8.61-52.26,20.98-63.5c10.75-9.77,51.76-9.08,51.76-9.08s-6.53,42.32-17.48,52.92
			C1540.08,816.95,1495.35,826.43,1495.35,826.43z"/>
		<path style="clip-path:url(#SVGID_00000047769863465900551500000009987136944102943365_);fill:#B3B3B3;" d="M1524.48,768.33
			c0,0,10.15-6.8,14.08-7.09c2.78-0.2,10.58,3.5,10.58,3.5L1524.48,768.33z"/>
		<path style="clip-path:url(#SVGID_00000047769863465900551500000009987136944102943365_);fill:#FFFFFF;" d="M1503.19,816.37
			l4.56-19.26c0,0,3.11,9.22,5.18,11.65c1.54,1.8,7.94,5.13,7.94,5.13L1503.19,816.37z"/>
		
			<path style="clip-path:url(#SVGID_00000047769863465900551500000009987136944102943365_);fill:none;stroke:#1A1A1A;stroke-miterlimit:10;" d="
			M1518.81,911.4c0,0,15.47-58.34,13.75-90.13c-1.83-33.7-1.38-93.72-1.47-94.37"/>
		
			<path style="clip-path:url(#SVGID_00000047769863465900551500000009987136944102943365_);fill:none;stroke:#1A1A1A;stroke-miterlimit:10;" d="
			M1493.26,937.96c0,0,7.64-53.97-0.76-87.49c-9.5-37.93-20.44-89.62-20.44-89.62"/>
		
			<path style="clip-path:url(#SVGID_00000047769863465900551500000009987136944102943365_);fill:none;stroke:#1A1A1A;stroke-miterlimit:10;" d="
			M1460.42,955.64c0,0,13.63-42.1,5.78-77.42c-9.89-44.56-31.72-89.02-31.72-89.02"/>
		
			<path style="clip-path:url(#SVGID_00000047769863465900551500000009987136944102943365_);fill:none;stroke:#F2F2F2;stroke-miterlimit:10;" d="
			M1483,991.08c0,0,34.72,8.27,57.35,32.29c16.96,18,39.41,90.72,39.41,90.72"/>
		
			<path style="clip-path:url(#SVGID_00000047769863465900551500000009987136944102943365_);fill:none;stroke:#F2F2F2;stroke-miterlimit:10;" d="
			M1528.28,962.23c0,0,40.87,7.9,61.27,26.18c29.89,26.78,47.85,88.95,47.85,88.95"/>
		
			<path style="clip-path:url(#SVGID_00000047769863465900551500000009987136944102943365_);fill:none;stroke:#F2F2F2;stroke-miterlimit:10;" d="
			M1564.63,929.14c0,0,46.24,3.53,75.28,30.79c28.92,27.14,45.92,72.07,45.92,72.07"/>
	</g>
	<g>
		<defs>
			<circle id="SVGID_00000114778796950057254120000016861115766183161764_" cx="999.77" cy="1000" r="950"/>
		</defs>
		<clipPath id="SVGID_00000178925967154303859570000012175794005956746636_">
			<use xlink:href="#SVGID_00000114778796950057254120000016861115766183161764_"  style="overflow:visible;"/>
		</clipPath>
		
			<path style="clip-path:url(#SVGID_00000178925967154303859570000012175794005956746636_);fill:none;stroke:#FFFFFF;stroke-miterlimit:10;" d="
			M551.36,954.59c0,0,16.44-32.83,24.44-41.96c8.91-10.18,42.76-33.16,42.76-33.16"/>
		
			<path style="clip-path:url(#SVGID_00000178925967154303859570000012175794005956746636_);fill:none;stroke:#FFFFFF;stroke-miterlimit:10;" d="
			M540.15,990.41c0,0,24.39-27.45,34.48-34.19c11.25-7.52,49.9-20.95,49.9-20.95"/>
		
			<path style="clip-path:url(#SVGID_00000178925967154303859570000012175794005956746636_);fill:none;stroke:#FFFFFF;stroke-miterlimit:10;" d="
			M525.63,1027.94c0,0,28.71-22.9,39.8-27.83c12.36-5.5,52.73-12.15,52.73-12.15"/>
		
			<path style="clip-path:url(#SVGID_00000178925967154303859570000012175794005956746636_);fill:none;stroke:#000000;stroke-width:0.75;stroke-miterlimit:10;" d="
			M504.4,947.81c0,0-56.73-29.75-72.66-43.73c-11.12-9.76-36.83-46.3-36.83-46.3"/>
		
			<path style="clip-path:url(#SVGID_00000178925967154303859570000012175794005956746636_);fill:none;stroke:#000000;stroke-width:0.75;stroke-miterlimit:10;" d="
			M486.03,983.4c0,0-60.9-19.84-78.96-30.96c-12.59-7.76-44.06-39.49-44.06-39.49"/>
		
			<path style="clip-path:url(#SVGID_00000178925967154303859570000012175794005956746636_);fill:none;stroke:#000000;stroke-width:0.75;stroke-miterlimit:10;" d="
			M462.96,1018.87c0,0-63-11.56-82.37-20.19c-13.51-6.02-48.92-33.28-48.92-33.28"/>
		<path style="clip-path:url(#SVGID_00000178925967154303859570000012175794005956746636_);fill:#4A3834;" d="M83.21,1861.01
			c0,0,4.39-67.21,5.44-95.31c1.85-49.37,20.34-120.96,32.32-164.44c15.3-55.58,42.21-124.8,42.21-124.8s61.24-186.38,91.83-246.07
			c33.23-64.83,116.61-183.14,149.6-248.09c24.15-47.54,45.5-143.61,98.88-188.99c18.76-15.95,66.55,11.68,71.42,30.48
			c10.1,38.99-11.63,210.36-11.63,210.36l103.69-120.6l50.6-58.85l28.66,56.48l-101.98,592.03L506.88,1945.2L83.21,1861.01z"/>
		<path style="clip-path:url(#SVGID_00000178925967154303859570000012175794005956746636_);fill:#CCCCCC;" d="M207.22,1350.42
			l48.98-62.52l90.6-137.44l-38.1,160.31c0,0,19.67,56.33,25.34,75.38c2.87,9.65,6.14,29.74,10.1,38.99
			c4.84,11.3,18.18,32.36,26.43,41.47c8.67,9.58,27.89,27.23,38.83,34.1c11.58,7.28,36.55,18.89,49.49,23.31
			c16.72,5.71,50.78,19.96,68.35,18.05c12.64-1.37,45.79-22.16,45.79-22.16l43.53-41.46l47.96-89.98l81.72-477.3l-28.66-56.48
			l-154.3,179.45c0,0,13.53-106.94,13.37-143.49c-0.04-10.08,0.86-40.33,0.86-40.33l-119.12,3.69c0,0-22.08,45.36-26.69,61.47
			c-5.21,18.2-21.45,54.17-30.07,71.56c-13.45,27.14-43.2,74.49-58.53,98.75c-18.04,28.54-53.05,86.36-72.39,114.04
			C243.9,1238.19,207.22,1350.42,207.22,1350.42z"/>
		<path style="clip-path:url(#SVGID_00000178925967154303859570000012175794005956746636_);fill:#EDA48B;" d="M511.47,908.72
			c-8.06-1.22-14.76-29.1-14.76-29.1l-59.43,37.69c0,0,19.34-49.08,21.12-63.29c1.25-9.97,9.34-28.67,12.49-38.21
			c2.73-8.27,3.41-24.9,16.68-30.56c12.13-5.17,52.16,7.91,52.16,7.91s35.95,12.76,40.83,39.61c2.43,13.37-13.06,38.91-21.18,49.8
			C551.19,893.5,519.63,909.95,511.47,908.72z"/>
		<path style="clip-path:url(#SVGID_00000178925967154303859570000012175794005956746636_);fill:#808080;" d="M529.02,866.7
			l1.74,9.01c0,0,12.27-9.27,15.47-13.23c4.07-5.04,14.09-22.54,13.43-28.99c-0.87-8.54-13.18-11.62-12.06-8.26
			c2.49,7.51-5.12,22.23-9.16,28.55C536.29,857.15,529.02,866.7,529.02,866.7z"/>
		<path style="clip-path:url(#SVGID_00000178925967154303859570000012175794005956746636_);fill:#CE959D;" d="M539.72,793.16
			c0,0-40.52,0.18-46.92,6.65c-10.03,10.15-18.99,53.76-18.99,53.76l-21.75,22.88c0,0,14.42-52.87,21.45-74.37
			c1.69-5.16,5.06-15.48,17.33-17.7C503.05,782.16,539.72,793.16,539.72,793.16z"/>
		<polygon style="clip-path:url(#SVGID_00000178925967154303859570000012175794005956746636_);fill:#B37F81;" points="
			739.76,949.05 631.99,1155.96 579.73,1187.01 551.43,1151.09 563.28,1034.16 717.58,854.71 746.24,911.19 		"/>
		<polygon style="clip-path:url(#SVGID_00000178925967154303859570000012175794005956746636_);fill:#955C6B;" points="
			575.34,1040.95 712.02,871.73 724.31,904.02 597.31,1126.66 		"/>
		<path style="clip-path:url(#SVGID_00000178925967154303859570000012175794005956746636_);fill:#B3B3B3;" d="M647.01,895.9
			c0,0,11.14-3.5,15.01-2.23c3.85,1.26,16.41,6.58,16.41,6.58l-11.45,13.32c0,0-5.73-7.27-8.33-9.58
			C656.26,901.87,647.01,895.9,647.01,895.9z"/>
		<polygon style="clip-path:url(#SVGID_00000178925967154303859570000012175794005956746636_);fill:#B3B3B3;" points="
			575.54,909.37 606.28,902.57 576.65,890.66 		"/>
		<path style="clip-path:url(#SVGID_00000178925967154303859570000012175794005956746636_);fill:#B3B3B3;" d="M680.43,959.64
			c0,0,7.47-5.14,10.69-6.5c4.35-1.84,21.04,1.16,21.04,1.16l-4.64,14.19c0,0-8.49-5.63-12.06-6.8
			C691.6,960.44,680.43,959.64,680.43,959.64z"/>
		<polygon style="clip-path:url(#SVGID_00000178925967154303859570000012175794005956746636_);fill:#B3B3B3;" points="
			640.77,1037.35 661.94,1024.99 673.55,1028.78 665.96,1052 		"/>
		<polygon style="clip-path:url(#SVGID_00000178925967154303859570000012175794005956746636_);fill:#B3B3B3;" points="
			631.93,1061.58 646.48,1054.2 655.88,1057.27 659.58,1067.15 645.58,1078.18 		"/>
		<polygon style="clip-path:url(#SVGID_00000178925967154303859570000012175794005956746636_);fill:#B3B3B3;" points="
			612.76,983.22 602.76,961.39 625.12,967.27 		"/>
		<polygon style="clip-path:url(#SVGID_00000178925967154303859570000012175794005956746636_);fill:#B3B3B3;" points="
			595.72,1004.78 585.72,982.95 608.5,987.54 		"/>
		<polygon style="clip-path:url(#SVGID_00000178925967154303859570000012175794005956746636_);fill:#835165;" points="
			580.65,1061.66 630.06,1004.58 689.63,918.39 695.66,921.79 635.49,1016.35 586.98,1086.35 		"/>
		<polygon style="clip-path:url(#SVGID_00000178925967154303859570000012175794005956746636_);fill:#B59F6B;" points="
			396.24,1275.78 385.66,1192.94 468.87,1072.19 454,1205.47 		"/>
		<path style="clip-path:url(#SVGID_00000178925967154303859570000012175794005956746636_);" d="M409.07,1243.71
			c0,0-19.27-35.11-11.91-56.19c6.38-18.27,38.12-32.41,38.12-32.41s14.56,35.04,8.68,51.91
			C436.1,1229.5,409.07,1243.71,409.07,1243.71z"/>
		<path style="clip-path:url(#SVGID_00000178925967154303859570000012175794005956746636_);fill:#F2F2F2;" d="M402.87,1216.32
			l7.25,19.87l17.62-14.34c0,0-3.79,1.83-12.71,0.29C407.69,1220.87,402.87,1216.32,402.87,1216.32z"/>
		<path style="clip-path:url(#SVGID_00000178925967154303859570000012175794005956746636_);fill:#F2F2F2;" d="M417.24,1171.23
			l15.86-10.57l6.38,19.21c0,0-4.77-4.64-10.45-6.45C423.36,1171.62,417.01,1170.98,417.24,1171.23z"/>
		<path style="clip-path:url(#SVGID_00000178925967154303859570000012175794005956746636_);fill:#B3B3B3;" d="M405.81,1185.59
			c1.98-1.74,4.23-3.58,5.58-4.21c5.43-2.54,10.51-3.03,10.51-3.03s-3.91-3.77-10.19-1.74
			C409.68,1179.07,407.48,1182.17,405.81,1185.59z"/>
		<path style="clip-path:url(#SVGID_00000178925967154303859570000012175794005956746636_);fill:#1A1A1A;" d="M332.57,1499.89
			l59.04-32.11c0,0,44.35,4.84,58,10.39c4.37,1.77,14.55,9.83,12.53,14.09c-2.94,6.21-20.85-0.84-27.46,1.02
			c-5.35,1.51-19.39,10.89-19.39,10.89l-5.51,43.46c0,0,26.47-9.38,35.47-8.07c4.62,0.67,16.28,9.16,16.28,9.16l13.3-3.56
			l-8.25-27.19c0,0,21.53,16.65,27.12,13.14c11.35-7.12,12.77-17.24,12.77-17.24s12.2,16.03,12.13,19.67
			c-0.2,11.19-23.81,37.91-23.81,37.91s-0.54,29.82-2.19,41.65c-2.52,18.1-27.36,49.1-42.32,59.6
			c-16.18,11.36-57.83,16.04-77.59,15.31c-20.53-0.75-63.26-17.38-74.57-34.53c-5.99-9.09-0.91-32.65-1.76-43.5
			c-1.13-14.44-5.13-44.11-0.83-57.95C300.29,1536.77,332.57,1499.89,332.57,1499.89z"/>
		<path style="clip-path:url(#SVGID_00000178925967154303859570000012175794005956746636_);fill:#AA7A5A;" d="M462.14,1492.25
			l-21.73-16.82l6.08-18.61l24.6,8.04l0.48,20.39l48.62,15.89l-13.72,12.74c0,0-3.35,14.61-12.77,17.24
			c-9.43,2.63-27.12-13.14-27.12-13.14l8.25,27.19l-13.3,3.56c0,0-12.5-5.91-17.12-6.58c-9-1.31-34.63,5.49-34.63,5.49l5.51-43.46
			l19.39-10.89L462.14,1492.25z"/>
		<polygon style="clip-path:url(#SVGID_00000178925967154303859570000012175794005956746636_);fill:#B3B3B3;" points="
			576.87,874.98 589.72,870.04 577.52,866.05 		"/>
		
			<path style="clip-path:url(#SVGID_00000178925967154303859570000012175794005956746636_);fill:none;stroke:#F2F2F2;stroke-width:2;stroke-miterlimit:10;" d="
			M543.42,1086.2c0,0,30.44,46.42,65.64,67.85c40.49,24.65,84.32,34.69,84.32,34.69"/>
		
			<path style="clip-path:url(#SVGID_00000178925967154303859570000012175794005956746636_);fill:none;stroke:#000000;stroke-miterlimit:10;" d="
			M510.14,973.96c-21.25-9.7-43.58-18.11-63.76-29.1c-36.15-19.69-58.63-55.16-58.63-55.16"/>
		
			<path style="clip-path:url(#SVGID_00000178925967154303859570000012175794005956746636_);fill:none;stroke:#000000;stroke-miterlimit:10;" d="
			M490.71,1026.86c1.78-0.21-27.08,8.12-69.46,11.57c-45.47,3.7-94.44-3.73-94.44-3.73"/>
		
			<path style="clip-path:url(#SVGID_00000178925967154303859570000012175794005956746636_);fill:none;stroke:#000000;stroke-miterlimit:10;" d="
			M498.58,1002.78c0,0-45.07-10.63-77.92-21.51c-34.14-11.31-66.01-31.74-66.01-31.74"/>
		
			<path style="clip-path:url(#SVGID_00000178925967154303859570000012175794005956746636_);fill:none;stroke:#F2F2F2;stroke-width:2;stroke-miterlimit:10;" d="
			M549.56,1041.25c0,0,28.1,29.73,73.28,48.78c47.67,20.1,109.1,15.66,109.1,15.66"/>
		
			<path style="clip-path:url(#SVGID_00000178925967154303859570000012175794005956746636_);fill:none;stroke:#F2F2F2;stroke-width:2;stroke-miterlimit:10;" d="
			M552.39,1002.43c0,0,44.71,19.76,93.26,26.52c53.26,7.41,99.45-20.33,99.45-20.33"/>
		
			<path style="clip-path:url(#SVGID_00000178925967154303859570000012175794005956746636_);fill:none;stroke:#F2F2F2;stroke-width:2;stroke-miterlimit:10;" d="
			M536.94,1129.28c0,0,25.73,45.98,58.38,71.12c37.56,28.92,76.68,51.1,76.68,51.1"/>
	</g>
</g>
</svg>
