<?xml version="1.0" encoding="UTF-8" standalone="no"?>
<!-- Created with Inkscape (http://www.inkscape.org/) -->

<svg
   version="1.1"
   id="svg2"
   xml:space="preserve"
   width="816"
   height="403.81699"
   viewBox="0 0 816 403.81698"
   sodipodi:docname="wearenotathreat.svg"
   inkscape:version="1.1.2 (0a00cf5339, 2022-02-04)"
   xmlns:inkscape="http://www.inkscape.org/namespaces/inkscape"
   xmlns:sodipodi="http://sodipodi.sourceforge.net/DTD/sodipodi-0.dtd"
   xmlns="http://www.w3.org/2000/svg"
   xmlns:svg="http://www.w3.org/2000/svg"><defs
     id="defs6"><clipPath
       clipPathUnits="userSpaceOnUse"
       id="clipPath20"><path
         d="M 0,792 H 612 V 0 H 0 Z"
         id="path18" /></clipPath><clipPath
       clipPathUnits="userSpaceOnUse"
       id="clipPath68"><path
         d="M 0,792 H 612 V 0 H 0 Z"
         id="path66" /></clipPath><clipPath
       clipPathUnits="userSpaceOnUse"
       id="clipPath122"><path
         d="M 0,792 H 612 V 0 H 0 Z"
         id="path120" /></clipPath><clipPath
       clipPathUnits="userSpaceOnUse"
       id="clipPath170"><path
         d="M 0,792 H 612 V 0 H 0 Z"
         id="path168" /></clipPath><clipPath
       clipPathUnits="userSpaceOnUse"
       id="clipPath224"><path
         d="M 0,792 H 612 V 0 H 0 Z"
         id="path222" /></clipPath><clipPath
       clipPathUnits="userSpaceOnUse"
       id="clipPath272"><path
         d="M 0,792 H 612 V 0 H 0 Z"
         id="path270" /></clipPath></defs><sodipodi:namedview
     id="namedview4"
     pagecolor="#ffffff"
     bordercolor="#666666"
     borderopacity="1.0"
     inkscape:pageshadow="2"
     inkscape:pageopacity="0.0"
     inkscape:pagecheckerboard="0"
     showgrid="false"
     height="403.817px"
     inkscape:zoom="1.1329779"
     inkscape:cx="367.17398"
     inkscape:cy="281.55889"
     inkscape:window-width="1920"
     inkscape:window-height="1031"
     inkscape:window-x="0"
     inkscape:window-y="25"
     inkscape:window-maximized="1"
     inkscape:current-layer="g8" /><g
     id="g8"
     inkscape:groupmode="layer"
     inkscape:label="lange-wearenotathreat-stickers"
     transform="matrix(1.3333333,0,0,-1.3333333,0,1056)"><g
       id="g112"
       transform="translate(109.37725,541.06677)"><path
         d="M 0,0 -57.448,99.502 0,199.004 H 114.895 L 172.343,99.502 114.895,0 Z"
         style="fill:#e9e9e9;fill-opacity:1;fill-rule:nonzero;stroke:none"
         id="path114" /></g><g
       id="g116"
       transform="translate(0.7946513,18.947169)"><g
         id="g118"
         clip-path="url(#clipPath122)"><g
           id="g124"
           transform="translate(198.673,522.1196)"><path
             d="m 0,0 c -2.026,0 -15.395,0.48 -28.599,1.354 -7.615,0.504 -13.807,1.049 -18.404,1.62 -7.913,0.981 -13.315,1.998 -16.202,6.997 -0.594,1.03 -12.581,22.041 -24.013,42.281 -24.592,43.544 -24.592,43.753 -24.592,47.25 0,3.497 0,3.706 24.592,47.249 11.487,20.339 23.427,41.267 24.012,42.28 2.887,5 8.29,6.018 16.202,6.999 4.598,0.571 10.79,1.116 18.405,1.62 13.203,0.873 26.573,1.354 28.599,1.354 2.026,0 15.396,-0.481 28.599,-1.354 7.615,-0.504 13.807,-1.049 18.405,-1.62 7.912,-0.981 13.315,-1.999 16.201,-6.998 0.586,-1.014 12.526,-21.942 24.013,-42.281 24.592,-43.543 24.592,-43.752 24.592,-47.249 0,-3.497 0,-3.706 -24.592,-47.25 C 75.786,32.012 63.799,11.001 63.206,9.974 60.318,4.972 54.916,3.955 47.004,2.974 42.406,2.403 36.214,1.858 28.599,1.354 15.396,0.48 2.026,0 0,0"
             style="fill:#e9e9e9;fill-opacity:1;fill-rule:nonzero;stroke:none"
             id="path126" /></g><g
           id="g128"
           transform="translate(231.316,522.1196)"><path
             d="m 0,0 c -4.379,0 -18.424,1.046 -31.347,2.75 -25.194,3.321 -31.643,6.849 -34.729,12.194 -1.003,1.738 -11.74,20.817 -22.196,39.826 -21.999,39.998 -21.999,41.481 -21.999,44.732 0,3.25 0,4.734 21.999,44.732 10.466,19.028 21.196,38.093 22.196,39.825 3.086,5.346 9.535,8.873 34.728,12.194 12.925,1.705 26.969,2.751 31.348,2.751 4.379,0 18.423,-1.046 31.347,-2.751 25.194,-3.322 31.643,-6.848 34.729,-12.194 1,-1.733 11.732,-20.801 22.195,-39.825 22,-39.998 22,-41.482 22,-44.732 0,-3.251 0,-4.734 -22,-44.732 C 77.818,35.765 67.079,16.683 66.076,14.945 62.989,9.599 56.541,6.072 31.347,2.751 18.423,1.046 4.379,0 0,0"
             style="fill:#e9e9e9;fill-opacity:1;fill-rule:nonzero;stroke:none"
             id="path130" /></g><g
           id="g132"
           transform="translate(263.9586,522.1196)"><path
             d="m 0,0 c -6.306,0 -20.776,1.565 -34.075,4.186 -25.642,5.05 -32.017,10.787 -34.872,15.731 -1.531,2.652 -11.201,20.139 -20.388,37.392 -19.398,36.428 -19.398,39.1 -19.398,42.193 0,3.093 0,5.765 19.398,42.193 9.187,17.254 18.857,34.74 20.389,37.392 2.854,4.944 9.23,10.68 34.871,15.731 13.3,2.62 27.769,4.186 34.075,4.186 6.306,0 20.775,-1.566 34.075,-4.186 25.642,-5.051 32.017,-10.787 34.871,-15.731 1.533,-2.652 11.203,-20.139 20.39,-37.392 19.397,-36.428 19.397,-39.1 19.397,-42.193 0,-3.093 0,-5.765 -19.397,-42.193 C 80.149,40.056 70.479,22.569 68.946,19.916 66.092,14.973 59.717,9.236 34.075,4.186 20.776,1.565 6.306,0 0,0"
             style="fill:#e9e9e9;fill-opacity:1;fill-rule:nonzero;stroke:none"
             id="path134" /></g><g
           id="g136"
           transform="translate(296.6017,522.1196)"><path
             d="m 0,0 c -8.926,0 -24.048,2.325 -36.774,5.654 -28.198,7.377 -33.35,16.302 -35.043,19.235 -1.849,3.201 -10.405,18.966 -18.595,34.986 -16.782,32.827 -16.782,36.757 -16.782,39.627 0,2.87 0,6.8 16.782,39.626 8.192,16.024 16.747,31.787 18.595,34.987 1.692,2.932 6.845,11.857 35.043,19.234 12.725,3.33 27.847,5.655 36.774,5.655 8.926,0 24.048,-2.325 36.774,-5.655 28.198,-7.377 33.35,-16.302 35.043,-19.234 1.847,-3.197 10.4,-18.958 18.595,-34.987 16.782,-32.826 16.782,-36.756 16.782,-39.626 0,-2.87 0,-6.8 -16.782,-39.627 C 82.219,43.85 73.665,28.088 71.817,24.888 70.124,21.956 64.972,13.032 36.774,5.654 24.048,2.325 8.926,0 0,0"
             style="fill:#e9e9e9;fill-opacity:1;fill-rule:nonzero;stroke:none"
             id="path138" /></g><g
           id="g140"
           transform="translate(329.2448,522.1196)"><path
             d="m 0,0 c -16.351,0 -62.577,8.883 -74.688,29.861 -2.23,3.864 -9.757,18.068 -16.817,32.621 -14.151,29.174 -14.151,34.278 -14.151,37.02 0,2.742 0,7.846 14.151,37.019 7.061,14.556 14.587,28.759 16.817,32.621 12.111,20.979 58.337,29.862 74.688,29.862 16.351,0 62.576,-8.883 74.688,-29.862 2.228,-3.86 9.754,-18.062 16.816,-32.621 14.151,-29.173 14.151,-34.277 14.151,-37.019 0,-2.742 0,-7.846 -14.151,-37.02 C 84.443,47.926 76.917,33.723 74.688,29.861 62.576,8.883 16.351,0 0,0"
             style="fill:#e9e9e9;fill-opacity:1;fill-rule:nonzero;stroke:none"
             id="path142" /></g><g
           id="g144"
           transform="translate(361.8873,522.1196)"><path
             d="m 0,0 c -23.479,0 -64.61,12.404 -77.559,34.834 -0.266,0.46 -26.559,49.159 -26.559,64.668 0,15.507 26.293,64.207 26.558,64.667 12.951,22.43 54.081,34.835 77.56,34.835 23.479,0 64.609,-12.405 77.559,-34.834 0.265,-0.46 26.558,-49.154 26.558,-64.668 0,-15.516 -26.293,-64.209 -26.558,-64.669 C 64.61,12.404 23.48,0 0,0"
             style="fill:#e9e9e9;fill-opacity:1;fill-rule:nonzero;stroke:none"
             id="path146" /></g><g
           id="g148"
           transform="translate(394.5299,522.1196)"><path
             d="m 0,0 c -28.238,0 -66.044,14.89 -80.43,39.806 -4.69,8.123 -22.149,43.697 -22.149,59.696 0,15.998 17.459,51.573 22.149,59.696 14.386,24.917 52.192,39.806 80.43,39.806 28.239,0 66.045,-14.89 80.43,-39.806 4.69,-8.124 22.149,-43.698 22.149,-59.696 C 102.579,83.504 85.12,47.929 80.43,39.806 66.045,14.89 28.239,0 0,0"
             style="fill:#e9e9e9;fill-opacity:1;fill-rule:nonzero;stroke:none"
             id="path150" /></g><g
           id="g152"
           transform="translate(427.1735,522.1196)"><path
             d="m 0,0 c -33.825,0 -68.08,18.414 -83.301,44.778 -7.366,12.758 -17.74,38.17 -17.74,54.724 0,16.553 10.374,41.966 17.74,54.724 15.221,26.364 49.476,44.778 83.3,44.778 33.825,0 68.08,-18.414 83.301,-44.779 7.366,-12.757 17.74,-38.17 17.74,-54.723 C 101.04,82.948 90.666,57.536 83.3,44.778 68.079,18.414 33.825,0 0,0"
             style="fill:#e9e9e9;fill-opacity:1;fill-rule:nonzero;stroke:none"
             id="path154" /></g><g
           id="g156"
           transform="translate(459.816,522.1196)"><path
             d="m 0,0 c -35.436,0 -68.454,19.063 -86.172,49.75 -17.717,30.688 -17.717,68.815 0,99.503 17.718,30.687 50.737,49.751 86.172,49.751 35.435,0 68.453,-19.064 86.171,-49.751 17.718,-30.688 17.718,-68.815 0,-99.503 C 68.453,19.063 35.435,0 0,0"
             style="fill:#e9e9e9;fill-opacity:1;fill-rule:nonzero;stroke:none"
             id="path158" /></g></g></g><g
       id="g160"
       transform="translate(218.49885,730.07077)"><path
         d="M 0,0 51.674,-89.502 0,-179.004 H -103.348 L -155.022,-89.502 -103.348,0 Z"
         style="fill:#fff200;fill-opacity:1;fill-rule:nonzero;stroke:none"
         id="path162" /></g><g
       id="g164"
       transform="translate(0.7946513,18.947169)"><g
         id="g166"
         clip-path="url(#clipPath170)"><g
           id="g172"
           transform="translate(144.1281,706.1512)"><path
             d="m 0,0 c 1.776,3.077 50.992,4.972 54.545,4.972 3.553,0 52.768,-1.895 54.545,-4.972 v 0 c 0.888,-1.538 47.265,-82.813 47.265,-84.53 0,-1.717 -46.377,-82.991 -47.265,-84.53 -1.777,-3.076 -50.992,-4.972 -54.545,-4.972 v 0 c -3.553,0 -52.768,1.895 -54.545,4.972 -0.888,1.539 -47.265,82.813 -47.265,84.53 0,1.717 46.377,82.992 47.265,84.53"
             style="fill:#e6db1a;fill-opacity:1;fill-rule:nonzero;stroke:none"
             id="path174" /></g><g
           id="g176"
           transform="translate(173.9002,701.1789)"><path
             d="m 0,0 c 3.553,6.154 50.31,9.945 57.416,9.945 v 0 c 7.105,0 53.862,-3.791 57.415,-9.945 1.777,-3.077 42.856,-76.124 42.856,-79.557 0,-3.434 -41.079,-76.481 -42.856,-79.558 -3.552,-6.154 -50.309,-9.945 -57.415,-9.945 v 0 c -7.106,0 -53.863,3.791 -57.416,9.945 v 0 c -1.776,3.077 -42.856,76.124 -42.856,79.558 0,3.433 41.08,76.48 42.856,79.557"
             style="fill:#cdc52e;fill-opacity:1;fill-rule:nonzero;stroke:none"
             id="path178" /></g><g
           id="g180"
           transform="translate(203.6723,696.2065)"><path
             d="m 0,0 c 5.329,9.231 49.628,14.917 60.286,14.917 v 0 c 10.659,0 54.958,-5.686 60.287,-14.917 2.665,-4.615 38.446,-69.434 38.446,-74.585 0,-5.151 -35.781,-69.97 -38.446,-74.585 -5.329,-9.231 -49.628,-14.917 -60.286,-14.917 v 0 c -10.659,0 -54.958,5.686 -60.287,14.917 v 0 c -2.665,4.615 -38.446,69.434 -38.446,74.585 0,5.151 35.781,69.97 38.446,74.585"
             style="fill:#b4ae3c;fill-opacity:1;fill-rule:nonzero;stroke:none"
             id="path182" /></g><g
           id="g184"
           transform="translate(233.4443,691.2342)"><path
             d="m 0,0 c 7.106,12.308 48.946,19.889 63.157,19.889 v 0 c 14.212,0 56.052,-7.581 63.157,-19.889 v 0 c 3.553,-6.154 34.038,-62.745 34.038,-69.613 0,-6.868 -30.485,-63.459 -34.038,-69.613 -7.105,-12.307 -48.945,-19.889 -63.157,-19.889 v 0 c -14.211,0 -56.051,7.582 -63.157,19.889 v 0 c -3.553,6.154 -34.037,62.745 -34.037,69.613 0,6.868 30.484,63.459 34.037,69.613"
             style="fill:#9c9645;fill-opacity:1;fill-rule:nonzero;stroke:none"
             id="path186" /></g><g
           id="g188"
           transform="translate(263.2164,686.2619)"><path
             d="m 0,0 c 8.882,15.384 48.264,24.862 66.028,24.862 v 0 c 17.764,0 57.146,-9.478 66.028,-24.862 v 0 c 4.441,-7.692 29.628,-56.056 29.628,-64.641 0,-8.584 -25.187,-56.948 -29.628,-64.64 -8.882,-15.384 -48.263,-24.862 -66.028,-24.862 v 0 c -17.764,0 -57.146,9.478 -66.028,24.862 v 0 c -4.441,7.692 -29.628,56.056 -29.628,64.64 0,8.585 25.187,56.949 29.628,64.641"
             style="fill:#837f49;fill-opacity:1;fill-rule:nonzero;stroke:none"
             id="path190" /></g><g
           id="g192"
           transform="translate(292.9885,681.2896)"><path
             d="m 0,0 c 10.659,18.461 47.581,29.834 68.899,29.834 v 0 c 21.317,0 58.24,-11.373 68.899,-29.834 v 0 c 5.329,-9.231 25.218,-49.367 25.218,-59.668 0,-10.302 -19.889,-50.438 -25.218,-59.668 -10.659,-18.462 -47.582,-29.834 -68.899,-29.834 v 0 c -21.318,0 -58.24,11.372 -68.899,29.834 v 0 c -5.329,9.23 -25.219,49.366 -25.219,59.668 0,10.302 19.89,50.437 25.219,59.668"
             style="fill:#6b6747;fill-opacity:1;fill-rule:nonzero;stroke:none"
             id="path194" /></g><g
           id="g196"
           transform="translate(322.7606,676.3172)"><path
             d="m 0,0 c 12.435,21.538 46.899,34.806 71.77,34.806 v 0 c 24.87,0 59.334,-13.268 71.769,-34.806 v 0 c 6.218,-10.769 20.81,-42.677 20.81,-54.696 0,-12.018 -14.592,-43.926 -20.81,-54.696 -12.435,-21.538 -46.899,-34.806 -71.769,-34.806 v 0 c -24.871,0 -59.335,13.268 -71.77,34.806 v 0 c -6.218,10.77 -20.81,42.678 -20.81,54.696 C -20.809,-42.677 -6.218,-10.769 0,0"
             style="fill:#534f3f;fill-opacity:1;fill-rule:nonzero;stroke:none"
             id="path198" /></g><g
           id="g200"
           transform="translate(352.5327,671.3448)"><path
             d="m 0,0 c 14.212,24.615 46.217,39.779 74.64,39.779 v 0 c 28.424,0 60.429,-15.164 74.641,-39.779 v 0 c 7.106,-12.308 16.4,-35.988 16.4,-49.724 0,-13.735 -9.294,-37.415 -16.4,-49.723 -14.212,-24.615 -46.217,-39.779 -74.641,-39.779 v 0 c -28.423,0 -60.428,15.164 -74.64,39.779 v 0 c -7.106,12.308 -16.4,35.988 -16.4,49.724 0,13.735 9.294,37.415 16.4,49.723"
             style="fill:#3b3732;fill-opacity:1;fill-rule:nonzero;stroke:none"
             id="path202" /></g><g
           id="g204"
           transform="translate(537.327,666.3725)"><path
             d="m 0,0 v 0 c 15.988,-27.692 15.988,-61.81 0,-89.502 v 0 c -15.988,-27.692 -45.535,-44.751 -77.511,-44.751 v 0 c -31.976,0 -61.523,17.059 -77.511,44.751 v 0 c -15.988,27.692 -15.988,61.81 0,89.502 v 0 c 15.988,27.692 45.535,44.751 77.511,44.751 v 0 C -45.535,44.751 -15.988,27.692 0,0"
             style="fill:#231f20;fill-opacity:1;fill-rule:nonzero;stroke:none"
             id="path206" /></g></g></g><g
       aria-label="WE ARE NOT A THREAT
PLEASE BE OUR FRIEND"
       transform="scale(1,-1)"
       id="text212"
       style="font-size:35.1646px;font-family:'Eras Bold ITC';-inkscape-font-specification:ErasITC-Bold;fill:#ffffff"><path
         d="m 96.740714,-649.95746 -6.505451,-24.61522 h 4.81755 l 4.43074,19.58668 5.204357,-19.58668 h 4.95821 l 5.0637,19.58668 4.43074,-19.58668 h 4.85272 l -6.68127,24.61522 h -5.34502 l -4.88788,-18.25043 -5.02854,18.25043 z"
         style="font-weight:bold;font-family:'DM Sans';-inkscape-font-specification:'DM Sans Bold'"
         id="path928" /><path
         d="m 129.9361,-649.95746 v -24.61522 h 16.07022 v 3.62196 h -11.56915 v 6.7516 h 10.51421 v 3.51646 h -10.51421 v 7.10325 h 11.56915 v 3.62195 z"
         style="font-weight:bold;font-family:'DM Sans';-inkscape-font-specification:'DM Sans Bold'"
         id="path930" /><path
         d="m 160.31831,-649.95746 9.00213,-24.61522 h 5.06371 l 9.00214,24.61522 h -4.78239 l -1.96922,-5.69666 h -9.59993 l -2.00439,5.69666 z m 7.9472,-9.21312 h 7.13841 l -3.58679,-10.2329 z"
         style="font-weight:bold;font-family:'DM Sans';-inkscape-font-specification:'DM Sans Bold'"
         id="path932" /><path
         d="m 190.52471,-649.95746 v -24.61522 h 9.0373 q 2.95383,0 4.85271,1.01977 1.93406,0.98461 2.8835,2.70768 0.94945,1.6879 0.94945,3.76261 0,2.25054 -1.1956,4.11426 -1.16043,1.86372 -3.65712,2.70767 l 5.09887,10.30323 h -5.1692 l -4.5714,-9.70543 h -3.72744 v 9.70543 z m 4.50107,-13.0109 h 4.25491 q 2.25054,0 3.30548,-1.0901 1.05493,-1.09011 1.05493,-2.8835 0,-1.75823 -1.05493,-2.81317 -1.01978,-1.05494 -3.34064,-1.05494 h -4.21975 z"
         style="font-weight:bold;font-family:'DM Sans';-inkscape-font-specification:'DM Sans Bold'"
         id="path934" /><path
         d="m 215.1751,-649.95746 v -24.61522 h 16.07022 v 3.62196 h -11.56915 v 6.7516 h 10.51421 v 3.51646 h -10.51421 v 7.10325 h 11.56915 v 3.62195 z"
         style="font-weight:bold;font-family:'DM Sans';-inkscape-font-specification:'DM Sans Bold'"
         id="path936" /><path
         d="m 247.13971,-649.95746 v -24.61522 h 4.50107 l 11.56916,17.33615 v -17.33615 h 4.50106 v 24.61522 h -4.50106 l -11.56916,-17.30098 v 17.30098 z"
         style="font-weight:bold;font-family:'DM Sans';-inkscape-font-specification:'DM Sans Bold'"
         id="path938" /><path
         d="m 287.54383,-649.53548 q -3.69228,0 -6.47028,-1.61757 -2.74284,-1.61758 -4.32525,-4.46591 -1.54724,-2.8835 -1.54724,-6.64611 0,-3.76261 1.54724,-6.61094 1.58241,-2.8835 4.32525,-4.50107 2.778,-1.61757 6.47028,-1.61757 3.65712,0 6.43513,1.61757 2.778,1.61757 4.32524,4.50107 1.54724,2.84833 1.54724,6.61094 0,3.76261 -1.54724,6.64611 -1.54724,2.84833 -4.32524,4.46591 -2.77801,1.61757 -6.43513,1.61757 z m 0,-4.04393 q 3.51646,0 5.59118,-2.32087 2.10987,-2.32086 2.10987,-6.36479 0,-4.04393 -2.10987,-6.36479 -2.07472,-2.32086 -5.59118,-2.32086 -3.51646,0 -5.62633,2.32086 -2.10988,2.32086 -2.10988,6.36479 0,4.04393 2.10988,6.36479 2.10987,2.32087 5.62633,2.32087 z"
         style="font-weight:bold;font-family:'DM Sans';-inkscape-font-specification:'DM Sans Bold'"
         id="path940" /><path
         d="m 312.19422,-649.95746 v -20.99326 h -7.17358 v -3.62196 h 18.88339 v 3.62196 h -7.20874 v 20.99326 z"
         style="font-weight:bold;font-family:'DM Sans';-inkscape-font-specification:'DM Sans Bold'"
         id="path942" /><path
         d="m 336.00065,-649.95746 9.00214,-24.61522 h 5.0637 l 9.00214,24.61522 h -4.78239 l -1.96922,-5.69666 h -9.59993 l -2.00438,5.69666 z m 7.9472,-9.21312 h 7.13841 l -3.58679,-10.2329 z"
         style="font-weight:bold;font-family:'DM Sans';-inkscape-font-specification:'DM Sans Bold'"
         id="path944" /><path
         d="m 380.73002,-649.95746 v -20.99326 h -7.17358 v -3.62196 h 18.88339 v 3.62196 h -7.20874 v 20.99326 z"
         style="font-weight:bold;font-family:'DM Sans';-inkscape-font-specification:'DM Sans Bold'"
         id="path946" /><path
         d="m 397.32772,-649.95746 v -24.61522 h 4.50107 v 10.2329 h 11.04168 v -10.2329 h 4.50107 v 24.61522 h -4.50107 v -10.7252 h -11.04168 v 10.7252 z"
         style="font-weight:bold;font-family:'DM Sans';-inkscape-font-specification:'DM Sans Bold'"
         id="path948" /><path
         d="m 426.09236,-649.95746 v -24.61522 h 9.03731 q 2.95382,0 4.85271,1.01977 1.93405,0.98461 2.8835,2.70768 0.94944,1.6879 0.94944,3.76261 0,2.25054 -1.19559,4.11426 -1.16043,1.86372 -3.65712,2.70767 l 5.09887,10.30323 h -5.1692 l -4.5714,-9.70543 h -3.72745 v 9.70543 z m 4.50107,-13.0109 h 4.25492 q 2.25053,0 3.30547,-1.0901 1.05494,-1.09011 1.05494,-2.8835 0,-1.75823 -1.05494,-2.81317 -1.01977,-1.05494 -3.34063,-1.05494 h -4.21976 z"
         style="font-weight:bold;font-family:'DM Sans';-inkscape-font-specification:'DM Sans Bold'"
         id="path950" /><path
         d="m 450.74272,-649.95746 v -24.61522 h 16.07023 v 3.62196 h -11.56916 v 6.7516 h 10.51422 v 3.51646 h -10.51422 v 7.10325 h 11.56916 v 3.62195 z"
         style="font-weight:bold;font-family:'DM Sans';-inkscape-font-specification:'DM Sans Bold'"
         id="path952" /><path
         d="m 472.33381,-649.95746 9.00214,-24.61522 h 5.0637 l 9.00214,24.61522 h -4.78239 l -1.96922,-5.69666 h -9.59993 l -2.00438,5.69666 z m 7.9472,-9.21312 h 7.13841 l -3.58679,-10.2329 z"
         style="font-weight:bold;font-family:'DM Sans';-inkscape-font-specification:'DM Sans Bold'"
         id="path954" /><path
         d="m 508.27201,-649.95746 v -20.99326 h -7.17358 v -3.62196 h 18.88339 v 3.62196 h -7.20874 v 20.99326 z"
         style="font-weight:bold;font-family:'DM Sans';-inkscape-font-specification:'DM Sans Bold'"
         id="path956" /><path
         d="m 92.380306,-607.75995 v -24.61522 h 9.107634 q 2.95382,0 4.88788,0.98461 1.93405,0.98461 2.88349,2.70767 0.94945,1.72307 0.94945,3.86811 0,2.03955 -0.91428,3.76261 -0.91428,1.6879 -2.84833,2.74284 -1.93406,1.01977 -4.95821,1.01977 h -4.606565 v 9.52961 z m 4.501069,-13.18672 h 4.325245 q 2.35603,0 3.3758,-1.01978 1.05494,-1.05494 1.05494,-2.84833 0,-1.82856 -1.05494,-2.84833 -1.01977,-1.05494 -3.3758,-1.05494 h -4.325245 z"
         style="font-weight:bold;font-family:'DM Sans';-inkscape-font-specification:'DM Sans Bold'"
         id="path958" /><path
         d="m 114.81533,-607.75995 v -24.61522 h 4.50106 v 21.09876 h 10.90103 v 3.51646 z"
         style="font-weight:bold;font-family:'DM Sans';-inkscape-font-specification:'DM Sans Bold'"
         id="path960" /><path
         d="m 135.42177,-607.75995 v -24.61522 h 16.07022 v 3.62195 h -11.56915 v 6.75161 h 10.51422 v 3.51646 h -10.51422 v 7.10325 h 11.56915 v 3.62195 z"
         style="font-weight:bold;font-family:'DM Sans';-inkscape-font-specification:'DM Sans Bold'"
         id="path962" /><path
         d="m 157.01284,-607.75995 9.00214,-24.61522 h 5.0637 l 9.00214,24.61522 h -4.78239 l -1.96921,-5.69666 h -9.59994 l -2.00438,5.69666 z m 7.9472,-9.21312 h 7.13842 l -3.58679,-10.2329 z"
         style="font-weight:bold;font-family:'DM Sans';-inkscape-font-specification:'DM Sans Bold'"
         id="path964" /><path
         d="m 195.62357,-607.33797 q -2.70768,0 -4.78239,-0.91428 -2.07471,-0.94945 -3.27031,-2.67251 -1.19559,-1.75823 -1.23076,-4.25492 h 4.74722 q 0.0703,1.72307 1.23076,2.91866 1.1956,1.16043 3.27031,1.16043 1.7934,0 2.84833,-0.84395 1.05494,-0.87911 1.05494,-2.32086 0,-1.51208 -0.94944,-2.35603 -0.91428,-0.84395 -2.46152,-1.37142 -1.54725,-0.52747 -3.30548,-1.12526 -2.84833,-0.98461 -4.36041,-2.53186 -1.47691,-1.54724 -1.47691,-4.11425 -0.0352,-2.18021 1.01977,-3.72745 1.09011,-1.58241 2.95383,-2.42636 1.86372,-0.87911 4.29008,-0.87911 2.46152,0 4.32525,0.87911 1.89888,0.87912 2.95382,2.46152 1.09011,1.58241 1.16043,3.76262 h -4.81755 q -0.0352,-1.3011 -1.01977,-2.2857 -0.94944,-1.01978 -2.67251,-1.01978 -1.47691,-0.0352 -2.49669,0.73846 -0.9846,0.73846 -0.9846,2.1802 0,1.23077 0.77362,1.96922 0.77362,0.70329 2.10987,1.1956 1.33626,0.4923 3.05932,1.05494 1.82856,0.63296 3.34064,1.47691 1.51208,0.84395 2.42636,2.25053 0.91428,1.37142 0.91428,3.55163 0,1.93405 -0.98461,3.58679 -0.98461,1.65273 -2.91866,2.67251 -1.93406,0.98461 -4.74722,0.98461 z"
         style="font-weight:bold;font-family:'DM Sans';-inkscape-font-specification:'DM Sans Bold'"
         id="path966" /><path
         d="m 206.66527,-607.75995 v -24.61522 h 16.07022 v 3.62195 h -11.56915 v 6.75161 h 10.51422 v 3.51646 h -10.51422 v 7.10325 h 11.56915 v 3.62195 z"
         style="font-weight:bold;font-family:'DM Sans';-inkscape-font-specification:'DM Sans Bold'"
         id="path968" /><path
         d="m 238.62989,-607.75995 v -24.61522 h 9.88125 q 3.83294,0 5.83732,1.7934 2.03955,1.75823 2.03955,4.53623 0,2.32086 -1.26593,3.72745 -1.23076,1.37142 -3.02415,1.86372 2.10987,0.42198 3.48129,2.10988 1.37142,1.65273 1.37142,3.8681 0,2.91866 -2.10987,4.81755 -2.10988,1.89889 -5.97799,1.89889 z m 4.50106,-14.27683 h 4.71206 q 1.89889,0 2.91866,-0.87911 1.01978,-0.87912 1.01978,-2.49669 0,-1.54724 -1.01978,-2.42636 -0.98461,-0.91428 -2.98899,-0.91428 h -4.64173 z m 0,10.61971 h 5.02854 q 2.00438,0 3.09449,-0.91428 1.12526,-0.94944 1.12526,-2.63734 0,-1.72307 -1.16043,-2.70768 -1.16043,-0.9846 -3.12965,-0.9846 h -4.95821 z"
         style="font-weight:bold;font-family:'DM Sans';-inkscape-font-specification:'DM Sans Bold'"
         id="path970" /><path
         d="m 263.56157,-607.75995 v -24.61522 h 16.07022 v 3.62195 h -11.56915 v 6.75161 h 10.51422 v 3.51646 h -10.51422 v 7.10325 h 11.56915 v 3.62195 z"
         style="font-weight:bold;font-family:'DM Sans';-inkscape-font-specification:'DM Sans Bold'"
         id="path972" /><path
         d="m 307.06019,-607.33797 q -3.69228,0 -6.47028,-1.61758 -2.74284,-1.61757 -4.32525,-4.4659 -1.54724,-2.8835 -1.54724,-6.64611 0,-3.76261 1.54724,-6.61094 1.58241,-2.8835 4.32525,-4.50107 2.778,-1.61757 6.47028,-1.61757 3.65712,0 6.43512,1.61757 2.77801,1.61757 4.32525,4.50107 1.54724,2.84833 1.54724,6.61094 0,3.76261 -1.54724,6.64611 -1.54724,2.84833 -4.32525,4.4659 -2.778,1.61758 -6.43512,1.61758 z m 0,-4.04393 q 3.51646,0 5.59117,-2.32087 2.10988,-2.32086 2.10988,-6.36479 0,-4.04393 -2.10988,-6.36479 -2.07471,-2.32087 -5.59117,-2.32087 -3.51646,0 -5.62633,2.32087 -2.10988,2.32086 -2.10988,6.36479 0,4.04393 2.10988,6.36479 2.10987,2.32087 5.62633,2.32087 z"
         style="font-weight:bold;font-family:'DM Sans';-inkscape-font-specification:'DM Sans Bold'"
         id="path974" /><path
         d="m 335.47319,-607.33797 q -2.70767,0 -4.88788,-1.05494 -2.1802,-1.0901 -3.4813,-3.27031 -1.26592,-2.1802 -1.26592,-5.52084 v -15.19111 h 4.50107 v 15.22627 q 0,2.8835 1.37142,4.29008 1.40658,1.40659 3.8681,1.40659 2.42636,0 3.83295,-1.40659 1.40658,-1.40658 1.40658,-4.29008 v -15.22627 h 4.50107 v 15.19111 q 0,3.34064 -1.33626,5.52084 -1.33625,2.18021 -3.58679,3.27031 -2.21537,1.05494 -4.92304,1.05494 z"
         style="font-weight:bold;font-family:'DM Sans';-inkscape-font-specification:'DM Sans Bold'"
         id="path976" /><path
         d="m 353.30162,-607.75995 v -24.61522 h 9.03731 q 2.95382,0 4.85271,1.01977 1.93405,0.98461 2.8835,2.70768 0.94944,1.6879 0.94944,3.76261 0,2.25054 -1.19559,4.11426 -1.16044,1.86372 -3.65712,2.70767 l 5.09886,10.30323 h -5.16919 l -4.5714,-9.70543 h -3.72745 v 9.70543 z m 4.50107,-13.0109 h 4.25492 q 2.25053,0 3.30547,-1.0901 1.05494,-1.09011 1.05494,-2.8835 0,-1.75823 -1.05494,-2.81317 -1.01977,-1.05494 -3.34064,-1.05494 h -4.21975 z"
         style="font-weight:bold;font-family:'DM Sans';-inkscape-font-specification:'DM Sans Bold'"
         id="path978" /><path
         d="m 386.74315,-607.75995 v -24.61522 h 15.8944 v 3.62195 h -11.39333 v 6.89227 h 9.21313 v 3.55162 h -9.21313 v 10.54938 z"
         style="font-weight:bold;font-family:'DM Sans';-inkscape-font-specification:'DM Sans Bold'"
         id="path980" /><path
         d="m 408.33422,-607.75995 v -24.61522 h 9.0373 q 2.95383,0 4.85271,1.01977 1.93406,0.98461 2.8835,2.70768 0.94945,1.6879 0.94945,3.76261 0,2.25054 -1.1956,4.11426 -1.16043,1.86372 -3.65712,2.70767 l 5.09887,10.30323 h -5.1692 l -4.5714,-9.70543 h -3.72744 v 9.70543 z m 4.50107,-13.0109 h 4.25491 q 2.25054,0 3.30547,-1.0901 1.05494,-1.09011 1.05494,-2.8835 0,-1.75823 -1.05494,-2.81317 -1.01977,-1.05494 -3.34063,-1.05494 h -4.21975 z"
         style="font-weight:bold;font-family:'DM Sans';-inkscape-font-specification:'DM Sans Bold'"
         id="path982" /><path
         d="m 432.98461,-607.75995 v -24.61522 h 4.50107 v 24.61522 z"
         style="font-weight:bold;font-family:'DM Sans';-inkscape-font-specification:'DM Sans Bold'"
         id="path984" /><path
         d="m 445.01091,-607.75995 v -24.61522 h 16.07023 v 3.62195 h -11.56916 v 6.75161 h 10.51422 v 3.51646 h -10.51422 v 7.10325 h 11.56916 v 3.62195 z"
         style="font-weight:bold;font-family:'DM Sans';-inkscape-font-specification:'DM Sans Bold'"
         id="path986" /><path
         d="m 468.18438,-607.75995 v -24.61522 h 4.50106 l 11.56916,17.33615 v -17.33615 h 4.50107 v 24.61522 h -4.50107 l -11.56916,-17.30098 v 17.30098 z"
         style="font-weight:bold;font-family:'DM Sans';-inkscape-font-specification:'DM Sans Bold'"
         id="path988" /><path
         d="m 497.05452,-607.75995 v -24.61522 h 8.40434 q 4.32525,0 7.10325,1.54724 2.81317,1.51208 4.14942,4.29008 1.37142,2.74284 1.37142,6.47029 0,3.72745 -1.37142,6.50545 -1.33625,2.74284 -4.14942,4.29008 -2.778,1.51208 -7.10325,1.51208 z m 4.50107,-3.8681 h 3.69228 q 3.09449,0 4.88788,-0.98461 1.7934,-1.01978 2.56702,-2.8835 0.77362,-1.89889 0.77362,-4.5714 0,-2.63734 -0.77362,-4.53623 -0.77362,-1.89889 -2.56702,-2.91866 -1.79339,-1.01978 -4.88788,-1.01978 h -3.69228 z"
         style="font-weight:bold;font-family:'DM Sans';-inkscape-font-specification:'DM Sans Bold'"
         id="path990" /></g></g></svg>
